%TF.GenerationSoftware,KiCad,Pcbnew,8.0.7*%
%TF.CreationDate,2025-01-23T23:10:57+01:00*%
%TF.ProjectId,scd30_esp,73636433-305f-4657-9370-2e6b69636164,rev?*%
%TF.SameCoordinates,Original*%
%TF.FileFunction,Copper,L2,Bot*%
%TF.FilePolarity,Positive*%
%FSLAX46Y46*%
G04 Gerber Fmt 4.6, Leading zero omitted, Abs format (unit mm)*
G04 Created by KiCad (PCBNEW 8.0.7) date 2025-01-23 23:10:57*
%MOMM*%
%LPD*%
G01*
G04 APERTURE LIST*
G04 Aperture macros list*
%AMRoundRect*
0 Rectangle with rounded corners*
0 $1 Rounding radius*
0 $2 $3 $4 $5 $6 $7 $8 $9 X,Y pos of 4 corners*
0 Add a 4 corners polygon primitive as box body*
4,1,4,$2,$3,$4,$5,$6,$7,$8,$9,$2,$3,0*
0 Add four circle primitives for the rounded corners*
1,1,$1+$1,$2,$3*
1,1,$1+$1,$4,$5*
1,1,$1+$1,$6,$7*
1,1,$1+$1,$8,$9*
0 Add four rect primitives between the rounded corners*
20,1,$1+$1,$2,$3,$4,$5,0*
20,1,$1+$1,$4,$5,$6,$7,0*
20,1,$1+$1,$6,$7,$8,$9,0*
20,1,$1+$1,$8,$9,$2,$3,0*%
G04 Aperture macros list end*
%TA.AperFunction,ComponentPad*%
%ADD10R,1.700000X1.700000*%
%TD*%
%TA.AperFunction,ComponentPad*%
%ADD11O,1.700000X1.700000*%
%TD*%
%TA.AperFunction,ComponentPad*%
%ADD12O,1.000000X2.100000*%
%TD*%
%TA.AperFunction,ComponentPad*%
%ADD13O,1.000000X1.600000*%
%TD*%
%TA.AperFunction,SMDPad,CuDef*%
%ADD14C,1.000000*%
%TD*%
%TA.AperFunction,SMDPad,CuDef*%
%ADD15R,1.450000X1.000000*%
%TD*%
%TA.AperFunction,SMDPad,CuDef*%
%ADD16RoundRect,0.200000X-0.200000X-0.275000X0.200000X-0.275000X0.200000X0.275000X-0.200000X0.275000X0*%
%TD*%
%TA.AperFunction,SMDPad,CuDef*%
%ADD17RoundRect,0.218750X-0.218750X-0.256250X0.218750X-0.256250X0.218750X0.256250X-0.218750X0.256250X0*%
%TD*%
%TA.AperFunction,ViaPad*%
%ADD18C,0.600000*%
%TD*%
%TA.AperFunction,Conductor*%
%ADD19C,0.400000*%
%TD*%
%TA.AperFunction,Conductor*%
%ADD20C,0.200000*%
%TD*%
%TA.AperFunction,Conductor*%
%ADD21C,0.600000*%
%TD*%
G04 APERTURE END LIST*
D10*
%TO.P,J1,1,Pin_1*%
%TO.N,+3V3*%
X166925000Y-79400000D03*
D11*
%TO.P,J1,2,Pin_2*%
%TO.N,GND*%
X164385000Y-79400000D03*
%TO.P,J1,3,Pin_3*%
%TO.N,/SCL*%
X161845000Y-79400000D03*
%TO.P,J1,4,Pin_4*%
%TO.N,/SDA*%
X159305000Y-79400000D03*
%TO.P,J1,5,Pin_5*%
%TO.N,/RDY*%
X156765000Y-79400000D03*
%TO.P,J1,6,Pin_6*%
%TO.N,/PWM*%
X154225000Y-79400000D03*
%TO.P,J1,7,Pin_7*%
%TO.N,/SEL*%
X151685000Y-79400000D03*
%TD*%
D12*
%TO.P,J2,S1,SHIELD*%
%TO.N,GND*%
X130255000Y-110870000D03*
D13*
X130255000Y-115050000D03*
D12*
X138895000Y-110870000D03*
D13*
X138895000Y-115050000D03*
%TD*%
D14*
%TO.P,TP1,1,1*%
%TO.N,/TOUCH*%
X139800000Y-91900000D03*
%TD*%
D15*
%TO.P,SW1,1,A*%
%TO.N,/BTN*%
X160600000Y-113850000D03*
X155450000Y-113850000D03*
%TO.P,SW1,2,B*%
%TO.N,GND*%
X160600000Y-115550000D03*
X155450000Y-115550000D03*
%TD*%
D16*
%TO.P,R17,1*%
%TO.N,Net-(D7-A)*%
X114975000Y-79700000D03*
%TO.P,R17,2*%
%TO.N,/status_led*%
X116625000Y-79700000D03*
%TD*%
D17*
%TO.P,D7,1,K*%
%TO.N,GND*%
X111812500Y-79700000D03*
%TO.P,D7,2,A*%
%TO.N,Net-(D7-A)*%
X113387500Y-79700000D03*
%TD*%
D18*
%TO.N,+3V3*%
X151300000Y-107100000D03*
X118150000Y-99100000D03*
X136500000Y-98500000D03*
X161900000Y-96800000D03*
X113200000Y-107100000D03*
X136500000Y-100200000D03*
X112300000Y-96100000D03*
X167500000Y-86400000D03*
%TO.N,GND*%
X126800000Y-95000000D03*
X131650000Y-106250000D03*
X156700000Y-90200000D03*
X160200000Y-108200000D03*
X160200000Y-109200000D03*
X156900000Y-104600000D03*
X133500000Y-112650000D03*
X141300000Y-103300000D03*
X128400000Y-116200000D03*
X119200000Y-107900000D03*
X145550000Y-106300000D03*
X125250000Y-106050000D03*
X132600000Y-101450000D03*
X115100000Y-106300000D03*
X159700000Y-95900000D03*
X114700000Y-111400000D03*
X160600000Y-80300000D03*
X111050000Y-81600000D03*
X116100000Y-110600000D03*
X151300000Y-90700000D03*
X129300000Y-80500000D03*
X121600000Y-106300000D03*
X125250000Y-103300000D03*
X111200000Y-105700000D03*
X130900000Y-84000000D03*
X151700000Y-104100000D03*
X139200000Y-79800000D03*
X118770000Y-88800000D03*
X140200000Y-84000000D03*
X128250000Y-101750000D03*
X136650000Y-114750000D03*
X117370000Y-88800000D03*
X127600000Y-107900000D03*
X132400000Y-114750000D03*
X151650000Y-116200000D03*
X116000000Y-82700000D03*
X153750000Y-114600000D03*
X154200000Y-105400000D03*
X128900000Y-111700000D03*
X135900000Y-84000000D03*
X120170000Y-91600000D03*
X111050000Y-95700000D03*
X164300000Y-89200000D03*
X118770000Y-91600000D03*
X121200000Y-83400000D03*
X118770000Y-90200000D03*
X114400000Y-107900000D03*
X115700000Y-99000000D03*
X122600000Y-104800000D03*
X122800000Y-85700000D03*
X114000000Y-99700000D03*
X118800000Y-85600000D03*
X128400000Y-115000000D03*
X120170000Y-88800000D03*
X158000000Y-115750000D03*
X127300000Y-86000000D03*
X159700000Y-87200000D03*
X135400000Y-80100000D03*
X165100000Y-99300000D03*
X127400000Y-84100000D03*
X163500000Y-104600000D03*
X157800000Y-108200000D03*
X119200000Y-99000000D03*
X110400000Y-78300000D03*
X167200000Y-96100000D03*
X111800000Y-78200000D03*
X155100000Y-87400000D03*
X127700000Y-106300000D03*
X119300000Y-95000000D03*
X162500000Y-107500000D03*
X121700000Y-107900000D03*
X127300000Y-91100000D03*
X117000000Y-114300000D03*
X167100000Y-109000000D03*
X141400000Y-97300000D03*
X160200000Y-106800000D03*
X137200000Y-101700000D03*
X132700000Y-111400000D03*
X125300000Y-116300000D03*
X113200000Y-105200000D03*
X119400000Y-106100000D03*
X162550000Y-116300000D03*
X141100000Y-108750000D03*
X153700000Y-100800000D03*
X151900000Y-110900000D03*
X150400000Y-108650000D03*
X112400000Y-114500000D03*
X137200000Y-105400000D03*
X167000000Y-105900000D03*
X120000000Y-110300000D03*
X111050000Y-90900000D03*
X110200000Y-111400000D03*
X151900000Y-95800000D03*
X126200000Y-110100000D03*
X167200000Y-97500000D03*
X113600000Y-102500000D03*
X120170000Y-90200000D03*
X136400000Y-112650000D03*
X154900000Y-99400000D03*
X152200000Y-113100000D03*
X112800000Y-81300000D03*
X162600000Y-94900000D03*
X111050000Y-87000000D03*
X111400000Y-102500000D03*
X129400000Y-98100000D03*
X166000000Y-89200000D03*
X165100000Y-104200000D03*
X145900000Y-83900000D03*
X167200000Y-101200000D03*
X111500000Y-113600000D03*
X115000000Y-114500000D03*
X159000000Y-97800000D03*
X164300000Y-102200000D03*
X153900000Y-113100000D03*
X153800000Y-110800000D03*
X152150000Y-114500000D03*
X111050000Y-83800000D03*
X166000000Y-102200000D03*
X159900000Y-104600000D03*
X150400000Y-106300000D03*
X132700000Y-96100000D03*
X159700000Y-90600000D03*
X164900000Y-108000000D03*
X160600000Y-88800000D03*
X136500000Y-111400000D03*
X157100000Y-113400000D03*
X114200000Y-95000000D03*
X117800000Y-110400000D03*
X117000000Y-109100000D03*
X165100000Y-87200000D03*
X117370000Y-90200000D03*
X115800000Y-102500000D03*
X130900000Y-80400000D03*
X120000000Y-116300000D03*
X135300000Y-106400000D03*
X117370000Y-91600000D03*
X145550000Y-108600000D03*
%TO.N,VBUS*%
X162440000Y-109160000D03*
X132125000Y-107855000D03*
X157800000Y-107300000D03*
X132900000Y-107855000D03*
X136200000Y-107855000D03*
X137000000Y-107855000D03*
%TO.N,/MCU_RX+*%
X116200000Y-81300000D03*
X131800000Y-85800000D03*
%TO.N,/MCU_TX-*%
X130900000Y-85800000D03*
X114900000Y-81300000D03*
%TO.N,/D-*%
X133700000Y-111450000D03*
X135000000Y-111450000D03*
%TO.N,/D+*%
X135700000Y-112150000D03*
X134300000Y-112150000D03*
%TO.N,Net-(Q3A-S)*%
X137600000Y-98900000D03*
X137600000Y-100800000D03*
%TO.N,/Waveshare E-ink/VGL*%
X161681250Y-101481250D03*
X156400000Y-98700000D03*
%TO.N,/Waveshare E-ink/VGH*%
X156800000Y-100000000D03*
X158581250Y-101581250D03*
%TO.N,/~{DISP_CS}*%
X165600000Y-95600000D03*
X122500000Y-81200000D03*
%TO.N,/Waveshare E-ink/GDR*%
X158500000Y-88700000D03*
X155100000Y-90200000D03*
%TO.N,/Waveshare E-ink/RESE*%
X159000000Y-89400000D03*
X153443750Y-92881250D03*
%TO.N,/SCLK*%
X165100000Y-96200000D03*
X121300000Y-81200000D03*
%TO.N,/~{DISP_RST}*%
X125000000Y-81200000D03*
X165600000Y-94000000D03*
%TO.N,/~{DISP_D{slash}C}*%
X165600000Y-94800000D03*
X123800000Y-81200000D03*
%TO.N,/DISP_BUSY*%
X165600000Y-93200000D03*
X126300000Y-81200000D03*
%TO.N,/QWIIC_SCL*%
X125000000Y-101200000D03*
X159200000Y-112900000D03*
X122350000Y-101200000D03*
X124400000Y-107900000D03*
%TO.N,/QWIIC_SDA*%
X158500000Y-113300000D03*
X123150000Y-100050000D03*
X123600000Y-107900000D03*
X121300000Y-101000000D03*
%TO.N,/TOUCH*%
X121200000Y-99100000D03*
%TO.N,/IR_RX*%
X125200000Y-107900000D03*
X148050000Y-110050000D03*
%TO.N,/DISP_SDA*%
X120000000Y-81200000D03*
X162600000Y-95900000D03*
%TO.N,/BTN*%
X122800000Y-107900000D03*
%TO.N,/IR_TX_L*%
X149800000Y-78500000D03*
X148000000Y-80500000D03*
%TO.N,/status_led*%
X126400000Y-84100000D03*
%TD*%
D19*
%TO.N,+3V3*%
X161975000Y-103175000D02*
X154175000Y-103175000D01*
X167000000Y-100300000D02*
X164850000Y-100300000D01*
D20*
X117350000Y-98300000D02*
X112300000Y-98300000D01*
D19*
X151300000Y-107100000D02*
X114700000Y-107100000D01*
X168000000Y-99300000D02*
X167000000Y-100300000D01*
X167500000Y-86400000D02*
X168000000Y-86400000D01*
D20*
X126200000Y-102000000D02*
X119300000Y-102000000D01*
D19*
X168000000Y-86400000D02*
X168000000Y-96800000D01*
X152350000Y-106050000D02*
X151300000Y-107100000D01*
D20*
X136500000Y-98500000D02*
X136500000Y-100200000D01*
D19*
X112300000Y-98300000D02*
X112300000Y-96100000D01*
X166925000Y-81725000D02*
X168000000Y-82800000D01*
D20*
X161900000Y-96800000D02*
X168000000Y-96800000D01*
D19*
X152350000Y-105000000D02*
X152350000Y-106050000D01*
X168000000Y-82800000D02*
X168000000Y-86400000D01*
D20*
X118150000Y-100850000D02*
X118150000Y-99100000D01*
X134400000Y-100200000D02*
X128000000Y-100200000D01*
D19*
X168000000Y-96800000D02*
X168000000Y-99300000D01*
D20*
X119300000Y-102000000D02*
X118150000Y-100850000D01*
D19*
X114700000Y-107100000D02*
X113200000Y-107100000D01*
D20*
X136500000Y-100200000D02*
X134400000Y-100200000D01*
D19*
X112300000Y-106200000D02*
X112300000Y-98300000D01*
X113200000Y-107100000D02*
X112300000Y-106200000D01*
X166925000Y-79400000D02*
X166925000Y-81725000D01*
X154175000Y-103175000D02*
X152350000Y-105000000D01*
X164850000Y-100300000D02*
X161975000Y-103175000D01*
D20*
X118150000Y-99100000D02*
X117350000Y-98300000D01*
X128000000Y-100200000D02*
X126200000Y-102000000D01*
D19*
%TO.N,VBUS*%
X156145000Y-107855000D02*
X156255000Y-107855000D01*
X156600000Y-108200000D02*
X158500000Y-110100000D01*
X157800000Y-107300000D02*
X157500000Y-107300000D01*
X156255000Y-107855000D02*
X156600000Y-108200000D01*
X158500000Y-110100000D02*
X161500000Y-110100000D01*
X137000000Y-107855000D02*
X156145000Y-107855000D01*
D21*
X132125000Y-107855000D02*
X137000000Y-107855000D01*
D19*
X157500000Y-107300000D02*
X156600000Y-108200000D01*
X161500000Y-110100000D02*
X162440000Y-109160000D01*
D20*
%TO.N,/MCU_RX+*%
X126200000Y-84800000D02*
X130800000Y-84800000D01*
X119400000Y-84500000D02*
X125900000Y-84500000D01*
X125900000Y-84500000D02*
X126200000Y-84800000D01*
X130800000Y-84800000D02*
X131800000Y-85800000D01*
X116200000Y-81300000D02*
X119400000Y-84500000D01*
%TO.N,/MCU_TX-*%
X119200000Y-84900000D02*
X125800000Y-84900000D01*
X114900000Y-81300000D02*
X115600000Y-82000000D01*
X130300000Y-85200000D02*
X130900000Y-85800000D01*
X116300000Y-82000000D02*
X119200000Y-84900000D01*
X125800000Y-84900000D02*
X126100000Y-85200000D01*
X126100000Y-85200000D02*
X130300000Y-85200000D01*
X115600000Y-82000000D02*
X116300000Y-82000000D01*
%TO.N,/D-*%
X135000000Y-111450000D02*
X133700000Y-111450000D01*
%TO.N,/D+*%
X134300000Y-112150000D02*
X135700000Y-112150000D01*
%TO.N,Net-(Q3A-S)*%
X137600000Y-98900000D02*
X137600000Y-100800000D01*
%TO.N,/Waveshare E-ink/VGL*%
X157200000Y-98700000D02*
X159981250Y-101481250D01*
X159981250Y-101481250D02*
X161681250Y-101481250D01*
X156400000Y-98700000D02*
X157200000Y-98700000D01*
%TO.N,/Waveshare E-ink/VGH*%
X156800000Y-100000000D02*
X157000000Y-100000000D01*
X157000000Y-100000000D02*
X158581250Y-101581250D01*
%TO.N,/~{DISP_CS}*%
X123900000Y-82600000D02*
X122500000Y-81200000D01*
X127400000Y-82400000D02*
X127200000Y-82600000D01*
X162400000Y-83700000D02*
X161100000Y-82400000D01*
X127200000Y-82600000D02*
X123900000Y-82600000D01*
X165600000Y-95600000D02*
X164200000Y-94200000D01*
X161100000Y-82400000D02*
X127400000Y-82400000D01*
X162400000Y-89894974D02*
X162400000Y-83700000D01*
X164200000Y-94200000D02*
X164200000Y-91694974D01*
X164200000Y-91694974D02*
X162400000Y-89894974D01*
%TO.N,/Waveshare E-ink/GDR*%
X155462500Y-91000000D02*
X154962500Y-90500000D01*
X158200000Y-89600000D02*
X156800000Y-91000000D01*
X158200000Y-89000000D02*
X158200000Y-89600000D01*
X158500000Y-88700000D02*
X158200000Y-89000000D01*
X156800000Y-91000000D02*
X155462500Y-91000000D01*
%TO.N,/Waveshare E-ink/RESE*%
X155518750Y-92881250D02*
X153443750Y-92881250D01*
X159000000Y-89400000D02*
X155518750Y-92881250D01*
%TO.N,/SCLK*%
X163800000Y-94900000D02*
X163800000Y-91800000D01*
X163800000Y-91800000D02*
X162000000Y-90000000D01*
X127500000Y-83000000D02*
X127700000Y-82800000D01*
X121300000Y-81200000D02*
X123100000Y-83000000D01*
X165100000Y-96200000D02*
X163800000Y-94900000D01*
X127700000Y-82800000D02*
X161005026Y-82800000D01*
X162000000Y-83794974D02*
X162000000Y-84200000D01*
X162000000Y-90000000D02*
X162000000Y-84200000D01*
X123100000Y-83000000D02*
X127500000Y-83000000D01*
X161005026Y-82800000D02*
X162000000Y-83794974D01*
%TO.N,/~{DISP_RST}*%
X165500000Y-94000000D02*
X165000000Y-93500000D01*
X125000000Y-81300000D02*
X125000000Y-81200000D01*
X125500000Y-81800000D02*
X125000000Y-81300000D01*
X149000000Y-81600000D02*
X127000000Y-81600000D01*
X165000000Y-91500000D02*
X163200000Y-89700000D01*
X165000000Y-93500000D02*
X165000000Y-91500000D01*
X165600000Y-94000000D02*
X165500000Y-94000000D01*
X127000000Y-81600000D02*
X126800000Y-81800000D01*
X126800000Y-81800000D02*
X125500000Y-81800000D01*
X163200000Y-89700000D02*
X163200000Y-83500000D01*
X163200000Y-83500000D02*
X161300000Y-81600000D01*
X161300000Y-81600000D02*
X149000000Y-81600000D01*
%TO.N,/~{DISP_D{slash}C}*%
X124800000Y-82200000D02*
X123800000Y-81200000D01*
X161200000Y-82000000D02*
X127200000Y-82000000D01*
X127000000Y-82200000D02*
X124800000Y-82200000D01*
X164600000Y-91600000D02*
X162800000Y-89800000D01*
X162800000Y-89800000D02*
X162800000Y-83600000D01*
X162800000Y-83600000D02*
X161200000Y-82000000D01*
X164600000Y-93800000D02*
X164600000Y-91600000D01*
X165600000Y-94800000D02*
X164600000Y-93800000D01*
X127200000Y-82000000D02*
X127000000Y-82200000D01*
%TO.N,/DISP_BUSY*%
X126300000Y-81200000D02*
X161400000Y-81200000D01*
X163600000Y-83400000D02*
X163600000Y-89600000D01*
X165600000Y-91600000D02*
X165600000Y-92000000D01*
X165600000Y-93200000D02*
X165600000Y-92000000D01*
X161400000Y-81200000D02*
X163600000Y-83400000D01*
X163600000Y-89600000D02*
X165600000Y-91600000D01*
%TO.N,/QWIIC_SCL*%
X124400000Y-108000000D02*
X124400000Y-107900000D01*
X140500000Y-114101330D02*
X140199335Y-113800665D01*
X124900000Y-108500000D02*
X124400000Y-108000000D01*
X140500000Y-114700000D02*
X140500000Y-114101330D01*
X137750000Y-113650000D02*
X131400000Y-113650000D01*
X139698669Y-113300000D02*
X138100000Y-113300000D01*
X138100000Y-113300000D02*
X137750000Y-113650000D01*
X141400000Y-115600000D02*
X140500000Y-114700000D01*
X125000000Y-101200000D02*
X122350000Y-101200000D01*
X158300000Y-112000000D02*
X151100000Y-112000000D01*
X126600000Y-108500000D02*
X124900000Y-108500000D01*
X131050000Y-113300000D02*
X128900000Y-113300000D01*
X127800000Y-112200000D02*
X127800000Y-109700000D01*
X128900000Y-113300000D02*
X127800000Y-112200000D01*
X131400000Y-113650000D02*
X131050000Y-113300000D01*
X151100000Y-112000000D02*
X147500000Y-115600000D01*
X140199335Y-113800665D02*
X139698669Y-113300000D01*
X159200000Y-112900000D02*
X158300000Y-112000000D01*
X127800000Y-109700000D02*
X126600000Y-108500000D01*
X147500000Y-115600000D02*
X141400000Y-115600000D01*
%TO.N,/QWIIC_SDA*%
X140150000Y-114850000D02*
X141300000Y-116000000D01*
X141300000Y-116000000D02*
X147594974Y-116000000D01*
X121300000Y-101000000D02*
X122250000Y-100050000D01*
X127400000Y-112300000D02*
X128800000Y-113700000D01*
X128800000Y-113700000D02*
X130950000Y-113700000D01*
X124600000Y-108900000D02*
X126500000Y-108900000D01*
X140150000Y-114250000D02*
X140150000Y-114850000D01*
X147594974Y-116000000D02*
X151197487Y-112397487D01*
X130950000Y-113700000D02*
X131250000Y-114000000D01*
X139600000Y-113700000D02*
X140150000Y-114250000D01*
X137900000Y-114000000D02*
X138200000Y-113700000D01*
X157597487Y-112397487D02*
X151197487Y-112397487D01*
X138200000Y-113700000D02*
X139600000Y-113700000D01*
X131250000Y-114000000D02*
X137900000Y-114000000D01*
X122250000Y-100050000D02*
X123150000Y-100050000D01*
X127400000Y-109800000D02*
X127400000Y-112300000D01*
X158500000Y-113300000D02*
X157597487Y-112397487D01*
X123600000Y-107900000D02*
X124600000Y-108900000D01*
X126500000Y-108900000D02*
X127400000Y-109800000D01*
%TO.N,/TOUCH*%
X131200000Y-99100000D02*
X138400000Y-91900000D01*
X121200000Y-99100000D02*
X131200000Y-99100000D01*
X138400000Y-91900000D02*
X139800000Y-91900000D01*
%TO.N,/IR_RX*%
X128200000Y-112100000D02*
X129050000Y-112950000D01*
X125200000Y-107900000D02*
X126500000Y-107900000D01*
X131300000Y-113050000D02*
X131300000Y-113055026D01*
X128200000Y-109600000D02*
X128200000Y-112100000D01*
X131200000Y-112950000D02*
X131300000Y-113050000D01*
X131300000Y-113055026D02*
X131544974Y-113300000D01*
X141150000Y-110050000D02*
X148050000Y-110050000D01*
X140200000Y-112300000D02*
X140200000Y-111000000D01*
X129050000Y-112950000D02*
X131200000Y-112950000D01*
X131544974Y-113300000D02*
X137600000Y-113300000D01*
X137600000Y-113300000D02*
X137950000Y-112950000D01*
X126500000Y-107900000D02*
X128200000Y-109600000D01*
X137950000Y-112950000D02*
X139550000Y-112950000D01*
X140200000Y-111000000D02*
X141150000Y-110050000D01*
X139550000Y-112950000D02*
X140200000Y-112300000D01*
%TO.N,/DISP_SDA*%
X163400000Y-95100000D02*
X162600000Y-95900000D01*
X163400000Y-93800000D02*
X163400000Y-95100000D01*
X127900000Y-83200000D02*
X147900000Y-83200000D01*
X127700000Y-83400000D02*
X127900000Y-83200000D01*
X161600000Y-90100000D02*
X162600000Y-91100000D01*
X122200000Y-83400000D02*
X127700000Y-83400000D01*
X161600000Y-85400000D02*
X161600000Y-90100000D01*
X163400000Y-91900000D02*
X163400000Y-93800000D01*
X147900000Y-83200000D02*
X160900000Y-83200000D01*
X162600000Y-91100000D02*
X163400000Y-91900000D01*
X160900000Y-83200000D02*
X161600000Y-83900000D01*
X120000000Y-81200000D02*
X122200000Y-83400000D01*
X161600000Y-83900000D02*
X161600000Y-85400000D01*
%TO.N,/BTN*%
X148600000Y-116400000D02*
X151050000Y-113950000D01*
X127000000Y-112400000D02*
X129200000Y-114600000D01*
X129700000Y-116400000D02*
X148600000Y-116400000D01*
X126400000Y-109300000D02*
X127000000Y-109900000D01*
X129200000Y-114600000D02*
X129200000Y-115900000D01*
X122800000Y-107900000D02*
X124200000Y-109300000D01*
X124200000Y-109300000D02*
X126400000Y-109300000D01*
X127000000Y-109900000D02*
X127000000Y-112400000D01*
X155450000Y-113850000D02*
X151150000Y-113850000D01*
X151150000Y-113850000D02*
X151050000Y-113950000D01*
X129200000Y-115900000D02*
X129700000Y-116400000D01*
%TO.N,/IR_TX_L*%
X148000000Y-80300000D02*
X148000000Y-80500000D01*
X149800000Y-78500000D02*
X148000000Y-80300000D01*
%TO.N,/status_led*%
X117000000Y-81600000D02*
X117000000Y-80900000D01*
X116625000Y-80525000D02*
X116625000Y-79700000D01*
X126400000Y-84100000D02*
X119500000Y-84100000D01*
X117000000Y-80900000D02*
X116625000Y-80525000D01*
X119500000Y-84100000D02*
X117000000Y-81600000D01*
%TO.N,Net-(D7-A)*%
X114975000Y-79700000D02*
X113387500Y-79700000D01*
%TD*%
%TA.AperFunction,Conductor*%
%TO.N,GND*%
G36*
X149509058Y-77820185D02*
G01*
X149554813Y-77872989D01*
X149564757Y-77942147D01*
X149535732Y-78005703D01*
X149517510Y-78022871D01*
X149456921Y-78069364D01*
X149407379Y-78107379D01*
X149319137Y-78222377D01*
X149263671Y-78356287D01*
X149263670Y-78356291D01*
X149244750Y-78499999D01*
X149244750Y-78508127D01*
X149241207Y-78508127D01*
X149232869Y-78561180D01*
X149208440Y-78595877D01*
X147847028Y-79957288D01*
X147806800Y-79984168D01*
X147722378Y-80019137D01*
X147722375Y-80019138D01*
X147722375Y-80019139D01*
X147655851Y-80070185D01*
X147607379Y-80107379D01*
X147519137Y-80222377D01*
X147463671Y-80356287D01*
X147463670Y-80356291D01*
X147446598Y-80485967D01*
X147444750Y-80500000D01*
X147463670Y-80643709D01*
X147475980Y-80673429D01*
X147477894Y-80678049D01*
X147485362Y-80747518D01*
X147454086Y-80809997D01*
X147393997Y-80845649D01*
X147363332Y-80849500D01*
X126786092Y-80849500D01*
X126719053Y-80829815D01*
X126699587Y-80811913D01*
X126698372Y-80813129D01*
X126692627Y-80807384D01*
X126692621Y-80807379D01*
X126577625Y-80719139D01*
X126577624Y-80719138D01*
X126577622Y-80719137D01*
X126443712Y-80663671D01*
X126443710Y-80663670D01*
X126443709Y-80663670D01*
X126371854Y-80654210D01*
X126300001Y-80644750D01*
X126299999Y-80644750D01*
X126156291Y-80663670D01*
X126156287Y-80663671D01*
X126022377Y-80719137D01*
X125907379Y-80807379D01*
X125819137Y-80922377D01*
X125764561Y-81054139D01*
X125720720Y-81108543D01*
X125654426Y-81130608D01*
X125586727Y-81113329D01*
X125539116Y-81062192D01*
X125535439Y-81054139D01*
X125480862Y-80922377D01*
X125480861Y-80922376D01*
X125480861Y-80922375D01*
X125392621Y-80807379D01*
X125277625Y-80719139D01*
X125277624Y-80719138D01*
X125277622Y-80719137D01*
X125143712Y-80663671D01*
X125143710Y-80663670D01*
X125143709Y-80663670D01*
X125071854Y-80654210D01*
X125000001Y-80644750D01*
X124999999Y-80644750D01*
X124856291Y-80663670D01*
X124856287Y-80663671D01*
X124722377Y-80719137D01*
X124607379Y-80807379D01*
X124519139Y-80922375D01*
X124514561Y-80933428D01*
X124470719Y-80987831D01*
X124404425Y-81009895D01*
X124336726Y-80992615D01*
X124289116Y-80941478D01*
X124285439Y-80933428D01*
X124280861Y-80922375D01*
X124192621Y-80807379D01*
X124077625Y-80719139D01*
X124077624Y-80719138D01*
X124077622Y-80719137D01*
X123943712Y-80663671D01*
X123943710Y-80663670D01*
X123943709Y-80663670D01*
X123871854Y-80654210D01*
X123800001Y-80644750D01*
X123799999Y-80644750D01*
X123656291Y-80663670D01*
X123656287Y-80663671D01*
X123522377Y-80719137D01*
X123407379Y-80807379D01*
X123319137Y-80922377D01*
X123264561Y-81054139D01*
X123220720Y-81108543D01*
X123154426Y-81130608D01*
X123086727Y-81113329D01*
X123039116Y-81062192D01*
X123035439Y-81054139D01*
X122980862Y-80922377D01*
X122980861Y-80922376D01*
X122980861Y-80922375D01*
X122892621Y-80807379D01*
X122777625Y-80719139D01*
X122777624Y-80719138D01*
X122777622Y-80719137D01*
X122643712Y-80663671D01*
X122643710Y-80663670D01*
X122643709Y-80663670D01*
X122571854Y-80654210D01*
X122500001Y-80644750D01*
X122499999Y-80644750D01*
X122356291Y-80663670D01*
X122356287Y-80663671D01*
X122222377Y-80719137D01*
X122107379Y-80807379D01*
X122019139Y-80922375D01*
X122014561Y-80933428D01*
X121970719Y-80987831D01*
X121904425Y-81009895D01*
X121836726Y-80992615D01*
X121789116Y-80941478D01*
X121785439Y-80933428D01*
X121780861Y-80922375D01*
X121692621Y-80807379D01*
X121577625Y-80719139D01*
X121577624Y-80719138D01*
X121577622Y-80719137D01*
X121443712Y-80663671D01*
X121443710Y-80663670D01*
X121443709Y-80663670D01*
X121371854Y-80654210D01*
X121300001Y-80644750D01*
X121299999Y-80644750D01*
X121156291Y-80663670D01*
X121156287Y-80663671D01*
X121022377Y-80719137D01*
X120907379Y-80807379D01*
X120819137Y-80922377D01*
X120764561Y-81054139D01*
X120720720Y-81108543D01*
X120654426Y-81130608D01*
X120586727Y-81113329D01*
X120539116Y-81062192D01*
X120535439Y-81054139D01*
X120480862Y-80922377D01*
X120480861Y-80922376D01*
X120480861Y-80922375D01*
X120392621Y-80807379D01*
X120277625Y-80719139D01*
X120277624Y-80719138D01*
X120277622Y-80719137D01*
X120143712Y-80663671D01*
X120143710Y-80663670D01*
X120143709Y-80663670D01*
X120071854Y-80654210D01*
X120000001Y-80644750D01*
X119999999Y-80644750D01*
X119856291Y-80663670D01*
X119856287Y-80663671D01*
X119722377Y-80719137D01*
X119607379Y-80807379D01*
X119519137Y-80922377D01*
X119463671Y-81056287D01*
X119463670Y-81056291D01*
X119450505Y-81156291D01*
X119444750Y-81200000D01*
X119457915Y-81300000D01*
X119463670Y-81343708D01*
X119463671Y-81343712D01*
X119519137Y-81477622D01*
X119519138Y-81477624D01*
X119519139Y-81477625D01*
X119607379Y-81592621D01*
X119722375Y-81680861D01*
X119722376Y-81680861D01*
X119722377Y-81680862D01*
X119767013Y-81699350D01*
X119856291Y-81736330D01*
X120000000Y-81755250D01*
X120008129Y-81755250D01*
X120008129Y-81758828D01*
X120060970Y-81767031D01*
X120095878Y-81791560D01*
X121842137Y-83537819D01*
X121875622Y-83599142D01*
X121870638Y-83668834D01*
X121828766Y-83724767D01*
X121763302Y-83749184D01*
X121754456Y-83749500D01*
X119696544Y-83749500D01*
X119629505Y-83729815D01*
X119608863Y-83713181D01*
X117386819Y-81491137D01*
X117353334Y-81429814D01*
X117350500Y-81403456D01*
X117350500Y-80853858D01*
X117350500Y-80853856D01*
X117326614Y-80764712D01*
X117298035Y-80715212D01*
X117280470Y-80684788D01*
X117102712Y-80507030D01*
X117069227Y-80445707D01*
X117074211Y-80376015D01*
X117116083Y-80320082D01*
X117116684Y-80319634D01*
X117147150Y-80297150D01*
X117227793Y-80187882D01*
X117255962Y-80107379D01*
X117272646Y-80059701D01*
X117272646Y-80059699D01*
X117275500Y-80029269D01*
X117275500Y-79370730D01*
X117272646Y-79340300D01*
X117272646Y-79340298D01*
X117227793Y-79212119D01*
X117227792Y-79212117D01*
X117147150Y-79102850D01*
X117037882Y-79022207D01*
X117037880Y-79022206D01*
X116909700Y-78977353D01*
X116879270Y-78974500D01*
X116879266Y-78974500D01*
X116370734Y-78974500D01*
X116370730Y-78974500D01*
X116340300Y-78977353D01*
X116340298Y-78977353D01*
X116212119Y-79022206D01*
X116212117Y-79022207D01*
X116102850Y-79102850D01*
X116022207Y-79212117D01*
X116022206Y-79212119D01*
X115977353Y-79340298D01*
X115977353Y-79340300D01*
X115974500Y-79370730D01*
X115974500Y-80029269D01*
X115977353Y-80059699D01*
X115977353Y-80059701D01*
X116020656Y-80183450D01*
X116022207Y-80187882D01*
X116102850Y-80297150D01*
X116209709Y-80376015D01*
X116219595Y-80383311D01*
X116218137Y-80385285D01*
X116258515Y-80424580D01*
X116274500Y-80485480D01*
X116274500Y-80571144D01*
X116275158Y-80573600D01*
X116280299Y-80592787D01*
X116278634Y-80662636D01*
X116239470Y-80720498D01*
X116176709Y-80747816D01*
X116087567Y-80759552D01*
X116056291Y-80763670D01*
X116056290Y-80763670D01*
X116056287Y-80763671D01*
X115922377Y-80819137D01*
X115807379Y-80907379D01*
X115719137Y-81022377D01*
X115664561Y-81154139D01*
X115620720Y-81208543D01*
X115554426Y-81230608D01*
X115486727Y-81213329D01*
X115439116Y-81162192D01*
X115435439Y-81154139D01*
X115380862Y-81022377D01*
X115380861Y-81022376D01*
X115380861Y-81022375D01*
X115292621Y-80907379D01*
X115177625Y-80819139D01*
X115177624Y-80819138D01*
X115177622Y-80819137D01*
X115043712Y-80763671D01*
X115043710Y-80763670D01*
X115043709Y-80763670D01*
X114971854Y-80754210D01*
X114900001Y-80744750D01*
X114899999Y-80744750D01*
X114756291Y-80763670D01*
X114756287Y-80763671D01*
X114622377Y-80819137D01*
X114507379Y-80907379D01*
X114419137Y-81022377D01*
X114363671Y-81156287D01*
X114363670Y-81156291D01*
X114350986Y-81252637D01*
X114344750Y-81300000D01*
X114358370Y-81403456D01*
X114363670Y-81443708D01*
X114363671Y-81443712D01*
X114419137Y-81577622D01*
X114419138Y-81577624D01*
X114419139Y-81577625D01*
X114507379Y-81692621D01*
X114622375Y-81780861D01*
X114622376Y-81780861D01*
X114622377Y-81780862D01*
X114648205Y-81791560D01*
X114756291Y-81836330D01*
X114900000Y-81855250D01*
X114908129Y-81855250D01*
X114908129Y-81858828D01*
X114960970Y-81867031D01*
X114995878Y-81891560D01*
X115384787Y-82280469D01*
X115452444Y-82319531D01*
X115464712Y-82326614D01*
X115553856Y-82350500D01*
X116103456Y-82350500D01*
X116170495Y-82370185D01*
X116191137Y-82386819D01*
X117558670Y-83754351D01*
X118919531Y-85115212D01*
X118984788Y-85180469D01*
X118984791Y-85180470D01*
X118984794Y-85180473D01*
X119064706Y-85226611D01*
X119064707Y-85226611D01*
X119064712Y-85226614D01*
X119153856Y-85250500D01*
X125603456Y-85250500D01*
X125670495Y-85270185D01*
X125691137Y-85286819D01*
X125884788Y-85480470D01*
X125957370Y-85522375D01*
X125964712Y-85526614D01*
X126053856Y-85550500D01*
X130103456Y-85550500D01*
X130170495Y-85570185D01*
X130191137Y-85586819D01*
X130308440Y-85704122D01*
X130341925Y-85765445D01*
X130343067Y-85791873D01*
X130344750Y-85791873D01*
X130344750Y-85799999D01*
X130344750Y-85800000D01*
X130353132Y-85863670D01*
X130363670Y-85943708D01*
X130363671Y-85943712D01*
X130419137Y-86077622D01*
X130419138Y-86077624D01*
X130419139Y-86077625D01*
X130507379Y-86192621D01*
X130622375Y-86280861D01*
X130756291Y-86336330D01*
X130883280Y-86353048D01*
X130899999Y-86355250D01*
X130900000Y-86355250D01*
X130900001Y-86355250D01*
X130914977Y-86353278D01*
X131043709Y-86336330D01*
X131177625Y-86280861D01*
X131274515Y-86206514D01*
X131339682Y-86181321D01*
X131408127Y-86195359D01*
X131425480Y-86206510D01*
X131522375Y-86280861D01*
X131656291Y-86336330D01*
X131783280Y-86353048D01*
X131799999Y-86355250D01*
X131800000Y-86355250D01*
X131800001Y-86355250D01*
X131814977Y-86353278D01*
X131943709Y-86336330D01*
X132077625Y-86280861D01*
X132192621Y-86192621D01*
X132280861Y-86077625D01*
X132336330Y-85943709D01*
X132355250Y-85800000D01*
X132336330Y-85656291D01*
X132282617Y-85526614D01*
X132280862Y-85522377D01*
X132280861Y-85522376D01*
X132280861Y-85522375D01*
X132192621Y-85407379D01*
X132077625Y-85319139D01*
X132077624Y-85319138D01*
X132077622Y-85319137D01*
X131943712Y-85263671D01*
X131943710Y-85263670D01*
X131943709Y-85263670D01*
X131843675Y-85250500D01*
X131800001Y-85244750D01*
X131791873Y-85244750D01*
X131791873Y-85241243D01*
X131738613Y-85232772D01*
X131704122Y-85208440D01*
X131015213Y-84519531D01*
X131015208Y-84519527D01*
X130935290Y-84473387D01*
X130935289Y-84473386D01*
X130935288Y-84473386D01*
X130846144Y-84449500D01*
X130846143Y-84449500D01*
X127036668Y-84449500D01*
X126969629Y-84429815D01*
X126923874Y-84377011D01*
X126913930Y-84307853D01*
X126922106Y-84278049D01*
X126936330Y-84243709D01*
X126955250Y-84100000D01*
X126936330Y-83956291D01*
X126922105Y-83921950D01*
X126914638Y-83852482D01*
X126945914Y-83790003D01*
X127006003Y-83754351D01*
X127036668Y-83750500D01*
X127746142Y-83750500D01*
X127746144Y-83750500D01*
X127835288Y-83726614D01*
X127915212Y-83680470D01*
X128008863Y-83586819D01*
X128070186Y-83553334D01*
X128096544Y-83550500D01*
X147853856Y-83550500D01*
X160703456Y-83550500D01*
X160770495Y-83570185D01*
X160791137Y-83586819D01*
X161213181Y-84008863D01*
X161246666Y-84070186D01*
X161249500Y-84096544D01*
X161249500Y-90146146D01*
X161257350Y-90175440D01*
X161257350Y-90175442D01*
X161257351Y-90175442D01*
X161273387Y-90235290D01*
X161319527Y-90315208D01*
X161319531Y-90315213D01*
X163013181Y-92008863D01*
X163046666Y-92070186D01*
X163049500Y-92096544D01*
X163049500Y-94903455D01*
X163029815Y-94970494D01*
X163013181Y-94991136D01*
X162695877Y-95308439D01*
X162634554Y-95341924D01*
X162608128Y-95343208D01*
X162608128Y-95344750D01*
X162600000Y-95344750D01*
X162456291Y-95363670D01*
X162456287Y-95363671D01*
X162322377Y-95419137D01*
X162207379Y-95507379D01*
X162119137Y-95622377D01*
X162063671Y-95756287D01*
X162063670Y-95756291D01*
X162044750Y-95900000D01*
X162063670Y-96043709D01*
X162078997Y-96080712D01*
X162086465Y-96150181D01*
X162055189Y-96212660D01*
X161995100Y-96248312D01*
X161948250Y-96251102D01*
X161900002Y-96244750D01*
X161899999Y-96244750D01*
X161756291Y-96263670D01*
X161756287Y-96263671D01*
X161622377Y-96319137D01*
X161507379Y-96407379D01*
X161419137Y-96522377D01*
X161363671Y-96656287D01*
X161363670Y-96656291D01*
X161344750Y-96800000D01*
X161358631Y-96905438D01*
X161363670Y-96943708D01*
X161363671Y-96943712D01*
X161419137Y-97077622D01*
X161419138Y-97077624D01*
X161419139Y-97077625D01*
X161507379Y-97192621D01*
X161622375Y-97280861D01*
X161756291Y-97336330D01*
X161883280Y-97353048D01*
X161899999Y-97355250D01*
X161900000Y-97355250D01*
X161900001Y-97355250D01*
X161914977Y-97353278D01*
X162043709Y-97336330D01*
X162177625Y-97280861D01*
X162292621Y-97192621D01*
X162292623Y-97192617D01*
X162292627Y-97192615D01*
X162298372Y-97186871D01*
X162300888Y-97189387D01*
X162344183Y-97157797D01*
X162386092Y-97150500D01*
X167425500Y-97150500D01*
X167492539Y-97170185D01*
X167538294Y-97222989D01*
X167549500Y-97274500D01*
X167549500Y-99062035D01*
X167529815Y-99129074D01*
X167513181Y-99149716D01*
X166849716Y-99813181D01*
X166788393Y-99846666D01*
X166762035Y-99849500D01*
X164790691Y-99849500D01*
X164706907Y-99871949D01*
X164706907Y-99871950D01*
X164676113Y-99880201D01*
X164676112Y-99880201D01*
X164676110Y-99880202D01*
X164573386Y-99939511D01*
X164573383Y-99939513D01*
X161824716Y-102688181D01*
X161763393Y-102721666D01*
X161737035Y-102724500D01*
X154115691Y-102724500D01*
X154025325Y-102748713D01*
X154025324Y-102748712D01*
X154001115Y-102755200D01*
X154001106Y-102755204D01*
X153898392Y-102814505D01*
X153898384Y-102814511D01*
X151989513Y-104723383D01*
X151989509Y-104723389D01*
X151930201Y-104826112D01*
X151930200Y-104826117D01*
X151899500Y-104940691D01*
X151899500Y-105812034D01*
X151879815Y-105879073D01*
X151863181Y-105899715D01*
X151235499Y-106527396D01*
X151174176Y-106560881D01*
X151164009Y-106562653D01*
X151156293Y-106563669D01*
X151156291Y-106563669D01*
X151022376Y-106619138D01*
X151022370Y-106619141D01*
X151016199Y-106623877D01*
X150951030Y-106649070D01*
X150940715Y-106649500D01*
X113559285Y-106649500D01*
X113492246Y-106629815D01*
X113483801Y-106623877D01*
X113477629Y-106619141D01*
X113477623Y-106619138D01*
X113343710Y-106563670D01*
X113340002Y-106563182D01*
X113335990Y-106562653D01*
X113272096Y-106534385D01*
X113264499Y-106527396D01*
X112786819Y-106049716D01*
X112753334Y-105988393D01*
X112750500Y-105962035D01*
X112750500Y-98774500D01*
X112770185Y-98707461D01*
X112822989Y-98661706D01*
X112874500Y-98650500D01*
X117153456Y-98650500D01*
X117220495Y-98670185D01*
X117241137Y-98686819D01*
X117558440Y-99004122D01*
X117591925Y-99065445D01*
X117593067Y-99091873D01*
X117594750Y-99091873D01*
X117594750Y-99099999D01*
X117594750Y-99100000D01*
X117612698Y-99236329D01*
X117613670Y-99243708D01*
X117613671Y-99243712D01*
X117669138Y-99377623D01*
X117669139Y-99377625D01*
X117757380Y-99492623D01*
X117763126Y-99498369D01*
X117760574Y-99500920D01*
X117792091Y-99543873D01*
X117799500Y-99586092D01*
X117799500Y-100896143D01*
X117823252Y-100984789D01*
X117823385Y-100985287D01*
X117869527Y-101065208D01*
X117869529Y-101065211D01*
X117869530Y-101065212D01*
X119084788Y-102280470D01*
X119164712Y-102326614D01*
X119253856Y-102350500D01*
X119253857Y-102350500D01*
X119253858Y-102350500D01*
X126246142Y-102350500D01*
X126246144Y-102350500D01*
X126335288Y-102326614D01*
X126415212Y-102280470D01*
X128108862Y-100586818D01*
X128170185Y-100553334D01*
X128196543Y-100550500D01*
X134353856Y-100550500D01*
X136013908Y-100550500D01*
X136080947Y-100570185D01*
X136100412Y-100588086D01*
X136101628Y-100586871D01*
X136107372Y-100592615D01*
X136107377Y-100592619D01*
X136107379Y-100592621D01*
X136222375Y-100680861D01*
X136356291Y-100736330D01*
X136483280Y-100753048D01*
X136499999Y-100755250D01*
X136500000Y-100755250D01*
X136500001Y-100755250D01*
X136514977Y-100753278D01*
X136643709Y-100736330D01*
X136777625Y-100680861D01*
X136854718Y-100621704D01*
X136919882Y-100596512D01*
X136988327Y-100610550D01*
X137038318Y-100659363D01*
X137053982Y-100727454D01*
X137053140Y-100736267D01*
X137046485Y-100786819D01*
X137044750Y-100800000D01*
X137052160Y-100856287D01*
X137063670Y-100943708D01*
X137063671Y-100943712D01*
X137119137Y-101077622D01*
X137119138Y-101077624D01*
X137119139Y-101077625D01*
X137207379Y-101192621D01*
X137322375Y-101280861D01*
X137322376Y-101280861D01*
X137322377Y-101280862D01*
X137363598Y-101297936D01*
X137456291Y-101336330D01*
X137583280Y-101353048D01*
X137599999Y-101355250D01*
X137600000Y-101355250D01*
X137600001Y-101355250D01*
X137614977Y-101353278D01*
X137743709Y-101336330D01*
X137877625Y-101280861D01*
X137992621Y-101192621D01*
X138080861Y-101077625D01*
X138136330Y-100943709D01*
X138155250Y-100800000D01*
X138136330Y-100656291D01*
X138086641Y-100536329D01*
X138080862Y-100522377D01*
X138080861Y-100522376D01*
X138080861Y-100522375D01*
X137992621Y-100407379D01*
X137992619Y-100407377D01*
X137992615Y-100407372D01*
X137986871Y-100401628D01*
X137989387Y-100399111D01*
X137957797Y-100355817D01*
X137950500Y-100313908D01*
X137950500Y-99386092D01*
X137970185Y-99319053D01*
X137988114Y-99299609D01*
X137986874Y-99298369D01*
X137992619Y-99292623D01*
X138002877Y-99279255D01*
X138080861Y-99177625D01*
X138136330Y-99043709D01*
X138155250Y-98900000D01*
X138136330Y-98756291D01*
X138113014Y-98700000D01*
X155844750Y-98700000D01*
X155854969Y-98777623D01*
X155863670Y-98843708D01*
X155863671Y-98843712D01*
X155919137Y-98977622D01*
X155919138Y-98977624D01*
X155919139Y-98977625D01*
X156007379Y-99092621D01*
X156122375Y-99180861D01*
X156256291Y-99236330D01*
X156383280Y-99253048D01*
X156399999Y-99255250D01*
X156400000Y-99255250D01*
X156400001Y-99255250D01*
X156414977Y-99253278D01*
X156543709Y-99236330D01*
X156677625Y-99180861D01*
X156792621Y-99092621D01*
X156792623Y-99092617D01*
X156792627Y-99092615D01*
X156798372Y-99086871D01*
X156800888Y-99089387D01*
X156844183Y-99057797D01*
X156886092Y-99050500D01*
X157003456Y-99050500D01*
X157070495Y-99070185D01*
X157091137Y-99086819D01*
X158840702Y-100836384D01*
X158874187Y-100897707D01*
X158869203Y-100967399D01*
X158827331Y-101023332D01*
X158761867Y-101047749D01*
X158733144Y-101045007D01*
X158733016Y-101045981D01*
X158724959Y-101044920D01*
X158632775Y-101032783D01*
X158581251Y-101026000D01*
X158573123Y-101026000D01*
X158573123Y-101022493D01*
X158519863Y-101014022D01*
X158485372Y-100989690D01*
X157342710Y-99847028D01*
X157315830Y-99806799D01*
X157280862Y-99722377D01*
X157280861Y-99722376D01*
X157280861Y-99722375D01*
X157192621Y-99607379D01*
X157077625Y-99519139D01*
X157077624Y-99519138D01*
X157077622Y-99519137D01*
X156943712Y-99463671D01*
X156943710Y-99463670D01*
X156943709Y-99463670D01*
X156836254Y-99449523D01*
X156800001Y-99444750D01*
X156799999Y-99444750D01*
X156656291Y-99463670D01*
X156656287Y-99463671D01*
X156522377Y-99519137D01*
X156407379Y-99607379D01*
X156319137Y-99722377D01*
X156263671Y-99856287D01*
X156263670Y-99856291D01*
X156244750Y-99999999D01*
X156244750Y-100000000D01*
X156263670Y-100143708D01*
X156263671Y-100143712D01*
X156319137Y-100277622D01*
X156319138Y-100277624D01*
X156319139Y-100277625D01*
X156407379Y-100392621D01*
X156522375Y-100480861D01*
X156656291Y-100536330D01*
X156783280Y-100553048D01*
X156799999Y-100555250D01*
X156800000Y-100555250D01*
X156800001Y-100555250D01*
X156836079Y-100550500D01*
X156943709Y-100536330D01*
X156943716Y-100536326D01*
X156951010Y-100534373D01*
X157020860Y-100536036D01*
X157070785Y-100566467D01*
X157989690Y-101485372D01*
X158023175Y-101546695D01*
X158024317Y-101573123D01*
X158026000Y-101573123D01*
X158026000Y-101581249D01*
X158026000Y-101581250D01*
X158034985Y-101649500D01*
X158044920Y-101724958D01*
X158044921Y-101724962D01*
X158100387Y-101858872D01*
X158100388Y-101858874D01*
X158100389Y-101858875D01*
X158188629Y-101973871D01*
X158303625Y-102062111D01*
X158437541Y-102117580D01*
X158564530Y-102134298D01*
X158581249Y-102136500D01*
X158581250Y-102136500D01*
X158581251Y-102136500D01*
X158596227Y-102134528D01*
X158724959Y-102117580D01*
X158858875Y-102062111D01*
X158973871Y-101973871D01*
X159062111Y-101858875D01*
X159117580Y-101724959D01*
X159136500Y-101581250D01*
X159117580Y-101437541D01*
X159117579Y-101437540D01*
X159116519Y-101429484D01*
X159118957Y-101429162D01*
X159120318Y-101371734D01*
X159159474Y-101313868D01*
X159223700Y-101286357D01*
X159292603Y-101297936D01*
X159326115Y-101321797D01*
X159766037Y-101761719D01*
X159845962Y-101807864D01*
X159935106Y-101831750D01*
X161195158Y-101831750D01*
X161262197Y-101851435D01*
X161281662Y-101869336D01*
X161282878Y-101868121D01*
X161288622Y-101873865D01*
X161288627Y-101873869D01*
X161288629Y-101873871D01*
X161403625Y-101962111D01*
X161403626Y-101962111D01*
X161403627Y-101962112D01*
X161448263Y-101980600D01*
X161537541Y-102017580D01*
X161664530Y-102034298D01*
X161681249Y-102036500D01*
X161681250Y-102036500D01*
X161681251Y-102036500D01*
X161696227Y-102034528D01*
X161824959Y-102017580D01*
X161958875Y-101962111D01*
X162073871Y-101873871D01*
X162162111Y-101758875D01*
X162217580Y-101624959D01*
X162236500Y-101481250D01*
X162236078Y-101478048D01*
X162230745Y-101437541D01*
X162217580Y-101337541D01*
X162162111Y-101203625D01*
X162073871Y-101088629D01*
X161958875Y-101000389D01*
X161958874Y-101000388D01*
X161958872Y-101000387D01*
X161824962Y-100944921D01*
X161824960Y-100944920D01*
X161824959Y-100944920D01*
X161707759Y-100929490D01*
X161681251Y-100926000D01*
X161681249Y-100926000D01*
X161537541Y-100944920D01*
X161537537Y-100944921D01*
X161403627Y-101000387D01*
X161288622Y-101088634D01*
X161282878Y-101094379D01*
X161280361Y-101091862D01*
X161237067Y-101123453D01*
X161195158Y-101130750D01*
X160177794Y-101130750D01*
X160110755Y-101111065D01*
X160090113Y-101094431D01*
X157415213Y-98419531D01*
X157415208Y-98419527D01*
X157335291Y-98373387D01*
X157335287Y-98373385D01*
X157329926Y-98371949D01*
X157329926Y-98371948D01*
X157261476Y-98353608D01*
X157246144Y-98349500D01*
X157246143Y-98349500D01*
X156886092Y-98349500D01*
X156819053Y-98329815D01*
X156799587Y-98311913D01*
X156798372Y-98313129D01*
X156792627Y-98307384D01*
X156792621Y-98307379D01*
X156677625Y-98219139D01*
X156677624Y-98219138D01*
X156677622Y-98219137D01*
X156543712Y-98163671D01*
X156543710Y-98163670D01*
X156543709Y-98163670D01*
X156471854Y-98154210D01*
X156400001Y-98144750D01*
X156399999Y-98144750D01*
X156256291Y-98163670D01*
X156256287Y-98163671D01*
X156122377Y-98219137D01*
X156007379Y-98307379D01*
X155919137Y-98422377D01*
X155863671Y-98556287D01*
X155863670Y-98556291D01*
X155849792Y-98661706D01*
X155844750Y-98700000D01*
X138113014Y-98700000D01*
X138080861Y-98622375D01*
X137992621Y-98507379D01*
X137877625Y-98419139D01*
X137877624Y-98419138D01*
X137877622Y-98419137D01*
X137743712Y-98363671D01*
X137743710Y-98363670D01*
X137743709Y-98363670D01*
X137671854Y-98354210D01*
X137600001Y-98344750D01*
X137599999Y-98344750D01*
X137456291Y-98363670D01*
X137456287Y-98363671D01*
X137322376Y-98419138D01*
X137322374Y-98419139D01*
X137240481Y-98481978D01*
X137175312Y-98507172D01*
X137106867Y-98493133D01*
X137056877Y-98444319D01*
X137042056Y-98399787D01*
X137038580Y-98373386D01*
X137036330Y-98356291D01*
X136980861Y-98222375D01*
X136892621Y-98107379D01*
X136777625Y-98019139D01*
X136777624Y-98019138D01*
X136777622Y-98019137D01*
X136643712Y-97963671D01*
X136643710Y-97963670D01*
X136643709Y-97963670D01*
X136571854Y-97954210D01*
X136500001Y-97944750D01*
X136499999Y-97944750D01*
X136356291Y-97963670D01*
X136356287Y-97963671D01*
X136222377Y-98019137D01*
X136107379Y-98107379D01*
X136019137Y-98222377D01*
X135963671Y-98356287D01*
X135963670Y-98356291D01*
X135957944Y-98399787D01*
X135944750Y-98500000D01*
X135953132Y-98563670D01*
X135963670Y-98643708D01*
X135963671Y-98643712D01*
X136019138Y-98777623D01*
X136019139Y-98777625D01*
X136107380Y-98892623D01*
X136113126Y-98898369D01*
X136110574Y-98900920D01*
X136142091Y-98943873D01*
X136149500Y-98986092D01*
X136149500Y-99713908D01*
X136129815Y-99780947D01*
X136111909Y-99800416D01*
X136113125Y-99801632D01*
X136101632Y-99813125D01*
X136099116Y-99810609D01*
X136055817Y-99842203D01*
X136013908Y-99849500D01*
X131565602Y-99849500D01*
X131498563Y-99829815D01*
X131452808Y-99777011D01*
X131442864Y-99707853D01*
X131471889Y-99644297D01*
X131503592Y-99618118D01*
X131522194Y-99607379D01*
X131568716Y-99580520D01*
X131680520Y-99468716D01*
X131680520Y-99468714D01*
X131690724Y-99458511D01*
X131690727Y-99458506D01*
X134634138Y-96515096D01*
X134695459Y-96481613D01*
X134765151Y-96486597D01*
X134787240Y-96497654D01*
X134787299Y-96497557D01*
X134788669Y-96498370D01*
X134788857Y-96498464D01*
X134789204Y-96498687D01*
X134850969Y-96535332D01*
X134864365Y-96542646D01*
X134866502Y-96543813D01*
X134930655Y-96575924D01*
X135174399Y-96687238D01*
X135240712Y-96714706D01*
X135257281Y-96720887D01*
X135308179Y-96737827D01*
X135325406Y-96743561D01*
X135582532Y-96819060D01*
X135652067Y-96836809D01*
X135652082Y-96836812D01*
X135652085Y-96836813D01*
X135669344Y-96840568D01*
X135669354Y-96840569D01*
X135669355Y-96840570D01*
X135740004Y-96853316D01*
X136006365Y-96891613D01*
X136068815Y-96898608D01*
X136076991Y-96899265D01*
X136084231Y-96899849D01*
X136084247Y-96899849D01*
X136084250Y-96899850D01*
X136146965Y-96902930D01*
X136226352Y-96904345D01*
X136226354Y-96904346D01*
X136226355Y-96904346D01*
X136277063Y-96905250D01*
X136277063Y-96905251D01*
X136280927Y-96905320D01*
X136289784Y-96905439D01*
X136291995Y-96905459D01*
X136301090Y-96905500D01*
X136301157Y-96905500D01*
X142998844Y-96905500D01*
X142998910Y-96905500D01*
X143008009Y-96905459D01*
X143010219Y-96905439D01*
X143019063Y-96905320D01*
X143022761Y-96905254D01*
X143022760Y-96905253D01*
X143087592Y-96904097D01*
X143087595Y-96904097D01*
X143104156Y-96903801D01*
X143153034Y-96902930D01*
X143215749Y-96899850D01*
X143215752Y-96899849D01*
X143215767Y-96899849D01*
X143221905Y-96899354D01*
X143231184Y-96898608D01*
X143293634Y-96891613D01*
X143559995Y-96853316D01*
X143630644Y-96840570D01*
X143630649Y-96840568D01*
X143630654Y-96840568D01*
X143640458Y-96838434D01*
X143647932Y-96836809D01*
X143717467Y-96819060D01*
X143974593Y-96743561D01*
X144008734Y-96732197D01*
X144042717Y-96720887D01*
X144059286Y-96714706D01*
X144059297Y-96714702D01*
X144125585Y-96687244D01*
X144125589Y-96687241D01*
X144125599Y-96687238D01*
X144223091Y-96642714D01*
X144369352Y-96575920D01*
X144433518Y-96543802D01*
X144449047Y-96535323D01*
X144510800Y-96498684D01*
X144736241Y-96353801D01*
X144795187Y-96312874D01*
X144809350Y-96302272D01*
X144821327Y-96292621D01*
X144857252Y-96263671D01*
X144865249Y-96257227D01*
X145067779Y-96081734D01*
X145120313Y-96032823D01*
X145132823Y-96020313D01*
X145181734Y-95967779D01*
X145357227Y-95765249D01*
X145402272Y-95709350D01*
X145412874Y-95695187D01*
X145453801Y-95636241D01*
X145598684Y-95410800D01*
X145635323Y-95349047D01*
X145643802Y-95333518D01*
X145675920Y-95269352D01*
X145787244Y-95025585D01*
X145814702Y-94959297D01*
X145816373Y-94954818D01*
X145820887Y-94942717D01*
X145833954Y-94903455D01*
X145843561Y-94874593D01*
X145919060Y-94617467D01*
X145936809Y-94547932D01*
X145940570Y-94530644D01*
X145953316Y-94459995D01*
X145991613Y-94193634D01*
X145998608Y-94131184D01*
X145999354Y-94121905D01*
X145999849Y-94115767D01*
X145999850Y-94115749D01*
X146002930Y-94053035D01*
X146005320Y-93919056D01*
X146005439Y-93910213D01*
X146005459Y-93908001D01*
X146005500Y-93898910D01*
X146005500Y-92881249D01*
X152888500Y-92881249D01*
X152888500Y-92881250D01*
X152907420Y-93024958D01*
X152907421Y-93024962D01*
X152962887Y-93158872D01*
X152962888Y-93158874D01*
X152962889Y-93158875D01*
X153051129Y-93273871D01*
X153166125Y-93362111D01*
X153300041Y-93417580D01*
X153427030Y-93434298D01*
X153443749Y-93436500D01*
X153443750Y-93436500D01*
X153443751Y-93436500D01*
X153458727Y-93434528D01*
X153587459Y-93417580D01*
X153721375Y-93362111D01*
X153836371Y-93273871D01*
X153836373Y-93273867D01*
X153836377Y-93273865D01*
X153842122Y-93268121D01*
X153844638Y-93270637D01*
X153887933Y-93239047D01*
X153929842Y-93231750D01*
X155564892Y-93231750D01*
X155564894Y-93231750D01*
X155654038Y-93207864D01*
X155667659Y-93200000D01*
X155733962Y-93161720D01*
X158904123Y-89991557D01*
X158965444Y-89958074D01*
X158991871Y-89957144D01*
X158991871Y-89955250D01*
X159000000Y-89955250D01*
X159143709Y-89936330D01*
X159277625Y-89880861D01*
X159392621Y-89792621D01*
X159480861Y-89677625D01*
X159536330Y-89543709D01*
X159555250Y-89400000D01*
X159536330Y-89256291D01*
X159480861Y-89122375D01*
X159392621Y-89007379D01*
X159277625Y-88919139D01*
X159277624Y-88919138D01*
X159277622Y-88919137D01*
X159143707Y-88863669D01*
X159142479Y-88863340D01*
X159141560Y-88862779D01*
X159136201Y-88860560D01*
X159136547Y-88859723D01*
X159082822Y-88826969D01*
X159052299Y-88764119D01*
X159051645Y-88727382D01*
X159055250Y-88700000D01*
X159055250Y-88699999D01*
X159037313Y-88563761D01*
X159036330Y-88556291D01*
X158980861Y-88422375D01*
X158892621Y-88307379D01*
X158777625Y-88219139D01*
X158777624Y-88219138D01*
X158777622Y-88219137D01*
X158643712Y-88163671D01*
X158643710Y-88163670D01*
X158643709Y-88163670D01*
X158571854Y-88154210D01*
X158500001Y-88144750D01*
X158499999Y-88144750D01*
X158356291Y-88163670D01*
X158356287Y-88163671D01*
X158222377Y-88219137D01*
X158107379Y-88307379D01*
X158019137Y-88422377D01*
X157963671Y-88556287D01*
X157963670Y-88556291D01*
X157944750Y-88700000D01*
X157944750Y-88708128D01*
X157941582Y-88708128D01*
X157933113Y-88762431D01*
X157920317Y-88783423D01*
X157890375Y-88835287D01*
X157890373Y-88835289D01*
X157873388Y-88864706D01*
X157873387Y-88864709D01*
X157873386Y-88864711D01*
X157873386Y-88864712D01*
X157858803Y-88919137D01*
X157849500Y-88953856D01*
X157849500Y-89403456D01*
X157829815Y-89470495D01*
X157813181Y-89491137D01*
X156691137Y-90613181D01*
X156629814Y-90646666D01*
X156603456Y-90649500D01*
X155695247Y-90649500D01*
X155628208Y-90629815D01*
X155582453Y-90577011D01*
X155572509Y-90507853D01*
X155580686Y-90478048D01*
X155597439Y-90437602D01*
X155636330Y-90343709D01*
X155655250Y-90200000D01*
X155636330Y-90056291D01*
X155586641Y-89936329D01*
X155580862Y-89922377D01*
X155580861Y-89922376D01*
X155580861Y-89922375D01*
X155492621Y-89807379D01*
X155377625Y-89719139D01*
X155377624Y-89719138D01*
X155377622Y-89719137D01*
X155243712Y-89663671D01*
X155243710Y-89663670D01*
X155243709Y-89663670D01*
X155155228Y-89652021D01*
X155100001Y-89644750D01*
X155099999Y-89644750D01*
X154956291Y-89663670D01*
X154956287Y-89663671D01*
X154822377Y-89719137D01*
X154707379Y-89807379D01*
X154619137Y-89922377D01*
X154563671Y-90056287D01*
X154563670Y-90056291D01*
X154544750Y-90200000D01*
X154563670Y-90343709D01*
X154602562Y-90437605D01*
X154612001Y-90485055D01*
X154612001Y-90546149D01*
X154635884Y-90635285D01*
X154635885Y-90635286D01*
X154682027Y-90715208D01*
X154682029Y-90715211D01*
X154682030Y-90715212D01*
X155247288Y-91280470D01*
X155307465Y-91315213D01*
X155327212Y-91326614D01*
X155416356Y-91350500D01*
X156254456Y-91350500D01*
X156321495Y-91370185D01*
X156367250Y-91422989D01*
X156377194Y-91492147D01*
X156348169Y-91555703D01*
X156342137Y-91562181D01*
X155409887Y-92494431D01*
X155348564Y-92527916D01*
X155322206Y-92530750D01*
X153929842Y-92530750D01*
X153862803Y-92511065D01*
X153843337Y-92493163D01*
X153842122Y-92494379D01*
X153836377Y-92488634D01*
X153836371Y-92488629D01*
X153721375Y-92400389D01*
X153721374Y-92400388D01*
X153721372Y-92400387D01*
X153587462Y-92344921D01*
X153587460Y-92344920D01*
X153587459Y-92344920D01*
X153515604Y-92335460D01*
X153443751Y-92326000D01*
X153443749Y-92326000D01*
X153300041Y-92344920D01*
X153300037Y-92344921D01*
X153166127Y-92400387D01*
X153051129Y-92488629D01*
X152962887Y-92603627D01*
X152907421Y-92737537D01*
X152907420Y-92737541D01*
X152888500Y-92881249D01*
X146005500Y-92881249D01*
X146005500Y-90301089D01*
X146005459Y-90291998D01*
X146005439Y-90289786D01*
X146005320Y-90280943D01*
X146002930Y-90146964D01*
X145999850Y-90084250D01*
X145999849Y-90084247D01*
X145999849Y-90084231D01*
X145999265Y-90076991D01*
X145998608Y-90068815D01*
X145991613Y-90006365D01*
X145953316Y-89740004D01*
X145940570Y-89669355D01*
X145939333Y-89663671D01*
X145936813Y-89652085D01*
X145936812Y-89652082D01*
X145936809Y-89652067D01*
X145919060Y-89582532D01*
X145843561Y-89325406D01*
X145837827Y-89308179D01*
X145820887Y-89257281D01*
X145814706Y-89240712D01*
X145814689Y-89240672D01*
X145787244Y-89174414D01*
X145787238Y-89174399D01*
X145675924Y-88930655D01*
X145643813Y-88866502D01*
X145641780Y-88862779D01*
X145635332Y-88850969D01*
X145598687Y-88789204D01*
X145453800Y-88563757D01*
X145412880Y-88504820D01*
X145412873Y-88504811D01*
X145402272Y-88490648D01*
X145357237Y-88434762D01*
X145346505Y-88422377D01*
X145181734Y-88232220D01*
X145181730Y-88232215D01*
X145181719Y-88232203D01*
X145132827Y-88179690D01*
X145120308Y-88167171D01*
X145067795Y-88118279D01*
X144865236Y-87942761D01*
X144809359Y-87897733D01*
X144795199Y-87887134D01*
X144795191Y-87887128D01*
X144771612Y-87870757D01*
X144736233Y-87846192D01*
X144510787Y-87701306D01*
X144462487Y-87672650D01*
X144449045Y-87664675D01*
X144449036Y-87664670D01*
X144433549Y-87656212D01*
X144369338Y-87624072D01*
X144238039Y-87564110D01*
X144238014Y-87564098D01*
X144125582Y-87512753D01*
X144059285Y-87485292D01*
X144042695Y-87479104D01*
X143974616Y-87456445D01*
X143717471Y-87380939D01*
X143685308Y-87372730D01*
X143647888Y-87363180D01*
X143647879Y-87363178D01*
X143630606Y-87359421D01*
X143630603Y-87359420D01*
X143630601Y-87359420D01*
X143559994Y-87346682D01*
X143293609Y-87308381D01*
X143231199Y-87301391D01*
X143215790Y-87300150D01*
X143153016Y-87297068D01*
X143019161Y-87294681D01*
X143013839Y-87294609D01*
X143010216Y-87294561D01*
X143009401Y-87294553D01*
X143008053Y-87294541D01*
X143004208Y-87294523D01*
X142998910Y-87294500D01*
X136301090Y-87294500D01*
X136295836Y-87294523D01*
X136291946Y-87294541D01*
X136290569Y-87294553D01*
X136289784Y-87294561D01*
X136286289Y-87294608D01*
X136280838Y-87294681D01*
X136146982Y-87297068D01*
X136084198Y-87300151D01*
X136068791Y-87301391D01*
X136006389Y-87308381D01*
X135740002Y-87346682D01*
X135669384Y-87359422D01*
X135652075Y-87363187D01*
X135582543Y-87380934D01*
X135325395Y-87456441D01*
X135257289Y-87479109D01*
X135240733Y-87485284D01*
X135174392Y-87512763D01*
X134930653Y-87624074D01*
X134866418Y-87656229D01*
X134850937Y-87664683D01*
X134789212Y-87701306D01*
X134563753Y-87846200D01*
X134504831Y-87887109D01*
X134490649Y-87897724D01*
X134434772Y-87942753D01*
X134232214Y-88118270D01*
X134179667Y-88167192D01*
X134167192Y-88179667D01*
X134118270Y-88232214D01*
X133942753Y-88434772D01*
X133897724Y-88490649D01*
X133887109Y-88504831D01*
X133846200Y-88563753D01*
X133701306Y-88789212D01*
X133664691Y-88850923D01*
X133656220Y-88866435D01*
X133624085Y-88930633D01*
X133624084Y-88930636D01*
X133536520Y-89122377D01*
X133512754Y-89174417D01*
X133485302Y-89240686D01*
X133479133Y-89257223D01*
X133456435Y-89325414D01*
X133380940Y-89582528D01*
X133363200Y-89652021D01*
X133363198Y-89652032D01*
X133360666Y-89663671D01*
X133359434Y-89669332D01*
X133346682Y-89739996D01*
X133308381Y-90006389D01*
X133301391Y-90068791D01*
X133300151Y-90084198D01*
X133297068Y-90146982D01*
X133295420Y-90239430D01*
X133295004Y-90240755D01*
X133294541Y-90291948D01*
X133294500Y-90301155D01*
X133294500Y-93898843D01*
X133294541Y-93908053D01*
X133294561Y-93910188D01*
X133294681Y-93919161D01*
X133297068Y-94053015D01*
X133300152Y-94115810D01*
X133301392Y-94131216D01*
X133308386Y-94193634D01*
X133346683Y-94459996D01*
X133359430Y-94530654D01*
X133363185Y-94547913D01*
X133363190Y-94547932D01*
X133380939Y-94617467D01*
X133392338Y-94656287D01*
X133456441Y-94874603D01*
X133479111Y-94942717D01*
X133485292Y-94959286D01*
X133485297Y-94959297D01*
X133512755Y-95025585D01*
X133536520Y-95077623D01*
X133624085Y-95269365D01*
X133656186Y-95333498D01*
X133664649Y-95349000D01*
X133701307Y-95410787D01*
X133779781Y-95532896D01*
X133799465Y-95599935D01*
X133779780Y-95666975D01*
X133763146Y-95687616D01*
X130987584Y-98463181D01*
X130926261Y-98496666D01*
X130899903Y-98499500D01*
X121782412Y-98499500D01*
X121715373Y-98479815D01*
X121705097Y-98472445D01*
X121702263Y-98470185D01*
X121702262Y-98470184D01*
X121626178Y-98422377D01*
X121549523Y-98374211D01*
X121379254Y-98314631D01*
X121379249Y-98314630D01*
X121200004Y-98294435D01*
X121199996Y-98294435D01*
X121020750Y-98314630D01*
X121020745Y-98314631D01*
X120850476Y-98374211D01*
X120697737Y-98470184D01*
X120570184Y-98597737D01*
X120474211Y-98750476D01*
X120414631Y-98920745D01*
X120414630Y-98920750D01*
X120394435Y-99099996D01*
X120394435Y-99100003D01*
X120414630Y-99279249D01*
X120414631Y-99279254D01*
X120474211Y-99449523D01*
X120560024Y-99586092D01*
X120570184Y-99602262D01*
X120697738Y-99729816D01*
X120769740Y-99775058D01*
X120830412Y-99813181D01*
X120850478Y-99825789D01*
X121005979Y-99880201D01*
X121020745Y-99885368D01*
X121020750Y-99885369D01*
X121199996Y-99905565D01*
X121200000Y-99905565D01*
X121200004Y-99905565D01*
X121379249Y-99885369D01*
X121379252Y-99885368D01*
X121379255Y-99885368D01*
X121549522Y-99825789D01*
X121702262Y-99729816D01*
X121702267Y-99729810D01*
X121705097Y-99727555D01*
X121707275Y-99726665D01*
X121708158Y-99726111D01*
X121708255Y-99726265D01*
X121769783Y-99701145D01*
X121782412Y-99700500D01*
X121804456Y-99700500D01*
X121871495Y-99720185D01*
X121917250Y-99772989D01*
X121927194Y-99842147D01*
X121898169Y-99905703D01*
X121892137Y-99912181D01*
X121395877Y-100408439D01*
X121334554Y-100441924D01*
X121308128Y-100443208D01*
X121308128Y-100444750D01*
X121300000Y-100444750D01*
X121156291Y-100463670D01*
X121156287Y-100463671D01*
X121022377Y-100519137D01*
X120907379Y-100607379D01*
X120819137Y-100722377D01*
X120763671Y-100856287D01*
X120763670Y-100856291D01*
X120746753Y-100984789D01*
X120744750Y-101000000D01*
X120757175Y-101094379D01*
X120763670Y-101143708D01*
X120763671Y-101143712D01*
X120819137Y-101277622D01*
X120819138Y-101277624D01*
X120819139Y-101277625D01*
X120907379Y-101392621D01*
X120940438Y-101417988D01*
X120952345Y-101427125D01*
X120993547Y-101483553D01*
X120997702Y-101553299D01*
X120963489Y-101614219D01*
X120901772Y-101646971D01*
X120876858Y-101649500D01*
X119496544Y-101649500D01*
X119429505Y-101629815D01*
X119408863Y-101613181D01*
X118536819Y-100741137D01*
X118503334Y-100679814D01*
X118500500Y-100653456D01*
X118500500Y-99586092D01*
X118520185Y-99519053D01*
X118538114Y-99499609D01*
X118536874Y-99498369D01*
X118542619Y-99492623D01*
X118542621Y-99492621D01*
X118630861Y-99377625D01*
X118686330Y-99243709D01*
X118705250Y-99100000D01*
X118705249Y-99099996D01*
X118697307Y-99039667D01*
X118686330Y-98956291D01*
X118630861Y-98822375D01*
X118542621Y-98707379D01*
X118427625Y-98619139D01*
X118427624Y-98619138D01*
X118427622Y-98619137D01*
X118293712Y-98563671D01*
X118293710Y-98563670D01*
X118293709Y-98563670D01*
X118202638Y-98551680D01*
X118150001Y-98544750D01*
X118141873Y-98544750D01*
X118141873Y-98541243D01*
X118088613Y-98532772D01*
X118054122Y-98508440D01*
X117565213Y-98019531D01*
X117565208Y-98019527D01*
X117485290Y-97973387D01*
X117485289Y-97973386D01*
X117485288Y-97973386D01*
X117396144Y-97949500D01*
X117396143Y-97949500D01*
X112874500Y-97949500D01*
X112807461Y-97929815D01*
X112761706Y-97877011D01*
X112750500Y-97825500D01*
X112750500Y-96459284D01*
X112770185Y-96392245D01*
X112776116Y-96383808D01*
X112780861Y-96377625D01*
X112836330Y-96243709D01*
X112855250Y-96100000D01*
X112836330Y-95956291D01*
X112780861Y-95822375D01*
X112692621Y-95707379D01*
X112577625Y-95619139D01*
X112577624Y-95619138D01*
X112577622Y-95619137D01*
X112443712Y-95563671D01*
X112443710Y-95563670D01*
X112443709Y-95563670D01*
X112319840Y-95547362D01*
X112300001Y-95544750D01*
X112299999Y-95544750D01*
X112156291Y-95563670D01*
X112156287Y-95563671D01*
X112022377Y-95619137D01*
X111907379Y-95707379D01*
X111819137Y-95822377D01*
X111763671Y-95956287D01*
X111763670Y-95956291D01*
X111747270Y-96080862D01*
X111744750Y-96100000D01*
X111757915Y-96200000D01*
X111763670Y-96243708D01*
X111763671Y-96243712D01*
X111819137Y-96377622D01*
X111819138Y-96377624D01*
X111819139Y-96377625D01*
X111823875Y-96383798D01*
X111849070Y-96448965D01*
X111849500Y-96459284D01*
X111849500Y-106259308D01*
X111873712Y-106349672D01*
X111880200Y-106373885D01*
X111880200Y-106373886D01*
X111880201Y-106373887D01*
X111939511Y-106476614D01*
X111939513Y-106476616D01*
X112627396Y-107164499D01*
X112660881Y-107225822D01*
X112662654Y-107235991D01*
X112663670Y-107243710D01*
X112719137Y-107377622D01*
X112719138Y-107377624D01*
X112719139Y-107377625D01*
X112807379Y-107492621D01*
X112922375Y-107580861D01*
X113056291Y-107636330D01*
X113183280Y-107653048D01*
X113199999Y-107655250D01*
X113200000Y-107655250D01*
X113200001Y-107655250D01*
X113214977Y-107653278D01*
X113343709Y-107636330D01*
X113477625Y-107580861D01*
X113477629Y-107580858D01*
X113483801Y-107576123D01*
X113548970Y-107550930D01*
X113559285Y-107550500D01*
X114640691Y-107550500D01*
X122163332Y-107550500D01*
X122230371Y-107570185D01*
X122276126Y-107622989D01*
X122286070Y-107692147D01*
X122277894Y-107721951D01*
X122263670Y-107756291D01*
X122244855Y-107899206D01*
X122244750Y-107900000D01*
X122263204Y-108040173D01*
X122263670Y-108043708D01*
X122263671Y-108043712D01*
X122319137Y-108177622D01*
X122319138Y-108177624D01*
X122319139Y-108177625D01*
X122407379Y-108292621D01*
X122522375Y-108380861D01*
X122656291Y-108436330D01*
X122800000Y-108455250D01*
X122808129Y-108455250D01*
X122808129Y-108458828D01*
X122860970Y-108467031D01*
X122895878Y-108491560D01*
X123984788Y-109580470D01*
X124052444Y-109619531D01*
X124064712Y-109626614D01*
X124153856Y-109650500D01*
X126203456Y-109650500D01*
X126270495Y-109670185D01*
X126291137Y-109686819D01*
X126613181Y-110008863D01*
X126646666Y-110070186D01*
X126649500Y-110096544D01*
X126649500Y-112446144D01*
X126664065Y-112500501D01*
X126664065Y-112500502D01*
X126673384Y-112535284D01*
X126673385Y-112535286D01*
X126673386Y-112535288D01*
X126675753Y-112539387D01*
X126719527Y-112615208D01*
X126719531Y-112615213D01*
X128813181Y-114708863D01*
X128846666Y-114770186D01*
X128849500Y-114796544D01*
X128849500Y-115946143D01*
X128864560Y-116002351D01*
X128873384Y-116035283D01*
X128873387Y-116035290D01*
X128919527Y-116115208D01*
X128919531Y-116115213D01*
X129192137Y-116387819D01*
X129225622Y-116449142D01*
X129220638Y-116518834D01*
X129178766Y-116574767D01*
X129113302Y-116599184D01*
X129104456Y-116599500D01*
X124523793Y-116599500D01*
X124456754Y-116579815D01*
X124410999Y-116527011D01*
X124401055Y-116457853D01*
X124430080Y-116394297D01*
X124452038Y-116374370D01*
X124559588Y-116298059D01*
X124695167Y-116201861D01*
X124962742Y-115962742D01*
X125201861Y-115695167D01*
X125409517Y-115402503D01*
X125583100Y-115088428D01*
X125720427Y-114756893D01*
X125819769Y-114412067D01*
X125879879Y-114058286D01*
X125900000Y-113700000D01*
X125879879Y-113341714D01*
X125819769Y-112987933D01*
X125720427Y-112643107D01*
X125583100Y-112311572D01*
X125409517Y-111997497D01*
X125201861Y-111704833D01*
X124962742Y-111437258D01*
X124695167Y-111198139D01*
X124402503Y-110990483D01*
X124088428Y-110816900D01*
X124047956Y-110800136D01*
X123933632Y-110752781D01*
X123756893Y-110679573D01*
X123756889Y-110679571D01*
X123756887Y-110679571D01*
X123412072Y-110580232D01*
X123412063Y-110580230D01*
X123058293Y-110520122D01*
X123058281Y-110520120D01*
X122700000Y-110500000D01*
X122341718Y-110520120D01*
X122341706Y-110520122D01*
X121987936Y-110580230D01*
X121987927Y-110580232D01*
X121643112Y-110679571D01*
X121311573Y-110816899D01*
X120997496Y-110990483D01*
X120704831Y-111198140D01*
X120437258Y-111437258D01*
X120198140Y-111704831D01*
X119990483Y-111997496D01*
X119816899Y-112311573D01*
X119698810Y-112596666D01*
X119684646Y-112630861D01*
X119679571Y-112643112D01*
X119580232Y-112987927D01*
X119580230Y-112987936D01*
X119520122Y-113341706D01*
X119520120Y-113341718D01*
X119500000Y-113700000D01*
X119520120Y-114058281D01*
X119520122Y-114058293D01*
X119580230Y-114412063D01*
X119580232Y-114412072D01*
X119676199Y-114745182D01*
X119679573Y-114756893D01*
X119759769Y-114950502D01*
X119807283Y-115065212D01*
X119816900Y-115088428D01*
X119990483Y-115402503D01*
X120198139Y-115695167D01*
X120437258Y-115962742D01*
X120704833Y-116201861D01*
X120840412Y-116298059D01*
X120947962Y-116374370D01*
X120991246Y-116429218D01*
X120998006Y-116498760D01*
X120966095Y-116560917D01*
X120905646Y-116595955D01*
X120876207Y-116599500D01*
X110506093Y-116599500D01*
X110493939Y-116598903D01*
X110443081Y-116593893D01*
X110375688Y-116587256D01*
X110351848Y-116582514D01*
X110243997Y-116549798D01*
X110221541Y-116540496D01*
X110122150Y-116487370D01*
X110101940Y-116473866D01*
X110014820Y-116402369D01*
X109997630Y-116385179D01*
X109926133Y-116298059D01*
X109912629Y-116277849D01*
X109873441Y-116204534D01*
X109859501Y-116178453D01*
X109850201Y-116156002D01*
X109837828Y-116115212D01*
X109817483Y-116048145D01*
X109812744Y-116024317D01*
X109801097Y-115906061D01*
X109800500Y-115893907D01*
X109800500Y-80004152D01*
X110875001Y-80004152D01*
X110885056Y-80102583D01*
X110937906Y-80262072D01*
X110937908Y-80262077D01*
X111026114Y-80405080D01*
X111144919Y-80523885D01*
X111287922Y-80612091D01*
X111287927Y-80612093D01*
X111447416Y-80664942D01*
X111545856Y-80674999D01*
X112062500Y-80674999D01*
X112079136Y-80674999D01*
X112079152Y-80674998D01*
X112177583Y-80664943D01*
X112337072Y-80612093D01*
X112337077Y-80612091D01*
X112480080Y-80523885D01*
X112598885Y-80405080D01*
X112649714Y-80322674D01*
X112701662Y-80275950D01*
X112770624Y-80264727D01*
X112829564Y-80288504D01*
X112833527Y-80291470D01*
X112833528Y-80291472D01*
X112920118Y-80356292D01*
X112941549Y-80372335D01*
X112941552Y-80372337D01*
X112987150Y-80389344D01*
X113067978Y-80419491D01*
X113097318Y-80422645D01*
X113123855Y-80425499D01*
X113123870Y-80425500D01*
X113651130Y-80425500D01*
X113651144Y-80425499D01*
X113673023Y-80423146D01*
X113707022Y-80419491D01*
X113833450Y-80372336D01*
X113941472Y-80291472D01*
X114022336Y-80183450D01*
X114041837Y-80131166D01*
X114083709Y-80075233D01*
X114149173Y-80050816D01*
X114158019Y-80050500D01*
X114236153Y-80050500D01*
X114303192Y-80070185D01*
X114348947Y-80122989D01*
X114353187Y-80133528D01*
X114372207Y-80187882D01*
X114452850Y-80297150D01*
X114562118Y-80377793D01*
X114604845Y-80392744D01*
X114690299Y-80422646D01*
X114720730Y-80425500D01*
X114720734Y-80425500D01*
X115229270Y-80425500D01*
X115259699Y-80422646D01*
X115259701Y-80422646D01*
X115340170Y-80394488D01*
X115387882Y-80377793D01*
X115497150Y-80297150D01*
X115577793Y-80187882D01*
X115605962Y-80107379D01*
X115622646Y-80059701D01*
X115622646Y-80059699D01*
X115625500Y-80029269D01*
X115625500Y-79370730D01*
X115622646Y-79340300D01*
X115622646Y-79340298D01*
X115577793Y-79212119D01*
X115577792Y-79212117D01*
X115497150Y-79102850D01*
X115387882Y-79022207D01*
X115387880Y-79022206D01*
X115259700Y-78977353D01*
X115229270Y-78974500D01*
X115229266Y-78974500D01*
X114720734Y-78974500D01*
X114720730Y-78974500D01*
X114690300Y-78977353D01*
X114690298Y-78977353D01*
X114562119Y-79022206D01*
X114562117Y-79022207D01*
X114452850Y-79102850D01*
X114383426Y-79196917D01*
X114372207Y-79212118D01*
X114353193Y-79266456D01*
X114312473Y-79323231D01*
X114247520Y-79348978D01*
X114236153Y-79349500D01*
X114158019Y-79349500D01*
X114090980Y-79329815D01*
X114045225Y-79277011D01*
X114041837Y-79268834D01*
X114022336Y-79216550D01*
X114022335Y-79216549D01*
X114019018Y-79212118D01*
X113941472Y-79108528D01*
X113833450Y-79027664D01*
X113833447Y-79027662D01*
X113707024Y-78980509D01*
X113651144Y-78974500D01*
X113651130Y-78974500D01*
X113123870Y-78974500D01*
X113123855Y-78974500D01*
X113067975Y-78980509D01*
X112941552Y-79027662D01*
X112941545Y-79027666D01*
X112829563Y-79111495D01*
X112764099Y-79135912D01*
X112695826Y-79121060D01*
X112649714Y-79077325D01*
X112598885Y-78994919D01*
X112480080Y-78876114D01*
X112337077Y-78787908D01*
X112337072Y-78787906D01*
X112177583Y-78735057D01*
X112079150Y-78725000D01*
X112062500Y-78725000D01*
X112062500Y-80674999D01*
X111545856Y-80674999D01*
X111562500Y-80674998D01*
X111562500Y-79950000D01*
X110875001Y-79950000D01*
X110875001Y-80004152D01*
X109800500Y-80004152D01*
X109800500Y-79395849D01*
X110875000Y-79395849D01*
X110875000Y-79450000D01*
X111562500Y-79450000D01*
X111562500Y-78724999D01*
X111545856Y-78725000D01*
X111447415Y-78735057D01*
X111287927Y-78787906D01*
X111287922Y-78787908D01*
X111144919Y-78876114D01*
X111026114Y-78994919D01*
X110937908Y-79137922D01*
X110937906Y-79137927D01*
X110885057Y-79297416D01*
X110875000Y-79395849D01*
X109800500Y-79395849D01*
X109800500Y-78506092D01*
X109801097Y-78493938D01*
X109801097Y-78493937D01*
X109812744Y-78375680D01*
X109817483Y-78351856D01*
X109850203Y-78243990D01*
X109859499Y-78221549D01*
X109912632Y-78122144D01*
X109926133Y-78101940D01*
X109997635Y-78014814D01*
X110014814Y-77997635D01*
X110101942Y-77926131D01*
X110122144Y-77912632D01*
X110221549Y-77859499D01*
X110243990Y-77850203D01*
X110351856Y-77817483D01*
X110375682Y-77812744D01*
X110475730Y-77802890D01*
X110493940Y-77801097D01*
X110506093Y-77800500D01*
X110547595Y-77800500D01*
X149442019Y-77800500D01*
X149509058Y-77820185D01*
G37*
%TD.AperFunction*%
%TA.AperFunction,Conductor*%
G36*
X168318834Y-99720783D02*
G01*
X168374767Y-99762655D01*
X168399184Y-99828119D01*
X168399500Y-99836965D01*
X168399500Y-111876206D01*
X168379815Y-111943245D01*
X168327011Y-111989000D01*
X168257853Y-111998944D01*
X168194297Y-111969919D01*
X168174371Y-111947961D01*
X168001864Y-111704837D01*
X168001863Y-111704836D01*
X168001861Y-111704833D01*
X167762742Y-111437258D01*
X167495167Y-111198139D01*
X167202503Y-110990483D01*
X166888428Y-110816900D01*
X166847956Y-110800136D01*
X166733632Y-110752781D01*
X166556893Y-110679573D01*
X166556889Y-110679571D01*
X166556887Y-110679571D01*
X166212072Y-110580232D01*
X166212063Y-110580230D01*
X165858293Y-110520122D01*
X165858281Y-110520120D01*
X165500000Y-110500000D01*
X165141718Y-110520120D01*
X165141706Y-110520122D01*
X164787936Y-110580230D01*
X164787927Y-110580232D01*
X164443112Y-110679571D01*
X164111573Y-110816899D01*
X163797496Y-110990483D01*
X163504831Y-111198140D01*
X163237258Y-111437258D01*
X162998140Y-111704831D01*
X162790483Y-111997496D01*
X162616899Y-112311573D01*
X162498810Y-112596666D01*
X162484646Y-112630861D01*
X162479571Y-112643112D01*
X162380232Y-112987927D01*
X162380230Y-112987936D01*
X162320122Y-113341706D01*
X162320120Y-113341718D01*
X162300000Y-113700000D01*
X162320120Y-114058281D01*
X162320122Y-114058293D01*
X162380230Y-114412063D01*
X162380232Y-114412072D01*
X162476199Y-114745182D01*
X162479573Y-114756893D01*
X162559769Y-114950502D01*
X162607283Y-115065212D01*
X162616900Y-115088428D01*
X162790483Y-115402503D01*
X162998139Y-115695167D01*
X163237258Y-115962742D01*
X163504833Y-116201861D01*
X163640412Y-116298059D01*
X163747962Y-116374370D01*
X163791246Y-116429218D01*
X163798006Y-116498760D01*
X163766095Y-116560917D01*
X163705646Y-116595955D01*
X163676207Y-116599500D01*
X161785947Y-116599500D01*
X161718908Y-116579815D01*
X161673153Y-116527011D01*
X161663209Y-116457853D01*
X161686681Y-116401189D01*
X161768350Y-116292093D01*
X161768354Y-116292086D01*
X161818596Y-116157379D01*
X161818598Y-116157372D01*
X161824999Y-116097844D01*
X161825000Y-116097827D01*
X161825000Y-115800000D01*
X159375000Y-115800000D01*
X159375000Y-116097844D01*
X159381401Y-116157372D01*
X159381403Y-116157379D01*
X159431645Y-116292086D01*
X159431649Y-116292093D01*
X159513319Y-116401189D01*
X159537737Y-116466653D01*
X159522886Y-116534926D01*
X159473481Y-116584332D01*
X159414053Y-116599500D01*
X156635947Y-116599500D01*
X156568908Y-116579815D01*
X156523153Y-116527011D01*
X156513209Y-116457853D01*
X156536681Y-116401189D01*
X156618350Y-116292093D01*
X156618354Y-116292086D01*
X156668596Y-116157379D01*
X156668598Y-116157372D01*
X156674999Y-116097844D01*
X156675000Y-116097827D01*
X156675000Y-115800000D01*
X154225000Y-115800000D01*
X154225000Y-116097844D01*
X154231401Y-116157372D01*
X154231403Y-116157379D01*
X154281645Y-116292086D01*
X154281649Y-116292093D01*
X154363319Y-116401189D01*
X154387737Y-116466653D01*
X154372886Y-116534926D01*
X154323481Y-116584332D01*
X154264053Y-116599500D01*
X149195544Y-116599500D01*
X149128505Y-116579815D01*
X149082750Y-116527011D01*
X149072806Y-116457853D01*
X149101831Y-116394297D01*
X149107863Y-116387819D01*
X151258863Y-114236819D01*
X151320186Y-114203334D01*
X151346544Y-114200500D01*
X154350500Y-114200500D01*
X154417539Y-114220185D01*
X154463294Y-114272989D01*
X154474500Y-114324500D01*
X154474500Y-114374678D01*
X154489032Y-114447735D01*
X154489034Y-114447741D01*
X154492474Y-114452889D01*
X154513349Y-114519567D01*
X154494862Y-114586947D01*
X154463681Y-114621042D01*
X154367809Y-114692812D01*
X154281649Y-114807906D01*
X154281645Y-114807913D01*
X154231403Y-114942620D01*
X154231401Y-114942627D01*
X154225000Y-115002155D01*
X154225000Y-115300000D01*
X156675000Y-115300000D01*
X156675000Y-115002172D01*
X156674999Y-115002155D01*
X156668598Y-114942627D01*
X156668596Y-114942620D01*
X156618354Y-114807913D01*
X156618350Y-114807906D01*
X156532190Y-114692812D01*
X156532187Y-114692809D01*
X156436319Y-114621042D01*
X156394448Y-114565109D01*
X156389464Y-114495417D01*
X156407526Y-114452887D01*
X156410966Y-114447740D01*
X156425500Y-114374674D01*
X156425500Y-113325326D01*
X156425500Y-113325323D01*
X156425499Y-113325321D01*
X156410967Y-113252264D01*
X156410966Y-113252260D01*
X156407209Y-113246637D01*
X156355601Y-113169399D01*
X156272740Y-113114034D01*
X156272739Y-113114033D01*
X156272735Y-113114032D01*
X156199677Y-113099500D01*
X156199674Y-113099500D01*
X154700326Y-113099500D01*
X154700323Y-113099500D01*
X154627264Y-113114032D01*
X154627260Y-113114033D01*
X154544399Y-113169399D01*
X154489033Y-113252260D01*
X154489032Y-113252264D01*
X154474500Y-113325321D01*
X154474500Y-113375500D01*
X154454815Y-113442539D01*
X154402011Y-113488294D01*
X154350500Y-113499500D01*
X151103856Y-113499500D01*
X151014712Y-113523386D01*
X151014711Y-113523386D01*
X151014709Y-113523387D01*
X151014706Y-113523388D01*
X150934788Y-113569529D01*
X150817345Y-113686972D01*
X148491137Y-116013181D01*
X148429814Y-116046666D01*
X148403456Y-116049500D01*
X148340518Y-116049500D01*
X148273479Y-116029815D01*
X148227724Y-115977011D01*
X148217780Y-115907853D01*
X148246805Y-115844297D01*
X148252837Y-115837819D01*
X151306350Y-112784306D01*
X151367673Y-112750821D01*
X151394031Y-112747987D01*
X157400943Y-112747987D01*
X157467982Y-112767672D01*
X157488624Y-112784306D01*
X157908440Y-113204122D01*
X157941925Y-113265445D01*
X157943067Y-113291873D01*
X157944750Y-113291873D01*
X157944750Y-113300000D01*
X157962698Y-113436329D01*
X157963670Y-113443708D01*
X157963671Y-113443712D01*
X158019137Y-113577622D01*
X158019138Y-113577624D01*
X158019139Y-113577625D01*
X158107379Y-113692621D01*
X158222375Y-113780861D01*
X158356291Y-113836330D01*
X158483280Y-113853048D01*
X158499999Y-113855250D01*
X158500000Y-113855250D01*
X158500001Y-113855250D01*
X158514977Y-113853278D01*
X158643709Y-113836330D01*
X158777625Y-113780861D01*
X158892621Y-113692621D01*
X158980861Y-113577625D01*
X159003850Y-113522123D01*
X159047689Y-113467723D01*
X159113983Y-113445657D01*
X159134593Y-113446638D01*
X159176843Y-113452201D01*
X159199999Y-113455250D01*
X159200000Y-113455250D01*
X159200001Y-113455250D01*
X159214977Y-113453278D01*
X159343709Y-113436330D01*
X159453048Y-113391041D01*
X159522517Y-113383572D01*
X159584996Y-113414847D01*
X159620648Y-113474937D01*
X159624500Y-113505602D01*
X159624500Y-114374678D01*
X159639032Y-114447735D01*
X159639034Y-114447741D01*
X159642474Y-114452889D01*
X159663349Y-114519567D01*
X159644862Y-114586947D01*
X159613681Y-114621042D01*
X159517809Y-114692812D01*
X159431649Y-114807906D01*
X159431645Y-114807913D01*
X159381403Y-114942620D01*
X159381401Y-114942627D01*
X159375000Y-115002155D01*
X159375000Y-115300000D01*
X161825000Y-115300000D01*
X161825000Y-115002172D01*
X161824999Y-115002155D01*
X161818598Y-114942627D01*
X161818596Y-114942620D01*
X161768354Y-114807913D01*
X161768350Y-114807906D01*
X161682190Y-114692812D01*
X161682187Y-114692809D01*
X161586319Y-114621042D01*
X161544448Y-114565109D01*
X161539464Y-114495417D01*
X161557526Y-114452887D01*
X161560966Y-114447740D01*
X161575500Y-114374674D01*
X161575500Y-113325326D01*
X161575500Y-113325323D01*
X161575499Y-113325321D01*
X161560967Y-113252264D01*
X161560966Y-113252260D01*
X161557209Y-113246637D01*
X161505601Y-113169399D01*
X161422740Y-113114034D01*
X161422739Y-113114033D01*
X161422735Y-113114032D01*
X161349677Y-113099500D01*
X161349674Y-113099500D01*
X159870380Y-113099500D01*
X159803341Y-113079815D01*
X159757586Y-113027011D01*
X159747441Y-112959314D01*
X159755250Y-112900000D01*
X159755250Y-112899999D01*
X159749750Y-112858222D01*
X159736330Y-112756291D01*
X159699350Y-112667013D01*
X159680862Y-112622377D01*
X159680861Y-112622376D01*
X159680861Y-112622375D01*
X159592621Y-112507379D01*
X159477625Y-112419139D01*
X159477624Y-112419138D01*
X159477622Y-112419137D01*
X159343712Y-112363671D01*
X159343710Y-112363670D01*
X159343709Y-112363670D01*
X159252638Y-112351680D01*
X159200001Y-112344750D01*
X159191873Y-112344750D01*
X159191873Y-112341243D01*
X159138613Y-112332772D01*
X159104122Y-112308440D01*
X158515213Y-111719531D01*
X158515208Y-111719527D01*
X158435290Y-111673387D01*
X158435289Y-111673386D01*
X158435288Y-111673386D01*
X158346144Y-111649500D01*
X151146144Y-111649500D01*
X151053856Y-111649500D01*
X150964712Y-111673386D01*
X150964709Y-111673387D01*
X150884791Y-111719527D01*
X150884786Y-111719531D01*
X148412181Y-114192136D01*
X148350858Y-114225621D01*
X148281166Y-114220637D01*
X148225233Y-114178765D01*
X148200816Y-114113301D01*
X148200500Y-114104455D01*
X148200500Y-111497648D01*
X148168477Y-111295465D01*
X148105218Y-111100776D01*
X148049020Y-110990483D01*
X148012287Y-110918390D01*
X147972567Y-110863719D01*
X147926372Y-110800136D01*
X147902892Y-110734329D01*
X147918718Y-110666276D01*
X147968824Y-110617581D01*
X148037302Y-110603706D01*
X148042867Y-110604310D01*
X148050000Y-110605250D01*
X148193709Y-110586330D01*
X148327625Y-110530861D01*
X148442621Y-110442621D01*
X148530861Y-110327625D01*
X148586330Y-110193709D01*
X148605250Y-110050000D01*
X148586330Y-109906291D01*
X148530861Y-109772375D01*
X148442621Y-109657379D01*
X148327625Y-109569139D01*
X148327624Y-109569138D01*
X148327622Y-109569137D01*
X148193712Y-109513671D01*
X148193710Y-109513670D01*
X148193709Y-109513670D01*
X148121854Y-109504210D01*
X148050001Y-109494750D01*
X148049999Y-109494750D01*
X147906291Y-109513670D01*
X147906287Y-109513671D01*
X147772377Y-109569137D01*
X147657372Y-109657384D01*
X147651628Y-109663129D01*
X147649111Y-109660612D01*
X147605817Y-109692203D01*
X147563908Y-109699500D01*
X141103856Y-109699500D01*
X141020073Y-109721948D01*
X141020074Y-109721949D01*
X141014712Y-109723385D01*
X141014708Y-109723387D01*
X140934791Y-109769527D01*
X140934786Y-109769531D01*
X139919531Y-110784786D01*
X139919527Y-110784791D01*
X139888451Y-110838618D01*
X139888451Y-110838619D01*
X139873386Y-110864710D01*
X139849500Y-110953856D01*
X139849500Y-112103456D01*
X139829815Y-112170495D01*
X139813181Y-112191137D01*
X139441137Y-112563181D01*
X139379814Y-112596666D01*
X139353456Y-112599500D01*
X137903854Y-112599500D01*
X137854597Y-112612698D01*
X137854597Y-112612699D01*
X137814712Y-112623386D01*
X137814711Y-112623386D01*
X137814709Y-112623387D01*
X137734791Y-112669527D01*
X137734786Y-112669531D01*
X137491137Y-112913181D01*
X137429814Y-112946666D01*
X137403456Y-112949500D01*
X135736611Y-112949500D01*
X135701336Y-112939142D01*
X135682495Y-112948019D01*
X135663389Y-112949500D01*
X134336611Y-112949500D01*
X134301336Y-112939142D01*
X134282495Y-112948019D01*
X134263389Y-112949500D01*
X131741518Y-112949500D01*
X131674479Y-112929815D01*
X131653837Y-112913181D01*
X131598878Y-112858222D01*
X131585687Y-112841032D01*
X131585419Y-112841239D01*
X131580467Y-112834786D01*
X131515212Y-112769531D01*
X131415211Y-112669529D01*
X131335291Y-112623387D01*
X131335287Y-112623385D01*
X131331512Y-112622374D01*
X131331512Y-112622373D01*
X131261766Y-112603686D01*
X131246144Y-112599500D01*
X131246143Y-112599500D01*
X129246544Y-112599500D01*
X129179505Y-112579815D01*
X129158863Y-112563181D01*
X128586819Y-111991137D01*
X128553334Y-111929814D01*
X128550500Y-111903456D01*
X128550500Y-111324234D01*
X131109500Y-111324234D01*
X131109500Y-111475766D01*
X131123528Y-111528118D01*
X131148719Y-111622136D01*
X131175856Y-111669137D01*
X131224485Y-111753365D01*
X131331635Y-111860515D01*
X131462865Y-111936281D01*
X131609234Y-111975500D01*
X131609236Y-111975500D01*
X131760764Y-111975500D01*
X131760766Y-111975500D01*
X131907135Y-111936281D01*
X132038365Y-111860515D01*
X132145515Y-111753365D01*
X132221281Y-111622135D01*
X132260500Y-111475766D01*
X132260500Y-111449999D01*
X133144750Y-111449999D01*
X133144750Y-111450000D01*
X133163670Y-111593708D01*
X133163671Y-111593712D01*
X133219137Y-111727622D01*
X133219138Y-111727624D01*
X133219139Y-111727625D01*
X133307379Y-111842621D01*
X133422375Y-111930861D01*
X133556291Y-111986330D01*
X133639782Y-111997322D01*
X133703676Y-112025587D01*
X133742148Y-112083911D01*
X133746534Y-112136444D01*
X133744750Y-112149996D01*
X133744750Y-112150000D01*
X133763670Y-112293708D01*
X133763671Y-112293712D01*
X133819137Y-112427622D01*
X133819138Y-112427624D01*
X133819139Y-112427625D01*
X133907379Y-112542621D01*
X134022375Y-112630861D01*
X134156291Y-112686330D01*
X134273460Y-112701755D01*
X134279575Y-112702561D01*
X134296316Y-112709967D01*
X134301676Y-112706523D01*
X134320425Y-112702561D01*
X134325859Y-112701845D01*
X134443709Y-112686330D01*
X134577625Y-112630861D01*
X134692621Y-112542621D01*
X134692623Y-112542617D01*
X134692627Y-112542615D01*
X134698372Y-112536871D01*
X134700888Y-112539387D01*
X134744183Y-112507797D01*
X134786092Y-112500500D01*
X135213908Y-112500500D01*
X135280947Y-112520185D01*
X135300412Y-112538086D01*
X135301628Y-112536871D01*
X135307372Y-112542615D01*
X135307377Y-112542619D01*
X135307379Y-112542621D01*
X135422375Y-112630861D01*
X135556291Y-112686330D01*
X135673460Y-112701755D01*
X135679575Y-112702561D01*
X135696316Y-112709967D01*
X135701676Y-112706523D01*
X135720425Y-112702561D01*
X135725859Y-112701845D01*
X135843709Y-112686330D01*
X135977625Y-112630861D01*
X136092621Y-112542621D01*
X136180861Y-112427625D01*
X136236330Y-112293709D01*
X136255250Y-112150000D01*
X136255249Y-112149996D01*
X136249122Y-112103456D01*
X136236330Y-112006291D01*
X136180861Y-111872375D01*
X136092621Y-111757379D01*
X135977625Y-111669139D01*
X135977624Y-111669138D01*
X135977622Y-111669137D01*
X135843712Y-111613671D01*
X135843710Y-111613670D01*
X135843709Y-111613670D01*
X135739877Y-111600000D01*
X135700001Y-111594750D01*
X135699997Y-111594750D01*
X135693515Y-111595603D01*
X135624481Y-111584834D01*
X135572227Y-111538451D01*
X135553345Y-111471182D01*
X135554396Y-111456485D01*
X135555250Y-111450000D01*
X135538692Y-111324234D01*
X136889500Y-111324234D01*
X136889500Y-111475766D01*
X136903528Y-111528118D01*
X136928719Y-111622136D01*
X136955856Y-111669137D01*
X137004485Y-111753365D01*
X137111635Y-111860515D01*
X137242865Y-111936281D01*
X137389234Y-111975500D01*
X137389236Y-111975500D01*
X137540764Y-111975500D01*
X137540766Y-111975500D01*
X137687135Y-111936281D01*
X137818365Y-111860515D01*
X137925515Y-111753365D01*
X138001281Y-111622135D01*
X138040500Y-111475766D01*
X138040500Y-111324234D01*
X138001281Y-111177865D01*
X137998112Y-111172377D01*
X137973360Y-111129505D01*
X137925515Y-111046635D01*
X137818365Y-110939485D01*
X137740882Y-110894750D01*
X137687136Y-110863719D01*
X137593459Y-110838619D01*
X137540766Y-110824500D01*
X137389234Y-110824500D01*
X137242863Y-110863719D01*
X137111635Y-110939485D01*
X137111632Y-110939487D01*
X137004487Y-111046632D01*
X137004485Y-111046635D01*
X136928719Y-111177863D01*
X136897208Y-111295466D01*
X136889500Y-111324234D01*
X135538692Y-111324234D01*
X135536330Y-111306291D01*
X135480861Y-111172375D01*
X135392621Y-111057379D01*
X135277625Y-110969139D01*
X135277624Y-110969138D01*
X135277622Y-110969137D01*
X135143712Y-110913671D01*
X135143710Y-110913670D01*
X135143709Y-110913670D01*
X135043675Y-110900500D01*
X135000001Y-110894750D01*
X134999999Y-110894750D01*
X134856291Y-110913670D01*
X134856287Y-110913671D01*
X134722377Y-110969137D01*
X134607372Y-111057384D01*
X134601628Y-111063129D01*
X134599111Y-111060612D01*
X134555817Y-111092203D01*
X134513908Y-111099500D01*
X134186092Y-111099500D01*
X134119053Y-111079815D01*
X134099587Y-111061913D01*
X134098372Y-111063129D01*
X134092627Y-111057384D01*
X134092621Y-111057379D01*
X133977625Y-110969139D01*
X133977624Y-110969138D01*
X133977622Y-110969137D01*
X133843712Y-110913671D01*
X133843710Y-110913670D01*
X133843709Y-110913670D01*
X133743675Y-110900500D01*
X133700001Y-110894750D01*
X133699999Y-110894750D01*
X133556291Y-110913670D01*
X133556287Y-110913671D01*
X133422377Y-110969137D01*
X133307379Y-111057379D01*
X133219137Y-111172377D01*
X133163671Y-111306287D01*
X133163670Y-111306291D01*
X133144750Y-111449999D01*
X132260500Y-111449999D01*
X132260500Y-111324234D01*
X132221281Y-111177865D01*
X132218112Y-111172377D01*
X132193360Y-111129505D01*
X132145515Y-111046635D01*
X132038365Y-110939485D01*
X131960882Y-110894750D01*
X131907136Y-110863719D01*
X131813459Y-110838619D01*
X131760766Y-110824500D01*
X131609234Y-110824500D01*
X131462863Y-110863719D01*
X131331635Y-110939485D01*
X131331632Y-110939487D01*
X131224487Y-111046632D01*
X131224485Y-111046635D01*
X131148719Y-111177863D01*
X131117208Y-111295466D01*
X131109500Y-111324234D01*
X128550500Y-111324234D01*
X128550500Y-109553858D01*
X128550500Y-109553856D01*
X128526614Y-109464712D01*
X128510975Y-109437625D01*
X128510975Y-109437624D01*
X128480472Y-109384791D01*
X128480468Y-109384786D01*
X126857863Y-107762181D01*
X126824378Y-107700858D01*
X126829362Y-107631166D01*
X126871234Y-107575233D01*
X126936698Y-107550816D01*
X126945544Y-107550500D01*
X131470154Y-107550500D01*
X131537193Y-107570185D01*
X131582948Y-107622989D01*
X131592892Y-107692147D01*
X131589929Y-107706592D01*
X131588668Y-107711294D01*
X131584979Y-107739314D01*
X131581817Y-107755212D01*
X131574500Y-107782521D01*
X131574500Y-107810793D01*
X131573439Y-107826978D01*
X131569750Y-107854998D01*
X131569750Y-107855000D01*
X131573439Y-107883020D01*
X131574500Y-107899206D01*
X131574500Y-107927476D01*
X131581817Y-107954786D01*
X131584980Y-107970685D01*
X131588670Y-107998709D01*
X131599485Y-108024819D01*
X131604697Y-108040173D01*
X131612015Y-108067483D01*
X131612018Y-108067489D01*
X131626147Y-108091962D01*
X131633319Y-108106505D01*
X131644138Y-108132625D01*
X131661348Y-108155053D01*
X131670357Y-108168536D01*
X131684491Y-108193015D01*
X131704482Y-108213006D01*
X131715168Y-108225191D01*
X131726627Y-108240125D01*
X131732378Y-108247620D01*
X131754804Y-108264828D01*
X131766992Y-108275516D01*
X131786985Y-108295509D01*
X131811470Y-108309645D01*
X131824947Y-108318651D01*
X131847375Y-108335861D01*
X131872571Y-108346297D01*
X131873488Y-108346677D01*
X131888035Y-108353851D01*
X131912513Y-108367983D01*
X131912515Y-108367984D01*
X131939818Y-108375299D01*
X131955172Y-108380511D01*
X131981291Y-108391330D01*
X132009317Y-108395019D01*
X132025212Y-108398181D01*
X132052525Y-108405500D01*
X132080794Y-108405500D01*
X132096980Y-108406561D01*
X132124999Y-108410250D01*
X132125000Y-108410250D01*
X132125001Y-108410250D01*
X132153020Y-108406561D01*
X132169206Y-108405500D01*
X132855794Y-108405500D01*
X132871980Y-108406561D01*
X132899999Y-108410250D01*
X132900000Y-108410250D01*
X132900001Y-108410250D01*
X132928020Y-108406561D01*
X132944206Y-108405500D01*
X136155794Y-108405500D01*
X136171980Y-108406561D01*
X136199999Y-108410250D01*
X136200000Y-108410250D01*
X136200001Y-108410250D01*
X136228020Y-108406561D01*
X136244206Y-108405500D01*
X136955794Y-108405500D01*
X136971980Y-108406561D01*
X136999999Y-108410250D01*
X137000000Y-108410250D01*
X137000001Y-108410250D01*
X137028020Y-108406561D01*
X137044206Y-108405500D01*
X137072475Y-108405500D01*
X137099784Y-108398181D01*
X137115684Y-108395018D01*
X137143709Y-108391330D01*
X137169832Y-108380508D01*
X137185165Y-108375303D01*
X137212485Y-108367984D01*
X137236968Y-108353847D01*
X137251503Y-108346680D01*
X137277625Y-108335861D01*
X137283797Y-108331124D01*
X137348965Y-108305930D01*
X137359284Y-108305500D01*
X156017035Y-108305500D01*
X156084074Y-108325185D01*
X156104715Y-108341818D01*
X156218146Y-108455250D01*
X156330451Y-108567555D01*
X156330456Y-108567559D01*
X158223386Y-110460490D01*
X158326113Y-110519799D01*
X158350321Y-110526284D01*
X158350324Y-110526286D01*
X158350325Y-110526286D01*
X158367403Y-110530862D01*
X158440691Y-110550500D01*
X158440693Y-110550500D01*
X161559308Y-110550500D01*
X161559309Y-110550500D01*
X161649673Y-110526286D01*
X161673887Y-110519799D01*
X161776614Y-110460489D01*
X162504501Y-109732601D01*
X162565822Y-109699118D01*
X162576001Y-109697344D01*
X162583709Y-109696330D01*
X162717625Y-109640861D01*
X162832621Y-109552621D01*
X162920861Y-109437625D01*
X162976330Y-109303709D01*
X162995250Y-109160000D01*
X162976330Y-109016291D01*
X162920861Y-108882375D01*
X162832621Y-108767379D01*
X162717625Y-108679139D01*
X162717624Y-108679138D01*
X162717622Y-108679137D01*
X162583712Y-108623671D01*
X162583710Y-108623670D01*
X162583709Y-108623670D01*
X162511854Y-108614210D01*
X162440001Y-108604750D01*
X162439999Y-108604750D01*
X162296291Y-108623670D01*
X162296287Y-108623671D01*
X162162377Y-108679137D01*
X162047379Y-108767379D01*
X161959137Y-108882377D01*
X161903669Y-109016291D01*
X161903669Y-109016292D01*
X161902653Y-109024009D01*
X161874383Y-109087904D01*
X161867396Y-109095498D01*
X161349716Y-109613181D01*
X161288393Y-109646666D01*
X161262035Y-109649500D01*
X158737966Y-109649500D01*
X158670927Y-109629815D01*
X158650285Y-109613181D01*
X157324784Y-108287680D01*
X157291299Y-108226357D01*
X157296283Y-108156665D01*
X157324784Y-108112318D01*
X157438393Y-107998709D01*
X157563993Y-107873108D01*
X157625314Y-107839625D01*
X157667853Y-107837852D01*
X157782325Y-107852923D01*
X157799999Y-107855250D01*
X157800000Y-107855250D01*
X157800001Y-107855250D01*
X157814977Y-107853278D01*
X157943709Y-107836330D01*
X158077625Y-107780861D01*
X158192621Y-107692621D01*
X158280861Y-107577625D01*
X158336330Y-107443709D01*
X158355250Y-107300000D01*
X158336330Y-107156291D01*
X158280861Y-107022375D01*
X158192621Y-106907379D01*
X158077625Y-106819139D01*
X158077624Y-106819138D01*
X158077622Y-106819137D01*
X157943712Y-106763671D01*
X157943710Y-106763670D01*
X157943709Y-106763670D01*
X157871854Y-106754210D01*
X157800001Y-106744750D01*
X157799999Y-106744750D01*
X157656291Y-106763670D01*
X157656287Y-106763671D01*
X157522376Y-106819138D01*
X157522370Y-106819141D01*
X157516199Y-106823877D01*
X157451030Y-106849070D01*
X157440715Y-106849500D01*
X157440691Y-106849500D01*
X157350325Y-106873713D01*
X157350324Y-106873712D01*
X157326116Y-106880199D01*
X157326113Y-106880200D01*
X157223386Y-106939511D01*
X157223383Y-106939513D01*
X156685603Y-107477292D01*
X156624280Y-107510777D01*
X156554588Y-107505793D01*
X156535921Y-107496998D01*
X156531614Y-107494511D01*
X156428887Y-107435201D01*
X156391950Y-107425304D01*
X156391947Y-107425303D01*
X156359133Y-107416510D01*
X156314309Y-107404500D01*
X156314308Y-107404500D01*
X151954847Y-107404500D01*
X151887808Y-107384815D01*
X151842053Y-107332011D01*
X151832109Y-107262853D01*
X151835071Y-107248411D01*
X151836328Y-107243718D01*
X151836328Y-107243711D01*
X151836330Y-107243709D01*
X151837344Y-107236001D01*
X151865604Y-107172106D01*
X151872591Y-107164510D01*
X152710489Y-106326614D01*
X152769799Y-106223887D01*
X152792091Y-106140691D01*
X152800500Y-106109309D01*
X152800500Y-105237965D01*
X152820185Y-105170926D01*
X152836819Y-105150284D01*
X154325285Y-103661819D01*
X154386608Y-103628334D01*
X154412966Y-103625500D01*
X162034308Y-103625500D01*
X162034309Y-103625500D01*
X162124673Y-103601286D01*
X162148887Y-103594799D01*
X162251614Y-103535489D01*
X165000284Y-100786819D01*
X165061607Y-100753334D01*
X165087965Y-100750500D01*
X167059308Y-100750500D01*
X167059309Y-100750500D01*
X167130580Y-100731401D01*
X167149666Y-100726288D01*
X167149667Y-100726287D01*
X167149673Y-100726286D01*
X167173887Y-100719799D01*
X167276614Y-100660489D01*
X168187819Y-99749284D01*
X168249142Y-99715799D01*
X168318834Y-99720783D01*
G37*
%TD.AperFunction*%
%TA.AperFunction,Conductor*%
G36*
X130820495Y-114070185D02*
G01*
X130841137Y-114086819D01*
X131034788Y-114280470D01*
X131102444Y-114319531D01*
X131114712Y-114326614D01*
X131203856Y-114350500D01*
X131203858Y-114350500D01*
X137946142Y-114350500D01*
X137946144Y-114350500D01*
X138035288Y-114326614D01*
X138047556Y-114319531D01*
X138115212Y-114280470D01*
X138308863Y-114086819D01*
X138370186Y-114053334D01*
X138396544Y-114050500D01*
X139403456Y-114050500D01*
X139470495Y-114070185D01*
X139491137Y-114086819D01*
X139763181Y-114358863D01*
X139796666Y-114420186D01*
X139799500Y-114446544D01*
X139799500Y-114896144D01*
X139814065Y-114950501D01*
X139814065Y-114950502D01*
X139823384Y-114985284D01*
X139823385Y-114985286D01*
X139869527Y-115065208D01*
X139869531Y-115065213D01*
X140642137Y-115837819D01*
X140675622Y-115899142D01*
X140670638Y-115968834D01*
X140628766Y-116024767D01*
X140563302Y-116049184D01*
X140554456Y-116049500D01*
X129896544Y-116049500D01*
X129829505Y-116029815D01*
X129808863Y-116013181D01*
X129586819Y-115791137D01*
X129553334Y-115729814D01*
X129550500Y-115703456D01*
X129550500Y-114553858D01*
X129550500Y-114553856D01*
X129526614Y-114464712D01*
X129496222Y-114412072D01*
X129480472Y-114384791D01*
X129480468Y-114384786D01*
X129357863Y-114262181D01*
X129324378Y-114200858D01*
X129329362Y-114131166D01*
X129371234Y-114075233D01*
X129436698Y-114050816D01*
X129445544Y-114050500D01*
X130753456Y-114050500D01*
X130820495Y-114070185D01*
G37*
%TD.AperFunction*%
%TA.AperFunction,Conductor*%
G36*
X167706061Y-77801097D02*
G01*
X167824317Y-77812744D01*
X167848145Y-77817483D01*
X167956005Y-77850202D01*
X167978453Y-77859501D01*
X168077849Y-77912629D01*
X168098059Y-77926133D01*
X168185179Y-77997630D01*
X168202369Y-78014820D01*
X168273866Y-78101940D01*
X168287370Y-78122150D01*
X168340495Y-78221538D01*
X168349798Y-78243997D01*
X168382514Y-78351848D01*
X168387256Y-78375688D01*
X168398903Y-78493937D01*
X168399500Y-78506092D01*
X168399500Y-82263034D01*
X168379815Y-82330073D01*
X168327011Y-82375828D01*
X168257853Y-82385772D01*
X168194297Y-82356747D01*
X168187819Y-82350715D01*
X167411819Y-81574715D01*
X167378334Y-81513392D01*
X167375500Y-81487034D01*
X167375500Y-80624500D01*
X167395185Y-80557461D01*
X167447989Y-80511706D01*
X167499500Y-80500500D01*
X167799676Y-80500500D01*
X167799677Y-80500499D01*
X167872740Y-80485966D01*
X167955601Y-80430601D01*
X168010966Y-80347740D01*
X168025500Y-80274674D01*
X168025500Y-78525326D01*
X168025500Y-78525323D01*
X168025499Y-78525321D01*
X168010967Y-78452264D01*
X168010966Y-78452260D01*
X167955601Y-78369399D01*
X167872740Y-78314034D01*
X167872739Y-78314033D01*
X167872735Y-78314032D01*
X167799677Y-78299500D01*
X167799674Y-78299500D01*
X166050326Y-78299500D01*
X166050323Y-78299500D01*
X165977264Y-78314032D01*
X165977260Y-78314033D01*
X165894399Y-78369399D01*
X165839033Y-78452260D01*
X165839032Y-78452264D01*
X165824500Y-78525321D01*
X165824500Y-78733318D01*
X165804815Y-78800357D01*
X165752011Y-78846112D01*
X165682853Y-78856056D01*
X165619297Y-78827031D01*
X165588118Y-78785723D01*
X165558600Y-78722422D01*
X165558599Y-78722420D01*
X165423113Y-78528926D01*
X165423108Y-78528920D01*
X165256082Y-78361894D01*
X165062578Y-78226399D01*
X164848492Y-78126570D01*
X164848486Y-78126567D01*
X164635000Y-78069364D01*
X164635000Y-78966988D01*
X164577993Y-78934075D01*
X164450826Y-78900000D01*
X164319174Y-78900000D01*
X164192007Y-78934075D01*
X164135000Y-78966988D01*
X164135000Y-78069364D01*
X164134999Y-78069364D01*
X163921513Y-78126567D01*
X163921507Y-78126570D01*
X163707422Y-78226399D01*
X163707420Y-78226400D01*
X163513926Y-78361886D01*
X163513920Y-78361891D01*
X163346891Y-78528920D01*
X163346886Y-78528926D01*
X163211400Y-78722420D01*
X163211399Y-78722422D01*
X163111570Y-78936507D01*
X163111568Y-78936511D01*
X163102592Y-78970011D01*
X163066226Y-79029671D01*
X163003379Y-79060199D01*
X162934003Y-79051904D01*
X162880126Y-79007418D01*
X162871817Y-78993188D01*
X162798582Y-78846112D01*
X162784673Y-78818179D01*
X162661764Y-78655421D01*
X162661762Y-78655418D01*
X162511041Y-78518019D01*
X162511039Y-78518017D01*
X162337642Y-78410655D01*
X162337635Y-78410651D01*
X162231150Y-78369399D01*
X162147456Y-78336976D01*
X161946976Y-78299500D01*
X161743024Y-78299500D01*
X161542544Y-78336976D01*
X161542541Y-78336976D01*
X161542541Y-78336977D01*
X161352364Y-78410651D01*
X161352357Y-78410655D01*
X161178960Y-78518017D01*
X161178958Y-78518019D01*
X161028237Y-78655418D01*
X160905327Y-78818178D01*
X160814422Y-79000739D01*
X160814417Y-79000752D01*
X160758602Y-79196917D01*
X160739785Y-79399999D01*
X160739785Y-79400000D01*
X160758602Y-79603082D01*
X160814417Y-79799247D01*
X160814422Y-79799260D01*
X160905327Y-79981821D01*
X161028237Y-80144581D01*
X161178958Y-80281980D01*
X161178960Y-80281982D01*
X161278141Y-80343392D01*
X161352363Y-80389348D01*
X161542544Y-80463024D01*
X161743024Y-80500500D01*
X161743026Y-80500500D01*
X161946974Y-80500500D01*
X161946976Y-80500500D01*
X162147456Y-80463024D01*
X162337637Y-80389348D01*
X162511041Y-80281981D01*
X162661764Y-80144579D01*
X162784673Y-79981821D01*
X162871817Y-79806812D01*
X162919319Y-79755575D01*
X162986982Y-79738153D01*
X163053323Y-79760078D01*
X163097278Y-79814389D01*
X163102592Y-79829989D01*
X163111567Y-79863485D01*
X163111570Y-79863492D01*
X163211399Y-80077578D01*
X163346894Y-80271082D01*
X163513917Y-80438105D01*
X163707421Y-80573600D01*
X163921507Y-80673429D01*
X163921516Y-80673433D01*
X164135000Y-80730634D01*
X164135000Y-79833012D01*
X164192007Y-79865925D01*
X164319174Y-79900000D01*
X164450826Y-79900000D01*
X164577993Y-79865925D01*
X164635000Y-79833012D01*
X164635000Y-80730633D01*
X164848483Y-80673433D01*
X164848492Y-80673429D01*
X165062578Y-80573600D01*
X165256082Y-80438105D01*
X165423105Y-80271082D01*
X165558600Y-80077577D01*
X165558601Y-80077575D01*
X165588118Y-80014277D01*
X165634290Y-79961837D01*
X165701483Y-79942685D01*
X165768364Y-79962900D01*
X165813699Y-80016065D01*
X165824500Y-80066681D01*
X165824500Y-80274678D01*
X165839032Y-80347735D01*
X165839033Y-80347739D01*
X165839034Y-80347740D01*
X165894399Y-80430601D01*
X165976533Y-80485480D01*
X165977260Y-80485966D01*
X165977264Y-80485967D01*
X166050321Y-80500499D01*
X166050324Y-80500500D01*
X166050326Y-80500500D01*
X166350500Y-80500500D01*
X166417539Y-80520185D01*
X166463294Y-80572989D01*
X166474500Y-80624500D01*
X166474500Y-81784310D01*
X166488438Y-81836330D01*
X166488439Y-81836330D01*
X166505201Y-81898888D01*
X166534856Y-81950250D01*
X166564511Y-82001614D01*
X166564513Y-82001616D01*
X167513181Y-82950284D01*
X167546666Y-83011607D01*
X167549500Y-83037965D01*
X167549500Y-85729488D01*
X167529815Y-85796527D01*
X167477011Y-85842282D01*
X167441686Y-85852427D01*
X167380843Y-85860437D01*
X167356291Y-85863670D01*
X167356290Y-85863670D01*
X167356287Y-85863671D01*
X167222377Y-85919137D01*
X167107379Y-86007379D01*
X167019137Y-86122377D01*
X166963671Y-86256287D01*
X166963670Y-86256291D01*
X166944750Y-86399999D01*
X166944750Y-86400000D01*
X166963670Y-86543708D01*
X166963671Y-86543712D01*
X167019137Y-86677622D01*
X167019138Y-86677624D01*
X167019139Y-86677625D01*
X167107379Y-86792621D01*
X167222375Y-86880861D01*
X167356291Y-86936330D01*
X167441686Y-86947572D01*
X167505582Y-86975838D01*
X167544053Y-87034163D01*
X167549500Y-87070511D01*
X167549500Y-96325500D01*
X167529815Y-96392539D01*
X167477011Y-96438294D01*
X167425500Y-96449500D01*
X165763797Y-96449500D01*
X165696758Y-96429815D01*
X165651003Y-96377011D01*
X165640858Y-96309315D01*
X165640858Y-96309314D01*
X165649889Y-96240714D01*
X165678155Y-96176819D01*
X165736479Y-96138348D01*
X165740737Y-96137125D01*
X165743691Y-96136332D01*
X165743709Y-96136330D01*
X165877625Y-96080861D01*
X165992621Y-95992621D01*
X166080861Y-95877625D01*
X166136330Y-95743709D01*
X166155250Y-95600000D01*
X166155241Y-95599935D01*
X166146415Y-95532896D01*
X166136330Y-95456291D01*
X166080861Y-95322375D01*
X166044881Y-95275485D01*
X166019687Y-95210318D01*
X166033725Y-95141873D01*
X166044882Y-95124513D01*
X166080861Y-95077625D01*
X166136330Y-94943709D01*
X166155250Y-94800000D01*
X166136330Y-94656291D01*
X166080861Y-94522375D01*
X166044881Y-94475485D01*
X166019687Y-94410318D01*
X166033725Y-94341873D01*
X166044882Y-94324513D01*
X166080861Y-94277625D01*
X166136330Y-94143709D01*
X166155250Y-94000000D01*
X166136330Y-93856291D01*
X166080861Y-93722375D01*
X166044881Y-93675485D01*
X166019687Y-93610318D01*
X166033725Y-93541873D01*
X166044882Y-93524513D01*
X166080861Y-93477625D01*
X166136330Y-93343709D01*
X166155250Y-93200000D01*
X166136330Y-93056291D01*
X166080861Y-92922375D01*
X165992621Y-92807379D01*
X165992619Y-92807377D01*
X165992615Y-92807372D01*
X165986871Y-92801628D01*
X165989387Y-92799111D01*
X165957797Y-92755817D01*
X165950500Y-92713908D01*
X165950500Y-91553858D01*
X165950500Y-91553856D01*
X165926614Y-91464712D01*
X165926612Y-91464708D01*
X165900499Y-91419479D01*
X165880472Y-91384791D01*
X165880468Y-91384786D01*
X163986819Y-89491137D01*
X163953334Y-89429814D01*
X163950500Y-89403456D01*
X163950500Y-83353858D01*
X163950500Y-83353856D01*
X163926614Y-83264712D01*
X163915893Y-83246143D01*
X163880470Y-83184788D01*
X161615212Y-80919530D01*
X161615211Y-80919529D01*
X161615208Y-80919527D01*
X161535291Y-80873387D01*
X161535287Y-80873385D01*
X161529926Y-80871949D01*
X161529926Y-80871948D01*
X161461476Y-80853608D01*
X161446144Y-80849500D01*
X161446143Y-80849500D01*
X148636668Y-80849500D01*
X148569629Y-80829815D01*
X148523874Y-80777011D01*
X148513930Y-80707853D01*
X148522106Y-80678049D01*
X148524018Y-80673433D01*
X148536330Y-80643709D01*
X148555250Y-80500000D01*
X148536330Y-80356291D01*
X148536326Y-80356282D01*
X148534374Y-80348994D01*
X148536033Y-80279144D01*
X148566464Y-80229216D01*
X149395680Y-79399999D01*
X150579785Y-79399999D01*
X150579785Y-79400000D01*
X150598602Y-79603082D01*
X150654417Y-79799247D01*
X150654422Y-79799260D01*
X150745327Y-79981821D01*
X150868237Y-80144581D01*
X151018958Y-80281980D01*
X151018960Y-80281982D01*
X151118141Y-80343392D01*
X151192363Y-80389348D01*
X151382544Y-80463024D01*
X151583024Y-80500500D01*
X151583026Y-80500500D01*
X151786974Y-80500500D01*
X151786976Y-80500500D01*
X151987456Y-80463024D01*
X152177637Y-80389348D01*
X152351041Y-80281981D01*
X152501764Y-80144579D01*
X152624673Y-79981821D01*
X152715582Y-79799250D01*
X152771397Y-79603083D01*
X152790215Y-79400000D01*
X152790215Y-79399999D01*
X153119785Y-79399999D01*
X153119785Y-79400000D01*
X153138602Y-79603082D01*
X153194417Y-79799247D01*
X153194422Y-79799260D01*
X153285327Y-79981821D01*
X153408237Y-80144581D01*
X153558958Y-80281980D01*
X153558960Y-80281982D01*
X153658141Y-80343392D01*
X153732363Y-80389348D01*
X153922544Y-80463024D01*
X154123024Y-80500500D01*
X154123026Y-80500500D01*
X154326974Y-80500500D01*
X154326976Y-80500500D01*
X154527456Y-80463024D01*
X154717637Y-80389348D01*
X154891041Y-80281981D01*
X155041764Y-80144579D01*
X155164673Y-79981821D01*
X155255582Y-79799250D01*
X155311397Y-79603083D01*
X155330215Y-79400000D01*
X155330215Y-79399999D01*
X155659785Y-79399999D01*
X155659785Y-79400000D01*
X155678602Y-79603082D01*
X155734417Y-79799247D01*
X155734422Y-79799260D01*
X155825327Y-79981821D01*
X155948237Y-80144581D01*
X156098958Y-80281980D01*
X156098960Y-80281982D01*
X156198141Y-80343392D01*
X156272363Y-80389348D01*
X156462544Y-80463024D01*
X156663024Y-80500500D01*
X156663026Y-80500500D01*
X156866974Y-80500500D01*
X156866976Y-80500500D01*
X157067456Y-80463024D01*
X157257637Y-80389348D01*
X157431041Y-80281981D01*
X157581764Y-80144579D01*
X157704673Y-79981821D01*
X157795582Y-79799250D01*
X157851397Y-79603083D01*
X157870215Y-79400000D01*
X157870215Y-79399999D01*
X158199785Y-79399999D01*
X158199785Y-79400000D01*
X158218602Y-79603082D01*
X158274417Y-79799247D01*
X158274422Y-79799260D01*
X158365327Y-79981821D01*
X158488237Y-80144581D01*
X158638958Y-80281980D01*
X158638960Y-80281982D01*
X158738141Y-80343392D01*
X158812363Y-80389348D01*
X159002544Y-80463024D01*
X159203024Y-80500500D01*
X159203026Y-80500500D01*
X159406974Y-80500500D01*
X159406976Y-80500500D01*
X159607456Y-80463024D01*
X159797637Y-80389348D01*
X159971041Y-80281981D01*
X160121764Y-80144579D01*
X160244673Y-79981821D01*
X160335582Y-79799250D01*
X160391397Y-79603083D01*
X160410215Y-79400000D01*
X160404115Y-79334174D01*
X160391397Y-79196917D01*
X160374039Y-79135912D01*
X160335582Y-79000750D01*
X160335159Y-78999901D01*
X160258582Y-78846112D01*
X160244673Y-78818179D01*
X160121764Y-78655421D01*
X160121762Y-78655418D01*
X159971041Y-78518019D01*
X159971039Y-78518017D01*
X159797642Y-78410655D01*
X159797635Y-78410651D01*
X159691150Y-78369399D01*
X159607456Y-78336976D01*
X159406976Y-78299500D01*
X159203024Y-78299500D01*
X159002544Y-78336976D01*
X159002541Y-78336976D01*
X159002541Y-78336977D01*
X158812364Y-78410651D01*
X158812357Y-78410655D01*
X158638960Y-78518017D01*
X158638958Y-78518019D01*
X158488237Y-78655418D01*
X158365327Y-78818178D01*
X158274422Y-79000739D01*
X158274417Y-79000752D01*
X158218602Y-79196917D01*
X158199785Y-79399999D01*
X157870215Y-79399999D01*
X157864115Y-79334174D01*
X157851397Y-79196917D01*
X157834039Y-79135912D01*
X157795582Y-79000750D01*
X157795159Y-78999901D01*
X157718582Y-78846112D01*
X157704673Y-78818179D01*
X157581764Y-78655421D01*
X157581762Y-78655418D01*
X157431041Y-78518019D01*
X157431039Y-78518017D01*
X157257642Y-78410655D01*
X157257635Y-78410651D01*
X157151150Y-78369399D01*
X157067456Y-78336976D01*
X156866976Y-78299500D01*
X156663024Y-78299500D01*
X156462544Y-78336976D01*
X156462541Y-78336976D01*
X156462541Y-78336977D01*
X156272364Y-78410651D01*
X156272357Y-78410655D01*
X156098960Y-78518017D01*
X156098958Y-78518019D01*
X155948237Y-78655418D01*
X155825327Y-78818178D01*
X155734422Y-79000739D01*
X155734417Y-79000752D01*
X155678602Y-79196917D01*
X155659785Y-79399999D01*
X155330215Y-79399999D01*
X155324115Y-79334174D01*
X155311397Y-79196917D01*
X155294039Y-79135912D01*
X155255582Y-79000750D01*
X155255159Y-78999901D01*
X155178582Y-78846112D01*
X155164673Y-78818179D01*
X155041764Y-78655421D01*
X155041762Y-78655418D01*
X154891041Y-78518019D01*
X154891039Y-78518017D01*
X154717642Y-78410655D01*
X154717635Y-78410651D01*
X154611150Y-78369399D01*
X154527456Y-78336976D01*
X154326976Y-78299500D01*
X154123024Y-78299500D01*
X153922544Y-78336976D01*
X153922541Y-78336976D01*
X153922541Y-78336977D01*
X153732364Y-78410651D01*
X153732357Y-78410655D01*
X153558960Y-78518017D01*
X153558958Y-78518019D01*
X153408237Y-78655418D01*
X153285327Y-78818178D01*
X153194422Y-79000739D01*
X153194417Y-79000752D01*
X153138602Y-79196917D01*
X153119785Y-79399999D01*
X152790215Y-79399999D01*
X152784115Y-79334174D01*
X152771397Y-79196917D01*
X152754039Y-79135912D01*
X152715582Y-79000750D01*
X152715159Y-78999901D01*
X152638582Y-78846112D01*
X152624673Y-78818179D01*
X152501764Y-78655421D01*
X152501762Y-78655418D01*
X152351041Y-78518019D01*
X152351039Y-78518017D01*
X152177642Y-78410655D01*
X152177635Y-78410651D01*
X152071150Y-78369399D01*
X151987456Y-78336976D01*
X151786976Y-78299500D01*
X151583024Y-78299500D01*
X151382544Y-78336976D01*
X151382541Y-78336976D01*
X151382541Y-78336977D01*
X151192364Y-78410651D01*
X151192357Y-78410655D01*
X151018960Y-78518017D01*
X151018958Y-78518019D01*
X150868237Y-78655418D01*
X150745327Y-78818178D01*
X150654422Y-79000739D01*
X150654417Y-79000752D01*
X150598602Y-79196917D01*
X150579785Y-79399999D01*
X149395680Y-79399999D01*
X149704122Y-79091557D01*
X149765443Y-79058074D01*
X149791871Y-79057117D01*
X149791871Y-79055250D01*
X149800000Y-79055250D01*
X149943709Y-79036330D01*
X150077625Y-78980861D01*
X150192621Y-78892621D01*
X150280861Y-78777625D01*
X150336330Y-78643709D01*
X150355250Y-78500000D01*
X150336330Y-78356291D01*
X150289817Y-78243997D01*
X150280862Y-78222377D01*
X150280861Y-78222376D01*
X150280861Y-78222375D01*
X150192621Y-78107379D01*
X150082492Y-78022874D01*
X150041292Y-77966448D01*
X150037137Y-77896702D01*
X150071350Y-77835781D01*
X150133067Y-77803029D01*
X150157981Y-77800500D01*
X167652405Y-77800500D01*
X167693907Y-77800500D01*
X167706061Y-77801097D01*
G37*
%TD.AperFunction*%
%TD*%
%TA.AperFunction,Conductor*%
%TO.N,/TOUCH*%
G36*
X143001121Y-88300020D02*
G01*
X143135109Y-88302409D01*
X143150528Y-88303650D01*
X143416897Y-88341948D01*
X143434184Y-88345708D01*
X143691313Y-88421209D01*
X143707887Y-88427391D01*
X143817159Y-88477293D01*
X143951659Y-88538717D01*
X143967173Y-88547188D01*
X144192628Y-88692080D01*
X144206787Y-88702679D01*
X144409317Y-88878172D01*
X144421827Y-88890682D01*
X144597320Y-89093212D01*
X144607921Y-89107374D01*
X144752808Y-89332821D01*
X144761284Y-89348345D01*
X144872608Y-89592112D01*
X144878791Y-89608688D01*
X144954290Y-89865814D01*
X144958051Y-89883102D01*
X144996348Y-90149463D01*
X144997590Y-90164898D01*
X144999980Y-90298877D01*
X145000000Y-90301089D01*
X145000000Y-93898910D01*
X144999980Y-93901122D01*
X144997590Y-94035101D01*
X144996348Y-94050536D01*
X144958051Y-94316897D01*
X144954290Y-94334185D01*
X144878791Y-94591311D01*
X144872608Y-94607887D01*
X144761284Y-94851654D01*
X144752805Y-94867183D01*
X144607922Y-95092624D01*
X144597320Y-95106787D01*
X144421827Y-95309317D01*
X144409317Y-95321827D01*
X144206787Y-95497320D01*
X144192624Y-95507922D01*
X143967183Y-95652805D01*
X143951654Y-95661284D01*
X143707887Y-95772608D01*
X143691311Y-95778791D01*
X143434185Y-95854290D01*
X143416897Y-95858051D01*
X143150536Y-95896348D01*
X143135101Y-95897590D01*
X143004818Y-95899914D01*
X143001120Y-95899980D01*
X142998910Y-95900000D01*
X136301090Y-95900000D01*
X136298879Y-95899980D01*
X136295015Y-95899911D01*
X136164898Y-95897590D01*
X136149463Y-95896348D01*
X135883102Y-95858051D01*
X135865814Y-95854290D01*
X135608688Y-95778791D01*
X135592112Y-95772608D01*
X135348345Y-95661284D01*
X135332821Y-95652808D01*
X135107374Y-95507921D01*
X135093212Y-95497320D01*
X134890682Y-95321827D01*
X134878172Y-95309317D01*
X134702679Y-95106787D01*
X134692077Y-95092624D01*
X134547188Y-94867173D01*
X134538715Y-94851654D01*
X134427391Y-94607887D01*
X134421208Y-94591311D01*
X134345709Y-94334185D01*
X134341948Y-94316897D01*
X134303651Y-94050536D01*
X134302409Y-94035109D01*
X134300020Y-93901121D01*
X134300000Y-93898910D01*
X134300000Y-90301089D01*
X134300020Y-90298878D01*
X134300020Y-90298877D01*
X134302409Y-90164889D01*
X134303650Y-90149472D01*
X134341948Y-89883099D01*
X134345709Y-89865814D01*
X134421210Y-89608681D01*
X134427391Y-89592112D01*
X134538720Y-89348334D01*
X134547185Y-89332832D01*
X134692084Y-89107364D01*
X134702670Y-89093222D01*
X134878177Y-88890676D01*
X134890676Y-88878177D01*
X135093222Y-88702670D01*
X135107364Y-88692084D01*
X135332832Y-88547185D01*
X135348334Y-88538720D01*
X135592112Y-88427390D01*
X135608681Y-88421210D01*
X135865818Y-88345707D01*
X135883099Y-88341948D01*
X136149472Y-88303650D01*
X136164889Y-88302409D01*
X136298879Y-88300020D01*
X136301090Y-88300000D01*
X142998910Y-88300000D01*
X143001121Y-88300020D01*
G37*
%TD.AperFunction*%
%TD*%
M02*
