%TF.GenerationSoftware,KiCad,Pcbnew,8.0.7*%
%TF.CreationDate,2025-01-23T23:10:57+01:00*%
%TF.ProjectId,scd30_esp,73636433-305f-4657-9370-2e6b69636164,rev?*%
%TF.SameCoordinates,Original*%
%TF.FileFunction,Legend,Top*%
%TF.FilePolarity,Positive*%
%FSLAX46Y46*%
G04 Gerber Fmt 4.6, Leading zero omitted, Abs format (unit mm)*
G04 Created by KiCad (PCBNEW 8.0.7) date 2025-01-23 23:10:57*
%MOMM*%
%LPD*%
G01*
G04 APERTURE LIST*
G04 Aperture macros list*
%AMRoundRect*
0 Rectangle with rounded corners*
0 $1 Rounding radius*
0 $2 $3 $4 $5 $6 $7 $8 $9 X,Y pos of 4 corners*
0 Add a 4 corners polygon primitive as box body*
4,1,4,$2,$3,$4,$5,$6,$7,$8,$9,$2,$3,0*
0 Add four circle primitives for the rounded corners*
1,1,$1+$1,$2,$3*
1,1,$1+$1,$4,$5*
1,1,$1+$1,$6,$7*
1,1,$1+$1,$8,$9*
0 Add four rect primitives between the rounded corners*
20,1,$1+$1,$2,$3,$4,$5,0*
20,1,$1+$1,$4,$5,$6,$7,0*
20,1,$1+$1,$6,$7,$8,$9,0*
20,1,$1+$1,$8,$9,$2,$3,0*%
G04 Aperture macros list end*
%ADD10C,0.100000*%
%ADD11C,0.150000*%
%ADD12C,0.120000*%
%ADD13C,0.127000*%
%ADD14C,0.200000*%
%ADD15C,0.010000*%
%ADD16RoundRect,0.200000X-0.200000X-0.275000X0.200000X-0.275000X0.200000X0.275000X-0.200000X0.275000X0*%
%ADD17RoundRect,0.225000X-0.250000X0.225000X-0.250000X-0.225000X0.250000X-0.225000X0.250000X0.225000X0*%
%ADD18RoundRect,0.225000X0.225000X0.250000X-0.225000X0.250000X-0.225000X-0.250000X0.225000X-0.250000X0*%
%ADD19RoundRect,0.140000X-0.170000X0.140000X-0.170000X-0.140000X0.170000X-0.140000X0.170000X0.140000X0*%
%ADD20R,1.400000X0.300000*%
%ADD21RoundRect,0.200000X0.200000X0.275000X-0.200000X0.275000X-0.200000X-0.275000X0.200000X-0.275000X0*%
%ADD22R,1.700000X1.700000*%
%ADD23O,1.700000X1.700000*%
%ADD24RoundRect,0.250000X0.625000X-0.312500X0.625000X0.312500X-0.625000X0.312500X-0.625000X-0.312500X0*%
%ADD25C,3.200000*%
%ADD26RoundRect,0.075000X0.325000X-0.075000X0.325000X0.075000X-0.325000X0.075000X-0.325000X-0.075000X0*%
%ADD27RoundRect,0.200000X0.200000X-0.300000X0.200000X0.300000X-0.200000X0.300000X-0.200000X-0.300000X0*%
%ADD28RoundRect,0.112500X0.112500X-0.187500X0.112500X0.187500X-0.112500X0.187500X-0.112500X-0.187500X0*%
%ADD29RoundRect,0.150000X-0.150000X-0.625000X0.150000X-0.625000X0.150000X0.625000X-0.150000X0.625000X0*%
%ADD30RoundRect,0.250000X-0.350000X-0.650000X0.350000X-0.650000X0.350000X0.650000X-0.350000X0.650000X0*%
%ADD31R,0.650000X0.400000*%
%ADD32C,0.650000*%
%ADD33R,0.600000X1.450000*%
%ADD34R,0.300000X1.450000*%
%ADD35O,1.000000X2.100000*%
%ADD36O,1.000000X1.600000*%
%ADD37RoundRect,0.150000X-0.587500X-0.150000X0.587500X-0.150000X0.587500X0.150000X-0.587500X0.150000X0*%
%ADD38RoundRect,0.150000X-0.825000X-0.150000X0.825000X-0.150000X0.825000X0.150000X-0.825000X0.150000X0*%
%ADD39RoundRect,0.250000X0.475000X-0.250000X0.475000X0.250000X-0.475000X0.250000X-0.475000X-0.250000X0*%
%ADD40RoundRect,0.250000X0.312500X0.625000X-0.312500X0.625000X-0.312500X-0.625000X0.312500X-0.625000X0*%
%ADD41R,0.900000X1.500000*%
%ADD42R,1.500000X0.900000*%
%ADD43R,0.900000X0.900000*%
%ADD44RoundRect,0.250000X-1.075000X0.375000X-1.075000X-0.375000X1.075000X-0.375000X1.075000X0.375000X0*%
%ADD45RoundRect,0.250000X-0.250000X-0.475000X0.250000X-0.475000X0.250000X0.475000X-0.250000X0.475000X0*%
%ADD46RoundRect,0.140000X0.140000X0.170000X-0.140000X0.170000X-0.140000X-0.170000X0.140000X-0.170000X0*%
%ADD47RoundRect,0.112500X-0.187500X-0.112500X0.187500X-0.112500X0.187500X0.112500X-0.187500X0.112500X0*%
%ADD48RoundRect,0.225000X-0.375000X0.225000X-0.375000X-0.225000X0.375000X-0.225000X0.375000X0.225000X0*%
%ADD49RoundRect,0.150000X-0.512500X-0.150000X0.512500X-0.150000X0.512500X0.150000X-0.512500X0.150000X0*%
%ADD50RoundRect,0.250000X0.250000X0.475000X-0.250000X0.475000X-0.250000X-0.475000X0.250000X-0.475000X0*%
%ADD51RoundRect,0.250200X-0.649800X0.649800X-0.649800X-0.649800X0.649800X-0.649800X0.649800X0.649800X0*%
%ADD52C,1.800000*%
%ADD53RoundRect,0.150000X-0.150000X0.587500X-0.150000X-0.587500X0.150000X-0.587500X0.150000X0.587500X0*%
%ADD54RoundRect,0.250000X0.375000X0.850000X-0.375000X0.850000X-0.375000X-0.850000X0.375000X-0.850000X0*%
%ADD55RoundRect,0.112500X0.112500X0.237500X-0.112500X0.237500X-0.112500X-0.237500X0.112500X-0.237500X0*%
%ADD56RoundRect,0.250000X-0.475000X0.250000X-0.475000X-0.250000X0.475000X-0.250000X0.475000X0.250000X0*%
%ADD57RoundRect,0.225000X0.375000X-0.225000X0.375000X0.225000X-0.375000X0.225000X-0.375000X-0.225000X0*%
G04 APERTURE END LIST*
D10*
X147600000Y-82900000D02*
X152600000Y-82900000D01*
X152600000Y-87900000D01*
X147600000Y-87900000D01*
X147600000Y-82900000D01*
G36*
X147600000Y-82900000D02*
G01*
X152600000Y-82900000D01*
X152600000Y-87900000D01*
X147600000Y-87900000D01*
X147600000Y-82900000D01*
G37*
D11*
X131833333Y-80707200D02*
X131928571Y-80754819D01*
X131928571Y-80754819D02*
X132119047Y-80754819D01*
X132119047Y-80754819D02*
X132214285Y-80707200D01*
X132214285Y-80707200D02*
X132261904Y-80611961D01*
X132261904Y-80611961D02*
X132261904Y-80564342D01*
X132261904Y-80564342D02*
X132214285Y-80469104D01*
X132214285Y-80469104D02*
X132119047Y-80421485D01*
X132119047Y-80421485D02*
X131976190Y-80421485D01*
X131976190Y-80421485D02*
X131880952Y-80373866D01*
X131880952Y-80373866D02*
X131833333Y-80278628D01*
X131833333Y-80278628D02*
X131833333Y-80231009D01*
X131833333Y-80231009D02*
X131880952Y-80135771D01*
X131880952Y-80135771D02*
X131976190Y-80088152D01*
X131976190Y-80088152D02*
X132119047Y-80088152D01*
X132119047Y-80088152D02*
X132214285Y-80135771D01*
X133119047Y-80707200D02*
X133023809Y-80754819D01*
X133023809Y-80754819D02*
X132833333Y-80754819D01*
X132833333Y-80754819D02*
X132738095Y-80707200D01*
X132738095Y-80707200D02*
X132690476Y-80659580D01*
X132690476Y-80659580D02*
X132642857Y-80564342D01*
X132642857Y-80564342D02*
X132642857Y-80278628D01*
X132642857Y-80278628D02*
X132690476Y-80183390D01*
X132690476Y-80183390D02*
X132738095Y-80135771D01*
X132738095Y-80135771D02*
X132833333Y-80088152D01*
X132833333Y-80088152D02*
X133023809Y-80088152D01*
X133023809Y-80088152D02*
X133119047Y-80135771D01*
X133547619Y-80754819D02*
X133547619Y-79754819D01*
X133976190Y-80754819D02*
X133976190Y-80231009D01*
X133976190Y-80231009D02*
X133928571Y-80135771D01*
X133928571Y-80135771D02*
X133833333Y-80088152D01*
X133833333Y-80088152D02*
X133690476Y-80088152D01*
X133690476Y-80088152D02*
X133595238Y-80135771D01*
X133595238Y-80135771D02*
X133547619Y-80183390D01*
X134833333Y-80707200D02*
X134738095Y-80754819D01*
X134738095Y-80754819D02*
X134547619Y-80754819D01*
X134547619Y-80754819D02*
X134452381Y-80707200D01*
X134452381Y-80707200D02*
X134404762Y-80611961D01*
X134404762Y-80611961D02*
X134404762Y-80231009D01*
X134404762Y-80231009D02*
X134452381Y-80135771D01*
X134452381Y-80135771D02*
X134547619Y-80088152D01*
X134547619Y-80088152D02*
X134738095Y-80088152D01*
X134738095Y-80088152D02*
X134833333Y-80135771D01*
X134833333Y-80135771D02*
X134880952Y-80231009D01*
X134880952Y-80231009D02*
X134880952Y-80326247D01*
X134880952Y-80326247D02*
X134404762Y-80421485D01*
X135309524Y-80659580D02*
X135357143Y-80707200D01*
X135357143Y-80707200D02*
X135309524Y-80754819D01*
X135309524Y-80754819D02*
X135261905Y-80707200D01*
X135261905Y-80707200D02*
X135309524Y-80659580D01*
X135309524Y-80659580D02*
X135309524Y-80754819D01*
X136214285Y-80707200D02*
X136119047Y-80754819D01*
X136119047Y-80754819D02*
X135928571Y-80754819D01*
X135928571Y-80754819D02*
X135833333Y-80707200D01*
X135833333Y-80707200D02*
X135785714Y-80659580D01*
X135785714Y-80659580D02*
X135738095Y-80564342D01*
X135738095Y-80564342D02*
X135738095Y-80278628D01*
X135738095Y-80278628D02*
X135785714Y-80183390D01*
X135785714Y-80183390D02*
X135833333Y-80135771D01*
X135833333Y-80135771D02*
X135928571Y-80088152D01*
X135928571Y-80088152D02*
X136119047Y-80088152D01*
X136119047Y-80088152D02*
X136214285Y-80135771D01*
X137071428Y-80707200D02*
X136976190Y-80754819D01*
X136976190Y-80754819D02*
X136785714Y-80754819D01*
X136785714Y-80754819D02*
X136690476Y-80707200D01*
X136690476Y-80707200D02*
X136642857Y-80659580D01*
X136642857Y-80659580D02*
X136595238Y-80564342D01*
X136595238Y-80564342D02*
X136595238Y-80278628D01*
X136595238Y-80278628D02*
X136642857Y-80183390D01*
X136642857Y-80183390D02*
X136690476Y-80135771D01*
X136690476Y-80135771D02*
X136785714Y-80088152D01*
X136785714Y-80088152D02*
X136976190Y-80088152D01*
X136976190Y-80088152D02*
X137071428Y-80135771D01*
X138214285Y-79707200D02*
X137357143Y-80992914D01*
X138500000Y-80707200D02*
X138595238Y-80754819D01*
X138595238Y-80754819D02*
X138785714Y-80754819D01*
X138785714Y-80754819D02*
X138880952Y-80707200D01*
X138880952Y-80707200D02*
X138928571Y-80611961D01*
X138928571Y-80611961D02*
X138928571Y-80564342D01*
X138928571Y-80564342D02*
X138880952Y-80469104D01*
X138880952Y-80469104D02*
X138785714Y-80421485D01*
X138785714Y-80421485D02*
X138642857Y-80421485D01*
X138642857Y-80421485D02*
X138547619Y-80373866D01*
X138547619Y-80373866D02*
X138500000Y-80278628D01*
X138500000Y-80278628D02*
X138500000Y-80231009D01*
X138500000Y-80231009D02*
X138547619Y-80135771D01*
X138547619Y-80135771D02*
X138642857Y-80088152D01*
X138642857Y-80088152D02*
X138785714Y-80088152D01*
X138785714Y-80088152D02*
X138880952Y-80135771D01*
X139785714Y-80707200D02*
X139690476Y-80754819D01*
X139690476Y-80754819D02*
X139500000Y-80754819D01*
X139500000Y-80754819D02*
X139404762Y-80707200D01*
X139404762Y-80707200D02*
X139357143Y-80659580D01*
X139357143Y-80659580D02*
X139309524Y-80564342D01*
X139309524Y-80564342D02*
X139309524Y-80278628D01*
X139309524Y-80278628D02*
X139357143Y-80183390D01*
X139357143Y-80183390D02*
X139404762Y-80135771D01*
X139404762Y-80135771D02*
X139500000Y-80088152D01*
X139500000Y-80088152D02*
X139690476Y-80088152D01*
X139690476Y-80088152D02*
X139785714Y-80135771D01*
X140642857Y-80754819D02*
X140642857Y-79754819D01*
X140642857Y-80707200D02*
X140547619Y-80754819D01*
X140547619Y-80754819D02*
X140357143Y-80754819D01*
X140357143Y-80754819D02*
X140261905Y-80707200D01*
X140261905Y-80707200D02*
X140214286Y-80659580D01*
X140214286Y-80659580D02*
X140166667Y-80564342D01*
X140166667Y-80564342D02*
X140166667Y-80278628D01*
X140166667Y-80278628D02*
X140214286Y-80183390D01*
X140214286Y-80183390D02*
X140261905Y-80135771D01*
X140261905Y-80135771D02*
X140357143Y-80088152D01*
X140357143Y-80088152D02*
X140547619Y-80088152D01*
X140547619Y-80088152D02*
X140642857Y-80135771D01*
X141023810Y-79754819D02*
X141642857Y-79754819D01*
X141642857Y-79754819D02*
X141309524Y-80135771D01*
X141309524Y-80135771D02*
X141452381Y-80135771D01*
X141452381Y-80135771D02*
X141547619Y-80183390D01*
X141547619Y-80183390D02*
X141595238Y-80231009D01*
X141595238Y-80231009D02*
X141642857Y-80326247D01*
X141642857Y-80326247D02*
X141642857Y-80564342D01*
X141642857Y-80564342D02*
X141595238Y-80659580D01*
X141595238Y-80659580D02*
X141547619Y-80707200D01*
X141547619Y-80707200D02*
X141452381Y-80754819D01*
X141452381Y-80754819D02*
X141166667Y-80754819D01*
X141166667Y-80754819D02*
X141071429Y-80707200D01*
X141071429Y-80707200D02*
X141023810Y-80659580D01*
X142261905Y-79754819D02*
X142357143Y-79754819D01*
X142357143Y-79754819D02*
X142452381Y-79802438D01*
X142452381Y-79802438D02*
X142500000Y-79850057D01*
X142500000Y-79850057D02*
X142547619Y-79945295D01*
X142547619Y-79945295D02*
X142595238Y-80135771D01*
X142595238Y-80135771D02*
X142595238Y-80373866D01*
X142595238Y-80373866D02*
X142547619Y-80564342D01*
X142547619Y-80564342D02*
X142500000Y-80659580D01*
X142500000Y-80659580D02*
X142452381Y-80707200D01*
X142452381Y-80707200D02*
X142357143Y-80754819D01*
X142357143Y-80754819D02*
X142261905Y-80754819D01*
X142261905Y-80754819D02*
X142166667Y-80707200D01*
X142166667Y-80707200D02*
X142119048Y-80659580D01*
X142119048Y-80659580D02*
X142071429Y-80564342D01*
X142071429Y-80564342D02*
X142023810Y-80373866D01*
X142023810Y-80373866D02*
X142023810Y-80135771D01*
X142023810Y-80135771D02*
X142071429Y-79945295D01*
X142071429Y-79945295D02*
X142119048Y-79850057D01*
X142119048Y-79850057D02*
X142166667Y-79802438D01*
X142166667Y-79802438D02*
X142261905Y-79754819D01*
X143404762Y-80707200D02*
X143309524Y-80754819D01*
X143309524Y-80754819D02*
X143119048Y-80754819D01*
X143119048Y-80754819D02*
X143023810Y-80707200D01*
X143023810Y-80707200D02*
X142976191Y-80611961D01*
X142976191Y-80611961D02*
X142976191Y-80231009D01*
X142976191Y-80231009D02*
X143023810Y-80135771D01*
X143023810Y-80135771D02*
X143119048Y-80088152D01*
X143119048Y-80088152D02*
X143309524Y-80088152D01*
X143309524Y-80088152D02*
X143404762Y-80135771D01*
X143404762Y-80135771D02*
X143452381Y-80231009D01*
X143452381Y-80231009D02*
X143452381Y-80326247D01*
X143452381Y-80326247D02*
X142976191Y-80421485D01*
X143833334Y-80707200D02*
X143928572Y-80754819D01*
X143928572Y-80754819D02*
X144119048Y-80754819D01*
X144119048Y-80754819D02*
X144214286Y-80707200D01*
X144214286Y-80707200D02*
X144261905Y-80611961D01*
X144261905Y-80611961D02*
X144261905Y-80564342D01*
X144261905Y-80564342D02*
X144214286Y-80469104D01*
X144214286Y-80469104D02*
X144119048Y-80421485D01*
X144119048Y-80421485D02*
X143976191Y-80421485D01*
X143976191Y-80421485D02*
X143880953Y-80373866D01*
X143880953Y-80373866D02*
X143833334Y-80278628D01*
X143833334Y-80278628D02*
X143833334Y-80231009D01*
X143833334Y-80231009D02*
X143880953Y-80135771D01*
X143880953Y-80135771D02*
X143976191Y-80088152D01*
X143976191Y-80088152D02*
X144119048Y-80088152D01*
X144119048Y-80088152D02*
X144214286Y-80135771D01*
X144690477Y-80088152D02*
X144690477Y-81088152D01*
X144690477Y-80135771D02*
X144785715Y-80088152D01*
X144785715Y-80088152D02*
X144976191Y-80088152D01*
X144976191Y-80088152D02*
X145071429Y-80135771D01*
X145071429Y-80135771D02*
X145119048Y-80183390D01*
X145119048Y-80183390D02*
X145166667Y-80278628D01*
X145166667Y-80278628D02*
X145166667Y-80564342D01*
X145166667Y-80564342D02*
X145119048Y-80659580D01*
X145119048Y-80659580D02*
X145071429Y-80707200D01*
X145071429Y-80707200D02*
X144976191Y-80754819D01*
X144976191Y-80754819D02*
X144785715Y-80754819D01*
X144785715Y-80754819D02*
X144690477Y-80707200D01*
X131899999Y-79007200D02*
X132042856Y-79054819D01*
X132042856Y-79054819D02*
X132280951Y-79054819D01*
X132280951Y-79054819D02*
X132376189Y-79007200D01*
X132376189Y-79007200D02*
X132423808Y-78959580D01*
X132423808Y-78959580D02*
X132471427Y-78864342D01*
X132471427Y-78864342D02*
X132471427Y-78769104D01*
X132471427Y-78769104D02*
X132423808Y-78673866D01*
X132423808Y-78673866D02*
X132376189Y-78626247D01*
X132376189Y-78626247D02*
X132280951Y-78578628D01*
X132280951Y-78578628D02*
X132090475Y-78531009D01*
X132090475Y-78531009D02*
X131995237Y-78483390D01*
X131995237Y-78483390D02*
X131947618Y-78435771D01*
X131947618Y-78435771D02*
X131899999Y-78340533D01*
X131899999Y-78340533D02*
X131899999Y-78245295D01*
X131899999Y-78245295D02*
X131947618Y-78150057D01*
X131947618Y-78150057D02*
X131995237Y-78102438D01*
X131995237Y-78102438D02*
X132090475Y-78054819D01*
X132090475Y-78054819D02*
X132328570Y-78054819D01*
X132328570Y-78054819D02*
X132471427Y-78102438D01*
X133471427Y-78959580D02*
X133423808Y-79007200D01*
X133423808Y-79007200D02*
X133280951Y-79054819D01*
X133280951Y-79054819D02*
X133185713Y-79054819D01*
X133185713Y-79054819D02*
X133042856Y-79007200D01*
X133042856Y-79007200D02*
X132947618Y-78911961D01*
X132947618Y-78911961D02*
X132899999Y-78816723D01*
X132899999Y-78816723D02*
X132852380Y-78626247D01*
X132852380Y-78626247D02*
X132852380Y-78483390D01*
X132852380Y-78483390D02*
X132899999Y-78292914D01*
X132899999Y-78292914D02*
X132947618Y-78197676D01*
X132947618Y-78197676D02*
X133042856Y-78102438D01*
X133042856Y-78102438D02*
X133185713Y-78054819D01*
X133185713Y-78054819D02*
X133280951Y-78054819D01*
X133280951Y-78054819D02*
X133423808Y-78102438D01*
X133423808Y-78102438D02*
X133471427Y-78150057D01*
X133899999Y-79054819D02*
X133899999Y-78054819D01*
X133899999Y-78054819D02*
X134138094Y-78054819D01*
X134138094Y-78054819D02*
X134280951Y-78102438D01*
X134280951Y-78102438D02*
X134376189Y-78197676D01*
X134376189Y-78197676D02*
X134423808Y-78292914D01*
X134423808Y-78292914D02*
X134471427Y-78483390D01*
X134471427Y-78483390D02*
X134471427Y-78626247D01*
X134471427Y-78626247D02*
X134423808Y-78816723D01*
X134423808Y-78816723D02*
X134376189Y-78911961D01*
X134376189Y-78911961D02*
X134280951Y-79007200D01*
X134280951Y-79007200D02*
X134138094Y-79054819D01*
X134138094Y-79054819D02*
X133899999Y-79054819D01*
X134804761Y-78054819D02*
X135423808Y-78054819D01*
X135423808Y-78054819D02*
X135090475Y-78435771D01*
X135090475Y-78435771D02*
X135233332Y-78435771D01*
X135233332Y-78435771D02*
X135328570Y-78483390D01*
X135328570Y-78483390D02*
X135376189Y-78531009D01*
X135376189Y-78531009D02*
X135423808Y-78626247D01*
X135423808Y-78626247D02*
X135423808Y-78864342D01*
X135423808Y-78864342D02*
X135376189Y-78959580D01*
X135376189Y-78959580D02*
X135328570Y-79007200D01*
X135328570Y-79007200D02*
X135233332Y-79054819D01*
X135233332Y-79054819D02*
X134947618Y-79054819D01*
X134947618Y-79054819D02*
X134852380Y-79007200D01*
X134852380Y-79007200D02*
X134804761Y-78959580D01*
X136042856Y-78054819D02*
X136138094Y-78054819D01*
X136138094Y-78054819D02*
X136233332Y-78102438D01*
X136233332Y-78102438D02*
X136280951Y-78150057D01*
X136280951Y-78150057D02*
X136328570Y-78245295D01*
X136328570Y-78245295D02*
X136376189Y-78435771D01*
X136376189Y-78435771D02*
X136376189Y-78673866D01*
X136376189Y-78673866D02*
X136328570Y-78864342D01*
X136328570Y-78864342D02*
X136280951Y-78959580D01*
X136280951Y-78959580D02*
X136233332Y-79007200D01*
X136233332Y-79007200D02*
X136138094Y-79054819D01*
X136138094Y-79054819D02*
X136042856Y-79054819D01*
X136042856Y-79054819D02*
X135947618Y-79007200D01*
X135947618Y-79007200D02*
X135899999Y-78959580D01*
X135899999Y-78959580D02*
X135852380Y-78864342D01*
X135852380Y-78864342D02*
X135804761Y-78673866D01*
X135804761Y-78673866D02*
X135804761Y-78435771D01*
X135804761Y-78435771D02*
X135852380Y-78245295D01*
X135852380Y-78245295D02*
X135899999Y-78150057D01*
X135899999Y-78150057D02*
X135947618Y-78102438D01*
X135947618Y-78102438D02*
X136042856Y-78054819D01*
X137566666Y-78531009D02*
X137899999Y-78531009D01*
X138042856Y-79054819D02*
X137566666Y-79054819D01*
X137566666Y-79054819D02*
X137566666Y-78054819D01*
X137566666Y-78054819D02*
X138042856Y-78054819D01*
X138423809Y-79007200D02*
X138566666Y-79054819D01*
X138566666Y-79054819D02*
X138804761Y-79054819D01*
X138804761Y-79054819D02*
X138899999Y-79007200D01*
X138899999Y-79007200D02*
X138947618Y-78959580D01*
X138947618Y-78959580D02*
X138995237Y-78864342D01*
X138995237Y-78864342D02*
X138995237Y-78769104D01*
X138995237Y-78769104D02*
X138947618Y-78673866D01*
X138947618Y-78673866D02*
X138899999Y-78626247D01*
X138899999Y-78626247D02*
X138804761Y-78578628D01*
X138804761Y-78578628D02*
X138614285Y-78531009D01*
X138614285Y-78531009D02*
X138519047Y-78483390D01*
X138519047Y-78483390D02*
X138471428Y-78435771D01*
X138471428Y-78435771D02*
X138423809Y-78340533D01*
X138423809Y-78340533D02*
X138423809Y-78245295D01*
X138423809Y-78245295D02*
X138471428Y-78150057D01*
X138471428Y-78150057D02*
X138519047Y-78102438D01*
X138519047Y-78102438D02*
X138614285Y-78054819D01*
X138614285Y-78054819D02*
X138852380Y-78054819D01*
X138852380Y-78054819D02*
X138995237Y-78102438D01*
X139423809Y-79054819D02*
X139423809Y-78054819D01*
X139423809Y-78054819D02*
X139804761Y-78054819D01*
X139804761Y-78054819D02*
X139899999Y-78102438D01*
X139899999Y-78102438D02*
X139947618Y-78150057D01*
X139947618Y-78150057D02*
X139995237Y-78245295D01*
X139995237Y-78245295D02*
X139995237Y-78388152D01*
X139995237Y-78388152D02*
X139947618Y-78483390D01*
X139947618Y-78483390D02*
X139899999Y-78531009D01*
X139899999Y-78531009D02*
X139804761Y-78578628D01*
X139804761Y-78578628D02*
X139423809Y-78578628D01*
X140328571Y-78054819D02*
X140947618Y-78054819D01*
X140947618Y-78054819D02*
X140614285Y-78435771D01*
X140614285Y-78435771D02*
X140757142Y-78435771D01*
X140757142Y-78435771D02*
X140852380Y-78483390D01*
X140852380Y-78483390D02*
X140899999Y-78531009D01*
X140899999Y-78531009D02*
X140947618Y-78626247D01*
X140947618Y-78626247D02*
X140947618Y-78864342D01*
X140947618Y-78864342D02*
X140899999Y-78959580D01*
X140899999Y-78959580D02*
X140852380Y-79007200D01*
X140852380Y-79007200D02*
X140757142Y-79054819D01*
X140757142Y-79054819D02*
X140471428Y-79054819D01*
X140471428Y-79054819D02*
X140376190Y-79007200D01*
X140376190Y-79007200D02*
X140328571Y-78959580D01*
X141328571Y-78150057D02*
X141376190Y-78102438D01*
X141376190Y-78102438D02*
X141471428Y-78054819D01*
X141471428Y-78054819D02*
X141709523Y-78054819D01*
X141709523Y-78054819D02*
X141804761Y-78102438D01*
X141804761Y-78102438D02*
X141852380Y-78150057D01*
X141852380Y-78150057D02*
X141899999Y-78245295D01*
X141899999Y-78245295D02*
X141899999Y-78340533D01*
X141899999Y-78340533D02*
X141852380Y-78483390D01*
X141852380Y-78483390D02*
X141280952Y-79054819D01*
X141280952Y-79054819D02*
X141899999Y-79054819D01*
X143090476Y-79054819D02*
X143090476Y-78054819D01*
X143090476Y-78435771D02*
X143185714Y-78388152D01*
X143185714Y-78388152D02*
X143376190Y-78388152D01*
X143376190Y-78388152D02*
X143471428Y-78435771D01*
X143471428Y-78435771D02*
X143519047Y-78483390D01*
X143519047Y-78483390D02*
X143566666Y-78578628D01*
X143566666Y-78578628D02*
X143566666Y-78864342D01*
X143566666Y-78864342D02*
X143519047Y-78959580D01*
X143519047Y-78959580D02*
X143471428Y-79007200D01*
X143471428Y-79007200D02*
X143376190Y-79054819D01*
X143376190Y-79054819D02*
X143185714Y-79054819D01*
X143185714Y-79054819D02*
X143090476Y-79007200D01*
X144138095Y-79054819D02*
X144042857Y-79007200D01*
X144042857Y-79007200D02*
X143995238Y-78959580D01*
X143995238Y-78959580D02*
X143947619Y-78864342D01*
X143947619Y-78864342D02*
X143947619Y-78578628D01*
X143947619Y-78578628D02*
X143995238Y-78483390D01*
X143995238Y-78483390D02*
X144042857Y-78435771D01*
X144042857Y-78435771D02*
X144138095Y-78388152D01*
X144138095Y-78388152D02*
X144280952Y-78388152D01*
X144280952Y-78388152D02*
X144376190Y-78435771D01*
X144376190Y-78435771D02*
X144423809Y-78483390D01*
X144423809Y-78483390D02*
X144471428Y-78578628D01*
X144471428Y-78578628D02*
X144471428Y-78864342D01*
X144471428Y-78864342D02*
X144423809Y-78959580D01*
X144423809Y-78959580D02*
X144376190Y-79007200D01*
X144376190Y-79007200D02*
X144280952Y-79054819D01*
X144280952Y-79054819D02*
X144138095Y-79054819D01*
X145328571Y-79054819D02*
X145328571Y-78531009D01*
X145328571Y-78531009D02*
X145280952Y-78435771D01*
X145280952Y-78435771D02*
X145185714Y-78388152D01*
X145185714Y-78388152D02*
X144995238Y-78388152D01*
X144995238Y-78388152D02*
X144900000Y-78435771D01*
X145328571Y-79007200D02*
X145233333Y-79054819D01*
X145233333Y-79054819D02*
X144995238Y-79054819D01*
X144995238Y-79054819D02*
X144900000Y-79007200D01*
X144900000Y-79007200D02*
X144852381Y-78911961D01*
X144852381Y-78911961D02*
X144852381Y-78816723D01*
X144852381Y-78816723D02*
X144900000Y-78721485D01*
X144900000Y-78721485D02*
X144995238Y-78673866D01*
X144995238Y-78673866D02*
X145233333Y-78673866D01*
X145233333Y-78673866D02*
X145328571Y-78626247D01*
X145804762Y-79054819D02*
X145804762Y-78388152D01*
X145804762Y-78578628D02*
X145852381Y-78483390D01*
X145852381Y-78483390D02*
X145900000Y-78435771D01*
X145900000Y-78435771D02*
X145995238Y-78388152D01*
X145995238Y-78388152D02*
X146090476Y-78388152D01*
X146852381Y-79054819D02*
X146852381Y-78054819D01*
X146852381Y-79007200D02*
X146757143Y-79054819D01*
X146757143Y-79054819D02*
X146566667Y-79054819D01*
X146566667Y-79054819D02*
X146471429Y-79007200D01*
X146471429Y-79007200D02*
X146423810Y-78959580D01*
X146423810Y-78959580D02*
X146376191Y-78864342D01*
X146376191Y-78864342D02*
X146376191Y-78578628D01*
X146376191Y-78578628D02*
X146423810Y-78483390D01*
X146423810Y-78483390D02*
X146471429Y-78435771D01*
X146471429Y-78435771D02*
X146566667Y-78388152D01*
X146566667Y-78388152D02*
X146757143Y-78388152D01*
X146757143Y-78388152D02*
X146852381Y-78435771D01*
X131761905Y-81454819D02*
X132095238Y-82454819D01*
X132095238Y-82454819D02*
X132428571Y-81454819D01*
X133285714Y-82454819D02*
X132714286Y-82454819D01*
X133000000Y-82454819D02*
X133000000Y-81454819D01*
X133000000Y-81454819D02*
X132904762Y-81597676D01*
X132904762Y-81597676D02*
X132809524Y-81692914D01*
X132809524Y-81692914D02*
X132714286Y-81740533D01*
X133714286Y-82359580D02*
X133761905Y-82407200D01*
X133761905Y-82407200D02*
X133714286Y-82454819D01*
X133714286Y-82454819D02*
X133666667Y-82407200D01*
X133666667Y-82407200D02*
X133714286Y-82359580D01*
X133714286Y-82359580D02*
X133714286Y-82454819D01*
X134380952Y-81454819D02*
X134476190Y-81454819D01*
X134476190Y-81454819D02*
X134571428Y-81502438D01*
X134571428Y-81502438D02*
X134619047Y-81550057D01*
X134619047Y-81550057D02*
X134666666Y-81645295D01*
X134666666Y-81645295D02*
X134714285Y-81835771D01*
X134714285Y-81835771D02*
X134714285Y-82073866D01*
X134714285Y-82073866D02*
X134666666Y-82264342D01*
X134666666Y-82264342D02*
X134619047Y-82359580D01*
X134619047Y-82359580D02*
X134571428Y-82407200D01*
X134571428Y-82407200D02*
X134476190Y-82454819D01*
X134476190Y-82454819D02*
X134380952Y-82454819D01*
X134380952Y-82454819D02*
X134285714Y-82407200D01*
X134285714Y-82407200D02*
X134238095Y-82359580D01*
X134238095Y-82359580D02*
X134190476Y-82264342D01*
X134190476Y-82264342D02*
X134142857Y-82073866D01*
X134142857Y-82073866D02*
X134142857Y-81835771D01*
X134142857Y-81835771D02*
X134190476Y-81645295D01*
X134190476Y-81645295D02*
X134238095Y-81550057D01*
X134238095Y-81550057D02*
X134285714Y-81502438D01*
X134285714Y-81502438D02*
X134380952Y-81454819D01*
X135142857Y-82359580D02*
X135190476Y-82407200D01*
X135190476Y-82407200D02*
X135142857Y-82454819D01*
X135142857Y-82454819D02*
X135095238Y-82407200D01*
X135095238Y-82407200D02*
X135142857Y-82359580D01*
X135142857Y-82359580D02*
X135142857Y-82454819D01*
X135809523Y-81454819D02*
X135904761Y-81454819D01*
X135904761Y-81454819D02*
X135999999Y-81502438D01*
X135999999Y-81502438D02*
X136047618Y-81550057D01*
X136047618Y-81550057D02*
X136095237Y-81645295D01*
X136095237Y-81645295D02*
X136142856Y-81835771D01*
X136142856Y-81835771D02*
X136142856Y-82073866D01*
X136142856Y-82073866D02*
X136095237Y-82264342D01*
X136095237Y-82264342D02*
X136047618Y-82359580D01*
X136047618Y-82359580D02*
X135999999Y-82407200D01*
X135999999Y-82407200D02*
X135904761Y-82454819D01*
X135904761Y-82454819D02*
X135809523Y-82454819D01*
X135809523Y-82454819D02*
X135714285Y-82407200D01*
X135714285Y-82407200D02*
X135666666Y-82359580D01*
X135666666Y-82359580D02*
X135619047Y-82264342D01*
X135619047Y-82264342D02*
X135571428Y-82073866D01*
X135571428Y-82073866D02*
X135571428Y-81835771D01*
X135571428Y-81835771D02*
X135619047Y-81645295D01*
X135619047Y-81645295D02*
X135666666Y-81550057D01*
X135666666Y-81550057D02*
X135714285Y-81502438D01*
X135714285Y-81502438D02*
X135809523Y-81454819D01*
X106729104Y-93461905D02*
X106729104Y-92985715D01*
X107014819Y-93557143D02*
X106014819Y-93223810D01*
X106014819Y-93223810D02*
X107014819Y-92890477D01*
X106348152Y-92557143D02*
X107014819Y-92557143D01*
X106443390Y-92557143D02*
X106395771Y-92509524D01*
X106395771Y-92509524D02*
X106348152Y-92414286D01*
X106348152Y-92414286D02*
X106348152Y-92271429D01*
X106348152Y-92271429D02*
X106395771Y-92176191D01*
X106395771Y-92176191D02*
X106491009Y-92128572D01*
X106491009Y-92128572D02*
X107014819Y-92128572D01*
X106348152Y-91795238D02*
X106348152Y-91414286D01*
X106014819Y-91652381D02*
X106871961Y-91652381D01*
X106871961Y-91652381D02*
X106967200Y-91604762D01*
X106967200Y-91604762D02*
X107014819Y-91509524D01*
X107014819Y-91509524D02*
X107014819Y-91414286D01*
X106967200Y-90700000D02*
X107014819Y-90795238D01*
X107014819Y-90795238D02*
X107014819Y-90985714D01*
X107014819Y-90985714D02*
X106967200Y-91080952D01*
X106967200Y-91080952D02*
X106871961Y-91128571D01*
X106871961Y-91128571D02*
X106491009Y-91128571D01*
X106491009Y-91128571D02*
X106395771Y-91080952D01*
X106395771Y-91080952D02*
X106348152Y-90985714D01*
X106348152Y-90985714D02*
X106348152Y-90795238D01*
X106348152Y-90795238D02*
X106395771Y-90700000D01*
X106395771Y-90700000D02*
X106491009Y-90652381D01*
X106491009Y-90652381D02*
X106586247Y-90652381D01*
X106586247Y-90652381D02*
X106681485Y-91128571D01*
X106348152Y-90223809D02*
X107014819Y-90223809D01*
X106443390Y-90223809D02*
X106395771Y-90176190D01*
X106395771Y-90176190D02*
X106348152Y-90080952D01*
X106348152Y-90080952D02*
X106348152Y-89938095D01*
X106348152Y-89938095D02*
X106395771Y-89842857D01*
X106395771Y-89842857D02*
X106491009Y-89795238D01*
X106491009Y-89795238D02*
X107014819Y-89795238D01*
X106348152Y-89319047D02*
X107014819Y-89319047D01*
X106443390Y-89319047D02*
X106395771Y-89271428D01*
X106395771Y-89271428D02*
X106348152Y-89176190D01*
X106348152Y-89176190D02*
X106348152Y-89033333D01*
X106348152Y-89033333D02*
X106395771Y-88938095D01*
X106395771Y-88938095D02*
X106491009Y-88890476D01*
X106491009Y-88890476D02*
X107014819Y-88890476D01*
X107014819Y-87985714D02*
X106491009Y-87985714D01*
X106491009Y-87985714D02*
X106395771Y-88033333D01*
X106395771Y-88033333D02*
X106348152Y-88128571D01*
X106348152Y-88128571D02*
X106348152Y-88319047D01*
X106348152Y-88319047D02*
X106395771Y-88414285D01*
X106967200Y-87985714D02*
X107014819Y-88080952D01*
X107014819Y-88080952D02*
X107014819Y-88319047D01*
X107014819Y-88319047D02*
X106967200Y-88414285D01*
X106967200Y-88414285D02*
X106871961Y-88461904D01*
X106871961Y-88461904D02*
X106776723Y-88461904D01*
X106776723Y-88461904D02*
X106681485Y-88414285D01*
X106681485Y-88414285D02*
X106633866Y-88319047D01*
X106633866Y-88319047D02*
X106633866Y-88080952D01*
X106633866Y-88080952D02*
X106586247Y-87985714D01*
X106729104Y-86795237D02*
X106729104Y-86319047D01*
X107014819Y-86890475D02*
X106014819Y-86557142D01*
X106014819Y-86557142D02*
X107014819Y-86223809D01*
X107014819Y-85890475D02*
X106348152Y-85890475D01*
X106538628Y-85890475D02*
X106443390Y-85842856D01*
X106443390Y-85842856D02*
X106395771Y-85795237D01*
X106395771Y-85795237D02*
X106348152Y-85699999D01*
X106348152Y-85699999D02*
X106348152Y-85604761D01*
X106967200Y-84890475D02*
X107014819Y-84985713D01*
X107014819Y-84985713D02*
X107014819Y-85176189D01*
X107014819Y-85176189D02*
X106967200Y-85271427D01*
X106967200Y-85271427D02*
X106871961Y-85319046D01*
X106871961Y-85319046D02*
X106491009Y-85319046D01*
X106491009Y-85319046D02*
X106395771Y-85271427D01*
X106395771Y-85271427D02*
X106348152Y-85176189D01*
X106348152Y-85176189D02*
X106348152Y-84985713D01*
X106348152Y-84985713D02*
X106395771Y-84890475D01*
X106395771Y-84890475D02*
X106491009Y-84842856D01*
X106491009Y-84842856D02*
X106586247Y-84842856D01*
X106586247Y-84842856D02*
X106681485Y-85319046D01*
X107014819Y-83985713D02*
X106491009Y-83985713D01*
X106491009Y-83985713D02*
X106395771Y-84033332D01*
X106395771Y-84033332D02*
X106348152Y-84128570D01*
X106348152Y-84128570D02*
X106348152Y-84319046D01*
X106348152Y-84319046D02*
X106395771Y-84414284D01*
X106967200Y-83985713D02*
X107014819Y-84080951D01*
X107014819Y-84080951D02*
X107014819Y-84319046D01*
X107014819Y-84319046D02*
X106967200Y-84414284D01*
X106967200Y-84414284D02*
X106871961Y-84461903D01*
X106871961Y-84461903D02*
X106776723Y-84461903D01*
X106776723Y-84461903D02*
X106681485Y-84414284D01*
X106681485Y-84414284D02*
X106633866Y-84319046D01*
X106633866Y-84319046D02*
X106633866Y-84080951D01*
X106633866Y-84080951D02*
X106586247Y-83985713D01*
D12*
%TO.C,R12*%
X145062742Y-81477500D02*
X145537258Y-81477500D01*
X145062742Y-82522500D02*
X145537258Y-82522500D01*
%TO.C,R9*%
X118862742Y-102927500D02*
X119337258Y-102927500D01*
X118862742Y-103972500D02*
X119337258Y-103972500D01*
%TO.C,C17*%
X160790000Y-92384420D02*
X160790000Y-92665580D01*
X161810000Y-92384420D02*
X161810000Y-92665580D01*
%TO.C,C5*%
X112040580Y-99290000D02*
X111759420Y-99290000D01*
X112040580Y-100310000D02*
X111759420Y-100310000D01*
%TO.C,C20*%
X160340000Y-97192164D02*
X160340000Y-97407836D01*
X161060000Y-97192164D02*
X161060000Y-97407836D01*
%TO.C,R3*%
X163902742Y-105177500D02*
X164377258Y-105177500D01*
X163902742Y-106222500D02*
X164377258Y-106222500D01*
D13*
%TO.C,J3*%
X165920000Y-103650000D02*
X167000000Y-103650000D01*
X167000000Y-86950000D02*
X167000000Y-87750000D01*
X167000000Y-87750000D02*
X165920000Y-87750000D01*
X167000000Y-103650000D02*
X167000000Y-104450000D01*
X167000000Y-104450000D02*
X168400000Y-104450000D01*
X168400000Y-86950000D02*
X167000000Y-86950000D01*
X168400000Y-104450000D02*
X168400000Y-86950000D01*
D14*
X162600000Y-101450000D02*
G75*
G02*
X162400000Y-101450000I-100000J0D01*
G01*
X162400000Y-101450000D02*
G75*
G02*
X162600000Y-101450000I100000J0D01*
G01*
D12*
%TO.C,C16*%
X152627500Y-103159420D02*
X152627500Y-103440580D01*
X153647500Y-103159420D02*
X153647500Y-103440580D01*
%TO.C,R13*%
X142537258Y-81477500D02*
X142062742Y-81477500D01*
X142537258Y-82522500D02*
X142062742Y-82522500D01*
%TO.C,J1*%
X150355000Y-78070000D02*
X150355000Y-80730000D01*
X165655000Y-78070000D02*
X150355000Y-78070000D01*
X165655000Y-78070000D02*
X165655000Y-80730000D01*
X165655000Y-80730000D02*
X150355000Y-80730000D01*
X166925000Y-78070000D02*
X168255000Y-78070000D01*
X168255000Y-78070000D02*
X168255000Y-79400000D01*
%TO.C,R4*%
X138662742Y-107427500D02*
X139137258Y-107427500D01*
X138662742Y-108472500D02*
X139137258Y-108472500D01*
%TO.C,C13*%
X157127500Y-103159420D02*
X157127500Y-103440580D01*
X158147500Y-103159420D02*
X158147500Y-103440580D01*
%TO.C,R6*%
X153637258Y-91577500D02*
X153162742Y-91577500D01*
X153637258Y-92622500D02*
X153162742Y-92622500D01*
%TO.C,C10*%
X161627500Y-103159420D02*
X161627500Y-103440580D01*
X162647500Y-103159420D02*
X162647500Y-103440580D01*
%TO.C,R16*%
X116090000Y-115027064D02*
X116090000Y-113572936D01*
X117910000Y-115027064D02*
X117910000Y-113572936D01*
%TO.C,D2*%
X151250000Y-99560000D02*
X151250000Y-96900000D01*
X151250000Y-99560000D02*
X152950000Y-99560000D01*
X152950000Y-99560000D02*
X152950000Y-96900000D01*
%TO.C,J4*%
X154890000Y-111715000D02*
X155940000Y-111715000D01*
X154890000Y-114215000D02*
X154890000Y-111715000D01*
X155940000Y-111715000D02*
X155940000Y-110725000D01*
X156060000Y-116185000D02*
X159940000Y-116185000D01*
X161110000Y-111715000D02*
X160060000Y-111715000D01*
X161110000Y-114215000D02*
X161110000Y-111715000D01*
%TO.C,Q3*%
X127600000Y-101210000D02*
X129500000Y-101210000D01*
X129000000Y-98890000D02*
X127600000Y-98890000D01*
%TO.C,J2*%
X129875000Y-112100000D02*
X129875000Y-114100000D01*
X129875000Y-116000000D02*
X129875000Y-117900000D01*
X129875000Y-117900000D02*
X139275000Y-117900000D01*
X139275000Y-112100000D02*
X139275000Y-114100000D01*
X139275000Y-116000000D02*
X139275000Y-117900000D01*
%TO.C,Q2*%
X156362500Y-81540000D02*
X155712500Y-81540000D01*
X156362500Y-81540000D02*
X157012500Y-81540000D01*
X156362500Y-84660000D02*
X155712500Y-84660000D01*
X156362500Y-84660000D02*
X157012500Y-84660000D01*
X155200000Y-81590000D02*
X154960000Y-81260000D01*
X155440000Y-81260000D01*
X155200000Y-81590000D01*
G36*
X155200000Y-81590000D02*
G01*
X154960000Y-81260000D01*
X155440000Y-81260000D01*
X155200000Y-81590000D01*
G37*
%TO.C,R1*%
X157687742Y-105177500D02*
X158162258Y-105177500D01*
X157687742Y-106222500D02*
X158162258Y-106222500D01*
%TO.C,U3*%
X137200000Y-95740000D02*
X133750000Y-95740000D01*
X137200000Y-95740000D02*
X139150000Y-95740000D01*
X137200000Y-105860000D02*
X135250000Y-105860000D01*
X137200000Y-105860000D02*
X139150000Y-105860000D01*
%TO.C,C15*%
X154127500Y-103159420D02*
X154127500Y-103440580D01*
X155147500Y-103159420D02*
X155147500Y-103440580D01*
%TO.C,C9*%
X150165000Y-93261252D02*
X150165000Y-92738748D01*
X151635000Y-93261252D02*
X151635000Y-92738748D01*
%TO.C,C18*%
X159290000Y-92384420D02*
X159290000Y-92665580D01*
X160310000Y-92384420D02*
X160310000Y-92665580D01*
%TO.C,R11*%
X161389564Y-81590000D02*
X159935436Y-81590000D01*
X161389564Y-83410000D02*
X159935436Y-83410000D01*
%TO.C,U2*%
X103560000Y-79700000D02*
X110310000Y-79700000D01*
X103560000Y-97700000D02*
X103560000Y-79700000D01*
X103560000Y-97700000D02*
X110310000Y-97700000D01*
X109500000Y-79700000D02*
X109500000Y-97700000D01*
X128310000Y-79700000D02*
X129060000Y-79700000D01*
X128310000Y-97700000D02*
X129060000Y-97700000D01*
X129060000Y-79700000D02*
X129060000Y-80450000D01*
X129060000Y-80450000D02*
X129060000Y-82200000D01*
X129060000Y-96950000D02*
X129060000Y-95200000D01*
X129060000Y-97700000D02*
X129060000Y-96950000D01*
%TO.C,R15*%
X116837742Y-106677500D02*
X117312258Y-106677500D01*
X116837742Y-107722500D02*
X117312258Y-107722500D01*
%TO.C,L2*%
X155440000Y-93447936D02*
X155440000Y-94652064D01*
X158160000Y-93447936D02*
X158160000Y-94652064D01*
%TO.C,R5*%
X130437258Y-107377500D02*
X129962742Y-107377500D01*
X130437258Y-108422500D02*
X129962742Y-108422500D01*
%TO.C,C11*%
X160127500Y-103159420D02*
X160127500Y-103440580D01*
X161147500Y-103159420D02*
X161147500Y-103440580D01*
%TO.C,R14*%
X116837742Y-105077500D02*
X117312258Y-105077500D01*
X116837742Y-106122500D02*
X117312258Y-106122500D01*
%TO.C,C2*%
X151765000Y-107011252D02*
X151765000Y-106488748D01*
X153235000Y-107011252D02*
X153235000Y-106488748D01*
%TO.C,C7*%
X113238748Y-108465000D02*
X113761252Y-108465000D01*
X113238748Y-109935000D02*
X113761252Y-109935000D01*
%TO.C,C4*%
X137202836Y-94735000D02*
X136987164Y-94735000D01*
X137202836Y-95455000D02*
X136987164Y-95455000D01*
%TO.C,D3*%
X153290000Y-98500000D02*
X153290000Y-100200000D01*
X153290000Y-98500000D02*
X155950000Y-98500000D01*
X153290000Y-100200000D02*
X155950000Y-100200000D01*
%TO.C,D1*%
X155240000Y-89900000D02*
X155240000Y-91600000D01*
X155240000Y-89900000D02*
X157900000Y-89900000D01*
X155240000Y-91600000D02*
X157900000Y-91600000D01*
D10*
%TO.C,D5*%
X166075000Y-82350000D02*
X166600000Y-82350000D01*
X166075000Y-85050000D02*
X166075000Y-82350000D01*
D12*
X166400000Y-81800000D02*
X166400000Y-82200000D01*
X166600000Y-82000000D02*
X166400000Y-81800000D01*
X166600000Y-82000000D02*
X166400000Y-82200000D01*
D10*
X166600000Y-85050000D02*
X166075000Y-85050000D01*
X168401596Y-82537061D02*
G75*
G02*
X168400000Y-84863180I-176595J-1162939D01*
G01*
D12*
%TO.C,C1*%
X155540000Y-106092164D02*
X155540000Y-106307836D01*
X156260000Y-106092164D02*
X156260000Y-106307836D01*
%TO.C,R7*%
X153637258Y-90077500D02*
X153162742Y-90077500D01*
X153637258Y-91122500D02*
X153162742Y-91122500D01*
%TO.C,U1*%
X160200000Y-106650000D02*
X158400000Y-106650000D01*
X160200000Y-106650000D02*
X161000000Y-106650000D01*
X160200000Y-109770000D02*
X159400000Y-109770000D01*
X160200000Y-109770000D02*
X161000000Y-109770000D01*
%TO.C,R8*%
X118862742Y-101377500D02*
X119337258Y-101377500D01*
X118862742Y-102422500D02*
X119337258Y-102422500D01*
%TO.C,C14*%
X155627500Y-103159420D02*
X155627500Y-103440580D01*
X156647500Y-103159420D02*
X156647500Y-103440580D01*
%TO.C,C8*%
X155061252Y-96615000D02*
X154538748Y-96615000D01*
X155061252Y-98085000D02*
X154538748Y-98085000D01*
%TO.C,D4*%
X156650000Y-99610000D02*
X156650000Y-96950000D01*
X156650000Y-99610000D02*
X158350000Y-99610000D01*
X158350000Y-99610000D02*
X158350000Y-96950000D01*
%TO.C,R10*%
X118862742Y-99777500D02*
X119337258Y-99777500D01*
X118862742Y-100822500D02*
X119337258Y-100822500D01*
%TO.C,U4*%
X148125000Y-115450000D02*
X148125000Y-110360000D01*
X148465000Y-115450000D02*
X148125000Y-115450000D01*
X150785000Y-115450000D02*
X151135000Y-115450000D01*
X151135000Y-115450000D02*
X151135000Y-112850000D01*
X148125000Y-114950000D02*
G75*
G02*
X148123264Y-110750083I100000J2100000D01*
G01*
%TO.C,R2*%
X160902742Y-105177500D02*
X161377258Y-105177500D01*
X160902742Y-106222500D02*
X161377258Y-106222500D01*
%TO.C,Q4*%
X115415000Y-110000000D02*
X115415000Y-109350000D01*
X115415000Y-110000000D02*
X115415000Y-110650000D01*
X118535000Y-110000000D02*
X118535000Y-109350000D01*
X118535000Y-110000000D02*
X118535000Y-110650000D01*
X118815000Y-109077500D02*
X118485000Y-108837500D01*
X118815000Y-108597500D01*
X118815000Y-109077500D01*
G36*
X118815000Y-109077500D02*
G01*
X118485000Y-108837500D01*
X118815000Y-108597500D01*
X118815000Y-109077500D01*
G37*
%TO.C,L1*%
X155761252Y-107490000D02*
X155238748Y-107490000D01*
X155761252Y-109710000D02*
X155238748Y-109710000D01*
%TO.C,Q1*%
X152390000Y-93920000D02*
X152390000Y-95330000D01*
X153050000Y-95330000D02*
X152390000Y-95330000D01*
X154710000Y-93920000D02*
X154710000Y-95330000D01*
X154710000Y-95330000D02*
X154050000Y-95330000D01*
X155020000Y-93790000D02*
X154690000Y-93550000D01*
X155020000Y-93310000D01*
X155020000Y-93790000D01*
G36*
X155020000Y-93790000D02*
G01*
X154690000Y-93550000D01*
X155020000Y-93310000D01*
X155020000Y-93790000D01*
G37*
%TO.C,C3*%
X162865000Y-108471252D02*
X162865000Y-107948748D01*
X164335000Y-108471252D02*
X164335000Y-107948748D01*
%TO.C,C12*%
X158627500Y-103159420D02*
X158627500Y-103440580D01*
X159647500Y-103159420D02*
X159647500Y-103440580D01*
%TO.C,C6*%
X161165000Y-85138748D02*
X161165000Y-85661252D01*
X162635000Y-85138748D02*
X162635000Y-85661252D01*
D10*
%TO.C,D6*%
X111600000Y-112850000D02*
X112125000Y-112850000D01*
D12*
X111600000Y-115900000D02*
X111800000Y-115700000D01*
X111600000Y-115900000D02*
X111800000Y-116100000D01*
X111800000Y-116100000D02*
X111800000Y-115700000D01*
D10*
X112125000Y-112850000D02*
X112125000Y-115550000D01*
X112125000Y-115550000D02*
X111600000Y-115550000D01*
X109798404Y-115362939D02*
G75*
G02*
X109800000Y-113036820I176595J1162939D01*
G01*
%TD*%
%LPC*%
D15*
%TO.C,J3*%
X165700000Y-88150000D02*
X166400000Y-88150000D01*
X166400000Y-89600000D01*
X163900000Y-89600000D01*
X163900000Y-87450000D01*
X164400000Y-87450000D01*
X164400000Y-86750000D01*
X165700000Y-86750000D01*
X165700000Y-88150000D01*
G36*
X165700000Y-88150000D02*
G01*
X166400000Y-88150000D01*
X166400000Y-89600000D01*
X163900000Y-89600000D01*
X163900000Y-87450000D01*
X164400000Y-87450000D01*
X164400000Y-86750000D01*
X165700000Y-86750000D01*
X165700000Y-88150000D01*
G37*
X166400000Y-103250000D02*
X165700000Y-103250000D01*
X165700000Y-104650000D01*
X164400000Y-104650000D01*
X164400000Y-103950000D01*
X163900000Y-103950000D01*
X163900000Y-101800000D01*
X166400000Y-101800000D01*
X166400000Y-103250000D01*
G36*
X166400000Y-103250000D02*
G01*
X165700000Y-103250000D01*
X165700000Y-104650000D01*
X164400000Y-104650000D01*
X164400000Y-103950000D01*
X163900000Y-103950000D01*
X163900000Y-101800000D01*
X166400000Y-101800000D01*
X166400000Y-103250000D01*
G37*
%TO.C,G\u002A\u002A\u002A*%
X136806148Y-88935709D02*
X136957675Y-89085617D01*
X136995591Y-89186409D01*
X136990035Y-89424006D01*
X136869597Y-89583970D01*
X136680419Y-89641067D01*
X136468640Y-89570063D01*
X136399714Y-89512285D01*
X136287686Y-89368433D01*
X136294031Y-89235259D01*
X136420089Y-89051290D01*
X136609649Y-88920204D01*
X136806148Y-88935709D01*
G36*
X136806148Y-88935709D02*
G01*
X136957675Y-89085617D01*
X136995591Y-89186409D01*
X136990035Y-89424006D01*
X136869597Y-89583970D01*
X136680419Y-89641067D01*
X136468640Y-89570063D01*
X136399714Y-89512285D01*
X136287686Y-89368433D01*
X136294031Y-89235259D01*
X136420089Y-89051290D01*
X136609649Y-88920204D01*
X136806148Y-88935709D01*
G37*
X135681477Y-88946842D02*
X135832006Y-89090593D01*
X135922698Y-89244418D01*
X135928000Y-89279044D01*
X135864510Y-89406230D01*
X135721001Y-89547052D01*
X135567909Y-89637457D01*
X135525214Y-89645333D01*
X135395490Y-89590710D01*
X135299047Y-89512285D01*
X135191094Y-89356386D01*
X135166000Y-89264333D01*
X135231721Y-89100494D01*
X135380867Y-88949034D01*
X135539925Y-88883333D01*
X135681477Y-88946842D01*
G36*
X135681477Y-88946842D02*
G01*
X135832006Y-89090593D01*
X135922698Y-89244418D01*
X135928000Y-89279044D01*
X135864510Y-89406230D01*
X135721001Y-89547052D01*
X135567909Y-89637457D01*
X135525214Y-89645333D01*
X135395490Y-89590710D01*
X135299047Y-89512285D01*
X135191094Y-89356386D01*
X135166000Y-89264333D01*
X135231721Y-89100494D01*
X135380867Y-88949034D01*
X135539925Y-88883333D01*
X135681477Y-88946842D01*
G37*
X143387919Y-86412640D02*
X144333817Y-86725473D01*
X144617897Y-86850277D01*
X145261726Y-87213902D01*
X145763271Y-87647037D01*
X146141455Y-88167376D01*
X146249105Y-88375333D01*
X146342579Y-88587867D01*
X146405184Y-88783714D01*
X146442999Y-89005008D01*
X146462106Y-89293888D01*
X146468583Y-89692488D01*
X146469000Y-89899333D01*
X146456755Y-90490491D01*
X146409333Y-90975422D01*
X146310705Y-91385255D01*
X146144844Y-91751121D01*
X145895719Y-92104150D01*
X145547301Y-92475471D01*
X145083563Y-92896215D01*
X144802718Y-93135456D01*
X144524360Y-93401906D01*
X144283992Y-93688996D01*
X144149370Y-93903020D01*
X144023194Y-94251007D01*
X143976915Y-94580932D01*
X144012718Y-94846732D01*
X144098333Y-94979333D01*
X144214614Y-95117107D01*
X144170273Y-95202538D01*
X143966241Y-95234024D01*
X143950167Y-95234160D01*
X143717125Y-95270896D01*
X143417622Y-95364176D01*
X143230500Y-95441932D01*
X142786000Y-95648876D01*
X142786000Y-95429447D01*
X142777846Y-95305307D01*
X142725923Y-95246079D01*
X142589037Y-95237194D01*
X142325998Y-95264083D01*
X142320333Y-95264749D01*
X142014506Y-95282497D01*
X141861604Y-95250446D01*
X141855241Y-95176196D01*
X141989036Y-95067347D01*
X142256602Y-94931499D01*
X142651557Y-94776252D01*
X142763331Y-94737379D01*
X143421000Y-94513666D01*
X143446269Y-93982089D01*
X143453571Y-93681290D01*
X143427955Y-93488641D01*
X143351626Y-93343637D01*
X143214247Y-93193221D01*
X142946932Y-93002804D01*
X142699540Y-92970999D01*
X142484188Y-93087266D01*
X142312992Y-93341062D01*
X142198071Y-93721848D01*
X142154605Y-94115035D01*
X142133200Y-94598333D01*
X141808198Y-94651171D01*
X141462159Y-94785425D01*
X141288352Y-94947504D01*
X141093508Y-95191000D01*
X141093087Y-94910127D01*
X141079886Y-94722971D01*
X141018368Y-94664741D01*
X140902167Y-94687025D01*
X140697207Y-94787971D01*
X140521167Y-94919156D01*
X140330667Y-95093517D01*
X140330667Y-94915921D01*
X140407019Y-94666871D01*
X140608837Y-94425469D01*
X140895265Y-94231145D01*
X141132423Y-94142147D01*
X141314137Y-94093428D01*
X141435376Y-94034764D01*
X141515647Y-93932372D01*
X141574460Y-93752469D01*
X141631324Y-93461271D01*
X141675594Y-93201541D01*
X141712082Y-92886404D01*
X141692707Y-92711178D01*
X141671301Y-92684660D01*
X141565110Y-92654500D01*
X141319487Y-92601391D01*
X140961940Y-92530762D01*
X140519976Y-92448042D01*
X140021102Y-92358660D01*
X140006883Y-92356167D01*
X139064163Y-92181097D01*
X138272947Y-92011267D01*
X137615737Y-91841284D01*
X137075039Y-91665755D01*
X136633355Y-91479289D01*
X136273190Y-91276494D01*
X136097333Y-91151269D01*
X135901039Y-90955169D01*
X135712215Y-90696924D01*
X135567981Y-90435106D01*
X135505460Y-90228285D01*
X135505100Y-90216833D01*
X135443216Y-90098638D01*
X135284533Y-90068666D01*
X135053633Y-89995691D01*
X134786937Y-89790870D01*
X134765963Y-89770230D01*
X134590051Y-89579764D01*
X134508506Y-89421632D01*
X134495587Y-89230024D01*
X134602813Y-89230024D01*
X134703708Y-89533192D01*
X134889163Y-89772767D01*
X135130426Y-89926685D01*
X135398748Y-89972883D01*
X135665377Y-89889295D01*
X135792341Y-89788689D01*
X135947001Y-89614080D01*
X136042492Y-89471189D01*
X136097585Y-89391335D01*
X136152174Y-89471189D01*
X136329948Y-89721103D01*
X136581726Y-89907797D01*
X136843005Y-89983919D01*
X136850763Y-89984000D01*
X137156393Y-89912585D01*
X137388308Y-89723742D01*
X137539752Y-89455575D01*
X137603974Y-89146186D01*
X137574220Y-88833679D01*
X137443737Y-88556155D01*
X137205771Y-88351719D01*
X137145131Y-88323141D01*
X136823880Y-88257522D01*
X136534827Y-88350749D01*
X136266296Y-88601843D01*
X136124116Y-88744384D01*
X136042985Y-88748853D01*
X136036833Y-88736299D01*
X135862030Y-88469682D01*
X135590309Y-88282756D01*
X135456577Y-88241087D01*
X135186300Y-88266958D01*
X134921085Y-88417878D01*
X134710862Y-88655613D01*
X134615228Y-88885328D01*
X134602813Y-89230024D01*
X134495587Y-89230024D01*
X134494912Y-89220027D01*
X134509552Y-89034425D01*
X134560090Y-88732176D01*
X134663069Y-88522132D01*
X134817791Y-88359195D01*
X135047827Y-88212143D01*
X135308488Y-88128325D01*
X135545057Y-88117069D01*
X135702815Y-88187708D01*
X135716323Y-88205982D01*
X135806317Y-88207174D01*
X135981535Y-88111292D01*
X136110841Y-88015482D01*
X136257584Y-87901958D01*
X136389168Y-87823600D01*
X136541881Y-87772300D01*
X136752015Y-87739947D01*
X137055860Y-87718432D01*
X137489706Y-87699645D01*
X137531565Y-87698000D01*
X138610087Y-87655666D01*
X139068210Y-87305289D01*
X139857482Y-86800826D01*
X140690098Y-86458836D01*
X141560049Y-86279814D01*
X142461326Y-86264251D01*
X143387919Y-86412640D01*
G36*
X143387919Y-86412640D02*
G01*
X144333817Y-86725473D01*
X144617897Y-86850277D01*
X145261726Y-87213902D01*
X145763271Y-87647037D01*
X146141455Y-88167376D01*
X146249105Y-88375333D01*
X146342579Y-88587867D01*
X146405184Y-88783714D01*
X146442999Y-89005008D01*
X146462106Y-89293888D01*
X146468583Y-89692488D01*
X146469000Y-89899333D01*
X146456755Y-90490491D01*
X146409333Y-90975422D01*
X146310705Y-91385255D01*
X146144844Y-91751121D01*
X145895719Y-92104150D01*
X145547301Y-92475471D01*
X145083563Y-92896215D01*
X144802718Y-93135456D01*
X144524360Y-93401906D01*
X144283992Y-93688996D01*
X144149370Y-93903020D01*
X144023194Y-94251007D01*
X143976915Y-94580932D01*
X144012718Y-94846732D01*
X144098333Y-94979333D01*
X144214614Y-95117107D01*
X144170273Y-95202538D01*
X143966241Y-95234024D01*
X143950167Y-95234160D01*
X143717125Y-95270896D01*
X143417622Y-95364176D01*
X143230500Y-95441932D01*
X142786000Y-95648876D01*
X142786000Y-95429447D01*
X142777846Y-95305307D01*
X142725923Y-95246079D01*
X142589037Y-95237194D01*
X142325998Y-95264083D01*
X142320333Y-95264749D01*
X142014506Y-95282497D01*
X141861604Y-95250446D01*
X141855241Y-95176196D01*
X141989036Y-95067347D01*
X142256602Y-94931499D01*
X142651557Y-94776252D01*
X142763331Y-94737379D01*
X143421000Y-94513666D01*
X143446269Y-93982089D01*
X143453571Y-93681290D01*
X143427955Y-93488641D01*
X143351626Y-93343637D01*
X143214247Y-93193221D01*
X142946932Y-93002804D01*
X142699540Y-92970999D01*
X142484188Y-93087266D01*
X142312992Y-93341062D01*
X142198071Y-93721848D01*
X142154605Y-94115035D01*
X142133200Y-94598333D01*
X141808198Y-94651171D01*
X141462159Y-94785425D01*
X141288352Y-94947504D01*
X141093508Y-95191000D01*
X141093087Y-94910127D01*
X141079886Y-94722971D01*
X141018368Y-94664741D01*
X140902167Y-94687025D01*
X140697207Y-94787971D01*
X140521167Y-94919156D01*
X140330667Y-95093517D01*
X140330667Y-94915921D01*
X140407019Y-94666871D01*
X140608837Y-94425469D01*
X140895265Y-94231145D01*
X141132423Y-94142147D01*
X141314137Y-94093428D01*
X141435376Y-94034764D01*
X141515647Y-93932372D01*
X141574460Y-93752469D01*
X141631324Y-93461271D01*
X141675594Y-93201541D01*
X141712082Y-92886404D01*
X141692707Y-92711178D01*
X141671301Y-92684660D01*
X141565110Y-92654500D01*
X141319487Y-92601391D01*
X140961940Y-92530762D01*
X140519976Y-92448042D01*
X140021102Y-92358660D01*
X140006883Y-92356167D01*
X139064163Y-92181097D01*
X138272947Y-92011267D01*
X137615737Y-91841284D01*
X137075039Y-91665755D01*
X136633355Y-91479289D01*
X136273190Y-91276494D01*
X136097333Y-91151269D01*
X135901039Y-90955169D01*
X135712215Y-90696924D01*
X135567981Y-90435106D01*
X135505460Y-90228285D01*
X135505100Y-90216833D01*
X135443216Y-90098638D01*
X135284533Y-90068666D01*
X135053633Y-89995691D01*
X134786937Y-89790870D01*
X134765963Y-89770230D01*
X134590051Y-89579764D01*
X134508506Y-89421632D01*
X134495587Y-89230024D01*
X134602813Y-89230024D01*
X134703708Y-89533192D01*
X134889163Y-89772767D01*
X135130426Y-89926685D01*
X135398748Y-89972883D01*
X135665377Y-89889295D01*
X135792341Y-89788689D01*
X135947001Y-89614080D01*
X136042492Y-89471189D01*
X136097585Y-89391335D01*
X136152174Y-89471189D01*
X136329948Y-89721103D01*
X136581726Y-89907797D01*
X136843005Y-89983919D01*
X136850763Y-89984000D01*
X137156393Y-89912585D01*
X137388308Y-89723742D01*
X137539752Y-89455575D01*
X137603974Y-89146186D01*
X137574220Y-88833679D01*
X137443737Y-88556155D01*
X137205771Y-88351719D01*
X137145131Y-88323141D01*
X136823880Y-88257522D01*
X136534827Y-88350749D01*
X136266296Y-88601843D01*
X136124116Y-88744384D01*
X136042985Y-88748853D01*
X136036833Y-88736299D01*
X135862030Y-88469682D01*
X135590309Y-88282756D01*
X135456577Y-88241087D01*
X135186300Y-88266958D01*
X134921085Y-88417878D01*
X134710862Y-88655613D01*
X134615228Y-88885328D01*
X134602813Y-89230024D01*
X134495587Y-89230024D01*
X134494912Y-89220027D01*
X134509552Y-89034425D01*
X134560090Y-88732176D01*
X134663069Y-88522132D01*
X134817791Y-88359195D01*
X135047827Y-88212143D01*
X135308488Y-88128325D01*
X135545057Y-88117069D01*
X135702815Y-88187708D01*
X135716323Y-88205982D01*
X135806317Y-88207174D01*
X135981535Y-88111292D01*
X136110841Y-88015482D01*
X136257584Y-87901958D01*
X136389168Y-87823600D01*
X136541881Y-87772300D01*
X136752015Y-87739947D01*
X137055860Y-87718432D01*
X137489706Y-87699645D01*
X137531565Y-87698000D01*
X138610087Y-87655666D01*
X139068210Y-87305289D01*
X139857482Y-86800826D01*
X140690098Y-86458836D01*
X141560049Y-86279814D01*
X142461326Y-86264251D01*
X143387919Y-86412640D01*
G37*
%TD*%
D16*
%TO.C,R12*%
X144475000Y-82000000D03*
X146125000Y-82000000D03*
%TD*%
%TO.C,R9*%
X118275000Y-103450000D03*
X119925000Y-103450000D03*
%TD*%
D17*
%TO.C,C17*%
X161300000Y-91750000D03*
X161300000Y-93300000D03*
%TD*%
D18*
%TO.C,C5*%
X112675000Y-99800000D03*
X111125000Y-99800000D03*
%TD*%
D19*
%TO.C,C20*%
X160700000Y-96820000D03*
X160700000Y-97780000D03*
%TD*%
D16*
%TO.C,R3*%
X163315000Y-105700000D03*
X164965000Y-105700000D03*
%TD*%
D20*
%TO.C,J3*%
X163900000Y-101450000D03*
X163900000Y-100950000D03*
X163900000Y-100450000D03*
X163900000Y-99950000D03*
X163900000Y-99450000D03*
X163900000Y-98950000D03*
X163900000Y-98450000D03*
X163900000Y-97950000D03*
X163900000Y-97450000D03*
X163900000Y-96950000D03*
X163900000Y-96450000D03*
X163900000Y-95950000D03*
X163900000Y-95450000D03*
X163900000Y-94950000D03*
X163900000Y-94450000D03*
X163900000Y-93950000D03*
X163900000Y-93450000D03*
X163900000Y-92950000D03*
X163900000Y-92450000D03*
X163900000Y-91950000D03*
X163900000Y-91450000D03*
X163900000Y-90950000D03*
X163900000Y-90450000D03*
X163900000Y-89950000D03*
%TD*%
D17*
%TO.C,C16*%
X153137500Y-102525000D03*
X153137500Y-104075000D03*
%TD*%
D21*
%TO.C,R13*%
X143125000Y-82000000D03*
X141475000Y-82000000D03*
%TD*%
D22*
%TO.C,J1*%
X166925000Y-79400000D03*
D23*
X164385000Y-79400000D03*
X161845000Y-79400000D03*
X159305000Y-79400000D03*
X156765000Y-79400000D03*
X154225000Y-79400000D03*
X151685000Y-79400000D03*
%TD*%
D16*
%TO.C,R4*%
X138075000Y-107950000D03*
X139725000Y-107950000D03*
%TD*%
D17*
%TO.C,C13*%
X157637500Y-102525000D03*
X157637500Y-104075000D03*
%TD*%
D21*
%TO.C,R6*%
X154225000Y-92100000D03*
X152575000Y-92100000D03*
%TD*%
D17*
%TO.C,C10*%
X162137500Y-102525000D03*
X162137500Y-104075000D03*
%TD*%
D24*
%TO.C,R16*%
X117000000Y-115762500D03*
X117000000Y-112837500D03*
%TD*%
D25*
%TO.C,REF\u002A\u002A*%
X122700000Y-113700000D03*
%TD*%
D26*
%TO.C,REF\u002A\u002A*%
X164200000Y-101450000D03*
X164200000Y-100950000D03*
X164200000Y-100450000D03*
X164200000Y-99950000D03*
X164200000Y-99450000D03*
X164200000Y-98950000D03*
X164200000Y-98450000D03*
X164200000Y-97950000D03*
X164200000Y-97450000D03*
X164200000Y-96950000D03*
X164200000Y-96450000D03*
X164200000Y-95950000D03*
X164200000Y-95450000D03*
X164200000Y-94950000D03*
X164200000Y-94450000D03*
X164200000Y-93950000D03*
X164200000Y-93450000D03*
X164200000Y-92950000D03*
X164200000Y-92450000D03*
X164200000Y-91950000D03*
X164200000Y-91450000D03*
X164200000Y-90950000D03*
X164200000Y-90450000D03*
X164200000Y-89950000D03*
D27*
X166700000Y-102450000D03*
X166700000Y-88950000D03*
%TD*%
D28*
%TO.C,D2*%
X152100000Y-99000000D03*
X152100000Y-96900000D03*
%TD*%
D29*
%TO.C,J4*%
X156500000Y-111500000D03*
X157500000Y-111500000D03*
X158500000Y-111500000D03*
X159500000Y-111500000D03*
D30*
X155200000Y-115375000D03*
X160800000Y-115375000D03*
%TD*%
D31*
%TO.C,Q3*%
X129250000Y-100700000D03*
X129250000Y-100050000D03*
X129250000Y-99400000D03*
X127350000Y-99400000D03*
X127350000Y-100050000D03*
X127350000Y-100700000D03*
%TD*%
D32*
%TO.C,J2*%
X131685000Y-111400000D03*
X137465000Y-111400000D03*
D33*
X131325000Y-109955000D03*
X132125000Y-109955000D03*
D34*
X133325000Y-109955000D03*
X134325000Y-109955000D03*
X134825000Y-109955000D03*
X135825000Y-109955000D03*
D33*
X137025000Y-109955000D03*
X137825000Y-109955000D03*
X137825000Y-109955000D03*
X137025000Y-109955000D03*
D34*
X136325000Y-109955000D03*
X135325000Y-109955000D03*
X133825000Y-109955000D03*
X132825000Y-109955000D03*
D33*
X132125000Y-109955000D03*
X131325000Y-109955000D03*
D35*
X130255000Y-110870000D03*
D36*
X130255000Y-115050000D03*
D35*
X138895000Y-110870000D03*
D36*
X138895000Y-115050000D03*
%TD*%
D37*
%TO.C,Q2*%
X155425000Y-82150000D03*
X155425000Y-84050000D03*
X157300000Y-83100000D03*
%TD*%
D16*
%TO.C,R1*%
X157100000Y-105700000D03*
X158750000Y-105700000D03*
%TD*%
D38*
%TO.C,U3*%
X134725000Y-96355000D03*
X134725000Y-97625000D03*
X134725000Y-98895000D03*
X134725000Y-100165000D03*
X134725000Y-101435000D03*
X134725000Y-102705000D03*
X134725000Y-103975000D03*
X134725000Y-105245000D03*
X139675000Y-105245000D03*
X139675000Y-103975000D03*
X139675000Y-102705000D03*
X139675000Y-101435000D03*
X139675000Y-100165000D03*
X139675000Y-98895000D03*
X139675000Y-97625000D03*
X139675000Y-96355000D03*
%TD*%
D17*
%TO.C,C15*%
X154637500Y-102525000D03*
X154637500Y-104075000D03*
%TD*%
D39*
%TO.C,C9*%
X150900000Y-93950000D03*
X150900000Y-92050000D03*
%TD*%
D17*
%TO.C,C18*%
X159800000Y-91750000D03*
X159800000Y-93300000D03*
%TD*%
D40*
%TO.C,R11*%
X162125000Y-82500000D03*
X159200000Y-82500000D03*
%TD*%
D41*
%TO.C,U2*%
X111050000Y-97450000D03*
X112320000Y-97450000D03*
X113590000Y-97450000D03*
X114860000Y-97450000D03*
X116130000Y-97450000D03*
X117400000Y-97450000D03*
X118670000Y-97450000D03*
X119940000Y-97450000D03*
X121210000Y-97450000D03*
X122480000Y-97450000D03*
X123750000Y-97450000D03*
X125020000Y-97450000D03*
X126290000Y-97450000D03*
X127560000Y-97450000D03*
D42*
X128810000Y-94420000D03*
X128810000Y-93150000D03*
X128810000Y-91880000D03*
X128810000Y-90610000D03*
X128810000Y-89340000D03*
X128810000Y-88070000D03*
X128810000Y-86800000D03*
X128810000Y-85530000D03*
X128810000Y-84260000D03*
X128810000Y-82990000D03*
D41*
X127560000Y-79950000D03*
X126290000Y-79950000D03*
X125020000Y-79950000D03*
X123750000Y-79950000D03*
X122480000Y-79950000D03*
X121210000Y-79950000D03*
X119940000Y-79950000D03*
X118670000Y-79950000D03*
X117400000Y-79950000D03*
X116130000Y-79950000D03*
X114860000Y-79950000D03*
X113590000Y-79950000D03*
X112320000Y-79950000D03*
X111050000Y-79950000D03*
D43*
X117370000Y-91600000D03*
X117370000Y-91600000D03*
X118770000Y-91600000D03*
X120170000Y-91600000D03*
X120170000Y-91600000D03*
X117370000Y-90200000D03*
X118770000Y-90200000D03*
X120170000Y-90200000D03*
X120170000Y-90200000D03*
X117370000Y-88800000D03*
X118770000Y-88800000D03*
X120170000Y-88800000D03*
%TD*%
D16*
%TO.C,R15*%
X116250000Y-107200000D03*
X117900000Y-107200000D03*
%TD*%
D44*
%TO.C,L2*%
X156800000Y-92650000D03*
X156800000Y-95450000D03*
%TD*%
D21*
%TO.C,R5*%
X131025000Y-107900000D03*
X129375000Y-107900000D03*
%TD*%
D17*
%TO.C,C11*%
X160637500Y-102525000D03*
X160637500Y-104075000D03*
%TD*%
D16*
%TO.C,R14*%
X116250000Y-105600000D03*
X117900000Y-105600000D03*
%TD*%
D39*
%TO.C,C2*%
X152500000Y-107700000D03*
X152500000Y-105800000D03*
%TD*%
D45*
%TO.C,C7*%
X112550000Y-109200000D03*
X114450000Y-109200000D03*
%TD*%
D46*
%TO.C,C4*%
X137575000Y-95095000D03*
X136615000Y-95095000D03*
%TD*%
D47*
%TO.C,D3*%
X153850000Y-99350000D03*
X155950000Y-99350000D03*
%TD*%
%TO.C,D1*%
X155800000Y-90750000D03*
X157900000Y-90750000D03*
%TD*%
D48*
%TO.C,D5*%
X167500000Y-82050000D03*
X167500000Y-85350000D03*
%TD*%
D19*
%TO.C,C1*%
X155900000Y-105720000D03*
X155900000Y-106680000D03*
%TD*%
D21*
%TO.C,R7*%
X154225000Y-90600000D03*
X152575000Y-90600000D03*
%TD*%
D49*
%TO.C,U1*%
X159062500Y-107260000D03*
X159062500Y-108210000D03*
X159062500Y-109160000D03*
X161337500Y-109160000D03*
X161337500Y-108210000D03*
X161337500Y-107260000D03*
%TD*%
D16*
%TO.C,R8*%
X118275000Y-101900000D03*
X119925000Y-101900000D03*
%TD*%
D17*
%TO.C,C14*%
X156137500Y-102525000D03*
X156137500Y-104075000D03*
%TD*%
D50*
%TO.C,C8*%
X155750000Y-97350000D03*
X153850000Y-97350000D03*
%TD*%
D25*
%TO.C,REF\u002A\u002A*%
X165500000Y-113700000D03*
%TD*%
D28*
%TO.C,D4*%
X157500000Y-99050000D03*
X157500000Y-96950000D03*
%TD*%
D16*
%TO.C,R10*%
X118275000Y-100300000D03*
X119925000Y-100300000D03*
%TD*%
D51*
%TO.C,U4*%
X149625000Y-110310000D03*
D52*
X149625000Y-112850000D03*
X149625000Y-115390000D03*
%TD*%
D16*
%TO.C,R2*%
X160315000Y-105700000D03*
X161965000Y-105700000D03*
%TD*%
D53*
%TO.C,Q4*%
X117925000Y-109062500D03*
X116025000Y-109062500D03*
X116975000Y-110937500D03*
%TD*%
D54*
%TO.C,L1*%
X156575000Y-108600000D03*
X154425000Y-108600000D03*
%TD*%
D55*
%TO.C,Q1*%
X154200000Y-93600000D03*
X152900000Y-93600000D03*
X153550000Y-95600000D03*
%TD*%
D39*
%TO.C,C3*%
X163600000Y-109160000D03*
X163600000Y-107260000D03*
%TD*%
D17*
%TO.C,C12*%
X159137500Y-102525000D03*
X159137500Y-104075000D03*
%TD*%
D56*
%TO.C,C6*%
X161900000Y-84450000D03*
X161900000Y-86350000D03*
%TD*%
D57*
%TO.C,D6*%
X110700000Y-115850000D03*
X110700000Y-112550000D03*
%TD*%
%LPD*%
M02*
