%TF.GenerationSoftware,KiCad,Pcbnew,8.0.7*%
%TF.CreationDate,2025-01-23T23:10:57+01:00*%
%TF.ProjectId,scd30_esp,73636433-305f-4657-9370-2e6b69636164,rev?*%
%TF.SameCoordinates,Original*%
%TF.FileFunction,Soldermask,Top*%
%TF.FilePolarity,Negative*%
%FSLAX46Y46*%
G04 Gerber Fmt 4.6, Leading zero omitted, Abs format (unit mm)*
G04 Created by KiCad (PCBNEW 8.0.7) date 2025-01-23 23:10:57*
%MOMM*%
%LPD*%
G01*
G04 APERTURE LIST*
G04 Aperture macros list*
%AMRoundRect*
0 Rectangle with rounded corners*
0 $1 Rounding radius*
0 $2 $3 $4 $5 $6 $7 $8 $9 X,Y pos of 4 corners*
0 Add a 4 corners polygon primitive as box body*
4,1,4,$2,$3,$4,$5,$6,$7,$8,$9,$2,$3,0*
0 Add four circle primitives for the rounded corners*
1,1,$1+$1,$2,$3*
1,1,$1+$1,$4,$5*
1,1,$1+$1,$6,$7*
1,1,$1+$1,$8,$9*
0 Add four rect primitives between the rounded corners*
20,1,$1+$1,$2,$3,$4,$5,0*
20,1,$1+$1,$4,$5,$6,$7,0*
20,1,$1+$1,$6,$7,$8,$9,0*
20,1,$1+$1,$8,$9,$2,$3,0*%
G04 Aperture macros list end*
%ADD10C,0.010000*%
%ADD11RoundRect,0.200000X-0.200000X-0.275000X0.200000X-0.275000X0.200000X0.275000X-0.200000X0.275000X0*%
%ADD12RoundRect,0.225000X-0.250000X0.225000X-0.250000X-0.225000X0.250000X-0.225000X0.250000X0.225000X0*%
%ADD13RoundRect,0.225000X0.225000X0.250000X-0.225000X0.250000X-0.225000X-0.250000X0.225000X-0.250000X0*%
%ADD14RoundRect,0.140000X-0.170000X0.140000X-0.170000X-0.140000X0.170000X-0.140000X0.170000X0.140000X0*%
%ADD15R,1.400000X0.300000*%
%ADD16RoundRect,0.200000X0.200000X0.275000X-0.200000X0.275000X-0.200000X-0.275000X0.200000X-0.275000X0*%
%ADD17R,1.700000X1.700000*%
%ADD18O,1.700000X1.700000*%
%ADD19RoundRect,0.250000X0.625000X-0.312500X0.625000X0.312500X-0.625000X0.312500X-0.625000X-0.312500X0*%
%ADD20C,3.200000*%
%ADD21RoundRect,0.075000X0.325000X-0.075000X0.325000X0.075000X-0.325000X0.075000X-0.325000X-0.075000X0*%
%ADD22RoundRect,0.200000X0.200000X-0.300000X0.200000X0.300000X-0.200000X0.300000X-0.200000X-0.300000X0*%
%ADD23RoundRect,0.112500X0.112500X-0.187500X0.112500X0.187500X-0.112500X0.187500X-0.112500X-0.187500X0*%
%ADD24RoundRect,0.150000X-0.150000X-0.625000X0.150000X-0.625000X0.150000X0.625000X-0.150000X0.625000X0*%
%ADD25RoundRect,0.250000X-0.350000X-0.650000X0.350000X-0.650000X0.350000X0.650000X-0.350000X0.650000X0*%
%ADD26R,0.650000X0.400000*%
%ADD27C,0.650000*%
%ADD28R,0.600000X1.450000*%
%ADD29R,0.300000X1.450000*%
%ADD30O,1.000000X2.100000*%
%ADD31O,1.000000X1.600000*%
%ADD32RoundRect,0.150000X-0.587500X-0.150000X0.587500X-0.150000X0.587500X0.150000X-0.587500X0.150000X0*%
%ADD33RoundRect,0.150000X-0.825000X-0.150000X0.825000X-0.150000X0.825000X0.150000X-0.825000X0.150000X0*%
%ADD34RoundRect,0.250000X0.475000X-0.250000X0.475000X0.250000X-0.475000X0.250000X-0.475000X-0.250000X0*%
%ADD35RoundRect,0.250000X0.312500X0.625000X-0.312500X0.625000X-0.312500X-0.625000X0.312500X-0.625000X0*%
%ADD36R,0.900000X1.500000*%
%ADD37R,1.500000X0.900000*%
%ADD38R,0.900000X0.900000*%
%ADD39RoundRect,0.250000X-1.075000X0.375000X-1.075000X-0.375000X1.075000X-0.375000X1.075000X0.375000X0*%
%ADD40RoundRect,0.250000X-0.250000X-0.475000X0.250000X-0.475000X0.250000X0.475000X-0.250000X0.475000X0*%
%ADD41RoundRect,0.140000X0.140000X0.170000X-0.140000X0.170000X-0.140000X-0.170000X0.140000X-0.170000X0*%
%ADD42RoundRect,0.112500X-0.187500X-0.112500X0.187500X-0.112500X0.187500X0.112500X-0.187500X0.112500X0*%
%ADD43RoundRect,0.225000X-0.375000X0.225000X-0.375000X-0.225000X0.375000X-0.225000X0.375000X0.225000X0*%
%ADD44RoundRect,0.150000X-0.512500X-0.150000X0.512500X-0.150000X0.512500X0.150000X-0.512500X0.150000X0*%
%ADD45RoundRect,0.250000X0.250000X0.475000X-0.250000X0.475000X-0.250000X-0.475000X0.250000X-0.475000X0*%
%ADD46RoundRect,0.250200X-0.649800X0.649800X-0.649800X-0.649800X0.649800X-0.649800X0.649800X0.649800X0*%
%ADD47C,1.800000*%
%ADD48RoundRect,0.150000X-0.150000X0.587500X-0.150000X-0.587500X0.150000X-0.587500X0.150000X0.587500X0*%
%ADD49RoundRect,0.250000X0.375000X0.850000X-0.375000X0.850000X-0.375000X-0.850000X0.375000X-0.850000X0*%
%ADD50RoundRect,0.112500X0.112500X0.237500X-0.112500X0.237500X-0.112500X-0.237500X0.112500X-0.237500X0*%
%ADD51RoundRect,0.250000X-0.475000X0.250000X-0.475000X-0.250000X0.475000X-0.250000X0.475000X0.250000X0*%
%ADD52RoundRect,0.225000X0.375000X-0.225000X0.375000X0.225000X-0.375000X0.225000X-0.375000X-0.225000X0*%
G04 APERTURE END LIST*
D10*
%TO.C,J3*%
X165700000Y-88150000D02*
X166400000Y-88150000D01*
X166400000Y-89600000D01*
X163900000Y-89600000D01*
X163900000Y-87450000D01*
X164400000Y-87450000D01*
X164400000Y-86750000D01*
X165700000Y-86750000D01*
X165700000Y-88150000D01*
G36*
X165700000Y-88150000D02*
G01*
X166400000Y-88150000D01*
X166400000Y-89600000D01*
X163900000Y-89600000D01*
X163900000Y-87450000D01*
X164400000Y-87450000D01*
X164400000Y-86750000D01*
X165700000Y-86750000D01*
X165700000Y-88150000D01*
G37*
X166400000Y-103250000D02*
X165700000Y-103250000D01*
X165700000Y-104650000D01*
X164400000Y-104650000D01*
X164400000Y-103950000D01*
X163900000Y-103950000D01*
X163900000Y-101800000D01*
X166400000Y-101800000D01*
X166400000Y-103250000D01*
G36*
X166400000Y-103250000D02*
G01*
X165700000Y-103250000D01*
X165700000Y-104650000D01*
X164400000Y-104650000D01*
X164400000Y-103950000D01*
X163900000Y-103950000D01*
X163900000Y-101800000D01*
X166400000Y-101800000D01*
X166400000Y-103250000D01*
G37*
%TO.C,G\u002A\u002A\u002A*%
X136806148Y-88935709D02*
X136957675Y-89085617D01*
X136995591Y-89186409D01*
X136990035Y-89424006D01*
X136869597Y-89583970D01*
X136680419Y-89641067D01*
X136468640Y-89570063D01*
X136399714Y-89512285D01*
X136287686Y-89368433D01*
X136294031Y-89235259D01*
X136420089Y-89051290D01*
X136609649Y-88920204D01*
X136806148Y-88935709D01*
G36*
X136806148Y-88935709D02*
G01*
X136957675Y-89085617D01*
X136995591Y-89186409D01*
X136990035Y-89424006D01*
X136869597Y-89583970D01*
X136680419Y-89641067D01*
X136468640Y-89570063D01*
X136399714Y-89512285D01*
X136287686Y-89368433D01*
X136294031Y-89235259D01*
X136420089Y-89051290D01*
X136609649Y-88920204D01*
X136806148Y-88935709D01*
G37*
X135681477Y-88946842D02*
X135832006Y-89090593D01*
X135922698Y-89244418D01*
X135928000Y-89279044D01*
X135864510Y-89406230D01*
X135721001Y-89547052D01*
X135567909Y-89637457D01*
X135525214Y-89645333D01*
X135395490Y-89590710D01*
X135299047Y-89512285D01*
X135191094Y-89356386D01*
X135166000Y-89264333D01*
X135231721Y-89100494D01*
X135380867Y-88949034D01*
X135539925Y-88883333D01*
X135681477Y-88946842D01*
G36*
X135681477Y-88946842D02*
G01*
X135832006Y-89090593D01*
X135922698Y-89244418D01*
X135928000Y-89279044D01*
X135864510Y-89406230D01*
X135721001Y-89547052D01*
X135567909Y-89637457D01*
X135525214Y-89645333D01*
X135395490Y-89590710D01*
X135299047Y-89512285D01*
X135191094Y-89356386D01*
X135166000Y-89264333D01*
X135231721Y-89100494D01*
X135380867Y-88949034D01*
X135539925Y-88883333D01*
X135681477Y-88946842D01*
G37*
X143387919Y-86412640D02*
X144333817Y-86725473D01*
X144617897Y-86850277D01*
X145261726Y-87213902D01*
X145763271Y-87647037D01*
X146141455Y-88167376D01*
X146249105Y-88375333D01*
X146342579Y-88587867D01*
X146405184Y-88783714D01*
X146442999Y-89005008D01*
X146462106Y-89293888D01*
X146468583Y-89692488D01*
X146469000Y-89899333D01*
X146456755Y-90490491D01*
X146409333Y-90975422D01*
X146310705Y-91385255D01*
X146144844Y-91751121D01*
X145895719Y-92104150D01*
X145547301Y-92475471D01*
X145083563Y-92896215D01*
X144802718Y-93135456D01*
X144524360Y-93401906D01*
X144283992Y-93688996D01*
X144149370Y-93903020D01*
X144023194Y-94251007D01*
X143976915Y-94580932D01*
X144012718Y-94846732D01*
X144098333Y-94979333D01*
X144214614Y-95117107D01*
X144170273Y-95202538D01*
X143966241Y-95234024D01*
X143950167Y-95234160D01*
X143717125Y-95270896D01*
X143417622Y-95364176D01*
X143230500Y-95441932D01*
X142786000Y-95648876D01*
X142786000Y-95429447D01*
X142777846Y-95305307D01*
X142725923Y-95246079D01*
X142589037Y-95237194D01*
X142325998Y-95264083D01*
X142320333Y-95264749D01*
X142014506Y-95282497D01*
X141861604Y-95250446D01*
X141855241Y-95176196D01*
X141989036Y-95067347D01*
X142256602Y-94931499D01*
X142651557Y-94776252D01*
X142763331Y-94737379D01*
X143421000Y-94513666D01*
X143446269Y-93982089D01*
X143453571Y-93681290D01*
X143427955Y-93488641D01*
X143351626Y-93343637D01*
X143214247Y-93193221D01*
X142946932Y-93002804D01*
X142699540Y-92970999D01*
X142484188Y-93087266D01*
X142312992Y-93341062D01*
X142198071Y-93721848D01*
X142154605Y-94115035D01*
X142133200Y-94598333D01*
X141808198Y-94651171D01*
X141462159Y-94785425D01*
X141288352Y-94947504D01*
X141093508Y-95191000D01*
X141093087Y-94910127D01*
X141079886Y-94722971D01*
X141018368Y-94664741D01*
X140902167Y-94687025D01*
X140697207Y-94787971D01*
X140521167Y-94919156D01*
X140330667Y-95093517D01*
X140330667Y-94915921D01*
X140407019Y-94666871D01*
X140608837Y-94425469D01*
X140895265Y-94231145D01*
X141132423Y-94142147D01*
X141314137Y-94093428D01*
X141435376Y-94034764D01*
X141515647Y-93932372D01*
X141574460Y-93752469D01*
X141631324Y-93461271D01*
X141675594Y-93201541D01*
X141712082Y-92886404D01*
X141692707Y-92711178D01*
X141671301Y-92684660D01*
X141565110Y-92654500D01*
X141319487Y-92601391D01*
X140961940Y-92530762D01*
X140519976Y-92448042D01*
X140021102Y-92358660D01*
X140006883Y-92356167D01*
X139064163Y-92181097D01*
X138272947Y-92011267D01*
X137615737Y-91841284D01*
X137075039Y-91665755D01*
X136633355Y-91479289D01*
X136273190Y-91276494D01*
X136097333Y-91151269D01*
X135901039Y-90955169D01*
X135712215Y-90696924D01*
X135567981Y-90435106D01*
X135505460Y-90228285D01*
X135505100Y-90216833D01*
X135443216Y-90098638D01*
X135284533Y-90068666D01*
X135053633Y-89995691D01*
X134786937Y-89790870D01*
X134765963Y-89770230D01*
X134590051Y-89579764D01*
X134508506Y-89421632D01*
X134495587Y-89230024D01*
X134602813Y-89230024D01*
X134703708Y-89533192D01*
X134889163Y-89772767D01*
X135130426Y-89926685D01*
X135398748Y-89972883D01*
X135665377Y-89889295D01*
X135792341Y-89788689D01*
X135947001Y-89614080D01*
X136042492Y-89471189D01*
X136097585Y-89391335D01*
X136152174Y-89471189D01*
X136329948Y-89721103D01*
X136581726Y-89907797D01*
X136843005Y-89983919D01*
X136850763Y-89984000D01*
X137156393Y-89912585D01*
X137388308Y-89723742D01*
X137539752Y-89455575D01*
X137603974Y-89146186D01*
X137574220Y-88833679D01*
X137443737Y-88556155D01*
X137205771Y-88351719D01*
X137145131Y-88323141D01*
X136823880Y-88257522D01*
X136534827Y-88350749D01*
X136266296Y-88601843D01*
X136124116Y-88744384D01*
X136042985Y-88748853D01*
X136036833Y-88736299D01*
X135862030Y-88469682D01*
X135590309Y-88282756D01*
X135456577Y-88241087D01*
X135186300Y-88266958D01*
X134921085Y-88417878D01*
X134710862Y-88655613D01*
X134615228Y-88885328D01*
X134602813Y-89230024D01*
X134495587Y-89230024D01*
X134494912Y-89220027D01*
X134509552Y-89034425D01*
X134560090Y-88732176D01*
X134663069Y-88522132D01*
X134817791Y-88359195D01*
X135047827Y-88212143D01*
X135308488Y-88128325D01*
X135545057Y-88117069D01*
X135702815Y-88187708D01*
X135716323Y-88205982D01*
X135806317Y-88207174D01*
X135981535Y-88111292D01*
X136110841Y-88015482D01*
X136257584Y-87901958D01*
X136389168Y-87823600D01*
X136541881Y-87772300D01*
X136752015Y-87739947D01*
X137055860Y-87718432D01*
X137489706Y-87699645D01*
X137531565Y-87698000D01*
X138610087Y-87655666D01*
X139068210Y-87305289D01*
X139857482Y-86800826D01*
X140690098Y-86458836D01*
X141560049Y-86279814D01*
X142461326Y-86264251D01*
X143387919Y-86412640D01*
G36*
X143387919Y-86412640D02*
G01*
X144333817Y-86725473D01*
X144617897Y-86850277D01*
X145261726Y-87213902D01*
X145763271Y-87647037D01*
X146141455Y-88167376D01*
X146249105Y-88375333D01*
X146342579Y-88587867D01*
X146405184Y-88783714D01*
X146442999Y-89005008D01*
X146462106Y-89293888D01*
X146468583Y-89692488D01*
X146469000Y-89899333D01*
X146456755Y-90490491D01*
X146409333Y-90975422D01*
X146310705Y-91385255D01*
X146144844Y-91751121D01*
X145895719Y-92104150D01*
X145547301Y-92475471D01*
X145083563Y-92896215D01*
X144802718Y-93135456D01*
X144524360Y-93401906D01*
X144283992Y-93688996D01*
X144149370Y-93903020D01*
X144023194Y-94251007D01*
X143976915Y-94580932D01*
X144012718Y-94846732D01*
X144098333Y-94979333D01*
X144214614Y-95117107D01*
X144170273Y-95202538D01*
X143966241Y-95234024D01*
X143950167Y-95234160D01*
X143717125Y-95270896D01*
X143417622Y-95364176D01*
X143230500Y-95441932D01*
X142786000Y-95648876D01*
X142786000Y-95429447D01*
X142777846Y-95305307D01*
X142725923Y-95246079D01*
X142589037Y-95237194D01*
X142325998Y-95264083D01*
X142320333Y-95264749D01*
X142014506Y-95282497D01*
X141861604Y-95250446D01*
X141855241Y-95176196D01*
X141989036Y-95067347D01*
X142256602Y-94931499D01*
X142651557Y-94776252D01*
X142763331Y-94737379D01*
X143421000Y-94513666D01*
X143446269Y-93982089D01*
X143453571Y-93681290D01*
X143427955Y-93488641D01*
X143351626Y-93343637D01*
X143214247Y-93193221D01*
X142946932Y-93002804D01*
X142699540Y-92970999D01*
X142484188Y-93087266D01*
X142312992Y-93341062D01*
X142198071Y-93721848D01*
X142154605Y-94115035D01*
X142133200Y-94598333D01*
X141808198Y-94651171D01*
X141462159Y-94785425D01*
X141288352Y-94947504D01*
X141093508Y-95191000D01*
X141093087Y-94910127D01*
X141079886Y-94722971D01*
X141018368Y-94664741D01*
X140902167Y-94687025D01*
X140697207Y-94787971D01*
X140521167Y-94919156D01*
X140330667Y-95093517D01*
X140330667Y-94915921D01*
X140407019Y-94666871D01*
X140608837Y-94425469D01*
X140895265Y-94231145D01*
X141132423Y-94142147D01*
X141314137Y-94093428D01*
X141435376Y-94034764D01*
X141515647Y-93932372D01*
X141574460Y-93752469D01*
X141631324Y-93461271D01*
X141675594Y-93201541D01*
X141712082Y-92886404D01*
X141692707Y-92711178D01*
X141671301Y-92684660D01*
X141565110Y-92654500D01*
X141319487Y-92601391D01*
X140961940Y-92530762D01*
X140519976Y-92448042D01*
X140021102Y-92358660D01*
X140006883Y-92356167D01*
X139064163Y-92181097D01*
X138272947Y-92011267D01*
X137615737Y-91841284D01*
X137075039Y-91665755D01*
X136633355Y-91479289D01*
X136273190Y-91276494D01*
X136097333Y-91151269D01*
X135901039Y-90955169D01*
X135712215Y-90696924D01*
X135567981Y-90435106D01*
X135505460Y-90228285D01*
X135505100Y-90216833D01*
X135443216Y-90098638D01*
X135284533Y-90068666D01*
X135053633Y-89995691D01*
X134786937Y-89790870D01*
X134765963Y-89770230D01*
X134590051Y-89579764D01*
X134508506Y-89421632D01*
X134495587Y-89230024D01*
X134602813Y-89230024D01*
X134703708Y-89533192D01*
X134889163Y-89772767D01*
X135130426Y-89926685D01*
X135398748Y-89972883D01*
X135665377Y-89889295D01*
X135792341Y-89788689D01*
X135947001Y-89614080D01*
X136042492Y-89471189D01*
X136097585Y-89391335D01*
X136152174Y-89471189D01*
X136329948Y-89721103D01*
X136581726Y-89907797D01*
X136843005Y-89983919D01*
X136850763Y-89984000D01*
X137156393Y-89912585D01*
X137388308Y-89723742D01*
X137539752Y-89455575D01*
X137603974Y-89146186D01*
X137574220Y-88833679D01*
X137443737Y-88556155D01*
X137205771Y-88351719D01*
X137145131Y-88323141D01*
X136823880Y-88257522D01*
X136534827Y-88350749D01*
X136266296Y-88601843D01*
X136124116Y-88744384D01*
X136042985Y-88748853D01*
X136036833Y-88736299D01*
X135862030Y-88469682D01*
X135590309Y-88282756D01*
X135456577Y-88241087D01*
X135186300Y-88266958D01*
X134921085Y-88417878D01*
X134710862Y-88655613D01*
X134615228Y-88885328D01*
X134602813Y-89230024D01*
X134495587Y-89230024D01*
X134494912Y-89220027D01*
X134509552Y-89034425D01*
X134560090Y-88732176D01*
X134663069Y-88522132D01*
X134817791Y-88359195D01*
X135047827Y-88212143D01*
X135308488Y-88128325D01*
X135545057Y-88117069D01*
X135702815Y-88187708D01*
X135716323Y-88205982D01*
X135806317Y-88207174D01*
X135981535Y-88111292D01*
X136110841Y-88015482D01*
X136257584Y-87901958D01*
X136389168Y-87823600D01*
X136541881Y-87772300D01*
X136752015Y-87739947D01*
X137055860Y-87718432D01*
X137489706Y-87699645D01*
X137531565Y-87698000D01*
X138610087Y-87655666D01*
X139068210Y-87305289D01*
X139857482Y-86800826D01*
X140690098Y-86458836D01*
X141560049Y-86279814D01*
X142461326Y-86264251D01*
X143387919Y-86412640D01*
G37*
%TD*%
D11*
%TO.C,R12*%
X144475000Y-82000000D03*
X146125000Y-82000000D03*
%TD*%
%TO.C,R9*%
X118275000Y-103450000D03*
X119925000Y-103450000D03*
%TD*%
D12*
%TO.C,C17*%
X161300000Y-91750000D03*
X161300000Y-93300000D03*
%TD*%
D13*
%TO.C,C5*%
X112675000Y-99800000D03*
X111125000Y-99800000D03*
%TD*%
D14*
%TO.C,C20*%
X160700000Y-96820000D03*
X160700000Y-97780000D03*
%TD*%
D11*
%TO.C,R3*%
X163315000Y-105700000D03*
X164965000Y-105700000D03*
%TD*%
D15*
%TO.C,J3*%
X163900000Y-101450000D03*
X163900000Y-100950000D03*
X163900000Y-100450000D03*
X163900000Y-99950000D03*
X163900000Y-99450000D03*
X163900000Y-98950000D03*
X163900000Y-98450000D03*
X163900000Y-97950000D03*
X163900000Y-97450000D03*
X163900000Y-96950000D03*
X163900000Y-96450000D03*
X163900000Y-95950000D03*
X163900000Y-95450000D03*
X163900000Y-94950000D03*
X163900000Y-94450000D03*
X163900000Y-93950000D03*
X163900000Y-93450000D03*
X163900000Y-92950000D03*
X163900000Y-92450000D03*
X163900000Y-91950000D03*
X163900000Y-91450000D03*
X163900000Y-90950000D03*
X163900000Y-90450000D03*
X163900000Y-89950000D03*
%TD*%
D12*
%TO.C,C16*%
X153137500Y-102525000D03*
X153137500Y-104075000D03*
%TD*%
D16*
%TO.C,R13*%
X143125000Y-82000000D03*
X141475000Y-82000000D03*
%TD*%
D17*
%TO.C,J1*%
X166925000Y-79400000D03*
D18*
X164385000Y-79400000D03*
X161845000Y-79400000D03*
X159305000Y-79400000D03*
X156765000Y-79400000D03*
X154225000Y-79400000D03*
X151685000Y-79400000D03*
%TD*%
D11*
%TO.C,R4*%
X138075000Y-107950000D03*
X139725000Y-107950000D03*
%TD*%
D12*
%TO.C,C13*%
X157637500Y-102525000D03*
X157637500Y-104075000D03*
%TD*%
D16*
%TO.C,R6*%
X154225000Y-92100000D03*
X152575000Y-92100000D03*
%TD*%
D12*
%TO.C,C10*%
X162137500Y-102525000D03*
X162137500Y-104075000D03*
%TD*%
D19*
%TO.C,R16*%
X117000000Y-115762500D03*
X117000000Y-112837500D03*
%TD*%
D20*
%TO.C,REF\u002A\u002A*%
X122700000Y-113700000D03*
%TD*%
D21*
%TO.C,REF\u002A\u002A*%
X164200000Y-101450000D03*
X164200000Y-100950000D03*
X164200000Y-100450000D03*
X164200000Y-99950000D03*
X164200000Y-99450000D03*
X164200000Y-98950000D03*
X164200000Y-98450000D03*
X164200000Y-97950000D03*
X164200000Y-97450000D03*
X164200000Y-96950000D03*
X164200000Y-96450000D03*
X164200000Y-95950000D03*
X164200000Y-95450000D03*
X164200000Y-94950000D03*
X164200000Y-94450000D03*
X164200000Y-93950000D03*
X164200000Y-93450000D03*
X164200000Y-92950000D03*
X164200000Y-92450000D03*
X164200000Y-91950000D03*
X164200000Y-91450000D03*
X164200000Y-90950000D03*
X164200000Y-90450000D03*
X164200000Y-89950000D03*
D22*
X166700000Y-102450000D03*
X166700000Y-88950000D03*
%TD*%
D23*
%TO.C,D2*%
X152100000Y-99000000D03*
X152100000Y-96900000D03*
%TD*%
D24*
%TO.C,J4*%
X156500000Y-111500000D03*
X157500000Y-111500000D03*
X158500000Y-111500000D03*
X159500000Y-111500000D03*
D25*
X155200000Y-115375000D03*
X160800000Y-115375000D03*
%TD*%
D26*
%TO.C,Q3*%
X129250000Y-100700000D03*
X129250000Y-100050000D03*
X129250000Y-99400000D03*
X127350000Y-99400000D03*
X127350000Y-100050000D03*
X127350000Y-100700000D03*
%TD*%
D27*
%TO.C,J2*%
X131685000Y-111400000D03*
X137465000Y-111400000D03*
D28*
X131325000Y-109955000D03*
X132125000Y-109955000D03*
D29*
X133325000Y-109955000D03*
X134325000Y-109955000D03*
X134825000Y-109955000D03*
X135825000Y-109955000D03*
D28*
X137025000Y-109955000D03*
X137825000Y-109955000D03*
X137825000Y-109955000D03*
X137025000Y-109955000D03*
D29*
X136325000Y-109955000D03*
X135325000Y-109955000D03*
X133825000Y-109955000D03*
X132825000Y-109955000D03*
D28*
X132125000Y-109955000D03*
X131325000Y-109955000D03*
D30*
X130255000Y-110870000D03*
D31*
X130255000Y-115050000D03*
D30*
X138895000Y-110870000D03*
D31*
X138895000Y-115050000D03*
%TD*%
D32*
%TO.C,Q2*%
X155425000Y-82150000D03*
X155425000Y-84050000D03*
X157300000Y-83100000D03*
%TD*%
D11*
%TO.C,R1*%
X157100000Y-105700000D03*
X158750000Y-105700000D03*
%TD*%
D33*
%TO.C,U3*%
X134725000Y-96355000D03*
X134725000Y-97625000D03*
X134725000Y-98895000D03*
X134725000Y-100165000D03*
X134725000Y-101435000D03*
X134725000Y-102705000D03*
X134725000Y-103975000D03*
X134725000Y-105245000D03*
X139675000Y-105245000D03*
X139675000Y-103975000D03*
X139675000Y-102705000D03*
X139675000Y-101435000D03*
X139675000Y-100165000D03*
X139675000Y-98895000D03*
X139675000Y-97625000D03*
X139675000Y-96355000D03*
%TD*%
D12*
%TO.C,C15*%
X154637500Y-102525000D03*
X154637500Y-104075000D03*
%TD*%
D34*
%TO.C,C9*%
X150900000Y-93950000D03*
X150900000Y-92050000D03*
%TD*%
D12*
%TO.C,C18*%
X159800000Y-91750000D03*
X159800000Y-93300000D03*
%TD*%
D35*
%TO.C,R11*%
X162125000Y-82500000D03*
X159200000Y-82500000D03*
%TD*%
D36*
%TO.C,U2*%
X111050000Y-97450000D03*
X112320000Y-97450000D03*
X113590000Y-97450000D03*
X114860000Y-97450000D03*
X116130000Y-97450000D03*
X117400000Y-97450000D03*
X118670000Y-97450000D03*
X119940000Y-97450000D03*
X121210000Y-97450000D03*
X122480000Y-97450000D03*
X123750000Y-97450000D03*
X125020000Y-97450000D03*
X126290000Y-97450000D03*
X127560000Y-97450000D03*
D37*
X128810000Y-94420000D03*
X128810000Y-93150000D03*
X128810000Y-91880000D03*
X128810000Y-90610000D03*
X128810000Y-89340000D03*
X128810000Y-88070000D03*
X128810000Y-86800000D03*
X128810000Y-85530000D03*
X128810000Y-84260000D03*
X128810000Y-82990000D03*
D36*
X127560000Y-79950000D03*
X126290000Y-79950000D03*
X125020000Y-79950000D03*
X123750000Y-79950000D03*
X122480000Y-79950000D03*
X121210000Y-79950000D03*
X119940000Y-79950000D03*
X118670000Y-79950000D03*
X117400000Y-79950000D03*
X116130000Y-79950000D03*
X114860000Y-79950000D03*
X113590000Y-79950000D03*
X112320000Y-79950000D03*
X111050000Y-79950000D03*
D38*
X117370000Y-91600000D03*
X117370000Y-91600000D03*
X118770000Y-91600000D03*
X120170000Y-91600000D03*
X120170000Y-91600000D03*
X117370000Y-90200000D03*
X118770000Y-90200000D03*
X120170000Y-90200000D03*
X120170000Y-90200000D03*
X117370000Y-88800000D03*
X118770000Y-88800000D03*
X120170000Y-88800000D03*
%TD*%
D11*
%TO.C,R15*%
X116250000Y-107200000D03*
X117900000Y-107200000D03*
%TD*%
D39*
%TO.C,L2*%
X156800000Y-92650000D03*
X156800000Y-95450000D03*
%TD*%
D16*
%TO.C,R5*%
X131025000Y-107900000D03*
X129375000Y-107900000D03*
%TD*%
D12*
%TO.C,C11*%
X160637500Y-102525000D03*
X160637500Y-104075000D03*
%TD*%
D11*
%TO.C,R14*%
X116250000Y-105600000D03*
X117900000Y-105600000D03*
%TD*%
D34*
%TO.C,C2*%
X152500000Y-107700000D03*
X152500000Y-105800000D03*
%TD*%
D40*
%TO.C,C7*%
X112550000Y-109200000D03*
X114450000Y-109200000D03*
%TD*%
D41*
%TO.C,C4*%
X137575000Y-95095000D03*
X136615000Y-95095000D03*
%TD*%
D42*
%TO.C,D3*%
X153850000Y-99350000D03*
X155950000Y-99350000D03*
%TD*%
%TO.C,D1*%
X155800000Y-90750000D03*
X157900000Y-90750000D03*
%TD*%
D43*
%TO.C,D5*%
X167500000Y-82050000D03*
X167500000Y-85350000D03*
%TD*%
D14*
%TO.C,C1*%
X155900000Y-105720000D03*
X155900000Y-106680000D03*
%TD*%
D16*
%TO.C,R7*%
X154225000Y-90600000D03*
X152575000Y-90600000D03*
%TD*%
D44*
%TO.C,U1*%
X159062500Y-107260000D03*
X159062500Y-108210000D03*
X159062500Y-109160000D03*
X161337500Y-109160000D03*
X161337500Y-108210000D03*
X161337500Y-107260000D03*
%TD*%
D11*
%TO.C,R8*%
X118275000Y-101900000D03*
X119925000Y-101900000D03*
%TD*%
D12*
%TO.C,C14*%
X156137500Y-102525000D03*
X156137500Y-104075000D03*
%TD*%
D45*
%TO.C,C8*%
X155750000Y-97350000D03*
X153850000Y-97350000D03*
%TD*%
D20*
%TO.C,REF\u002A\u002A*%
X165500000Y-113700000D03*
%TD*%
D23*
%TO.C,D4*%
X157500000Y-99050000D03*
X157500000Y-96950000D03*
%TD*%
D11*
%TO.C,R10*%
X118275000Y-100300000D03*
X119925000Y-100300000D03*
%TD*%
D46*
%TO.C,U4*%
X149625000Y-110310000D03*
D47*
X149625000Y-112850000D03*
X149625000Y-115390000D03*
%TD*%
D11*
%TO.C,R2*%
X160315000Y-105700000D03*
X161965000Y-105700000D03*
%TD*%
D48*
%TO.C,Q4*%
X117925000Y-109062500D03*
X116025000Y-109062500D03*
X116975000Y-110937500D03*
%TD*%
D49*
%TO.C,L1*%
X156575000Y-108600000D03*
X154425000Y-108600000D03*
%TD*%
D50*
%TO.C,Q1*%
X154200000Y-93600000D03*
X152900000Y-93600000D03*
X153550000Y-95600000D03*
%TD*%
D34*
%TO.C,C3*%
X163600000Y-109160000D03*
X163600000Y-107260000D03*
%TD*%
D12*
%TO.C,C12*%
X159137500Y-102525000D03*
X159137500Y-104075000D03*
%TD*%
D51*
%TO.C,C6*%
X161900000Y-84450000D03*
X161900000Y-86350000D03*
%TD*%
D52*
%TO.C,D6*%
X110700000Y-115850000D03*
X110700000Y-112550000D03*
%TD*%
M02*
