M48
; DRILL file {KiCad 8.0.7} date 2025-01-23T23:10:58+0100
; FORMAT={-:-/ absolute / inch / decimal}
; #@! TF.CreationDate,2025-01-23T23:10:58+01:00
; #@! TF.GenerationSoftware,Kicad,Pcbnew,8.0.7
; #@! TF.FileFunction,Plated,1,2,PTH
FMAT,2
INCH
; #@! TA.AperFunction,Plated,PTH,ViaDrill
T1C0.0118
; #@! TA.AperFunction,Plated,PTH,ComponentDrill
T2C0.0236
; #@! TA.AperFunction,Plated,PTH,ComponentDrill
T3C0.0394
%
G90
G05
T1
X4.3386Y-4.3858
X4.3465Y-3.0827
X4.372Y-3.2126
X4.372Y-3.2992
X4.372Y-3.4252
X4.372Y-3.5787
X4.372Y-3.7677
X4.378Y-4.1614
X4.3858Y-4.0354
X4.3898Y-4.4724
X4.4016Y-3.0787
X4.4213Y-3.7835
X4.4252Y-4.5079
X4.4409Y-3.2008
X4.4567Y-4.1417
X4.4567Y-4.2165
X4.4724Y-4.0354
X4.4882Y-3.9252
X4.4961Y-3.7402
X4.5039Y-4.248
X4.5157Y-4.3858
X4.5236Y-3.2008
X4.5276Y-4.5079
X4.5315Y-4.185
X4.5551Y-3.8976
X4.5591Y-4.0354
X4.5669Y-3.2559
X4.5709Y-4.3543
X4.5748Y-3.2008
X4.6063Y-4.2953
X4.6063Y-4.5
X4.6209Y-3.4961
X4.6209Y-3.5512
X4.6209Y-3.6063
X4.6378Y-4.3465
X4.6516Y-3.9016
X4.676Y-3.4961
X4.676Y-3.5512
X4.676Y-3.6063
X4.6772Y-3.3701
X4.6929Y-3.8976
X4.6929Y-4.248
X4.6969Y-3.7402
X4.7008Y-4.1772
X4.7244Y-3.1969
X4.7244Y-4.3425
X4.7244Y-4.5787
X4.7311Y-3.4961
X4.7311Y-3.5512
X4.7311Y-3.6063
X4.7717Y-3.2835
X4.7717Y-3.9016
X4.7756Y-3.1969
X4.7756Y-3.9764
X4.7874Y-4.185
X4.7913Y-4.248
X4.8169Y-3.9843
X4.8228Y-3.1969
X4.8268Y-4.126
X4.8346Y-3.374
X4.8346Y-4.248
X4.8484Y-3.939
X4.8661Y-4.248
X4.874Y-3.1969
X4.8976Y-4.248
X4.9213Y-3.1969
X4.9213Y-3.9843
X4.9291Y-4.248
X4.9311Y-4.0669
X4.9311Y-4.1752
X4.9331Y-4.5787
X4.9685Y-4.3346
X4.9724Y-3.1969
X4.9764Y-3.311
X4.9921Y-3.7402
X5.0118Y-3.3858
X5.0118Y-3.5866
X5.0157Y-3.311
X5.0236Y-4.248
X5.0276Y-4.185
X5.0492Y-4.0059
X5.0551Y-4.5276
X5.0551Y-4.5748
X5.0748Y-4.3976
X5.0906Y-3.1693
X5.0945Y-3.8622
X5.1535Y-3.1654
X5.1535Y-3.3071
X5.1535Y-3.378
X5.1831Y-4.1831
X5.189Y-3.378
X5.2018Y-4.2463
X5.2126Y-4.5177
X5.2205Y-3.9941
X5.2244Y-3.7835
X5.2244Y-4.3858
X5.2323Y-4.2463
X5.2559Y-4.435
X5.2638Y-4.3878
X5.2874Y-4.4154
X5.315Y-4.3878
X5.3268Y-4.189
X5.3307Y-3.1535
X5.3425Y-4.4154
X5.3504Y-3.3071
X5.3622Y-4.2463
X5.3701Y-4.435
X5.374Y-3.878
X5.374Y-3.9449
X5.374Y-4.3858
X5.3799Y-4.5177
X5.3937Y-4.2463
X5.4016Y-4.0039
X5.4016Y-4.1496
X5.4173Y-3.8937
X5.4173Y-3.9685
X5.4803Y-3.1417
X5.5197Y-3.3071
X5.5551Y-4.2815
X5.563Y-4.0669
X5.5669Y-3.8307
X5.7303Y-4.185
X5.7303Y-4.2756
X5.7441Y-3.3031
X5.8268Y-3.1693
X5.8287Y-4.3327
X5.8976Y-3.0906
X5.9213Y-4.185
X5.9213Y-4.2776
X5.9567Y-3.5709
X5.9567Y-4.2165
X5.9705Y-4.5748
X5.9724Y-4.0984
X5.9803Y-3.7717
X5.9803Y-4.3661
X5.9902Y-4.5079
X5.9921Y-4.4528
X6.0411Y-3.6567
X6.0512Y-3.9685
X6.0531Y-4.5118
X6.0551Y-4.3622
X6.0591Y-4.4528
X6.0709Y-4.1496
X6.0984Y-3.9134
X6.1063Y-3.4409
X6.1063Y-3.5512
X6.1575Y-3.8858
X6.1693Y-3.5512
X6.1732Y-3.937
X6.1772Y-4.1181
X6.185Y-4.4646
X6.2126Y-4.2244
X6.2126Y-4.2598
X6.2205Y-4.5571
X6.2402Y-3.4921
X6.2402Y-4.4606
X6.2434Y-3.9993
X6.2598Y-3.5197
X6.2598Y-3.8504
X6.2677Y-4.4449
X6.2874Y-3.4331
X6.2874Y-3.5669
X6.2874Y-3.7756
X6.2953Y-4.1181
X6.3071Y-4.2047
X6.3071Y-4.2598
X6.3071Y-4.2992
X6.3228Y-3.1614
X6.3228Y-3.4961
X6.3654Y-3.9953
X6.374Y-3.811
X6.3953Y-4.2976
X6.3976Y-4.2323
X6.3996Y-4.5787
X6.4016Y-3.7362
X6.4016Y-3.7756
X6.437Y-4.1181
X6.4685Y-3.5118
X6.4685Y-4.0236
X6.4921Y-4.252
X6.5Y-3.4331
X6.5Y-3.7874
X6.5Y-3.9094
X6.5Y-4.1024
X6.5197Y-3.6693
X6.5197Y-3.7008
X6.5197Y-3.7323
X6.5197Y-3.7638
X6.5354Y-3.5118
X6.5354Y-4.0236
X6.5748Y-4.1693
X6.5787Y-4.2913
X6.5827Y-3.7835
X6.5827Y-3.8386
X6.5827Y-3.9843
X6.5945Y-3.4016
T3
X5.9719Y-3.126
X6.0719Y-3.126
X6.1719Y-3.126
X6.2719Y-3.126
X6.3719Y-3.126
X6.4719Y-3.126
X6.5719Y-3.126
T2
G00X5.1281Y-4.3433
M15
G01X5.1281Y-4.3866
M16
G05
G00X5.1281Y-4.5177
M15
G01X5.1281Y-4.5413
M16
G05
G00X5.4683Y-4.3433
M15
G01X5.4683Y-4.3866
M16
G05
G00X5.4683Y-4.5177
M15
G01X5.4683Y-4.5413
M16
G05
M30
