%TF.GenerationSoftware,KiCad,Pcbnew,8.0.7*%
%TF.CreationDate,2024-12-28T12:59:27+01:00*%
%TF.ProjectId,scd30_esp,73636433-305f-4657-9370-2e6b69636164,rev?*%
%TF.SameCoordinates,Original*%
%TF.FileFunction,Soldermask,Bot*%
%TF.FilePolarity,Negative*%
%FSLAX46Y46*%
G04 Gerber Fmt 4.6, Leading zero omitted, Abs format (unit mm)*
G04 Created by KiCad (PCBNEW 8.0.7) date 2024-12-28 12:59:27*
%MOMM*%
%LPD*%
G01*
G04 APERTURE LIST*
G04 Aperture macros list*
%AMRoundRect*
0 Rectangle with rounded corners*
0 $1 Rounding radius*
0 $2 $3 $4 $5 $6 $7 $8 $9 X,Y pos of 4 corners*
0 Add a 4 corners polygon primitive as box body*
4,1,4,$2,$3,$4,$5,$6,$7,$8,$9,$2,$3,0*
0 Add four circle primitives for the rounded corners*
1,1,$1+$1,$2,$3*
1,1,$1+$1,$4,$5*
1,1,$1+$1,$6,$7*
1,1,$1+$1,$8,$9*
0 Add four rect primitives between the rounded corners*
20,1,$1+$1,$2,$3,$4,$5,0*
20,1,$1+$1,$4,$5,$6,$7,0*
20,1,$1+$1,$6,$7,$8,$9,0*
20,1,$1+$1,$8,$9,$2,$3,0*%
G04 Aperture macros list end*
%ADD10C,0.010000*%
%ADD11RoundRect,0.150000X-0.825000X-0.150000X0.825000X-0.150000X0.825000X0.150000X-0.825000X0.150000X0*%
%ADD12O,1.600000X1.000000*%
%ADD13O,2.100000X1.000000*%
%ADD14R,1.450000X0.600000*%
%ADD15R,1.450000X0.300000*%
%ADD16C,0.650000*%
%ADD17RoundRect,0.140000X0.140000X0.170000X-0.140000X0.170000X-0.140000X-0.170000X0.140000X-0.170000X0*%
%ADD18O,1.700000X1.700000*%
%ADD19R,1.700000X1.700000*%
%ADD20C,0.600000*%
%ADD21R,3.800000X3.800000*%
%ADD22R,1.500000X0.900000*%
%ADD23R,0.900000X1.500000*%
%ADD24R,0.400000X0.650000*%
%ADD25C,3.200000*%
G04 APERTURE END LIST*
D10*
%TO.C,G\u002A\u002A\u002A*%
X79643011Y-41591496D02*
X79703914Y-41605591D01*
X80173743Y-41751845D01*
X80569765Y-41947000D01*
X80889849Y-42189588D01*
X81131868Y-42478144D01*
X81232000Y-42658188D01*
X81284476Y-42777484D01*
X81319611Y-42885099D01*
X81340798Y-43004241D01*
X81351430Y-43158117D01*
X81354901Y-43369935D01*
X81355018Y-43499636D01*
X81345546Y-43849798D01*
X81311889Y-44135411D01*
X81244574Y-44375319D01*
X81134124Y-44588362D01*
X80971066Y-44793382D01*
X80745924Y-45009220D01*
X80487971Y-45223827D01*
X80243218Y-45458631D01*
X80085888Y-45703870D01*
X80011082Y-45967257D01*
X80009986Y-45976155D01*
X80000359Y-46129249D01*
X80020189Y-46220909D01*
X80057480Y-46266191D01*
X80124725Y-46343515D01*
X80104479Y-46391244D01*
X79996751Y-46409362D01*
X79981909Y-46409542D01*
X79855602Y-46429554D01*
X79692100Y-46480471D01*
X79584778Y-46524997D01*
X79451112Y-46586347D01*
X79356616Y-46628069D01*
X79325637Y-46640000D01*
X79324266Y-46600950D01*
X79336973Y-46517394D01*
X79360411Y-46394787D01*
X79099660Y-46425433D01*
X78934696Y-46434265D01*
X78851513Y-46415498D01*
X78845554Y-46374356D01*
X78912266Y-46316061D01*
X79047093Y-46245838D01*
X79245480Y-46168911D01*
X79354206Y-46133520D01*
X79511798Y-46076131D01*
X79631726Y-46016229D01*
X79688291Y-45966678D01*
X79688475Y-45966213D01*
X79704892Y-45878932D01*
X79714914Y-45739865D01*
X79716364Y-45662852D01*
X79706445Y-45506649D01*
X79665838Y-45398210D01*
X79578263Y-45294068D01*
X79578260Y-45294065D01*
X79433608Y-45191849D01*
X79299010Y-45175401D01*
X79181656Y-45238172D01*
X79088734Y-45373611D01*
X79027434Y-45575167D01*
X79005102Y-45816332D01*
X79001441Y-46085818D01*
X78846340Y-46085818D01*
X78705226Y-46113617D01*
X78576828Y-46208903D01*
X78557256Y-46229248D01*
X78423273Y-46372677D01*
X78423273Y-46226136D01*
X78415574Y-46127350D01*
X78379400Y-46098784D01*
X78319364Y-46111105D01*
X78207568Y-46166166D01*
X78111545Y-46237722D01*
X78039378Y-46297855D01*
X78011597Y-46295019D01*
X78007636Y-46252469D01*
X78050580Y-46077077D01*
X78176097Y-45936011D01*
X78379219Y-45834149D01*
X78457148Y-45811299D01*
X78553262Y-45784124D01*
X78617748Y-45748918D01*
X78660570Y-45687265D01*
X78691692Y-45580752D01*
X78721079Y-45410963D01*
X78739208Y-45290033D01*
X78757957Y-45137162D01*
X78754758Y-45052143D01*
X78726911Y-45012491D01*
X78704784Y-45003206D01*
X78638141Y-44988502D01*
X78495742Y-44960539D01*
X78292776Y-44922182D01*
X78044432Y-44876296D01*
X77765900Y-44825747D01*
X77728229Y-44818976D01*
X77208651Y-44719709D01*
X76773179Y-44622470D01*
X76413699Y-44524140D01*
X76122097Y-44421599D01*
X75890259Y-44311731D01*
X75710070Y-44191417D01*
X75573418Y-44057537D01*
X75506118Y-43964965D01*
X75431167Y-43831654D01*
X75383826Y-43718365D01*
X75375273Y-43675322D01*
X75347463Y-43612213D01*
X75252013Y-43592090D01*
X75241511Y-43592000D01*
X75092904Y-43549485D01*
X74961997Y-43436604D01*
X74866002Y-43275353D01*
X74837479Y-43153375D01*
X74887225Y-43153375D01*
X74948216Y-43315547D01*
X75054348Y-43441435D01*
X75189359Y-43519120D01*
X75336986Y-43536681D01*
X75480968Y-43482198D01*
X75532186Y-43439285D01*
X75616546Y-43344044D01*
X75668632Y-43266103D01*
X75698683Y-43222547D01*
X75728459Y-43266103D01*
X75825426Y-43402420D01*
X75962760Y-43504253D01*
X76105275Y-43545774D01*
X76109507Y-43545818D01*
X76276215Y-43506865D01*
X76402713Y-43403860D01*
X76485319Y-43257587D01*
X76520350Y-43088829D01*
X76504120Y-42918371D01*
X76432948Y-42766994D01*
X76303148Y-42655483D01*
X76270071Y-42639895D01*
X76094843Y-42604103D01*
X75937179Y-42654954D01*
X75790707Y-42791915D01*
X75713154Y-42869664D01*
X75668901Y-42872102D01*
X75665545Y-42865254D01*
X75570198Y-42719827D01*
X75421987Y-42617867D01*
X75349042Y-42595138D01*
X75198508Y-42608976D01*
X75054124Y-42693086D01*
X74940899Y-42827321D01*
X74887637Y-42966840D01*
X74887225Y-43153375D01*
X74837479Y-43153375D01*
X74822128Y-43087729D01*
X74821091Y-43054684D01*
X74832918Y-42906818D01*
X74881759Y-42796687D01*
X74978109Y-42686836D01*
X75109185Y-42578466D01*
X75234441Y-42533887D01*
X75298656Y-42529818D01*
X75416061Y-42542733D01*
X75488756Y-42574367D01*
X75493068Y-42579787D01*
X75544860Y-42587523D01*
X75637306Y-42521514D01*
X75645884Y-42513452D01*
X75755600Y-42423816D01*
X75877081Y-42362351D01*
X76030088Y-42324250D01*
X76234383Y-42304709D01*
X76509728Y-42298924D01*
X76528249Y-42298909D01*
X77028666Y-42298909D01*
X77298788Y-42096889D01*
X77736564Y-41817081D01*
X78183490Y-41627942D01*
X78645951Y-41528168D01*
X79130329Y-41516453D01*
X79643011Y-41591496D01*
G36*
X79643011Y-41591496D02*
G01*
X79703914Y-41605591D01*
X80173743Y-41751845D01*
X80569765Y-41947000D01*
X80889849Y-42189588D01*
X81131868Y-42478144D01*
X81232000Y-42658188D01*
X81284476Y-42777484D01*
X81319611Y-42885099D01*
X81340798Y-43004241D01*
X81351430Y-43158117D01*
X81354901Y-43369935D01*
X81355018Y-43499636D01*
X81345546Y-43849798D01*
X81311889Y-44135411D01*
X81244574Y-44375319D01*
X81134124Y-44588362D01*
X80971066Y-44793382D01*
X80745924Y-45009220D01*
X80487971Y-45223827D01*
X80243218Y-45458631D01*
X80085888Y-45703870D01*
X80011082Y-45967257D01*
X80009986Y-45976155D01*
X80000359Y-46129249D01*
X80020189Y-46220909D01*
X80057480Y-46266191D01*
X80124725Y-46343515D01*
X80104479Y-46391244D01*
X79996751Y-46409362D01*
X79981909Y-46409542D01*
X79855602Y-46429554D01*
X79692100Y-46480471D01*
X79584778Y-46524997D01*
X79451112Y-46586347D01*
X79356616Y-46628069D01*
X79325637Y-46640000D01*
X79324266Y-46600950D01*
X79336973Y-46517394D01*
X79360411Y-46394787D01*
X79099660Y-46425433D01*
X78934696Y-46434265D01*
X78851513Y-46415498D01*
X78845554Y-46374356D01*
X78912266Y-46316061D01*
X79047093Y-46245838D01*
X79245480Y-46168911D01*
X79354206Y-46133520D01*
X79511798Y-46076131D01*
X79631726Y-46016229D01*
X79688291Y-45966678D01*
X79688475Y-45966213D01*
X79704892Y-45878932D01*
X79714914Y-45739865D01*
X79716364Y-45662852D01*
X79706445Y-45506649D01*
X79665838Y-45398210D01*
X79578263Y-45294068D01*
X79578260Y-45294065D01*
X79433608Y-45191849D01*
X79299010Y-45175401D01*
X79181656Y-45238172D01*
X79088734Y-45373611D01*
X79027434Y-45575167D01*
X79005102Y-45816332D01*
X79001441Y-46085818D01*
X78846340Y-46085818D01*
X78705226Y-46113617D01*
X78576828Y-46208903D01*
X78557256Y-46229248D01*
X78423273Y-46372677D01*
X78423273Y-46226136D01*
X78415574Y-46127350D01*
X78379400Y-46098784D01*
X78319364Y-46111105D01*
X78207568Y-46166166D01*
X78111545Y-46237722D01*
X78039378Y-46297855D01*
X78011597Y-46295019D01*
X78007636Y-46252469D01*
X78050580Y-46077077D01*
X78176097Y-45936011D01*
X78379219Y-45834149D01*
X78457148Y-45811299D01*
X78553262Y-45784124D01*
X78617748Y-45748918D01*
X78660570Y-45687265D01*
X78691692Y-45580752D01*
X78721079Y-45410963D01*
X78739208Y-45290033D01*
X78757957Y-45137162D01*
X78754758Y-45052143D01*
X78726911Y-45012491D01*
X78704784Y-45003206D01*
X78638141Y-44988502D01*
X78495742Y-44960539D01*
X78292776Y-44922182D01*
X78044432Y-44876296D01*
X77765900Y-44825747D01*
X77728229Y-44818976D01*
X77208651Y-44719709D01*
X76773179Y-44622470D01*
X76413699Y-44524140D01*
X76122097Y-44421599D01*
X75890259Y-44311731D01*
X75710070Y-44191417D01*
X75573418Y-44057537D01*
X75506118Y-43964965D01*
X75431167Y-43831654D01*
X75383826Y-43718365D01*
X75375273Y-43675322D01*
X75347463Y-43612213D01*
X75252013Y-43592090D01*
X75241511Y-43592000D01*
X75092904Y-43549485D01*
X74961997Y-43436604D01*
X74866002Y-43275353D01*
X74837479Y-43153375D01*
X74887225Y-43153375D01*
X74948216Y-43315547D01*
X75054348Y-43441435D01*
X75189359Y-43519120D01*
X75336986Y-43536681D01*
X75480968Y-43482198D01*
X75532186Y-43439285D01*
X75616546Y-43344044D01*
X75668632Y-43266103D01*
X75698683Y-43222547D01*
X75728459Y-43266103D01*
X75825426Y-43402420D01*
X75962760Y-43504253D01*
X76105275Y-43545774D01*
X76109507Y-43545818D01*
X76276215Y-43506865D01*
X76402713Y-43403860D01*
X76485319Y-43257587D01*
X76520350Y-43088829D01*
X76504120Y-42918371D01*
X76432948Y-42766994D01*
X76303148Y-42655483D01*
X76270071Y-42639895D01*
X76094843Y-42604103D01*
X75937179Y-42654954D01*
X75790707Y-42791915D01*
X75713154Y-42869664D01*
X75668901Y-42872102D01*
X75665545Y-42865254D01*
X75570198Y-42719827D01*
X75421987Y-42617867D01*
X75349042Y-42595138D01*
X75198508Y-42608976D01*
X75054124Y-42693086D01*
X74940899Y-42827321D01*
X74887637Y-42966840D01*
X74887225Y-43153375D01*
X74837479Y-43153375D01*
X74822128Y-43087729D01*
X74821091Y-43054684D01*
X74832918Y-42906818D01*
X74881759Y-42796687D01*
X74978109Y-42686836D01*
X75109185Y-42578466D01*
X75234441Y-42533887D01*
X75298656Y-42529818D01*
X75416061Y-42542733D01*
X75488756Y-42574367D01*
X75493068Y-42579787D01*
X75544860Y-42587523D01*
X75637306Y-42521514D01*
X75645884Y-42513452D01*
X75755600Y-42423816D01*
X75877081Y-42362351D01*
X76030088Y-42324250D01*
X76234383Y-42304709D01*
X76509728Y-42298924D01*
X76528249Y-42298909D01*
X77028666Y-42298909D01*
X77298788Y-42096889D01*
X77736564Y-41817081D01*
X78183490Y-41627942D01*
X78645951Y-41528168D01*
X79130329Y-41516453D01*
X79643011Y-41591496D01*
G37*
X75487730Y-42981303D02*
X75570345Y-43062655D01*
X75606182Y-43149414D01*
X75571099Y-43227681D01*
X75491403Y-43309657D01*
X75405425Y-43358412D01*
X75386480Y-43361091D01*
X75315722Y-43331297D01*
X75263117Y-43288520D01*
X75204233Y-43203484D01*
X75190545Y-43153273D01*
X75227296Y-43062276D01*
X75310912Y-42979707D01*
X75398364Y-42945455D01*
X75487730Y-42981303D01*
G36*
X75487730Y-42981303D02*
G01*
X75570345Y-43062655D01*
X75606182Y-43149414D01*
X75571099Y-43227681D01*
X75491403Y-43309657D01*
X75405425Y-43358412D01*
X75386480Y-43361091D01*
X75315722Y-43331297D01*
X75263117Y-43288520D01*
X75204233Y-43203484D01*
X75190545Y-43153273D01*
X75227296Y-43062276D01*
X75310912Y-42979707D01*
X75398364Y-42945455D01*
X75487730Y-42981303D01*
G37*
X76105146Y-42988184D02*
X76180459Y-43084808D01*
X76188504Y-43110769D01*
X76185474Y-43240367D01*
X76119780Y-43327620D01*
X76016592Y-43358764D01*
X75901076Y-43320034D01*
X75863480Y-43288520D01*
X75797517Y-43184476D01*
X75820749Y-43083922D01*
X75879963Y-43017722D01*
X75995213Y-42962877D01*
X76105146Y-42988184D01*
G36*
X76105146Y-42988184D02*
G01*
X76180459Y-43084808D01*
X76188504Y-43110769D01*
X76185474Y-43240367D01*
X76119780Y-43327620D01*
X76016592Y-43358764D01*
X75901076Y-43320034D01*
X75863480Y-43288520D01*
X75797517Y-43184476D01*
X75820749Y-43083922D01*
X75879963Y-43017722D01*
X75995213Y-42962877D01*
X76105146Y-42988184D01*
G37*
%TD*%
D11*
%TO.C,U3*%
X73065000Y-49290000D03*
X73065000Y-48020000D03*
X73065000Y-46750000D03*
X73065000Y-45480000D03*
X73065000Y-44210000D03*
X73065000Y-42940000D03*
X73065000Y-41670000D03*
X73065000Y-40400000D03*
X68115000Y-40400000D03*
X68115000Y-41670000D03*
X68115000Y-42940000D03*
X68115000Y-44210000D03*
X68115000Y-45480000D03*
X68115000Y-46750000D03*
X68115000Y-48020000D03*
X68115000Y-49290000D03*
%TD*%
D12*
%TO.C,J2*%
X58705000Y-40430000D03*
D13*
X62885000Y-40430000D03*
X62885000Y-49070000D03*
D12*
X58705000Y-49070000D03*
D14*
X63800000Y-48000000D03*
X63800000Y-47200000D03*
D15*
X63800000Y-46500000D03*
X63800000Y-45500000D03*
X63800000Y-44000000D03*
X63800000Y-43000000D03*
D14*
X63800000Y-42300000D03*
X63800000Y-41500000D03*
X63800000Y-41500000D03*
X63800000Y-42300000D03*
D15*
X63800000Y-43500000D03*
X63800000Y-44500000D03*
X63800000Y-45000000D03*
X63800000Y-46000000D03*
D14*
X63800000Y-47200000D03*
X63800000Y-48000000D03*
D16*
X62355000Y-47640000D03*
X62355000Y-41860000D03*
%TD*%
D17*
%TO.C,C4*%
X70965000Y-50550000D03*
X70005000Y-50550000D03*
%TD*%
D18*
%TO.C,J1*%
X80000000Y-54760000D03*
X80000000Y-57300000D03*
X80000000Y-59840000D03*
X80000000Y-62380000D03*
X80000000Y-64920000D03*
X80000000Y-67460000D03*
D19*
X80000000Y-70000000D03*
%TD*%
D20*
%TO.C,U2*%
X66205000Y-62040000D03*
X66930000Y-61340000D03*
X66930000Y-64140000D03*
X66205000Y-63440000D03*
X65530000Y-64140000D03*
X67630000Y-63440000D03*
X65530000Y-62740000D03*
X64830000Y-62040000D03*
X65530000Y-61340000D03*
X67630000Y-62040000D03*
X66930000Y-62740000D03*
X64830000Y-63440000D03*
D21*
X66230000Y-62740000D03*
D22*
X76480000Y-70460000D03*
X76480000Y-69190000D03*
X76480000Y-67920000D03*
X76480000Y-66650000D03*
X76480000Y-65380000D03*
X76480000Y-64110000D03*
X76480000Y-62840000D03*
X76480000Y-61570000D03*
X76480000Y-60300000D03*
X76480000Y-59030000D03*
X76480000Y-57760000D03*
X76480000Y-56490000D03*
X76480000Y-55220000D03*
X76480000Y-53950000D03*
D23*
X73450000Y-52700000D03*
X72180000Y-52700000D03*
X70910000Y-52700000D03*
X69640000Y-52700000D03*
X68370000Y-52700000D03*
X67100000Y-52700000D03*
X65830000Y-52700000D03*
X64560000Y-52700000D03*
X63290000Y-52700000D03*
X62020000Y-52700000D03*
D22*
X58980000Y-53950000D03*
X58980000Y-55220000D03*
X58980000Y-56490000D03*
X58980000Y-57760000D03*
X58980000Y-59030000D03*
X58980000Y-60300000D03*
X58980000Y-61570000D03*
X58980000Y-62840000D03*
X58980000Y-64110000D03*
X58980000Y-65380000D03*
X58980000Y-66650000D03*
X58980000Y-67920000D03*
X58980000Y-69190000D03*
X58980000Y-70460000D03*
%TD*%
D24*
%TO.C,Q3*%
X75350000Y-47950000D03*
X76000000Y-47950000D03*
X76650000Y-47950000D03*
X76650000Y-46050000D03*
X76000000Y-46050000D03*
X75350000Y-46050000D03*
%TD*%
D25*
%TO.C,REF\u002A\u002A*%
X78400000Y-39600000D03*
%TD*%
M02*
