%TF.GenerationSoftware,KiCad,Pcbnew,8.0.7*%
%TF.CreationDate,2024-12-28T12:59:27+01:00*%
%TF.ProjectId,scd30_esp,73636433-305f-4657-9370-2e6b69636164,rev?*%
%TF.SameCoordinates,Original*%
%TF.FileFunction,Paste,Bot*%
%TF.FilePolarity,Positive*%
%FSLAX46Y46*%
G04 Gerber Fmt 4.6, Leading zero omitted, Abs format (unit mm)*
G04 Created by KiCad (PCBNEW 8.0.7) date 2024-12-28 12:59:27*
%MOMM*%
%LPD*%
G01*
G04 APERTURE LIST*
G04 Aperture macros list*
%AMRoundRect*
0 Rectangle with rounded corners*
0 $1 Rounding radius*
0 $2 $3 $4 $5 $6 $7 $8 $9 X,Y pos of 4 corners*
0 Add a 4 corners polygon primitive as box body*
4,1,4,$2,$3,$4,$5,$6,$7,$8,$9,$2,$3,0*
0 Add four circle primitives for the rounded corners*
1,1,$1+$1,$2,$3*
1,1,$1+$1,$4,$5*
1,1,$1+$1,$6,$7*
1,1,$1+$1,$8,$9*
0 Add four rect primitives between the rounded corners*
20,1,$1+$1,$2,$3,$4,$5,0*
20,1,$1+$1,$4,$5,$6,$7,0*
20,1,$1+$1,$6,$7,$8,$9,0*
20,1,$1+$1,$8,$9,$2,$3,0*%
G04 Aperture macros list end*
%ADD10RoundRect,0.150000X-0.825000X-0.150000X0.825000X-0.150000X0.825000X0.150000X-0.825000X0.150000X0*%
%ADD11R,1.450000X0.600000*%
%ADD12R,1.450000X0.300000*%
%ADD13RoundRect,0.140000X0.140000X0.170000X-0.140000X0.170000X-0.140000X-0.170000X0.140000X-0.170000X0*%
%ADD14R,0.900000X0.900000*%
%ADD15R,1.500000X0.900000*%
%ADD16R,0.900000X1.500000*%
%ADD17R,0.400000X0.650000*%
G04 APERTURE END LIST*
D10*
%TO.C,U3*%
X73065000Y-49290000D03*
X73065000Y-48020000D03*
X73065000Y-46750000D03*
X73065000Y-45480000D03*
X73065000Y-44210000D03*
X73065000Y-42940000D03*
X73065000Y-41670000D03*
X73065000Y-40400000D03*
X68115000Y-40400000D03*
X68115000Y-41670000D03*
X68115000Y-42940000D03*
X68115000Y-44210000D03*
X68115000Y-45480000D03*
X68115000Y-46750000D03*
X68115000Y-48020000D03*
X68115000Y-49290000D03*
%TD*%
D11*
%TO.C,J2*%
X63800000Y-48000000D03*
X63800000Y-47200000D03*
D12*
X63800000Y-46500000D03*
X63800000Y-45500000D03*
X63800000Y-44000000D03*
X63800000Y-43000000D03*
D11*
X63800000Y-42300000D03*
X63800000Y-41500000D03*
X63800000Y-41500000D03*
X63800000Y-42300000D03*
D12*
X63800000Y-43500000D03*
X63800000Y-44500000D03*
X63800000Y-45000000D03*
X63800000Y-46000000D03*
D11*
X63800000Y-47200000D03*
X63800000Y-48000000D03*
%TD*%
D13*
%TO.C,C4*%
X70965000Y-50550000D03*
X70005000Y-50550000D03*
%TD*%
D14*
%TO.C,U2*%
X66230000Y-61340000D03*
X67630000Y-62740000D03*
X66230000Y-62740000D03*
X64830000Y-62740000D03*
X67630000Y-64140000D03*
X66230000Y-64140000D03*
X67630000Y-61340000D03*
X64830000Y-64140000D03*
X64830000Y-61340000D03*
D15*
X76480000Y-70460000D03*
X76480000Y-69190000D03*
X76480000Y-67920000D03*
X76480000Y-66650000D03*
X76480000Y-65380000D03*
X76480000Y-64110000D03*
X76480000Y-62840000D03*
X76480000Y-61570000D03*
X76480000Y-60300000D03*
X76480000Y-59030000D03*
X76480000Y-57760000D03*
X76480000Y-56490000D03*
X76480000Y-55220000D03*
X76480000Y-53950000D03*
D16*
X73450000Y-52700000D03*
X72180000Y-52700000D03*
X70910000Y-52700000D03*
X69640000Y-52700000D03*
X68370000Y-52700000D03*
X67100000Y-52700000D03*
X65830000Y-52700000D03*
X64560000Y-52700000D03*
X63290000Y-52700000D03*
X62020000Y-52700000D03*
D15*
X58980000Y-53950000D03*
X58980000Y-55220000D03*
X58980000Y-56490000D03*
X58980000Y-57760000D03*
X58980000Y-59030000D03*
X58980000Y-60300000D03*
X58980000Y-61570000D03*
X58980000Y-62840000D03*
X58980000Y-64110000D03*
X58980000Y-65380000D03*
X58980000Y-66650000D03*
X58980000Y-67920000D03*
X58980000Y-69190000D03*
X58980000Y-70460000D03*
%TD*%
D17*
%TO.C,Q3*%
X75350000Y-47950000D03*
X76000000Y-47950000D03*
X76650000Y-47950000D03*
X76650000Y-46050000D03*
X76000000Y-46050000D03*
X75350000Y-46050000D03*
%TD*%
M02*
