M48
; DRILL file {KiCad 8.0.7} date 2024-12-28T12:59:27+0100
; FORMAT={-:-/ absolute / inch / decimal}
; #@! TF.CreationDate,2024-12-28T12:59:27+01:00
; #@! TF.GenerationSoftware,Kicad,Pcbnew,8.0.7
; #@! TF.FileFunction,Plated,1,2,PTH
FMAT,2
INCH
; #@! TA.AperFunction,Plated,PTH,ComponentDrill
T1C0.0079
; #@! TA.AperFunction,Plated,PTH,ViaDrill
T2C0.0118
; #@! TA.AperFunction,Plated,PTH,ComponentDrill
T3C0.0236
; #@! TA.AperFunction,Plated,PTH,ComponentDrill
T4C0.0394
%
G90
G05
T1
X2.5524Y-2.4425
X2.5524Y-2.4976
X2.5799Y-2.415
X2.5799Y-2.4701
X2.5799Y-2.5252
X2.6065Y-2.4425
X2.6065Y-2.4976
X2.635Y-2.415
X2.635Y-2.4701
X2.635Y-2.5252
X2.6626Y-2.4425
X2.6626Y-2.4976
T2
X2.2756Y-2.0236
X2.2756Y-2.1496
X2.2756Y-2.3465
X2.2756Y-2.5512
X2.2756Y-2.7008
X2.3622Y-2.0787
X2.378Y-2.6299
X2.3819Y-2.4921
X2.3937Y-2.2441
X2.4094Y-2.6457
X2.4252Y-1.7205
X2.4252Y-1.7953
X2.4331Y-1.622
X2.437Y-1.8465
X2.439Y-2.4921
X2.4409Y-2.2815
X2.4606Y-1.6929
X2.4606Y-1.7323
X2.4606Y-1.7913
X2.4606Y-1.8228
X2.4646Y-2.774
X2.4685Y-2.724
X2.4764Y-2.0197
X2.4921Y-2.7244
X2.4961Y-2.1457
X2.5394Y-2.1831
X2.563Y-1.7283
X2.563Y-1.7913
X2.5669Y-2.6457
X2.5906Y-1.8976
X2.5945Y-1.6654
X2.5945Y-1.689
X2.5945Y-1.8307
X2.5945Y-1.8583
X2.626Y-1.6654
X2.6299Y-1.815
X2.6358Y-2.774
X2.6654Y-2.0197
X2.6654Y-2.126
X2.6673Y-2.1811
X2.7402Y-1.8465
X2.7402Y-1.8898
X2.7402Y-1.9252
X2.7559Y-1.5866
X2.7717Y-2.6457
X2.7839Y-2.3874
X2.7854Y-2.4803
X2.7992Y-2.126
X2.8114Y-2.3795
X2.815Y-1.811
X2.8189Y-2.1772
X2.8232Y-2.3953
X2.835Y-2.3795
X2.8406Y-2.774
X2.8661Y-2.0197
X2.8661Y-2.126
X2.8665Y-2.3874
X2.8799Y-2.5512
X2.8819Y-2.5039
X2.9016Y-2.2992
X2.9016Y-2.3425
X2.9094Y-2.2047
X2.9213Y-2.0157
X2.9213Y-2.1535
X2.9252Y-2.2362
X2.9291Y-2.7067
X2.9409Y-2.185
X3.0Y-2.0512
X3.0039Y-1.9449
X3.063Y-2.3346
X3.063Y-2.4961
X3.063Y-2.5512
X3.0669Y-2.2008
X3.0787Y-2.6929
X3.0886Y-2.7894
X3.0984Y-2.0118
T4
X3.1496Y-2.1559
X3.1496Y-2.2559
X3.1496Y-2.3559
X3.1496Y-2.4559
X3.1496Y-2.5559
X3.1496Y-2.6559
X3.1496Y-2.7559
T3
G00X2.2994Y-1.5917
M15
G01X2.323Y-1.5917
M16
G05
G00X2.2994Y-1.9319
M15
G01X2.323Y-1.9319
M16
G05
G00X2.4541Y-1.5917
M15
G01X2.4974Y-1.5917
M16
G05
G00X2.4541Y-1.9319
M15
G01X2.4974Y-1.9319
M16
G05
M30
