%TF.GenerationSoftware,KiCad,Pcbnew,8.0.7*%
%TF.CreationDate,2024-12-28T12:59:27+01:00*%
%TF.ProjectId,scd30_esp,73636433-305f-4657-9370-2e6b69636164,rev?*%
%TF.SameCoordinates,Original*%
%TF.FileFunction,Copper,L2,Bot*%
%TF.FilePolarity,Positive*%
%FSLAX46Y46*%
G04 Gerber Fmt 4.6, Leading zero omitted, Abs format (unit mm)*
G04 Created by KiCad (PCBNEW 8.0.7) date 2024-12-28 12:59:27*
%MOMM*%
%LPD*%
G01*
G04 APERTURE LIST*
G04 Aperture macros list*
%AMRoundRect*
0 Rectangle with rounded corners*
0 $1 Rounding radius*
0 $2 $3 $4 $5 $6 $7 $8 $9 X,Y pos of 4 corners*
0 Add a 4 corners polygon primitive as box body*
4,1,4,$2,$3,$4,$5,$6,$7,$8,$9,$2,$3,0*
0 Add four circle primitives for the rounded corners*
1,1,$1+$1,$2,$3*
1,1,$1+$1,$4,$5*
1,1,$1+$1,$6,$7*
1,1,$1+$1,$8,$9*
0 Add four rect primitives between the rounded corners*
20,1,$1+$1,$2,$3,$4,$5,0*
20,1,$1+$1,$4,$5,$6,$7,0*
20,1,$1+$1,$6,$7,$8,$9,0*
20,1,$1+$1,$8,$9,$2,$3,0*%
G04 Aperture macros list end*
%TA.AperFunction,SMDPad,CuDef*%
%ADD10RoundRect,0.150000X-0.825000X-0.150000X0.825000X-0.150000X0.825000X0.150000X-0.825000X0.150000X0*%
%TD*%
%TA.AperFunction,ComponentPad*%
%ADD11O,1.600000X1.000000*%
%TD*%
%TA.AperFunction,ComponentPad*%
%ADD12O,2.100000X1.000000*%
%TD*%
%TA.AperFunction,SMDPad,CuDef*%
%ADD13R,1.450000X0.600000*%
%TD*%
%TA.AperFunction,SMDPad,CuDef*%
%ADD14R,1.450000X0.300000*%
%TD*%
%TA.AperFunction,SMDPad,CuDef*%
%ADD15RoundRect,0.140000X0.140000X0.170000X-0.140000X0.170000X-0.140000X-0.170000X0.140000X-0.170000X0*%
%TD*%
%TA.AperFunction,ComponentPad*%
%ADD16O,1.700000X1.700000*%
%TD*%
%TA.AperFunction,ComponentPad*%
%ADD17R,1.700000X1.700000*%
%TD*%
%TA.AperFunction,HeatsinkPad*%
%ADD18C,0.600000*%
%TD*%
%TA.AperFunction,SMDPad,CuDef*%
%ADD19R,0.900000X0.900000*%
%TD*%
%TA.AperFunction,SMDPad,CuDef*%
%ADD20R,3.800000X3.800000*%
%TD*%
%TA.AperFunction,SMDPad,CuDef*%
%ADD21R,1.500000X0.900000*%
%TD*%
%TA.AperFunction,SMDPad,CuDef*%
%ADD22R,0.900000X1.500000*%
%TD*%
%TA.AperFunction,SMDPad,CuDef*%
%ADD23R,0.400000X0.650000*%
%TD*%
%TA.AperFunction,ViaPad*%
%ADD24C,0.500000*%
%TD*%
%TA.AperFunction,Conductor*%
%ADD25C,0.200000*%
%TD*%
%TA.AperFunction,Conductor*%
%ADD26C,0.800000*%
%TD*%
%TA.AperFunction,Conductor*%
%ADD27C,0.600000*%
%TD*%
%TA.AperFunction,Conductor*%
%ADD28C,0.400000*%
%TD*%
G04 APERTURE END LIST*
D10*
%TO.P,U3,16,VCC*%
%TO.N,+3V3*%
X73065000Y-49290000D03*
%TO.P,U3,15,R232*%
%TO.N,unconnected-(U3-R232-Pad15)*%
X73065000Y-48020000D03*
%TO.P,U3,14,~{RTS}*%
%TO.N,Net-(Q3A-S)*%
X73065000Y-46750000D03*
%TO.P,U3,13,~{DTR}*%
%TO.N,Net-(Q3A-G)*%
X73065000Y-45480000D03*
%TO.P,U3,12,~{DCD}*%
%TO.N,unconnected-(U3-~{DCD}-Pad12)*%
X73065000Y-44210000D03*
%TO.P,U3,11,~{RI}*%
%TO.N,unconnected-(U3-~{RI}-Pad11)*%
X73065000Y-42940000D03*
%TO.P,U3,10,~{DSR}*%
%TO.N,unconnected-(U3-~{DSR}-Pad10)*%
X73065000Y-41670000D03*
%TO.P,U3,9,~{CTS}*%
%TO.N,unconnected-(U3-~{CTS}-Pad9)*%
X73065000Y-40400000D03*
%TO.P,U3,8,NC*%
%TO.N,unconnected-(U3-NC-Pad8)*%
X68115000Y-40400000D03*
%TO.P,U3,7,NC*%
%TO.N,unconnected-(U3-NC-Pad7)*%
X68115000Y-41670000D03*
%TO.P,U3,6,UD-*%
%TO.N,/D-*%
X68115000Y-42940000D03*
%TO.P,U3,5,UD+*%
%TO.N,/D+*%
X68115000Y-44210000D03*
%TO.P,U3,4,V3*%
%TO.N,+3V3*%
X68115000Y-45480000D03*
%TO.P,U3,3,RXD*%
%TO.N,/MCU_TX*%
X68115000Y-46750000D03*
%TO.P,U3,2,TXD*%
%TO.N,/MCU_RX*%
X68115000Y-48020000D03*
%TO.P,U3,1,GND*%
%TO.N,GND*%
X68115000Y-49290000D03*
%TD*%
D11*
%TO.P,J2,S1,SHIELD*%
%TO.N,GND*%
X58705000Y-40430000D03*
D12*
X62885000Y-40430000D03*
X62885000Y-49070000D03*
D11*
X58705000Y-49070000D03*
D13*
%TO.P,J2,B12,GND*%
X63800000Y-48000000D03*
%TO.P,J2,B9,VBUS*%
%TO.N,VBUS*%
X63800000Y-47200000D03*
D14*
%TO.P,J2,B8,SBU2*%
%TO.N,unconnected-(J2-SBU2-PadB8)*%
X63800000Y-46500000D03*
%TO.P,J2,B7,D-*%
%TO.N,/D-*%
X63800000Y-45500000D03*
%TO.P,J2,B6,D+*%
%TO.N,/D+*%
X63800000Y-44000000D03*
%TO.P,J2,B5,CC2*%
%TO.N,Net-(J2-CC2)*%
X63800000Y-43000000D03*
D13*
%TO.P,J2,B4,VBUS*%
%TO.N,VBUS*%
X63800000Y-42300000D03*
%TO.P,J2,B1,GND*%
%TO.N,GND*%
X63800000Y-41500000D03*
%TO.P,J2,A12,GND*%
X63800000Y-41500000D03*
%TO.P,J2,A9,VBUS*%
%TO.N,VBUS*%
X63800000Y-42300000D03*
D14*
%TO.P,J2,A8,SBU1*%
%TO.N,unconnected-(J2-SBU1-PadA8)*%
X63800000Y-43500000D03*
%TO.P,J2,A7,D-*%
%TO.N,/D-*%
X63800000Y-44500000D03*
%TO.P,J2,A6,D+*%
%TO.N,/D+*%
X63800000Y-45000000D03*
%TO.P,J2,A5,CC1*%
%TO.N,Net-(J2-CC1)*%
X63800000Y-46000000D03*
D13*
%TO.P,J2,A4,VBUS*%
%TO.N,VBUS*%
X63800000Y-47200000D03*
%TO.P,J2,A1,GND*%
%TO.N,GND*%
X63800000Y-48000000D03*
%TD*%
D15*
%TO.P,C4,1*%
%TO.N,+3V3*%
X70965000Y-50550000D03*
%TO.P,C4,2*%
%TO.N,GND*%
X70005000Y-50550000D03*
%TD*%
D16*
%TO.P,J1,7,Pin_7*%
%TO.N,/SEL*%
X80000000Y-54760000D03*
%TO.P,J1,6,Pin_6*%
%TO.N,/PWM*%
X80000000Y-57300000D03*
%TO.P,J1,5,Pin_5*%
%TO.N,/RDY*%
X80000000Y-59840000D03*
%TO.P,J1,4,Pin_4*%
%TO.N,/SDA*%
X80000000Y-62380000D03*
%TO.P,J1,3,Pin_3*%
%TO.N,/SCL*%
X80000000Y-64920000D03*
%TO.P,J1,2,Pin_2*%
%TO.N,GND*%
X80000000Y-67460000D03*
D17*
%TO.P,J1,1,Pin_1*%
%TO.N,+3V3*%
X80000000Y-70000000D03*
%TD*%
D18*
%TO.P,U2,39,GND*%
%TO.N,GND*%
X66205000Y-62040000D03*
D19*
X66230000Y-61340000D03*
X67630000Y-62740000D03*
X66230000Y-62740000D03*
D18*
X66930000Y-61340000D03*
X66930000Y-64140000D03*
D19*
X64830000Y-62740000D03*
D18*
X66205000Y-63440000D03*
X65530000Y-64140000D03*
X67630000Y-63440000D03*
X65530000Y-62740000D03*
X64830000Y-62040000D03*
X65530000Y-61340000D03*
D19*
X67630000Y-64140000D03*
D18*
X67630000Y-62040000D03*
D19*
X66230000Y-64140000D03*
D18*
X66930000Y-62740000D03*
D19*
X67630000Y-61340000D03*
D18*
X64830000Y-63440000D03*
D20*
X66230000Y-62740000D03*
D19*
X64830000Y-64140000D03*
X64830000Y-61340000D03*
D21*
%TO.P,U2,38,GND*%
X76480000Y-70460000D03*
%TO.P,U2,37,IO23*%
%TO.N,unconnected-(U2-IO23-Pad37)*%
X76480000Y-69190000D03*
%TO.P,U2,36,IO22*%
%TO.N,/SCL*%
X76480000Y-67920000D03*
%TO.P,U2,35,TXD0/IO1*%
%TO.N,/MCU_TX*%
X76480000Y-66650000D03*
%TO.P,U2,34,RXD0/IO3*%
%TO.N,/MCU_RX*%
X76480000Y-65380000D03*
%TO.P,U2,33,IO21*%
%TO.N,/SDA*%
X76480000Y-64110000D03*
%TO.P,U2,32,NC*%
%TO.N,unconnected-(U2-NC-Pad32)*%
X76480000Y-62840000D03*
%TO.P,U2,31,IO19*%
%TO.N,unconnected-(U2-IO19-Pad31)*%
X76480000Y-61570000D03*
%TO.P,U2,30,IO18*%
%TO.N,unconnected-(U2-IO18-Pad30)*%
X76480000Y-60300000D03*
%TO.P,U2,29,IO5*%
%TO.N,unconnected-(U2-IO5-Pad29)*%
X76480000Y-59030000D03*
%TO.P,U2,28,IO17*%
%TO.N,unconnected-(U2-IO17-Pad28)*%
X76480000Y-57760000D03*
%TO.P,U2,27,IO16*%
%TO.N,unconnected-(U2-IO16-Pad27)*%
X76480000Y-56490000D03*
%TO.P,U2,26,IO4*%
%TO.N,unconnected-(U2-IO4-Pad26)*%
X76480000Y-55220000D03*
%TO.P,U2,25,IO0*%
%TO.N,/ESP_IO0*%
X76480000Y-53950000D03*
D22*
%TO.P,U2,24,IO2*%
%TO.N,unconnected-(U2-IO2-Pad24)*%
X73450000Y-52700000D03*
%TO.P,U2,23,IO15*%
%TO.N,unconnected-(U2-IO15-Pad23)*%
X72180000Y-52700000D03*
%TO.P,U2,22,SDI/SD1*%
%TO.N,unconnected-(U2-SDI{slash}SD1-Pad22)*%
X70910000Y-52700000D03*
%TO.P,U2,21,SDO/SD0*%
%TO.N,unconnected-(U2-SDO{slash}SD0-Pad21)*%
X69640000Y-52700000D03*
%TO.P,U2,20,SCK/CLK*%
%TO.N,unconnected-(U2-SCK{slash}CLK-Pad20)*%
X68370000Y-52700000D03*
%TO.P,U2,19,SCS/CMD*%
%TO.N,unconnected-(U2-SCS{slash}CMD-Pad19)*%
X67100000Y-52700000D03*
%TO.P,U2,18,SWP/SD3*%
%TO.N,unconnected-(U2-SWP{slash}SD3-Pad18)*%
X65830000Y-52700000D03*
%TO.P,U2,17,SHD/SD2*%
%TO.N,unconnected-(U2-SHD{slash}SD2-Pad17)*%
X64560000Y-52700000D03*
%TO.P,U2,16,IO13*%
%TO.N,unconnected-(U2-IO13-Pad16)*%
X63290000Y-52700000D03*
%TO.P,U2,15,GND*%
%TO.N,GND*%
X62020000Y-52700000D03*
D21*
%TO.P,U2,14,IO12*%
%TO.N,unconnected-(U2-IO12-Pad14)*%
X58980000Y-53950000D03*
%TO.P,U2,13,IO14*%
%TO.N,unconnected-(U2-IO14-Pad13)*%
X58980000Y-55220000D03*
%TO.P,U2,12,IO27*%
%TO.N,unconnected-(U2-IO27-Pad12)*%
X58980000Y-56490000D03*
%TO.P,U2,11,IO26*%
%TO.N,unconnected-(U2-IO26-Pad11)*%
X58980000Y-57760000D03*
%TO.P,U2,10,IO25*%
%TO.N,unconnected-(U2-IO25-Pad10)*%
X58980000Y-59030000D03*
%TO.P,U2,9,IO33*%
%TO.N,unconnected-(U2-IO33-Pad9)*%
X58980000Y-60300000D03*
%TO.P,U2,8,IO32*%
%TO.N,unconnected-(U2-IO32-Pad8)*%
X58980000Y-61570000D03*
%TO.P,U2,7,IO35*%
%TO.N,unconnected-(U2-IO35-Pad7)*%
X58980000Y-62840000D03*
%TO.P,U2,6,IO34*%
%TO.N,unconnected-(U2-IO34-Pad6)*%
X58980000Y-64110000D03*
%TO.P,U2,5,SENSOR_VN*%
%TO.N,unconnected-(U2-SENSOR_VN-Pad5)*%
X58980000Y-65380000D03*
%TO.P,U2,4,SENSOR_VP*%
%TO.N,unconnected-(U2-SENSOR_VP-Pad4)*%
X58980000Y-66650000D03*
%TO.P,U2,3,EN*%
%TO.N,/ESP_EN*%
X58980000Y-67920000D03*
%TO.P,U2,2,VDD*%
%TO.N,+3V3*%
X58980000Y-69190000D03*
%TO.P,U2,1,GND*%
%TO.N,GND*%
X58980000Y-70460000D03*
%TD*%
D23*
%TO.P,Q3,6,D*%
%TO.N,/ESP_EN*%
X75350000Y-47950000D03*
%TO.P,Q3,5,G*%
%TO.N,Net-(Q3A-S)*%
X76000000Y-47950000D03*
%TO.P,Q3,4,S*%
%TO.N,Net-(Q3A-G)*%
X76650000Y-47950000D03*
%TO.P,Q3,3,D*%
%TO.N,/ESP_IO0*%
X76650000Y-46050000D03*
%TO.P,Q3,2,G*%
%TO.N,Net-(Q3A-G)*%
X76000000Y-46050000D03*
%TO.P,Q3,1,S*%
%TO.N,Net-(Q3A-S)*%
X75350000Y-46050000D03*
%TD*%
D24*
%TO.N,/MCU_TX*%
X69600000Y-46900000D03*
%TO.N,GND*%
X74400000Y-68750000D03*
X72150000Y-70460000D03*
X66950000Y-70460000D03*
X61950000Y-63300000D03*
X67750000Y-55400000D03*
X64500000Y-55450000D03*
X62000000Y-57950000D03*
X78700000Y-51100000D03*
X76200000Y-52100000D03*
%TO.N,VBUS*%
X73700000Y-59500000D03*
%TO.N,+3V3*%
X63300000Y-69200000D03*
X62700000Y-69190000D03*
X76300000Y-49400000D03*
%TO.N,GND*%
X66700000Y-42300000D03*
X66800000Y-46100000D03*
X65800000Y-48200000D03*
X77800000Y-59300000D03*
X73900000Y-56000000D03*
X74200000Y-54700000D03*
X74200000Y-51200000D03*
X71100000Y-54000000D03*
X71600000Y-55300000D03*
X78200000Y-68400000D03*
X77800000Y-64800000D03*
X77800000Y-63400000D03*
X77900000Y-55900000D03*
X70000000Y-40300000D03*
X61800000Y-41200000D03*
X61900000Y-46900000D03*
X61600000Y-45600000D03*
X61600000Y-43700000D03*
X71500000Y-46000000D03*
X69600000Y-48900000D03*
X72800000Y-51300000D03*
X62900000Y-51300000D03*
X67700000Y-51300000D03*
X67700000Y-54000000D03*
X72800000Y-54000000D03*
X78450000Y-70850000D03*
X60500000Y-63300000D03*
X63400000Y-54500000D03*
X60800000Y-57000000D03*
X60000000Y-52800000D03*
X57800000Y-51400000D03*
X57800000Y-54600000D03*
X57800000Y-59600000D03*
X57800000Y-64800000D03*
X57800000Y-68600000D03*
X60400000Y-66800000D03*
X62600000Y-70460000D03*
%TO.N,/ESP_EN*%
X61200000Y-67200000D03*
%TO.N,GND*%
X73700000Y-58400000D03*
X65200000Y-67200000D03*
X70400000Y-67200000D03*
%TO.N,/MCU_RX*%
X74700000Y-55500000D03*
%TO.N,/MCU_TX*%
X74300000Y-56800000D03*
%TO.N,/MCU_RX*%
X69600000Y-48000000D03*
%TO.N,+3V3*%
X73200000Y-63600000D03*
%TO.N,VBUS*%
X65900000Y-46500000D03*
X65900000Y-42900000D03*
X65900000Y-42300000D03*
X65900000Y-47200000D03*
%TO.N,Net-(J2-CC1)*%
X62500000Y-46300000D03*
%TO.N,Net-(J2-CC2)*%
X62500000Y-43000000D03*
%TO.N,/D+*%
X62500000Y-44000000D03*
X62500000Y-45500000D03*
%TO.N,/D-*%
X65100000Y-45500000D03*
X65100000Y-43900000D03*
%TO.N,GND*%
X70710000Y-60640000D03*
X71410000Y-60440000D03*
X71710000Y-60840000D03*
X72010000Y-60440000D03*
X72810000Y-60640000D03*
%TO.N,+3V3*%
X73150000Y-64800000D03*
%TO.N,VBUS*%
X70750000Y-63000000D03*
%TD*%
D25*
%TO.N,/MCU_TX*%
X69450000Y-46750000D02*
X68115000Y-46750000D01*
X69600000Y-46900000D02*
X69450000Y-46750000D01*
D26*
%TO.N,GND*%
X72150000Y-70460000D02*
X66950000Y-70460000D01*
X66950000Y-70460000D02*
X62600000Y-70460000D01*
D25*
%TO.N,/ESP_IO0*%
X77550000Y-53950000D02*
X76480000Y-53950000D01*
X78000000Y-47800000D02*
X78000000Y-53500000D01*
X76650000Y-46450000D02*
X78000000Y-47800000D01*
X78000000Y-53500000D02*
X77550000Y-53950000D01*
X76650000Y-46050000D02*
X76650000Y-46450000D01*
%TO.N,VBUS*%
X73700000Y-61800000D02*
X73700000Y-59500000D01*
X72500000Y-63000000D02*
X73700000Y-61800000D01*
X70750000Y-63000000D02*
X72500000Y-63000000D01*
D27*
%TO.N,+3V3*%
X62300000Y-69190000D02*
X63290000Y-69190000D01*
X62300000Y-69190000D02*
X62700000Y-69190000D01*
X58980000Y-69190000D02*
X62300000Y-69190000D01*
D25*
%TO.N,/MCU_RX*%
X75780000Y-65380000D02*
X76480000Y-65380000D01*
X74900000Y-55700000D02*
X74900000Y-64500000D01*
X74700000Y-55500000D02*
X74900000Y-55700000D01*
%TO.N,/MCU_TX*%
X75350000Y-66650000D02*
X76480000Y-66650000D01*
X74500000Y-65800000D02*
X75350000Y-66650000D01*
X74500000Y-57000000D02*
X74500000Y-65800000D01*
X74300000Y-56800000D02*
X74500000Y-57000000D01*
%TO.N,+3V3*%
X73065000Y-49290000D02*
X76190000Y-49290000D01*
X76190000Y-49290000D02*
X76300000Y-49400000D01*
%TO.N,/ESP_EN*%
X61200000Y-57600000D02*
X61200000Y-67200000D01*
X64100000Y-54700000D02*
X61200000Y-57600000D01*
X73150000Y-54700000D02*
X64100000Y-54700000D01*
X74850000Y-53000000D02*
X73150000Y-54700000D01*
X77000000Y-53000000D02*
X74850000Y-53000000D01*
X77500000Y-52500000D02*
X77000000Y-53000000D01*
%TO.N,+3V3*%
X70965000Y-50550000D02*
X72450000Y-50550000D01*
%TO.N,GND*%
X77800000Y-69660000D02*
X77800000Y-70000000D01*
X80000000Y-67460000D02*
X77800000Y-69660000D01*
X77340000Y-70460000D02*
X77800000Y-70000000D01*
X76480000Y-70460000D02*
X77340000Y-70460000D01*
D26*
X62600000Y-70460000D02*
X59900000Y-70460000D01*
X76480000Y-70460000D02*
X72150000Y-70460000D01*
D25*
%TO.N,/ESP_EN*%
X60480000Y-67920000D02*
X61200000Y-67200000D01*
X58980000Y-67920000D02*
X60480000Y-67920000D01*
D26*
%TO.N,GND*%
X59900000Y-70460000D02*
X58980000Y-70460000D01*
D25*
%TO.N,/MCU_RX*%
X69580000Y-48020000D02*
X69600000Y-48000000D01*
X68115000Y-48020000D02*
X69580000Y-48020000D01*
%TO.N,GND*%
X68115000Y-49915000D02*
X68115000Y-49290000D01*
X68750000Y-50550000D02*
X68115000Y-49915000D01*
X70005000Y-50550000D02*
X68750000Y-50550000D01*
%TO.N,+3V3*%
X72450000Y-50550000D02*
X73065000Y-49935000D01*
X73065000Y-49935000D02*
X73065000Y-49290000D01*
D28*
X71100000Y-48500000D02*
X71890000Y-49290000D01*
X71890000Y-49290000D02*
X73065000Y-49290000D01*
X71100000Y-46900000D02*
X71100000Y-48500000D01*
X69680000Y-45480000D02*
X71100000Y-46900000D01*
X68115000Y-45480000D02*
X69680000Y-45480000D01*
D25*
%TO.N,/SCL*%
X77580000Y-67920000D02*
X76480000Y-67920000D01*
X78100000Y-67400000D02*
X77580000Y-67920000D01*
X80000000Y-64920000D02*
X79280000Y-64920000D01*
X79280000Y-64920000D02*
X78100000Y-66100000D01*
X78100000Y-66100000D02*
X78100000Y-67400000D01*
%TO.N,/SDA*%
X80000000Y-62380000D02*
X78270000Y-64110000D01*
D27*
%TO.N,VBUS*%
X65900000Y-47200000D02*
X65900000Y-46500000D01*
X65900000Y-42300000D02*
X65900000Y-42900000D01*
X65900000Y-42300000D02*
X63800000Y-42300000D01*
X63800000Y-47200000D02*
X65900000Y-47200000D01*
%TO.N,GND*%
X65970000Y-49070000D02*
X62885000Y-49070000D01*
X66190000Y-49290000D02*
X65970000Y-49070000D01*
X68115000Y-49290000D02*
X66190000Y-49290000D01*
X63800000Y-48155000D02*
X62885000Y-49070000D01*
X63800000Y-48000000D02*
X63800000Y-48155000D01*
X58705000Y-49070000D02*
X62885000Y-49070000D01*
X58705000Y-40430000D02*
X58705000Y-49070000D01*
X62885000Y-40430000D02*
X58705000Y-40430000D01*
X63800000Y-41345000D02*
X62885000Y-40430000D01*
X63800000Y-41500000D02*
X63800000Y-41345000D01*
D25*
%TO.N,Net-(J2-CC1)*%
X62800000Y-46000000D02*
X62500000Y-46300000D01*
X63800000Y-46000000D02*
X62800000Y-46000000D01*
%TO.N,Net-(J2-CC2)*%
X63800000Y-43000000D02*
X62500000Y-43000000D01*
%TO.N,/D+*%
X63000000Y-45000000D02*
X63800000Y-45000000D01*
X62500000Y-45500000D02*
X63000000Y-45000000D01*
X63800000Y-44000000D02*
X62500000Y-44000000D01*
%TO.N,/D-*%
X65100000Y-45500000D02*
X63800000Y-45500000D01*
X65156800Y-44525000D02*
X65156800Y-43956800D01*
X65156800Y-43956800D02*
X65100000Y-43900000D01*
X67440000Y-42940000D02*
X68115000Y-42940000D01*
X65156800Y-44525000D02*
X66331800Y-43350000D01*
X67030000Y-43350000D02*
X67440000Y-42940000D01*
X64912501Y-44525000D02*
X65156800Y-44525000D01*
X64887501Y-44500000D02*
X64912501Y-44525000D01*
%TO.N,/D+*%
X67440000Y-44210000D02*
X68115000Y-44210000D01*
%TO.N,/D-*%
X63800000Y-44500000D02*
X64887501Y-44500000D01*
%TO.N,/D+*%
X66518200Y-43800000D02*
X67030000Y-43800000D01*
X65343200Y-44975000D02*
X66518200Y-43800000D01*
X64912501Y-44975000D02*
X65343200Y-44975000D01*
X63800000Y-45000000D02*
X64887501Y-45000000D01*
X64887501Y-45000000D02*
X64912501Y-44975000D01*
X67030000Y-43800000D02*
X67440000Y-44210000D01*
%TO.N,/D-*%
X66331800Y-43350000D02*
X67030000Y-43350000D01*
%TO.N,/MCU_RX*%
X74900000Y-64500000D02*
X75780000Y-65380000D01*
%TO.N,/SDA*%
X78270000Y-64110000D02*
X76480000Y-64110000D01*
%TO.N,/ESP_EN*%
X75700000Y-48900000D02*
X76900000Y-48900000D01*
X77500000Y-49500000D02*
X77500000Y-52500000D01*
X76900000Y-48900000D02*
X77500000Y-49500000D01*
X75350000Y-47950000D02*
X75350000Y-48550000D01*
X75350000Y-48550000D02*
X75700000Y-48900000D01*
%TO.N,Net-(Q3A-G)*%
X76650000Y-47150000D02*
X76650000Y-47950000D01*
X76000000Y-46050000D02*
X76000000Y-46500000D01*
X76000000Y-46500000D02*
X76650000Y-47150000D01*
%TO.N,Net-(Q3A-S)*%
X75350000Y-46050000D02*
X75350000Y-46550000D01*
X76000000Y-47200000D02*
X76000000Y-47950000D01*
X75350000Y-46550000D02*
X75800000Y-47000000D01*
X75800000Y-47000000D02*
X76000000Y-47200000D01*
X73065000Y-46750000D02*
X74450000Y-46750000D01*
X74450000Y-46750000D02*
X74650000Y-46950000D01*
X74650000Y-46950000D02*
X75750000Y-46950000D01*
X75750000Y-46950000D02*
X75800000Y-47000000D01*
%TO.N,Net-(Q3A-G)*%
X73065000Y-45480000D02*
X74320000Y-45480000D01*
X75800000Y-45100000D02*
X76000000Y-45300000D01*
X74320000Y-45480000D02*
X74700000Y-45100000D01*
X74700000Y-45100000D02*
X75800000Y-45100000D01*
X76000000Y-45300000D02*
X76000000Y-46050000D01*
%TD*%
%TA.AperFunction,Conductor*%
%TO.N,GND*%
G36*
X75372539Y-53420185D02*
G01*
X75418294Y-53472989D01*
X75429500Y-53524500D01*
X75429500Y-54444856D01*
X75429502Y-54444882D01*
X75432413Y-54469987D01*
X75432414Y-54469988D01*
X75461081Y-54534914D01*
X75470152Y-54604192D01*
X75461081Y-54635084D01*
X75432415Y-54700006D01*
X75432415Y-54700008D01*
X75429500Y-54725131D01*
X75429500Y-55199254D01*
X75409815Y-55266293D01*
X75357011Y-55312048D01*
X75287853Y-55321992D01*
X75224297Y-55292967D01*
X75190939Y-55246707D01*
X75180861Y-55222375D01*
X75092621Y-55107379D01*
X74977625Y-55019139D01*
X74977624Y-55019138D01*
X74977622Y-55019137D01*
X74843712Y-54963671D01*
X74843710Y-54963670D01*
X74843709Y-54963670D01*
X74771854Y-54954210D01*
X74700001Y-54944750D01*
X74699999Y-54944750D01*
X74556291Y-54963670D01*
X74556287Y-54963671D01*
X74422377Y-55019137D01*
X74307379Y-55107379D01*
X74219137Y-55222377D01*
X74163671Y-55356287D01*
X74163670Y-55356291D01*
X74144750Y-55500000D01*
X74149806Y-55538407D01*
X74163670Y-55643708D01*
X74163671Y-55643712D01*
X74219137Y-55777622D01*
X74219138Y-55777624D01*
X74219139Y-55777625D01*
X74307379Y-55892621D01*
X74359950Y-55932960D01*
X74408228Y-55970006D01*
X74422375Y-55980861D01*
X74422946Y-55981097D01*
X74423354Y-55981426D01*
X74429410Y-55984922D01*
X74428864Y-55985866D01*
X74477349Y-56024930D01*
X74499421Y-56091222D01*
X74499500Y-56095660D01*
X74499500Y-56129620D01*
X74479815Y-56196659D01*
X74427011Y-56242414D01*
X74359314Y-56252559D01*
X74300001Y-56244750D01*
X74299999Y-56244750D01*
X74156291Y-56263670D01*
X74156287Y-56263671D01*
X74022377Y-56319137D01*
X73907379Y-56407379D01*
X73819137Y-56522377D01*
X73763671Y-56656287D01*
X73763670Y-56656291D01*
X73744750Y-56799999D01*
X73744750Y-56800000D01*
X73763670Y-56943708D01*
X73763671Y-56943712D01*
X73819137Y-57077622D01*
X73819138Y-57077624D01*
X73819139Y-57077625D01*
X73907379Y-57192621D01*
X73969132Y-57240006D01*
X74001880Y-57265135D01*
X74022375Y-57280861D01*
X74022946Y-57281097D01*
X74023354Y-57281426D01*
X74029410Y-57284922D01*
X74028864Y-57285866D01*
X74077349Y-57324930D01*
X74099421Y-57391222D01*
X74099500Y-57395660D01*
X74099500Y-58884042D01*
X74079815Y-58951081D01*
X74027011Y-58996836D01*
X73957853Y-59006780D01*
X73928049Y-58998604D01*
X73896046Y-58985348D01*
X73843709Y-58963670D01*
X73748088Y-58951081D01*
X73700001Y-58944750D01*
X73699999Y-58944750D01*
X73556291Y-58963670D01*
X73556287Y-58963671D01*
X73422377Y-59019137D01*
X73307379Y-59107379D01*
X73219137Y-59222377D01*
X73163671Y-59356287D01*
X73163670Y-59356291D01*
X73144750Y-59499999D01*
X73144750Y-59500000D01*
X73163670Y-59643708D01*
X73163671Y-59643712D01*
X73180438Y-59684192D01*
X73219139Y-59777625D01*
X73240248Y-59805135D01*
X73273875Y-59848957D01*
X73299070Y-59914125D01*
X73299500Y-59924444D01*
X73299500Y-61582745D01*
X73279815Y-61649784D01*
X73263181Y-61670426D01*
X72370426Y-62563181D01*
X72309103Y-62596666D01*
X72282745Y-62599500D01*
X71174446Y-62599500D01*
X71107407Y-62579815D01*
X71098960Y-62573876D01*
X71027625Y-62519139D01*
X71027623Y-62519138D01*
X70893712Y-62463671D01*
X70893710Y-62463670D01*
X70893709Y-62463670D01*
X70821854Y-62454210D01*
X70750001Y-62444750D01*
X70749999Y-62444750D01*
X70606291Y-62463670D01*
X70606287Y-62463671D01*
X70472377Y-62519137D01*
X70357379Y-62607379D01*
X70269137Y-62722377D01*
X70213671Y-62856287D01*
X70213670Y-62856291D01*
X70196067Y-62990000D01*
X70194750Y-63000000D01*
X70203132Y-63063670D01*
X70213670Y-63143708D01*
X70213671Y-63143712D01*
X70269137Y-63277622D01*
X70269138Y-63277624D01*
X70269139Y-63277625D01*
X70357379Y-63392621D01*
X70472375Y-63480861D01*
X70472376Y-63480861D01*
X70472377Y-63480862D01*
X70517013Y-63499350D01*
X70606291Y-63536330D01*
X70732606Y-63552960D01*
X70749999Y-63555250D01*
X70750000Y-63555250D01*
X70750001Y-63555250D01*
X70767394Y-63552960D01*
X70893709Y-63536330D01*
X71027625Y-63480861D01*
X71080877Y-63439999D01*
X71098960Y-63426124D01*
X71164129Y-63400930D01*
X71174446Y-63400500D01*
X72529620Y-63400500D01*
X72596659Y-63420185D01*
X72642414Y-63472989D01*
X72652559Y-63540686D01*
X72644750Y-63599999D01*
X72644750Y-63600000D01*
X72663670Y-63743708D01*
X72663671Y-63743712D01*
X72719137Y-63877622D01*
X72719138Y-63877624D01*
X72719139Y-63877625D01*
X72807379Y-63992621D01*
X72922375Y-64080861D01*
X72922381Y-64080863D01*
X72924027Y-64081814D01*
X72925142Y-64082984D01*
X72928823Y-64085808D01*
X72928382Y-64086381D01*
X72972246Y-64132377D01*
X72985473Y-64200984D01*
X72959510Y-64265850D01*
X72909488Y-64303765D01*
X72872378Y-64319136D01*
X72757379Y-64407379D01*
X72669137Y-64522377D01*
X72613671Y-64656287D01*
X72613670Y-64656291D01*
X72594750Y-64800000D01*
X72605959Y-64885143D01*
X72613670Y-64943708D01*
X72613671Y-64943712D01*
X72669137Y-65077622D01*
X72669138Y-65077624D01*
X72669139Y-65077625D01*
X72757379Y-65192621D01*
X72872375Y-65280861D01*
X73006291Y-65336330D01*
X73133280Y-65353048D01*
X73149999Y-65355250D01*
X73150000Y-65355250D01*
X73150001Y-65355250D01*
X73164977Y-65353278D01*
X73293709Y-65336330D01*
X73427625Y-65280861D01*
X73542621Y-65192621D01*
X73630861Y-65077625D01*
X73686330Y-64943709D01*
X73705250Y-64800000D01*
X73686330Y-64656291D01*
X73630861Y-64522375D01*
X73542621Y-64407379D01*
X73427625Y-64319139D01*
X73427621Y-64319137D01*
X73425968Y-64318183D01*
X73424849Y-64317010D01*
X73421177Y-64314192D01*
X73421616Y-64313619D01*
X73377751Y-64267618D01*
X73364526Y-64199011D01*
X73390492Y-64134145D01*
X73440512Y-64096233D01*
X73477625Y-64080861D01*
X73592621Y-63992621D01*
X73680861Y-63877625D01*
X73736330Y-63743709D01*
X73755250Y-63600000D01*
X73755221Y-63599783D01*
X73747441Y-63540686D01*
X73736330Y-63456291D01*
X73688245Y-63340201D01*
X73680862Y-63322377D01*
X73680861Y-63322376D01*
X73680861Y-63322375D01*
X73592621Y-63207379D01*
X73477625Y-63119139D01*
X73477624Y-63119138D01*
X73477622Y-63119137D01*
X73343712Y-63063671D01*
X73343710Y-63063670D01*
X73343709Y-63063670D01*
X73291685Y-63056820D01*
X73227790Y-63028554D01*
X73189319Y-62970230D01*
X73188488Y-62900365D01*
X73220191Y-62846201D01*
X73492516Y-62573876D01*
X73887820Y-62178571D01*
X73949142Y-62145088D01*
X74018834Y-62150072D01*
X74074767Y-62191944D01*
X74099184Y-62257408D01*
X74099500Y-62266254D01*
X74099500Y-65747273D01*
X74099500Y-65852727D01*
X74112163Y-65899987D01*
X74126793Y-65954589D01*
X74145208Y-65986483D01*
X74179520Y-66045913D01*
X74179521Y-66045914D01*
X74179522Y-66045915D01*
X75025179Y-66891571D01*
X75025189Y-66891582D01*
X75029519Y-66895912D01*
X75029520Y-66895913D01*
X75104087Y-66970480D01*
X75195413Y-67023207D01*
X75297274Y-67050501D01*
X75297277Y-67050501D01*
X75308107Y-67050501D01*
X75375146Y-67070186D01*
X75420901Y-67122990D01*
X75431282Y-67160218D01*
X75432415Y-67169991D01*
X75461081Y-67234914D01*
X75470152Y-67304192D01*
X75461081Y-67335084D01*
X75432415Y-67400006D01*
X75432415Y-67400008D01*
X75429500Y-67425131D01*
X75429500Y-68414856D01*
X75429502Y-68414882D01*
X75432413Y-68439987D01*
X75432414Y-68439988D01*
X75432414Y-68439990D01*
X75432415Y-68439991D01*
X75449900Y-68479591D01*
X75461081Y-68504914D01*
X75470152Y-68574192D01*
X75461081Y-68605084D01*
X75432415Y-68670006D01*
X75432415Y-68670008D01*
X75429500Y-68695131D01*
X75429500Y-69548303D01*
X75409815Y-69615342D01*
X75379815Y-69647566D01*
X75372818Y-69652804D01*
X75372808Y-69652814D01*
X75286649Y-69767906D01*
X75286645Y-69767913D01*
X75236403Y-69902620D01*
X75236401Y-69902627D01*
X75230000Y-69962155D01*
X75230000Y-70210000D01*
X77730000Y-70210000D01*
X77730000Y-69962172D01*
X77729999Y-69962155D01*
X77723598Y-69902627D01*
X77723596Y-69902620D01*
X77673354Y-69767913D01*
X77673352Y-69767911D01*
X77587190Y-69652813D01*
X77587185Y-69652807D01*
X77580185Y-69647567D01*
X77538316Y-69591632D01*
X77530499Y-69548307D01*
X77530499Y-68695136D01*
X77528570Y-68678502D01*
X77527586Y-68670012D01*
X77527585Y-68670010D01*
X77527585Y-68670009D01*
X77498919Y-68605086D01*
X77489847Y-68535808D01*
X77498919Y-68504913D01*
X77524114Y-68447853D01*
X77527585Y-68439991D01*
X77528891Y-68428732D01*
X77556170Y-68364409D01*
X77613896Y-68325044D01*
X77625726Y-68322375D01*
X77632724Y-68320500D01*
X77632727Y-68320500D01*
X77734588Y-68293207D01*
X77825913Y-68240480D01*
X78420480Y-67645913D01*
X78432804Y-67624566D01*
X78483369Y-67576351D01*
X78551976Y-67563127D01*
X78616841Y-67589094D01*
X78657370Y-67646008D01*
X78663719Y-67675756D01*
X78665430Y-67695317D01*
X78665432Y-67695326D01*
X78726566Y-67923483D01*
X78726570Y-67923492D01*
X78826399Y-68137578D01*
X78961894Y-68331082D01*
X79128917Y-68498105D01*
X79308605Y-68623925D01*
X79352230Y-68678502D01*
X79359422Y-68748001D01*
X79327900Y-68810355D01*
X79267670Y-68845769D01*
X79237482Y-68849500D01*
X79105144Y-68849500D01*
X79105117Y-68849502D01*
X79080012Y-68852413D01*
X79080008Y-68852415D01*
X78977235Y-68897793D01*
X78897794Y-68977234D01*
X78852415Y-69080006D01*
X78852415Y-69080008D01*
X78849500Y-69105131D01*
X78849500Y-70894856D01*
X78849502Y-70894882D01*
X78852413Y-70919987D01*
X78852415Y-70919991D01*
X78897793Y-71022764D01*
X78897794Y-71022765D01*
X78977235Y-71102206D01*
X79080009Y-71147585D01*
X79105135Y-71150500D01*
X80408027Y-71150499D01*
X80475066Y-71170184D01*
X80520821Y-71222987D01*
X80530765Y-71292146D01*
X80501740Y-71355702D01*
X80451361Y-71390681D01*
X80330763Y-71435662D01*
X80313787Y-71440646D01*
X80122068Y-71482351D01*
X80104557Y-71484869D01*
X79923779Y-71497799D01*
X79904417Y-71499184D01*
X79895572Y-71499500D01*
X77649418Y-71499500D01*
X77582379Y-71479815D01*
X77536624Y-71427011D01*
X77526680Y-71357853D01*
X77555705Y-71294297D01*
X77575107Y-71276234D01*
X77587187Y-71267190D01*
X77587190Y-71267187D01*
X77673350Y-71152093D01*
X77673354Y-71152086D01*
X77723596Y-71017379D01*
X77723598Y-71017372D01*
X77729999Y-70957844D01*
X77730000Y-70957827D01*
X77730000Y-70710000D01*
X75230000Y-70710000D01*
X75230000Y-70957844D01*
X75236401Y-71017372D01*
X75236403Y-71017379D01*
X75286645Y-71152086D01*
X75286649Y-71152093D01*
X75372809Y-71267187D01*
X75372812Y-71267190D01*
X75384893Y-71276234D01*
X75426764Y-71332168D01*
X75431748Y-71401859D01*
X75398262Y-71463182D01*
X75336939Y-71496666D01*
X75310582Y-71499500D01*
X60149418Y-71499500D01*
X60082379Y-71479815D01*
X60036624Y-71427011D01*
X60026680Y-71357853D01*
X60055705Y-71294297D01*
X60075107Y-71276234D01*
X60087187Y-71267190D01*
X60087190Y-71267187D01*
X60173350Y-71152093D01*
X60173354Y-71152086D01*
X60223596Y-71017379D01*
X60223598Y-71017372D01*
X60229999Y-70957844D01*
X60230000Y-70957827D01*
X60230000Y-70710000D01*
X59104000Y-70710000D01*
X59036961Y-70690315D01*
X58991206Y-70637511D01*
X58980000Y-70586000D01*
X58980000Y-70334000D01*
X58999685Y-70266961D01*
X59052489Y-70221206D01*
X59104000Y-70210000D01*
X60230000Y-70210000D01*
X60230000Y-69962172D01*
X60229999Y-69962160D01*
X60226300Y-69927758D01*
X60238704Y-69858998D01*
X60286313Y-69807860D01*
X60349589Y-69790500D01*
X63369055Y-69790500D01*
X63369057Y-69790500D01*
X63521784Y-69749577D01*
X63658716Y-69670520D01*
X63770520Y-69558716D01*
X63849577Y-69421784D01*
X63890500Y-69269057D01*
X63890500Y-69110943D01*
X63849577Y-68958216D01*
X63814692Y-68897793D01*
X63770524Y-68821290D01*
X63770518Y-68821282D01*
X63658717Y-68709481D01*
X63658709Y-68709475D01*
X63521790Y-68630426D01*
X63521786Y-68630424D01*
X63521784Y-68630423D01*
X63369057Y-68589500D01*
X63369056Y-68589500D01*
X60149152Y-68589500D01*
X60082113Y-68569815D01*
X60036358Y-68517011D01*
X60026617Y-68449266D01*
X60026510Y-68449254D01*
X60026557Y-68448848D01*
X60026414Y-68447853D01*
X60027001Y-68445016D01*
X60027584Y-68439993D01*
X60027585Y-68439991D01*
X60028720Y-68430208D01*
X60056001Y-68365884D01*
X60113727Y-68326520D01*
X60151894Y-68320500D01*
X60532725Y-68320500D01*
X60532727Y-68320500D01*
X60634588Y-68293207D01*
X60725913Y-68240480D01*
X61183070Y-67783320D01*
X61244389Y-67749838D01*
X61254543Y-67748068D01*
X61343709Y-67736330D01*
X61477625Y-67680861D01*
X61592621Y-67592621D01*
X61680861Y-67477625D01*
X61736330Y-67343709D01*
X61755250Y-67200000D01*
X61736330Y-67056291D01*
X61680861Y-66922375D01*
X61657233Y-66891582D01*
X61626124Y-66851039D01*
X61600930Y-66785869D01*
X61600500Y-66775553D01*
X61600500Y-64687844D01*
X63830000Y-64687844D01*
X63836401Y-64747372D01*
X63836403Y-64747379D01*
X63886645Y-64882086D01*
X63886649Y-64882093D01*
X63972809Y-64997187D01*
X63972812Y-64997190D01*
X64087906Y-65083350D01*
X64087913Y-65083354D01*
X64222620Y-65133596D01*
X64222627Y-65133598D01*
X64282155Y-65139999D01*
X64282172Y-65140000D01*
X64580000Y-65140000D01*
X65080000Y-65140000D01*
X65980000Y-65140000D01*
X66480000Y-65140000D01*
X67380000Y-65140000D01*
X67880000Y-65140000D01*
X68177828Y-65140000D01*
X68177844Y-65139999D01*
X68237372Y-65133598D01*
X68237379Y-65133596D01*
X68372086Y-65083354D01*
X68372093Y-65083350D01*
X68487187Y-64997190D01*
X68487190Y-64997187D01*
X68573350Y-64882093D01*
X68573354Y-64882086D01*
X68623596Y-64747379D01*
X68623598Y-64747372D01*
X68629999Y-64687844D01*
X68630000Y-64687827D01*
X68630000Y-64390000D01*
X67880000Y-64390000D01*
X67880000Y-65140000D01*
X67380000Y-65140000D01*
X67380000Y-64390000D01*
X66480000Y-64390000D01*
X66480000Y-65140000D01*
X65980000Y-65140000D01*
X65980000Y-64390000D01*
X65080000Y-64390000D01*
X65080000Y-65140000D01*
X64580000Y-65140000D01*
X64580000Y-64390000D01*
X63830000Y-64390000D01*
X63830000Y-64687844D01*
X61600500Y-64687844D01*
X61600500Y-64120109D01*
X65430000Y-64120109D01*
X65430000Y-64159891D01*
X65445224Y-64196645D01*
X65473355Y-64224776D01*
X65510109Y-64240000D01*
X65549891Y-64240000D01*
X65586645Y-64224776D01*
X65614776Y-64196645D01*
X65630000Y-64159891D01*
X65630000Y-64120109D01*
X66830000Y-64120109D01*
X66830000Y-64159891D01*
X66845224Y-64196645D01*
X66873355Y-64224776D01*
X66910109Y-64240000D01*
X66949891Y-64240000D01*
X66986645Y-64224776D01*
X67014776Y-64196645D01*
X67030000Y-64159891D01*
X67030000Y-64120109D01*
X67014776Y-64083355D01*
X66986645Y-64055224D01*
X66949891Y-64040000D01*
X66910109Y-64040000D01*
X66873355Y-64055224D01*
X66845224Y-64083355D01*
X66830000Y-64120109D01*
X65630000Y-64120109D01*
X65614776Y-64083355D01*
X65586645Y-64055224D01*
X65549891Y-64040000D01*
X65510109Y-64040000D01*
X65473355Y-64055224D01*
X65445224Y-64083355D01*
X65430000Y-64120109D01*
X61600500Y-64120109D01*
X61600500Y-63890000D01*
X63830000Y-63890000D01*
X64580000Y-63890000D01*
X67880000Y-63890000D01*
X68630000Y-63890000D01*
X68630000Y-62990000D01*
X67880000Y-62990000D01*
X67880000Y-63890000D01*
X64580000Y-63890000D01*
X64580000Y-63420109D01*
X64730000Y-63420109D01*
X64730000Y-63459891D01*
X64745224Y-63496645D01*
X64773355Y-63524776D01*
X64810109Y-63540000D01*
X64849891Y-63540000D01*
X64886645Y-63524776D01*
X64914776Y-63496645D01*
X64930000Y-63459891D01*
X64930000Y-63440000D01*
X65183553Y-63440000D01*
X65343553Y-63600000D01*
X65517500Y-63773946D01*
X65517501Y-63773946D01*
X65851446Y-63440001D01*
X65851446Y-63439999D01*
X65831556Y-63420109D01*
X66105000Y-63420109D01*
X66105000Y-63459891D01*
X66120224Y-63496645D01*
X66148355Y-63524776D01*
X66185109Y-63540000D01*
X66224891Y-63540000D01*
X66261645Y-63524776D01*
X66289776Y-63496645D01*
X66305000Y-63459891D01*
X66305000Y-63440000D01*
X66583553Y-63440000D01*
X66929999Y-63786446D01*
X67116447Y-63600000D01*
X67276446Y-63440000D01*
X67276446Y-63439999D01*
X67256556Y-63420109D01*
X67530000Y-63420109D01*
X67530000Y-63459891D01*
X67545224Y-63496645D01*
X67573355Y-63524776D01*
X67610109Y-63540000D01*
X67649891Y-63540000D01*
X67686645Y-63524776D01*
X67714776Y-63496645D01*
X67730000Y-63459891D01*
X67730000Y-63420109D01*
X67714776Y-63383355D01*
X67686645Y-63355224D01*
X67649891Y-63340000D01*
X67610109Y-63340000D01*
X67573355Y-63355224D01*
X67545224Y-63383355D01*
X67530000Y-63420109D01*
X67256556Y-63420109D01*
X66930000Y-63093553D01*
X66583553Y-63440000D01*
X66305000Y-63440000D01*
X66305000Y-63420109D01*
X66289776Y-63383355D01*
X66261645Y-63355224D01*
X66224891Y-63340000D01*
X66185109Y-63340000D01*
X66148355Y-63355224D01*
X66120224Y-63383355D01*
X66105000Y-63420109D01*
X65831556Y-63420109D01*
X65517501Y-63106053D01*
X65517500Y-63106053D01*
X65183553Y-63440000D01*
X64930000Y-63440000D01*
X64930000Y-63420109D01*
X64914776Y-63383355D01*
X64886645Y-63355224D01*
X64849891Y-63340000D01*
X64810109Y-63340000D01*
X64773355Y-63355224D01*
X64745224Y-63383355D01*
X64730000Y-63420109D01*
X64580000Y-63420109D01*
X64580000Y-62990000D01*
X63830000Y-62990000D01*
X63830000Y-63890000D01*
X61600500Y-63890000D01*
X61600500Y-62720109D01*
X65430000Y-62720109D01*
X65430000Y-62759891D01*
X65445224Y-62796645D01*
X65473355Y-62824776D01*
X65510109Y-62840000D01*
X65549891Y-62840000D01*
X65586645Y-62824776D01*
X65614776Y-62796645D01*
X65630000Y-62759891D01*
X65630000Y-62720109D01*
X66830000Y-62720109D01*
X66830000Y-62759891D01*
X66845224Y-62796645D01*
X66873355Y-62824776D01*
X66910109Y-62840000D01*
X66949891Y-62840000D01*
X66986645Y-62824776D01*
X67014776Y-62796645D01*
X67030000Y-62759891D01*
X67030000Y-62720109D01*
X67014776Y-62683355D01*
X66986645Y-62655224D01*
X66949891Y-62640000D01*
X66910109Y-62640000D01*
X66873355Y-62655224D01*
X66845224Y-62683355D01*
X66830000Y-62720109D01*
X65630000Y-62720109D01*
X65614776Y-62683355D01*
X65586645Y-62655224D01*
X65549891Y-62640000D01*
X65510109Y-62640000D01*
X65473355Y-62655224D01*
X65445224Y-62683355D01*
X65430000Y-62720109D01*
X61600500Y-62720109D01*
X61600500Y-62490000D01*
X63830000Y-62490000D01*
X64580000Y-62490000D01*
X67880000Y-62490000D01*
X68630000Y-62490000D01*
X68630000Y-61590000D01*
X67880000Y-61590000D01*
X67880000Y-62490000D01*
X64580000Y-62490000D01*
X64580000Y-62020109D01*
X64730000Y-62020109D01*
X64730000Y-62059891D01*
X64745224Y-62096645D01*
X64773355Y-62124776D01*
X64810109Y-62140000D01*
X64849891Y-62140000D01*
X64886645Y-62124776D01*
X64914776Y-62096645D01*
X64930000Y-62059891D01*
X64930000Y-62040000D01*
X65183553Y-62040000D01*
X65336318Y-62192765D01*
X65517500Y-62373946D01*
X65517501Y-62373946D01*
X65851446Y-62040001D01*
X65851446Y-62039999D01*
X65831556Y-62020109D01*
X66105000Y-62020109D01*
X66105000Y-62059891D01*
X66120224Y-62096645D01*
X66148355Y-62124776D01*
X66185109Y-62140000D01*
X66224891Y-62140000D01*
X66261645Y-62124776D01*
X66289776Y-62096645D01*
X66305000Y-62059891D01*
X66305000Y-62040000D01*
X66583553Y-62040000D01*
X66929999Y-62386446D01*
X67123682Y-62192765D01*
X67276446Y-62040000D01*
X67276446Y-62039999D01*
X67256556Y-62020109D01*
X67530000Y-62020109D01*
X67530000Y-62059891D01*
X67545224Y-62096645D01*
X67573355Y-62124776D01*
X67610109Y-62140000D01*
X67649891Y-62140000D01*
X67686645Y-62124776D01*
X67714776Y-62096645D01*
X67730000Y-62059891D01*
X67730000Y-62020109D01*
X67714776Y-61983355D01*
X67686645Y-61955224D01*
X67649891Y-61940000D01*
X67610109Y-61940000D01*
X67573355Y-61955224D01*
X67545224Y-61983355D01*
X67530000Y-62020109D01*
X67256556Y-62020109D01*
X66930000Y-61693553D01*
X66583553Y-62040000D01*
X66305000Y-62040000D01*
X66305000Y-62020109D01*
X66289776Y-61983355D01*
X66261645Y-61955224D01*
X66224891Y-61940000D01*
X66185109Y-61940000D01*
X66148355Y-61955224D01*
X66120224Y-61983355D01*
X66105000Y-62020109D01*
X65831556Y-62020109D01*
X65517501Y-61706053D01*
X65517500Y-61706053D01*
X65183553Y-62040000D01*
X64930000Y-62040000D01*
X64930000Y-62020109D01*
X64914776Y-61983355D01*
X64886645Y-61955224D01*
X64849891Y-61940000D01*
X64810109Y-61940000D01*
X64773355Y-61955224D01*
X64745224Y-61983355D01*
X64730000Y-62020109D01*
X64580000Y-62020109D01*
X64580000Y-61590000D01*
X63830000Y-61590000D01*
X63830000Y-62490000D01*
X61600500Y-62490000D01*
X61600500Y-61320109D01*
X65430000Y-61320109D01*
X65430000Y-61359891D01*
X65445224Y-61396645D01*
X65473355Y-61424776D01*
X65510109Y-61440000D01*
X65549891Y-61440000D01*
X65586645Y-61424776D01*
X65614776Y-61396645D01*
X65630000Y-61359891D01*
X65630000Y-61320109D01*
X66830000Y-61320109D01*
X66830000Y-61359891D01*
X66845224Y-61396645D01*
X66873355Y-61424776D01*
X66910109Y-61440000D01*
X66949891Y-61440000D01*
X66986645Y-61424776D01*
X67014776Y-61396645D01*
X67030000Y-61359891D01*
X67030000Y-61320109D01*
X67014776Y-61283355D01*
X66986645Y-61255224D01*
X66949891Y-61240000D01*
X66910109Y-61240000D01*
X66873355Y-61255224D01*
X66845224Y-61283355D01*
X66830000Y-61320109D01*
X65630000Y-61320109D01*
X65614776Y-61283355D01*
X65586645Y-61255224D01*
X65549891Y-61240000D01*
X65510109Y-61240000D01*
X65473355Y-61255224D01*
X65445224Y-61283355D01*
X65430000Y-61320109D01*
X61600500Y-61320109D01*
X61600500Y-60792155D01*
X63830000Y-60792155D01*
X63830000Y-61090000D01*
X64580000Y-61090000D01*
X65080000Y-61090000D01*
X65980000Y-61090000D01*
X66480000Y-61090000D01*
X67380000Y-61090000D01*
X67880000Y-61090000D01*
X68630000Y-61090000D01*
X68630000Y-60792172D01*
X68629999Y-60792155D01*
X68623598Y-60732627D01*
X68623596Y-60732620D01*
X68573354Y-60597913D01*
X68573350Y-60597906D01*
X68487190Y-60482812D01*
X68487187Y-60482809D01*
X68372093Y-60396649D01*
X68372086Y-60396645D01*
X68237379Y-60346403D01*
X68237372Y-60346401D01*
X68177844Y-60340000D01*
X67880000Y-60340000D01*
X67880000Y-61090000D01*
X67380000Y-61090000D01*
X67380000Y-60340000D01*
X66480000Y-60340000D01*
X66480000Y-61090000D01*
X65980000Y-61090000D01*
X65980000Y-60340000D01*
X65080000Y-60340000D01*
X65080000Y-61090000D01*
X64580000Y-61090000D01*
X64580000Y-60340000D01*
X64282155Y-60340000D01*
X64222627Y-60346401D01*
X64222620Y-60346403D01*
X64087913Y-60396645D01*
X64087906Y-60396649D01*
X63972812Y-60482809D01*
X63972809Y-60482812D01*
X63886649Y-60597906D01*
X63886645Y-60597913D01*
X63836403Y-60732620D01*
X63836401Y-60732627D01*
X63830000Y-60792155D01*
X61600500Y-60792155D01*
X61600500Y-57817255D01*
X61620185Y-57750216D01*
X61636819Y-57729574D01*
X64229574Y-55136819D01*
X64290897Y-55103334D01*
X64317255Y-55100500D01*
X73202725Y-55100500D01*
X73202727Y-55100500D01*
X73304588Y-55073207D01*
X73395913Y-55020480D01*
X74979574Y-53436819D01*
X75040897Y-53403334D01*
X75067255Y-53400500D01*
X75305500Y-53400500D01*
X75372539Y-53420185D01*
G37*
%TD.AperFunction*%
%TA.AperFunction,Conductor*%
G36*
X79904418Y-36665030D02*
G01*
X80104560Y-36679344D01*
X80122061Y-36681861D01*
X80313794Y-36723569D01*
X80330752Y-36728548D01*
X80514612Y-36797125D01*
X80530692Y-36804469D01*
X80647483Y-36868242D01*
X80702900Y-36898502D01*
X80717784Y-36908067D01*
X80874843Y-37025641D01*
X80874857Y-37025651D01*
X80888228Y-37037237D01*
X81026972Y-37175982D01*
X81038557Y-37189353D01*
X81156134Y-37346418D01*
X81165700Y-37361302D01*
X81259734Y-37533516D01*
X81267083Y-37549609D01*
X81335650Y-37733447D01*
X81340634Y-37750422D01*
X81382339Y-37942141D01*
X81384857Y-37959654D01*
X81399183Y-38159987D01*
X81399499Y-38168832D01*
X81399499Y-38240090D01*
X81399500Y-38240103D01*
X81399500Y-54711865D01*
X81385076Y-54760984D01*
X81397193Y-54784326D01*
X81399500Y-54808134D01*
X81399500Y-57251865D01*
X81385076Y-57300984D01*
X81397193Y-57324326D01*
X81399500Y-57348134D01*
X81399500Y-59791865D01*
X81385076Y-59840984D01*
X81397193Y-59864326D01*
X81399500Y-59888134D01*
X81399500Y-62331865D01*
X81385076Y-62380984D01*
X81397193Y-62404326D01*
X81399500Y-62428134D01*
X81399500Y-64871865D01*
X81385076Y-64920984D01*
X81397193Y-64944326D01*
X81399500Y-64968134D01*
X81399500Y-66711762D01*
X81379815Y-66778801D01*
X81327011Y-66824556D01*
X81257853Y-66834500D01*
X81194297Y-66805475D01*
X81173925Y-66782886D01*
X81038109Y-66588922D01*
X81038108Y-66588920D01*
X80871082Y-66421894D01*
X80677578Y-66286399D01*
X80478426Y-66193533D01*
X80425987Y-66147360D01*
X80406835Y-66080167D01*
X80427051Y-66013286D01*
X80480216Y-65967951D01*
X80486005Y-65965537D01*
X80515019Y-65954298D01*
X80696302Y-65842052D01*
X80853872Y-65698407D01*
X80982366Y-65528255D01*
X81063032Y-65366255D01*
X81077403Y-65337394D01*
X81077403Y-65337393D01*
X81077405Y-65337389D01*
X81135756Y-65132310D01*
X81152029Y-64956693D01*
X81165990Y-64921532D01*
X81156523Y-64906800D01*
X81152029Y-64883306D01*
X81149870Y-64860006D01*
X81135756Y-64707690D01*
X81077405Y-64502611D01*
X81077403Y-64502606D01*
X81077403Y-64502605D01*
X80982367Y-64311746D01*
X80853872Y-64141593D01*
X80830305Y-64120109D01*
X80696302Y-63997948D01*
X80515019Y-63885702D01*
X80515017Y-63885701D01*
X80415608Y-63847190D01*
X80316198Y-63808679D01*
X80119385Y-63771888D01*
X80057106Y-63740221D01*
X80021833Y-63679908D01*
X80024767Y-63610100D01*
X80064976Y-63552960D01*
X80119384Y-63528111D01*
X80316198Y-63491321D01*
X80515019Y-63414298D01*
X80696302Y-63302052D01*
X80853872Y-63158407D01*
X80982366Y-62988255D01*
X81026130Y-62900365D01*
X81077403Y-62797394D01*
X81077403Y-62797393D01*
X81077405Y-62797389D01*
X81135756Y-62592310D01*
X81152029Y-62416693D01*
X81165990Y-62381532D01*
X81156523Y-62366800D01*
X81152029Y-62343306D01*
X81143854Y-62255084D01*
X81135756Y-62167690D01*
X81077405Y-61962611D01*
X81077403Y-61962606D01*
X81077403Y-61962605D01*
X80982367Y-61771746D01*
X80853872Y-61601593D01*
X80833197Y-61582745D01*
X80696302Y-61457948D01*
X80515019Y-61345702D01*
X80515017Y-61345701D01*
X80354081Y-61283355D01*
X80316198Y-61268679D01*
X80119385Y-61231888D01*
X80057106Y-61200221D01*
X80021833Y-61139908D01*
X80024767Y-61070100D01*
X80064976Y-61012960D01*
X80119384Y-60988111D01*
X80316198Y-60951321D01*
X80515019Y-60874298D01*
X80696302Y-60762052D01*
X80853872Y-60618407D01*
X80982366Y-60448255D01*
X80982367Y-60448253D01*
X81077403Y-60257394D01*
X81077403Y-60257393D01*
X81077405Y-60257389D01*
X81135756Y-60052310D01*
X81152029Y-59876693D01*
X81165990Y-59841532D01*
X81156523Y-59826800D01*
X81152029Y-59803306D01*
X81143854Y-59715084D01*
X81135756Y-59627690D01*
X81077405Y-59422611D01*
X81077403Y-59422606D01*
X81077403Y-59422605D01*
X80982367Y-59231746D01*
X80853872Y-59061593D01*
X80793745Y-59006780D01*
X80696302Y-58917948D01*
X80515019Y-58805702D01*
X80515017Y-58805701D01*
X80415608Y-58767190D01*
X80316198Y-58728679D01*
X80119385Y-58691888D01*
X80057106Y-58660221D01*
X80021833Y-58599908D01*
X80024767Y-58530100D01*
X80064976Y-58472960D01*
X80119384Y-58448111D01*
X80316198Y-58411321D01*
X80515019Y-58334298D01*
X80696302Y-58222052D01*
X80853872Y-58078407D01*
X80982366Y-57908255D01*
X81053253Y-57765893D01*
X81077403Y-57717394D01*
X81077403Y-57717393D01*
X81077405Y-57717389D01*
X81135756Y-57512310D01*
X81152029Y-57336693D01*
X81165990Y-57301532D01*
X81156523Y-57286800D01*
X81152029Y-57263306D01*
X81143854Y-57175084D01*
X81135756Y-57087690D01*
X81077405Y-56882611D01*
X81077403Y-56882606D01*
X81077403Y-56882605D01*
X80982367Y-56691746D01*
X80853872Y-56521593D01*
X80696302Y-56377948D01*
X80515019Y-56265702D01*
X80515017Y-56265701D01*
X80415608Y-56227190D01*
X80316198Y-56188679D01*
X80119385Y-56151888D01*
X80057106Y-56120221D01*
X80021833Y-56059908D01*
X80024767Y-55990100D01*
X80064976Y-55932960D01*
X80119384Y-55908111D01*
X80316198Y-55871321D01*
X80515019Y-55794298D01*
X80696302Y-55682052D01*
X80853872Y-55538407D01*
X80982366Y-55368255D01*
X81005402Y-55321992D01*
X81077403Y-55177394D01*
X81077403Y-55177393D01*
X81077405Y-55177389D01*
X81135756Y-54972310D01*
X81152029Y-54796693D01*
X81165990Y-54761532D01*
X81156523Y-54746800D01*
X81152029Y-54723306D01*
X81143854Y-54635084D01*
X81135756Y-54547690D01*
X81077405Y-54342611D01*
X81077403Y-54342606D01*
X81077403Y-54342605D01*
X80982367Y-54151746D01*
X80853872Y-53981593D01*
X80812194Y-53943598D01*
X80696302Y-53837948D01*
X80515019Y-53725702D01*
X80515017Y-53725701D01*
X80415608Y-53687190D01*
X80316198Y-53648679D01*
X80106610Y-53609500D01*
X79893390Y-53609500D01*
X79683802Y-53648679D01*
X79683799Y-53648679D01*
X79683799Y-53648680D01*
X79484982Y-53725701D01*
X79484980Y-53725702D01*
X79303699Y-53837947D01*
X79146127Y-53981593D01*
X79017632Y-54151746D01*
X78922596Y-54342605D01*
X78922596Y-54342607D01*
X78864244Y-54547689D01*
X78847802Y-54725136D01*
X78844571Y-54760000D01*
X78864244Y-54972310D01*
X78877949Y-55020479D01*
X78922596Y-55177392D01*
X78922596Y-55177394D01*
X79017632Y-55368253D01*
X79017634Y-55368255D01*
X79146128Y-55538407D01*
X79303698Y-55682052D01*
X79484981Y-55794298D01*
X79683802Y-55871321D01*
X79880613Y-55908111D01*
X79942893Y-55939779D01*
X79978166Y-56000092D01*
X79975232Y-56069900D01*
X79935023Y-56127040D01*
X79880613Y-56151888D01*
X79683802Y-56188679D01*
X79683799Y-56188679D01*
X79683799Y-56188680D01*
X79484982Y-56265701D01*
X79484980Y-56265702D01*
X79303699Y-56377947D01*
X79146127Y-56521593D01*
X79017632Y-56691746D01*
X78922596Y-56882605D01*
X78922596Y-56882607D01*
X78864244Y-57087689D01*
X78844571Y-57299999D01*
X78844571Y-57300000D01*
X78864244Y-57512310D01*
X78922596Y-57717392D01*
X78922596Y-57717394D01*
X79017632Y-57908253D01*
X79017634Y-57908255D01*
X79146128Y-58078407D01*
X79303698Y-58222052D01*
X79484981Y-58334298D01*
X79683802Y-58411321D01*
X79880613Y-58448111D01*
X79942893Y-58479779D01*
X79978166Y-58540092D01*
X79975232Y-58609900D01*
X79935023Y-58667040D01*
X79880613Y-58691888D01*
X79683802Y-58728679D01*
X79683799Y-58728679D01*
X79683799Y-58728680D01*
X79484982Y-58805701D01*
X79484980Y-58805702D01*
X79303699Y-58917947D01*
X79146127Y-59061593D01*
X79017632Y-59231746D01*
X78922596Y-59422605D01*
X78922596Y-59422607D01*
X78864244Y-59627689D01*
X78844571Y-59839999D01*
X78844571Y-59840000D01*
X78864244Y-60052310D01*
X78922596Y-60257392D01*
X78922596Y-60257394D01*
X79017632Y-60448253D01*
X79146127Y-60618406D01*
X79146128Y-60618407D01*
X79303698Y-60762052D01*
X79484981Y-60874298D01*
X79683802Y-60951321D01*
X79880613Y-60988111D01*
X79942893Y-61019779D01*
X79978166Y-61080092D01*
X79975232Y-61149900D01*
X79935023Y-61207040D01*
X79880613Y-61231888D01*
X79683802Y-61268679D01*
X79683799Y-61268679D01*
X79683799Y-61268680D01*
X79484982Y-61345701D01*
X79484980Y-61345702D01*
X79303699Y-61457947D01*
X79146127Y-61601593D01*
X79017632Y-61771746D01*
X78922596Y-61962605D01*
X78922596Y-61962607D01*
X78864244Y-62167689D01*
X78844571Y-62379999D01*
X78844571Y-62380000D01*
X78864244Y-62592310D01*
X78923390Y-62800184D01*
X78922804Y-62870052D01*
X78891805Y-62921800D01*
X78140426Y-63673181D01*
X78079103Y-63706666D01*
X78052745Y-63709500D01*
X77651893Y-63709500D01*
X77584854Y-63689815D01*
X77539099Y-63637011D01*
X77528718Y-63599783D01*
X77527585Y-63590012D01*
X77527585Y-63590009D01*
X77514237Y-63559779D01*
X77498919Y-63525086D01*
X77489847Y-63455808D01*
X77498919Y-63424913D01*
X77503607Y-63414297D01*
X77527585Y-63359991D01*
X77530500Y-63334865D01*
X77530499Y-62345136D01*
X77528960Y-62331865D01*
X77527586Y-62320012D01*
X77527585Y-62320010D01*
X77527585Y-62320009D01*
X77498919Y-62255086D01*
X77489847Y-62185808D01*
X77498919Y-62154913D01*
X77527584Y-62089993D01*
X77527585Y-62089991D01*
X77530500Y-62064865D01*
X77530499Y-61075136D01*
X77529915Y-61070100D01*
X77527586Y-61050012D01*
X77527585Y-61050010D01*
X77527585Y-61050009D01*
X77501309Y-60990500D01*
X77498919Y-60985086D01*
X77489847Y-60915808D01*
X77498919Y-60884913D01*
X77503607Y-60874297D01*
X77527585Y-60819991D01*
X77530500Y-60794865D01*
X77530499Y-59805136D01*
X77528960Y-59791865D01*
X77527586Y-59780012D01*
X77527585Y-59780010D01*
X77527585Y-59780009D01*
X77498919Y-59715086D01*
X77489847Y-59645808D01*
X77498919Y-59614913D01*
X77527584Y-59549993D01*
X77527585Y-59549991D01*
X77530500Y-59524865D01*
X77530499Y-58535136D01*
X77529915Y-58530100D01*
X77527586Y-58510012D01*
X77527585Y-58510010D01*
X77527585Y-58510009D01*
X77501309Y-58450500D01*
X77498919Y-58445086D01*
X77489847Y-58375808D01*
X77498919Y-58344913D01*
X77503607Y-58334297D01*
X77527585Y-58279991D01*
X77530500Y-58254865D01*
X77530499Y-57265136D01*
X77528960Y-57251865D01*
X77527586Y-57240012D01*
X77527585Y-57240010D01*
X77527585Y-57240009D01*
X77498919Y-57175086D01*
X77489847Y-57105808D01*
X77498919Y-57074913D01*
X77527584Y-57009993D01*
X77527585Y-57009991D01*
X77530500Y-56984865D01*
X77530499Y-55995136D01*
X77529424Y-55985866D01*
X77527586Y-55970012D01*
X77527585Y-55970010D01*
X77527585Y-55970009D01*
X77501309Y-55910500D01*
X77498919Y-55905086D01*
X77489847Y-55835808D01*
X77498919Y-55804913D01*
X77503607Y-55794297D01*
X77527585Y-55739991D01*
X77530500Y-55714865D01*
X77530499Y-54725136D01*
X77528960Y-54711865D01*
X77527586Y-54700012D01*
X77527585Y-54700010D01*
X77527585Y-54700009D01*
X77498919Y-54635086D01*
X77489847Y-54565808D01*
X77498919Y-54534913D01*
X77527584Y-54469993D01*
X77527585Y-54469990D01*
X77529773Y-54451129D01*
X77557051Y-54386804D01*
X77614776Y-54347438D01*
X77620828Y-54345649D01*
X77704588Y-54323207D01*
X77795913Y-54270480D01*
X78320480Y-53745913D01*
X78373207Y-53654588D01*
X78400500Y-53552727D01*
X78400500Y-53447273D01*
X78400500Y-47747273D01*
X78373207Y-47645413D01*
X78320480Y-47554087D01*
X78245913Y-47479520D01*
X77186818Y-46420425D01*
X77153333Y-46359102D01*
X77150499Y-46332744D01*
X77150499Y-45680143D01*
X77150499Y-45680136D01*
X77150497Y-45680117D01*
X77147586Y-45655012D01*
X77147585Y-45655010D01*
X77147585Y-45655009D01*
X77102206Y-45552235D01*
X77022765Y-45472794D01*
X76919992Y-45427415D01*
X76894868Y-45424500D01*
X76524501Y-45424500D01*
X76457462Y-45404815D01*
X76411707Y-45352011D01*
X76400501Y-45300500D01*
X76400501Y-45247274D01*
X76399972Y-45245301D01*
X76373207Y-45145413D01*
X76373206Y-45145412D01*
X76373206Y-45145410D01*
X76373204Y-45145407D01*
X76345715Y-45097795D01*
X76345713Y-45097793D01*
X76320480Y-45054087D01*
X76238855Y-44972462D01*
X76238847Y-44972455D01*
X76045913Y-44779520D01*
X75986520Y-44745229D01*
X75954589Y-44726793D01*
X75903657Y-44713146D01*
X75852727Y-44699500D01*
X74752727Y-44699500D01*
X74647273Y-44699500D01*
X74545410Y-44726793D01*
X74454087Y-44779520D01*
X74426245Y-44807361D01*
X74364920Y-44840844D01*
X74295229Y-44835857D01*
X74239297Y-44793984D01*
X74214882Y-44728519D01*
X74229736Y-44660247D01*
X74238785Y-44646059D01*
X74292793Y-44572882D01*
X74324992Y-44480862D01*
X74337646Y-44444701D01*
X74337646Y-44444699D01*
X74340500Y-44414269D01*
X74340500Y-44005730D01*
X74337646Y-43975300D01*
X74337646Y-43975298D01*
X74292793Y-43847119D01*
X74292792Y-43847117D01*
X74212150Y-43737850D01*
X74126677Y-43674768D01*
X74084428Y-43619123D01*
X74078969Y-43549467D01*
X74112036Y-43487917D01*
X74126670Y-43475236D01*
X74212150Y-43412150D01*
X74292793Y-43302882D01*
X74321798Y-43219991D01*
X74337646Y-43174701D01*
X74337646Y-43174699D01*
X74340500Y-43144269D01*
X74340500Y-42735730D01*
X74337646Y-42705300D01*
X74337646Y-42705298D01*
X74292793Y-42577119D01*
X74292792Y-42577117D01*
X74287370Y-42569771D01*
X74212150Y-42467850D01*
X74126677Y-42404768D01*
X74084428Y-42349123D01*
X74078969Y-42279467D01*
X74112036Y-42217917D01*
X74126670Y-42205236D01*
X74212150Y-42142150D01*
X74292793Y-42032882D01*
X74315219Y-41968790D01*
X74337646Y-41904701D01*
X74337646Y-41904699D01*
X74340500Y-41874269D01*
X74340500Y-41465730D01*
X74337646Y-41435300D01*
X74337646Y-41435298D01*
X74297652Y-41321005D01*
X74292793Y-41307118D01*
X74212150Y-41197850D01*
X74126677Y-41134768D01*
X74084428Y-41079123D01*
X74078969Y-41009467D01*
X74112036Y-40947917D01*
X74126670Y-40935236D01*
X74212150Y-40872150D01*
X74292793Y-40762882D01*
X74315219Y-40698790D01*
X74337646Y-40634701D01*
X74337646Y-40634699D01*
X74340500Y-40604269D01*
X74340500Y-40195730D01*
X74337646Y-40165300D01*
X74337646Y-40165298D01*
X74292793Y-40037119D01*
X74292792Y-40037117D01*
X74212150Y-39927850D01*
X74102882Y-39847207D01*
X74102880Y-39847206D01*
X73974700Y-39802353D01*
X73944270Y-39799500D01*
X73944266Y-39799500D01*
X72185734Y-39799500D01*
X72185730Y-39799500D01*
X72155300Y-39802353D01*
X72155298Y-39802353D01*
X72027119Y-39847206D01*
X72027117Y-39847207D01*
X71917850Y-39927850D01*
X71837207Y-40037117D01*
X71837206Y-40037119D01*
X71792353Y-40165298D01*
X71792353Y-40165300D01*
X71789500Y-40195730D01*
X71789500Y-40604269D01*
X71792353Y-40634699D01*
X71792353Y-40634701D01*
X71835026Y-40756649D01*
X71837207Y-40762882D01*
X71917850Y-40872150D01*
X72003321Y-40935230D01*
X72045571Y-40990877D01*
X72051030Y-41060534D01*
X72017962Y-41122083D01*
X72003321Y-41134769D01*
X71980793Y-41151396D01*
X71917850Y-41197850D01*
X71837207Y-41307117D01*
X71837206Y-41307119D01*
X71792353Y-41435298D01*
X71792353Y-41435300D01*
X71789500Y-41465730D01*
X71789500Y-41874269D01*
X71792353Y-41904699D01*
X71792353Y-41904701D01*
X71837206Y-42032880D01*
X71837207Y-42032882D01*
X71917850Y-42142150D01*
X72003321Y-42205230D01*
X72045571Y-42260877D01*
X72051030Y-42330534D01*
X72017962Y-42392083D01*
X72003321Y-42404769D01*
X71961683Y-42435500D01*
X71917850Y-42467850D01*
X71837207Y-42577117D01*
X71837206Y-42577119D01*
X71792353Y-42705298D01*
X71792353Y-42705300D01*
X71789500Y-42735730D01*
X71789500Y-43144269D01*
X71792353Y-43174699D01*
X71792353Y-43174701D01*
X71828368Y-43277622D01*
X71837207Y-43302882D01*
X71917850Y-43412150D01*
X72003321Y-43475230D01*
X72045571Y-43530877D01*
X72051030Y-43600534D01*
X72017962Y-43662083D01*
X72003321Y-43674769D01*
X71938818Y-43722375D01*
X71917850Y-43737850D01*
X71837207Y-43847117D01*
X71837206Y-43847119D01*
X71792353Y-43975298D01*
X71792353Y-43975300D01*
X71789500Y-44005730D01*
X71789500Y-44414269D01*
X71792353Y-44444699D01*
X71792353Y-44444701D01*
X71837206Y-44572880D01*
X71837207Y-44572882D01*
X71917850Y-44682150D01*
X72003321Y-44745230D01*
X72045571Y-44800877D01*
X72051030Y-44870534D01*
X72017962Y-44932083D01*
X72003321Y-44944769D01*
X71977712Y-44963670D01*
X71917850Y-45007850D01*
X71837207Y-45117117D01*
X71837206Y-45117119D01*
X71792353Y-45245298D01*
X71792353Y-45245300D01*
X71789500Y-45275730D01*
X71789500Y-45684269D01*
X71792353Y-45714699D01*
X71792353Y-45714701D01*
X71837206Y-45842880D01*
X71837207Y-45842882D01*
X71917850Y-45952150D01*
X72003321Y-46015230D01*
X72045571Y-46070877D01*
X72051030Y-46140534D01*
X72017962Y-46202083D01*
X72003321Y-46214769D01*
X71955586Y-46250000D01*
X71917850Y-46277850D01*
X71837207Y-46387117D01*
X71837206Y-46387119D01*
X71792353Y-46515298D01*
X71792353Y-46515300D01*
X71789500Y-46545730D01*
X71789500Y-46630474D01*
X71769815Y-46697513D01*
X71717011Y-46743268D01*
X71647853Y-46753212D01*
X71584297Y-46724187D01*
X71558113Y-46692474D01*
X71546630Y-46672585D01*
X71517641Y-46622375D01*
X71500500Y-46592686D01*
X71407314Y-46499500D01*
X71407313Y-46499499D01*
X71402983Y-46495169D01*
X71402972Y-46495159D01*
X69987316Y-45079502D01*
X69987315Y-45079501D01*
X69987314Y-45079500D01*
X69930250Y-45046554D01*
X69873187Y-45013608D01*
X69809539Y-44996554D01*
X69745892Y-44979500D01*
X69745891Y-44979500D01*
X69264540Y-44979500D01*
X69197501Y-44959815D01*
X69190910Y-44955273D01*
X69176680Y-44944770D01*
X69134429Y-44889126D01*
X69128968Y-44819471D01*
X69162034Y-44757920D01*
X69176670Y-44745236D01*
X69262150Y-44682150D01*
X69342793Y-44572882D01*
X69374992Y-44480862D01*
X69387646Y-44444701D01*
X69387646Y-44444699D01*
X69390500Y-44414269D01*
X69390500Y-44005730D01*
X69387646Y-43975300D01*
X69387646Y-43975298D01*
X69342793Y-43847119D01*
X69342792Y-43847117D01*
X69262150Y-43737850D01*
X69176677Y-43674768D01*
X69134428Y-43619123D01*
X69128969Y-43549467D01*
X69162036Y-43487917D01*
X69176670Y-43475236D01*
X69262150Y-43412150D01*
X69342793Y-43302882D01*
X69371798Y-43219991D01*
X69387646Y-43174701D01*
X69387646Y-43174699D01*
X69390500Y-43144269D01*
X69390500Y-42735730D01*
X69387646Y-42705300D01*
X69387646Y-42705298D01*
X69342793Y-42577119D01*
X69342792Y-42577117D01*
X69337370Y-42569771D01*
X69262150Y-42467850D01*
X69176677Y-42404768D01*
X69134428Y-42349123D01*
X69128969Y-42279467D01*
X69162036Y-42217917D01*
X69176670Y-42205236D01*
X69262150Y-42142150D01*
X69342793Y-42032882D01*
X69365219Y-41968790D01*
X69387646Y-41904701D01*
X69387646Y-41904699D01*
X69390500Y-41874269D01*
X69390500Y-41465730D01*
X69387646Y-41435300D01*
X69387646Y-41435298D01*
X69347652Y-41321005D01*
X69342793Y-41307118D01*
X69262150Y-41197850D01*
X69176677Y-41134768D01*
X69134428Y-41079123D01*
X69128969Y-41009467D01*
X69162036Y-40947917D01*
X69176670Y-40935236D01*
X69262150Y-40872150D01*
X69342793Y-40762882D01*
X69365219Y-40698790D01*
X69387646Y-40634701D01*
X69387646Y-40634699D01*
X69390500Y-40604269D01*
X69390500Y-40195730D01*
X69387646Y-40165300D01*
X69387646Y-40165298D01*
X69342793Y-40037119D01*
X69342792Y-40037117D01*
X69262150Y-39927850D01*
X69152882Y-39847207D01*
X69152880Y-39847206D01*
X69024700Y-39802353D01*
X68994270Y-39799500D01*
X68994266Y-39799500D01*
X67235734Y-39799500D01*
X67235730Y-39799500D01*
X67205300Y-39802353D01*
X67205298Y-39802353D01*
X67077119Y-39847206D01*
X67077117Y-39847207D01*
X66967850Y-39927850D01*
X66887207Y-40037117D01*
X66887206Y-40037119D01*
X66842353Y-40165298D01*
X66842353Y-40165300D01*
X66839500Y-40195730D01*
X66839500Y-40604269D01*
X66842353Y-40634699D01*
X66842353Y-40634701D01*
X66885026Y-40756649D01*
X66887207Y-40762882D01*
X66967850Y-40872150D01*
X67053321Y-40935230D01*
X67095571Y-40990877D01*
X67101030Y-41060534D01*
X67067962Y-41122083D01*
X67053321Y-41134769D01*
X67030793Y-41151396D01*
X66967850Y-41197850D01*
X66887207Y-41307117D01*
X66887206Y-41307119D01*
X66842353Y-41435298D01*
X66842353Y-41435300D01*
X66839500Y-41465730D01*
X66839500Y-41874269D01*
X66842353Y-41904699D01*
X66842353Y-41904701D01*
X66887206Y-42032880D01*
X66887207Y-42032882D01*
X66967850Y-42142150D01*
X67053321Y-42205230D01*
X67095571Y-42260877D01*
X67101030Y-42330534D01*
X67067962Y-42392083D01*
X67053321Y-42404769D01*
X67011683Y-42435500D01*
X66967850Y-42467850D01*
X66887207Y-42577117D01*
X66887206Y-42577119D01*
X66842353Y-42705298D01*
X66842353Y-42705300D01*
X66839500Y-42735730D01*
X66839500Y-42825500D01*
X66819815Y-42892539D01*
X66767011Y-42938294D01*
X66715500Y-42949500D01*
X66624500Y-42949500D01*
X66557461Y-42929815D01*
X66511706Y-42877011D01*
X66500500Y-42825500D01*
X66500500Y-42220945D01*
X66500500Y-42220943D01*
X66459577Y-42068216D01*
X66383108Y-41935766D01*
X66380524Y-41931290D01*
X66380518Y-41931282D01*
X66268717Y-41819481D01*
X66268709Y-41819475D01*
X66131790Y-41740426D01*
X66131786Y-41740424D01*
X66131784Y-41740423D01*
X65979057Y-41699500D01*
X63720943Y-41699500D01*
X63720940Y-41699500D01*
X63030143Y-41699500D01*
X63030132Y-41699501D01*
X63014279Y-41701340D01*
X62945419Y-41689508D01*
X62893886Y-41642326D01*
X62892609Y-41640165D01*
X62884277Y-41625734D01*
X62815515Y-41506635D01*
X62770561Y-41461681D01*
X62737076Y-41400358D01*
X62742060Y-41330666D01*
X62783932Y-41274733D01*
X62849396Y-41250316D01*
X62858242Y-41250000D01*
X65025000Y-41250000D01*
X65025000Y-41152172D01*
X65024999Y-41152155D01*
X65018598Y-41092627D01*
X65018596Y-41092620D01*
X64968354Y-40957913D01*
X64968350Y-40957906D01*
X64882190Y-40842812D01*
X64882187Y-40842809D01*
X64767093Y-40756649D01*
X64767086Y-40756645D01*
X64632379Y-40706403D01*
X64632372Y-40706401D01*
X64572844Y-40700000D01*
X64479924Y-40700000D01*
X64412885Y-40680315D01*
X64412531Y-40680000D01*
X63601988Y-40680000D01*
X63619205Y-40670060D01*
X63675060Y-40614205D01*
X63714556Y-40545796D01*
X63735000Y-40469496D01*
X63735000Y-40390504D01*
X63714556Y-40314204D01*
X63675060Y-40245795D01*
X63619205Y-40189940D01*
X63601988Y-40180000D01*
X64404862Y-40180000D01*
X64396569Y-40138309D01*
X64396569Y-40138307D01*
X64321192Y-39956328D01*
X64321185Y-39956315D01*
X64211751Y-39792537D01*
X64211748Y-39792533D01*
X64072466Y-39653251D01*
X64072462Y-39653248D01*
X63908684Y-39543814D01*
X63908671Y-39543807D01*
X63751514Y-39478711D01*
X76549500Y-39478711D01*
X76549500Y-39721288D01*
X76581161Y-39961785D01*
X76643947Y-40196104D01*
X76736773Y-40420205D01*
X76736776Y-40420212D01*
X76858064Y-40630289D01*
X76858066Y-40630292D01*
X76858067Y-40630293D01*
X77005733Y-40822736D01*
X77005739Y-40822743D01*
X77177256Y-40994260D01*
X77177263Y-40994266D01*
X77263626Y-41060534D01*
X77369711Y-41141936D01*
X77579788Y-41263224D01*
X77803900Y-41356054D01*
X78038211Y-41418838D01*
X78218586Y-41442584D01*
X78278711Y-41450500D01*
X78278712Y-41450500D01*
X78521289Y-41450500D01*
X78569388Y-41444167D01*
X78761789Y-41418838D01*
X78996100Y-41356054D01*
X79220212Y-41263224D01*
X79430289Y-41141936D01*
X79622738Y-40994265D01*
X79794265Y-40822738D01*
X79941936Y-40630289D01*
X80063224Y-40420212D01*
X80156054Y-40196100D01*
X80218838Y-39961789D01*
X80250500Y-39721288D01*
X80250500Y-39478712D01*
X80218838Y-39238211D01*
X80156054Y-39003900D01*
X80063224Y-38779788D01*
X79941936Y-38569711D01*
X79794265Y-38377262D01*
X79794260Y-38377256D01*
X79622743Y-38205739D01*
X79622736Y-38205733D01*
X79430293Y-38058067D01*
X79430292Y-38058066D01*
X79430289Y-38058064D01*
X79244516Y-37950808D01*
X79220214Y-37936777D01*
X79220205Y-37936773D01*
X78996104Y-37843947D01*
X78761785Y-37781161D01*
X78521289Y-37749500D01*
X78521288Y-37749500D01*
X78278712Y-37749500D01*
X78278711Y-37749500D01*
X78038214Y-37781161D01*
X77803895Y-37843947D01*
X77579794Y-37936773D01*
X77579785Y-37936777D01*
X77369706Y-38058067D01*
X77177263Y-38205733D01*
X77177256Y-38205739D01*
X77005739Y-38377256D01*
X77005733Y-38377263D01*
X76858067Y-38569706D01*
X76736777Y-38779785D01*
X76736773Y-38779794D01*
X76643947Y-39003895D01*
X76581161Y-39238214D01*
X76549500Y-39478711D01*
X63751514Y-39478711D01*
X63726693Y-39468430D01*
X63726681Y-39468427D01*
X63533495Y-39430000D01*
X63135000Y-39430000D01*
X63135000Y-40130000D01*
X62635000Y-40130000D01*
X62635000Y-39430000D01*
X62236504Y-39430000D01*
X62043318Y-39468427D01*
X62043306Y-39468430D01*
X61861328Y-39543807D01*
X61861315Y-39543814D01*
X61697537Y-39653248D01*
X61697533Y-39653251D01*
X61558251Y-39792533D01*
X61558248Y-39792537D01*
X61448814Y-39956315D01*
X61448807Y-39956328D01*
X61373430Y-40138307D01*
X61373430Y-40138309D01*
X61365138Y-40180000D01*
X62168012Y-40180000D01*
X62150795Y-40189940D01*
X62094940Y-40245795D01*
X62055444Y-40314204D01*
X62035000Y-40390504D01*
X62035000Y-40469496D01*
X62055444Y-40545796D01*
X62094940Y-40614205D01*
X62150795Y-40670060D01*
X62168012Y-40680000D01*
X61365138Y-40680000D01*
X61373430Y-40721690D01*
X61373430Y-40721692D01*
X61448807Y-40903671D01*
X61448814Y-40903684D01*
X61558248Y-41067462D01*
X61558251Y-41067466D01*
X61697533Y-41206748D01*
X61697537Y-41206751D01*
X61866387Y-41319574D01*
X61865430Y-41321005D01*
X61909425Y-41364211D01*
X61924895Y-41432346D01*
X61901072Y-41498029D01*
X61899309Y-41500094D01*
X61899432Y-41500189D01*
X61894485Y-41506635D01*
X61818719Y-41637863D01*
X61779500Y-41784234D01*
X61779500Y-41935765D01*
X61818719Y-42082136D01*
X61853368Y-42142149D01*
X61894485Y-42213365D01*
X62001635Y-42320515D01*
X62001636Y-42320516D01*
X62001638Y-42320517D01*
X62114593Y-42385732D01*
X62162809Y-42436299D01*
X62176031Y-42504906D01*
X62150063Y-42569771D01*
X62128081Y-42591494D01*
X62107380Y-42607378D01*
X62019137Y-42722377D01*
X61963671Y-42856287D01*
X61963670Y-42856291D01*
X61944750Y-42999999D01*
X61944750Y-43000000D01*
X61963670Y-43143708D01*
X61963671Y-43143712D01*
X62019137Y-43277622D01*
X62019138Y-43277624D01*
X62019139Y-43277625D01*
X62107379Y-43392621D01*
X62116711Y-43399782D01*
X62119113Y-43401625D01*
X62160316Y-43458053D01*
X62164470Y-43527799D01*
X62130257Y-43588719D01*
X62119113Y-43598375D01*
X62107381Y-43607377D01*
X62107380Y-43607378D01*
X62107379Y-43607379D01*
X62069144Y-43657207D01*
X62019137Y-43722377D01*
X61963671Y-43856287D01*
X61963670Y-43856291D01*
X61944750Y-43999999D01*
X61944750Y-44000000D01*
X61963670Y-44143708D01*
X61963671Y-44143712D01*
X62019137Y-44277622D01*
X62019138Y-44277624D01*
X62019139Y-44277625D01*
X62107379Y-44392621D01*
X62222375Y-44480861D01*
X62356291Y-44536330D01*
X62483280Y-44553048D01*
X62499999Y-44555250D01*
X62500000Y-44555250D01*
X62500001Y-44555250D01*
X62518777Y-44552777D01*
X62573554Y-44545566D01*
X62642588Y-44556331D01*
X62694844Y-44602711D01*
X62713730Y-44669980D01*
X62693250Y-44736780D01*
X62677420Y-44756186D01*
X62516931Y-44916675D01*
X62455608Y-44950160D01*
X62445437Y-44951933D01*
X62356291Y-44963670D01*
X62356287Y-44963671D01*
X62222377Y-45019137D01*
X62107379Y-45107379D01*
X62019137Y-45222377D01*
X61963671Y-45356287D01*
X61963670Y-45356291D01*
X61944750Y-45499999D01*
X61944750Y-45500000D01*
X61963670Y-45643708D01*
X61963671Y-45643712D01*
X62019137Y-45777622D01*
X62055118Y-45824514D01*
X62080312Y-45889683D01*
X62066274Y-45958128D01*
X62055118Y-45975486D01*
X62019139Y-46022374D01*
X62019138Y-46022376D01*
X61963671Y-46156287D01*
X61963670Y-46156291D01*
X61948935Y-46268216D01*
X61944750Y-46300000D01*
X61953132Y-46363670D01*
X61963670Y-46443708D01*
X61963671Y-46443712D01*
X62019137Y-46577622D01*
X62019138Y-46577624D01*
X62019139Y-46577625D01*
X62107379Y-46692621D01*
X62222375Y-46780861D01*
X62222376Y-46780861D01*
X62222377Y-46780862D01*
X62331204Y-46825939D01*
X62385608Y-46869779D01*
X62407673Y-46936073D01*
X62390394Y-47003773D01*
X62339257Y-47051384D01*
X62283752Y-47064500D01*
X62279234Y-47064500D01*
X62132863Y-47103719D01*
X62001635Y-47179485D01*
X62001632Y-47179487D01*
X61894487Y-47286632D01*
X61894485Y-47286635D01*
X61818719Y-47417863D01*
X61798815Y-47492147D01*
X61779500Y-47564234D01*
X61779500Y-47715766D01*
X61782932Y-47728573D01*
X61818719Y-47862136D01*
X61856602Y-47927750D01*
X61894485Y-47993365D01*
X61894487Y-47993367D01*
X61899432Y-47999811D01*
X61896612Y-48001974D01*
X61922302Y-48049020D01*
X61917318Y-48118712D01*
X61875446Y-48174645D01*
X61866379Y-48180416D01*
X61866387Y-48180427D01*
X61697536Y-48293248D01*
X61558251Y-48432533D01*
X61558248Y-48432537D01*
X61448814Y-48596315D01*
X61448807Y-48596328D01*
X61373430Y-48778307D01*
X61373430Y-48778309D01*
X61365138Y-48820000D01*
X62168012Y-48820000D01*
X62150795Y-48829940D01*
X62094940Y-48885795D01*
X62055444Y-48954204D01*
X62035000Y-49030504D01*
X62035000Y-49109496D01*
X62055444Y-49185796D01*
X62094940Y-49254205D01*
X62150795Y-49310060D01*
X62168012Y-49320000D01*
X61365138Y-49320000D01*
X61373430Y-49361690D01*
X61373430Y-49361692D01*
X61448807Y-49543671D01*
X61448814Y-49543684D01*
X61558248Y-49707462D01*
X61558251Y-49707466D01*
X61697533Y-49846748D01*
X61697537Y-49846751D01*
X61861315Y-49956185D01*
X61861328Y-49956192D01*
X62043306Y-50031569D01*
X62043318Y-50031572D01*
X62236504Y-50069999D01*
X62236508Y-50070000D01*
X62635000Y-50070000D01*
X62635000Y-49370000D01*
X63135000Y-49370000D01*
X63135000Y-50070000D01*
X63533492Y-50070000D01*
X63533495Y-50069999D01*
X63726681Y-50031572D01*
X63726693Y-50031569D01*
X63908671Y-49956192D01*
X63908684Y-49956185D01*
X64072462Y-49846751D01*
X64072466Y-49846748D01*
X64211748Y-49707466D01*
X64211751Y-49707462D01*
X64321185Y-49543684D01*
X64321192Y-49543671D01*
X64322712Y-49540001D01*
X66642704Y-49540001D01*
X66642899Y-49542486D01*
X66688718Y-49700198D01*
X66772314Y-49841552D01*
X66772321Y-49841561D01*
X66888438Y-49957678D01*
X66888447Y-49957685D01*
X67029803Y-50041282D01*
X67029806Y-50041283D01*
X67187504Y-50087099D01*
X67187510Y-50087100D01*
X67224350Y-50089999D01*
X67224366Y-50090000D01*
X67865000Y-50090000D01*
X68365000Y-50090000D01*
X69005634Y-50090000D01*
X69005649Y-50089999D01*
X69042489Y-50087100D01*
X69042495Y-50087099D01*
X69089262Y-50073512D01*
X69159131Y-50073711D01*
X69217801Y-50111653D01*
X69246645Y-50175291D01*
X69242934Y-50227181D01*
X69227855Y-50279084D01*
X69227854Y-50279087D01*
X69226209Y-50299999D01*
X69226210Y-50300000D01*
X69755000Y-50300000D01*
X69755000Y-49745494D01*
X69754998Y-49745493D01*
X69723805Y-49754556D01*
X69653936Y-49754356D01*
X69595266Y-49716413D01*
X69566423Y-49652774D01*
X69570135Y-49600883D01*
X69587099Y-49542491D01*
X69587100Y-49542488D01*
X69587295Y-49540001D01*
X69587295Y-49540000D01*
X68365000Y-49540000D01*
X68365000Y-50090000D01*
X67865000Y-50090000D01*
X67865000Y-49540000D01*
X66642705Y-49540000D01*
X66642704Y-49540001D01*
X64322712Y-49540001D01*
X64396569Y-49361692D01*
X64396569Y-49361690D01*
X64404862Y-49320000D01*
X63601988Y-49320000D01*
X63619205Y-49310060D01*
X63675060Y-49254205D01*
X63714556Y-49185796D01*
X63735000Y-49109496D01*
X63735000Y-49030504D01*
X63714556Y-48954204D01*
X63675060Y-48885795D01*
X63619205Y-48829940D01*
X63601988Y-48820000D01*
X64050000Y-48820000D01*
X64421265Y-48820000D01*
X64441818Y-48806000D01*
X64479924Y-48800000D01*
X64572828Y-48800000D01*
X64572844Y-48799999D01*
X64632372Y-48793598D01*
X64632379Y-48793596D01*
X64767086Y-48743354D01*
X64767093Y-48743350D01*
X64882187Y-48657190D01*
X64882190Y-48657187D01*
X64968350Y-48542093D01*
X64968354Y-48542086D01*
X65018596Y-48407379D01*
X65018598Y-48407372D01*
X65024999Y-48347844D01*
X65025000Y-48347827D01*
X65025000Y-48250000D01*
X64050000Y-48250000D01*
X64050000Y-48820000D01*
X63601988Y-48820000D01*
X63550796Y-48790444D01*
X63550000Y-48790230D01*
X63550000Y-48250000D01*
X62858242Y-48250000D01*
X62791203Y-48230315D01*
X62745448Y-48177511D01*
X62735504Y-48108353D01*
X62764529Y-48044797D01*
X62770561Y-48038319D01*
X62791625Y-48017255D01*
X62815515Y-47993365D01*
X62891281Y-47862135D01*
X62891281Y-47862132D01*
X62892608Y-47859835D01*
X62943175Y-47811620D01*
X63011782Y-47798396D01*
X63014248Y-47798656D01*
X63030135Y-47800500D01*
X63706500Y-47800499D01*
X63706510Y-47800500D01*
X63720943Y-47800500D01*
X65979055Y-47800500D01*
X65979057Y-47800500D01*
X66131784Y-47759577D01*
X66268716Y-47680520D01*
X66380520Y-47568716D01*
X66459577Y-47431784D01*
X66500500Y-47279057D01*
X66500500Y-46420943D01*
X66459577Y-46268216D01*
X66449060Y-46250000D01*
X66380524Y-46131290D01*
X66380518Y-46131282D01*
X66268717Y-46019481D01*
X66268709Y-46019475D01*
X66131790Y-45940426D01*
X66131786Y-45940424D01*
X66131784Y-45940423D01*
X65979057Y-45899500D01*
X65820943Y-45899500D01*
X65820941Y-45899500D01*
X65736980Y-45921997D01*
X65667131Y-45920334D01*
X65609268Y-45881171D01*
X65581765Y-45816942D01*
X65590326Y-45754773D01*
X65636330Y-45643709D01*
X65655250Y-45500000D01*
X65636330Y-45356291D01*
X65636327Y-45356284D01*
X65634226Y-45348440D01*
X65635498Y-45348098D01*
X65628925Y-45286988D01*
X65660196Y-45224507D01*
X65663246Y-45221346D01*
X66627821Y-44256771D01*
X66689142Y-44223288D01*
X66758834Y-44228272D01*
X66814767Y-44270144D01*
X66839184Y-44335608D01*
X66839500Y-44344454D01*
X66839500Y-44414269D01*
X66842353Y-44444699D01*
X66842353Y-44444701D01*
X66887206Y-44572880D01*
X66887207Y-44572882D01*
X66967850Y-44682150D01*
X67053321Y-44745230D01*
X67095571Y-44800877D01*
X67101030Y-44870534D01*
X67067962Y-44932083D01*
X67053321Y-44944769D01*
X67027712Y-44963670D01*
X66967850Y-45007850D01*
X66887207Y-45117117D01*
X66887206Y-45117119D01*
X66842353Y-45245298D01*
X66842353Y-45245300D01*
X66839500Y-45275730D01*
X66839500Y-45684269D01*
X66842353Y-45714699D01*
X66842353Y-45714701D01*
X66887206Y-45842880D01*
X66887207Y-45842882D01*
X66967850Y-45952150D01*
X67053321Y-46015230D01*
X67095571Y-46070877D01*
X67101030Y-46140534D01*
X67067962Y-46202083D01*
X67053321Y-46214769D01*
X67005586Y-46250000D01*
X66967850Y-46277850D01*
X66887207Y-46387117D01*
X66887206Y-46387119D01*
X66842353Y-46515298D01*
X66842353Y-46515300D01*
X66839500Y-46545730D01*
X66839500Y-46954269D01*
X66842353Y-46984699D01*
X66842353Y-46984701D01*
X66885171Y-47107064D01*
X66887207Y-47112882D01*
X66967850Y-47222150D01*
X67044957Y-47279057D01*
X67053321Y-47285230D01*
X67095571Y-47340877D01*
X67101030Y-47410534D01*
X67067962Y-47472083D01*
X67053321Y-47484769D01*
X67043595Y-47491948D01*
X66967850Y-47547850D01*
X66887207Y-47657117D01*
X66887206Y-47657119D01*
X66842353Y-47785298D01*
X66842353Y-47785300D01*
X66839500Y-47815730D01*
X66839500Y-48224269D01*
X66842353Y-48254699D01*
X66842353Y-48254701D01*
X66887206Y-48382880D01*
X66887207Y-48382882D01*
X66925013Y-48434108D01*
X66929067Y-48439600D01*
X66953038Y-48505229D01*
X66937723Y-48573400D01*
X66892422Y-48619964D01*
X66888446Y-48622315D01*
X66888438Y-48622321D01*
X66772321Y-48738438D01*
X66772314Y-48738447D01*
X66688718Y-48879801D01*
X66642899Y-49037513D01*
X66642704Y-49039998D01*
X66642705Y-49040000D01*
X69587295Y-49040000D01*
X69587295Y-49039998D01*
X69587100Y-49037513D01*
X69541281Y-48879801D01*
X69457883Y-48738782D01*
X69440700Y-48671058D01*
X69462860Y-48604795D01*
X69517326Y-48561032D01*
X69580800Y-48552722D01*
X69600000Y-48555250D01*
X69743709Y-48536330D01*
X69877625Y-48480861D01*
X69992621Y-48392621D01*
X70080861Y-48277625D01*
X70136330Y-48143709D01*
X70155250Y-48000000D01*
X70154376Y-47993365D01*
X70145978Y-47929574D01*
X70136330Y-47856291D01*
X70080861Y-47722375D01*
X69992621Y-47607379D01*
X69915724Y-47548373D01*
X69874524Y-47491948D01*
X69870369Y-47422202D01*
X69904582Y-47361281D01*
X69915716Y-47351632D01*
X69992621Y-47292621D01*
X70080861Y-47177625D01*
X70136330Y-47043709D01*
X70149994Y-46939921D01*
X70178261Y-46876026D01*
X70236585Y-46837555D01*
X70306450Y-46836724D01*
X70360614Y-46868427D01*
X70563181Y-47070994D01*
X70596666Y-47132317D01*
X70599500Y-47158675D01*
X70599500Y-48434108D01*
X70599500Y-48565892D01*
X70601349Y-48572793D01*
X70633608Y-48693187D01*
X70659933Y-48738782D01*
X70699500Y-48807314D01*
X71489500Y-49597314D01*
X71582686Y-49690500D01*
X71666713Y-49739013D01*
X71693287Y-49754356D01*
X71696814Y-49756392D01*
X71824108Y-49790500D01*
X71915460Y-49790500D01*
X71982499Y-49810185D01*
X71989093Y-49814730D01*
X72027113Y-49842790D01*
X72027115Y-49842791D01*
X72027118Y-49842793D01*
X72069845Y-49857744D01*
X72155299Y-49887646D01*
X72185730Y-49890500D01*
X72185734Y-49890500D01*
X72243745Y-49890500D01*
X72310784Y-49910185D01*
X72356539Y-49962989D01*
X72366483Y-50032147D01*
X72337458Y-50095703D01*
X72331426Y-50102181D01*
X72320426Y-50113181D01*
X72259103Y-50146666D01*
X72232745Y-50149500D01*
X71544960Y-50149500D01*
X71477921Y-50129815D01*
X71445190Y-50099134D01*
X71438144Y-50089587D01*
X71419999Y-50065001D01*
X71313157Y-49986148D01*
X71313155Y-49986147D01*
X71187826Y-49942291D01*
X71187814Y-49942289D01*
X71158070Y-49939500D01*
X71158066Y-49939500D01*
X70771934Y-49939500D01*
X70771930Y-49939500D01*
X70742181Y-49942289D01*
X70742180Y-49942289D01*
X70719571Y-49950201D01*
X70649793Y-49953762D01*
X70590936Y-49920839D01*
X70540383Y-49870285D01*
X70540374Y-49870278D01*
X70401193Y-49787967D01*
X70401190Y-49787965D01*
X70255001Y-49745493D01*
X70255000Y-49745494D01*
X70255000Y-51354503D01*
X70401195Y-51312031D01*
X70540372Y-51229722D01*
X70540380Y-51229716D01*
X70590936Y-51179160D01*
X70652259Y-51145674D01*
X70719569Y-51149797D01*
X70742181Y-51157710D01*
X70742189Y-51157710D01*
X70742190Y-51157711D01*
X70771930Y-51160500D01*
X70771934Y-51160500D01*
X71158070Y-51160500D01*
X71171289Y-51159260D01*
X71187819Y-51157710D01*
X71187823Y-51157708D01*
X71187826Y-51157708D01*
X71236836Y-51140557D01*
X71313157Y-51113852D01*
X71419999Y-51034999D01*
X71445190Y-51000865D01*
X71500838Y-50958615D01*
X71544960Y-50950500D01*
X72502725Y-50950500D01*
X72502727Y-50950500D01*
X72604588Y-50923207D01*
X72695913Y-50870480D01*
X73385480Y-50180913D01*
X73430936Y-50102181D01*
X73438206Y-50089588D01*
X73438207Y-50089587D01*
X73465500Y-49987727D01*
X73465500Y-49987725D01*
X73466925Y-49982407D01*
X73503289Y-49922747D01*
X73566136Y-49892217D01*
X73586700Y-49890500D01*
X73944270Y-49890500D01*
X73974699Y-49887646D01*
X73974701Y-49887646D01*
X74038790Y-49865219D01*
X74102882Y-49842793D01*
X74212150Y-49762150D01*
X74227858Y-49740865D01*
X74283506Y-49698615D01*
X74327628Y-49690500D01*
X75767868Y-49690500D01*
X75834907Y-49710185D01*
X75866243Y-49739013D01*
X75907375Y-49792617D01*
X75907377Y-49792618D01*
X75907379Y-49792621D01*
X76022375Y-49880861D01*
X76022376Y-49880861D01*
X76022377Y-49880862D01*
X76045646Y-49890500D01*
X76156291Y-49936330D01*
X76283280Y-49953048D01*
X76299999Y-49955250D01*
X76300000Y-49955250D01*
X76300001Y-49955250D01*
X76314977Y-49953278D01*
X76443709Y-49936330D01*
X76577625Y-49880861D01*
X76692621Y-49792621D01*
X76780861Y-49677625D01*
X76806607Y-49615467D01*
X76850446Y-49561066D01*
X76916740Y-49539001D01*
X76984439Y-49556280D01*
X77008848Y-49575241D01*
X77063181Y-49629574D01*
X77096666Y-49690897D01*
X77099500Y-49717255D01*
X77099500Y-52282745D01*
X77079815Y-52349784D01*
X77063181Y-52370426D01*
X76870426Y-52563181D01*
X76809103Y-52596666D01*
X76782745Y-52599500D01*
X74797273Y-52599500D01*
X74695410Y-52626793D01*
X74604087Y-52679520D01*
X74604084Y-52679522D01*
X74412180Y-52871426D01*
X74350857Y-52904911D01*
X74281165Y-52899927D01*
X74225232Y-52858055D01*
X74200815Y-52792591D01*
X74200499Y-52783745D01*
X74200499Y-51905143D01*
X74200499Y-51905136D01*
X74200497Y-51905117D01*
X74197586Y-51880012D01*
X74197585Y-51880010D01*
X74197585Y-51880009D01*
X74152206Y-51777235D01*
X74072765Y-51697794D01*
X73969992Y-51652415D01*
X73944865Y-51649500D01*
X72955143Y-51649500D01*
X72955117Y-51649502D01*
X72930012Y-51652413D01*
X72930010Y-51652414D01*
X72865085Y-51681081D01*
X72795807Y-51690152D01*
X72764915Y-51681081D01*
X72699992Y-51652415D01*
X72674865Y-51649500D01*
X71685143Y-51649500D01*
X71685117Y-51649502D01*
X71660012Y-51652413D01*
X71660010Y-51652414D01*
X71595085Y-51681081D01*
X71525807Y-51690152D01*
X71494915Y-51681081D01*
X71429992Y-51652415D01*
X71404865Y-51649500D01*
X70415143Y-51649500D01*
X70415117Y-51649502D01*
X70390012Y-51652413D01*
X70390010Y-51652414D01*
X70325085Y-51681081D01*
X70255807Y-51690152D01*
X70224915Y-51681081D01*
X70159992Y-51652415D01*
X70134865Y-51649500D01*
X69145143Y-51649500D01*
X69145117Y-51649502D01*
X69120012Y-51652413D01*
X69120010Y-51652414D01*
X69055085Y-51681081D01*
X68985807Y-51690152D01*
X68954915Y-51681081D01*
X68889992Y-51652415D01*
X68864865Y-51649500D01*
X67875143Y-51649500D01*
X67875117Y-51649502D01*
X67850012Y-51652413D01*
X67850010Y-51652414D01*
X67785085Y-51681081D01*
X67715807Y-51690152D01*
X67684915Y-51681081D01*
X67619992Y-51652415D01*
X67594865Y-51649500D01*
X66605143Y-51649500D01*
X66605117Y-51649502D01*
X66580012Y-51652413D01*
X66580010Y-51652414D01*
X66515085Y-51681081D01*
X66445807Y-51690152D01*
X66414915Y-51681081D01*
X66349992Y-51652415D01*
X66324865Y-51649500D01*
X65335143Y-51649500D01*
X65335117Y-51649502D01*
X65310012Y-51652413D01*
X65310010Y-51652414D01*
X65245085Y-51681081D01*
X65175807Y-51690152D01*
X65144915Y-51681081D01*
X65079992Y-51652415D01*
X65054865Y-51649500D01*
X64065143Y-51649500D01*
X64065117Y-51649502D01*
X64040012Y-51652413D01*
X64040010Y-51652414D01*
X63975085Y-51681081D01*
X63905807Y-51690152D01*
X63874915Y-51681081D01*
X63809992Y-51652415D01*
X63784868Y-51649500D01*
X62931696Y-51649500D01*
X62864657Y-51629815D01*
X62832428Y-51599810D01*
X62827189Y-51592811D01*
X62827185Y-51592808D01*
X62712093Y-51506649D01*
X62712086Y-51506645D01*
X62577379Y-51456403D01*
X62577372Y-51456401D01*
X62517844Y-51450000D01*
X62270000Y-51450000D01*
X62270000Y-53950000D01*
X62517828Y-53950000D01*
X62517844Y-53949999D01*
X62577372Y-53943598D01*
X62577379Y-53943596D01*
X62712086Y-53893354D01*
X62712088Y-53893352D01*
X62827188Y-53807189D01*
X62832429Y-53800189D01*
X62888363Y-53758317D01*
X62931692Y-53750499D01*
X63784864Y-53750499D01*
X63784879Y-53750497D01*
X63784882Y-53750497D01*
X63809987Y-53747586D01*
X63809987Y-53747585D01*
X63809991Y-53747585D01*
X63874914Y-53718918D01*
X63944190Y-53709847D01*
X63975085Y-53718919D01*
X64040004Y-53747583D01*
X64040009Y-53747585D01*
X64065135Y-53750500D01*
X65054864Y-53750499D01*
X65054879Y-53750497D01*
X65054882Y-53750497D01*
X65079987Y-53747586D01*
X65079987Y-53747585D01*
X65079991Y-53747585D01*
X65144914Y-53718918D01*
X65214190Y-53709847D01*
X65245085Y-53718919D01*
X65310004Y-53747583D01*
X65310009Y-53747585D01*
X65335135Y-53750500D01*
X66324864Y-53750499D01*
X66324879Y-53750497D01*
X66324882Y-53750497D01*
X66349987Y-53747586D01*
X66349987Y-53747585D01*
X66349991Y-53747585D01*
X66414914Y-53718918D01*
X66484190Y-53709847D01*
X66515085Y-53718919D01*
X66580004Y-53747583D01*
X66580009Y-53747585D01*
X66605135Y-53750500D01*
X67594864Y-53750499D01*
X67594879Y-53750497D01*
X67594882Y-53750497D01*
X67619987Y-53747586D01*
X67619987Y-53747585D01*
X67619991Y-53747585D01*
X67684914Y-53718918D01*
X67754190Y-53709847D01*
X67785085Y-53718919D01*
X67850004Y-53747583D01*
X67850009Y-53747585D01*
X67875135Y-53750500D01*
X68864864Y-53750499D01*
X68864879Y-53750497D01*
X68864882Y-53750497D01*
X68889987Y-53747586D01*
X68889987Y-53747585D01*
X68889991Y-53747585D01*
X68954914Y-53718918D01*
X69024190Y-53709847D01*
X69055085Y-53718919D01*
X69120004Y-53747583D01*
X69120009Y-53747585D01*
X69145135Y-53750500D01*
X70134864Y-53750499D01*
X70134879Y-53750497D01*
X70134882Y-53750497D01*
X70159987Y-53747586D01*
X70159987Y-53747585D01*
X70159991Y-53747585D01*
X70224914Y-53718918D01*
X70294190Y-53709847D01*
X70325085Y-53718919D01*
X70390004Y-53747583D01*
X70390009Y-53747585D01*
X70415135Y-53750500D01*
X71404864Y-53750499D01*
X71404879Y-53750497D01*
X71404882Y-53750497D01*
X71429987Y-53747586D01*
X71429987Y-53747585D01*
X71429991Y-53747585D01*
X71494914Y-53718918D01*
X71564190Y-53709847D01*
X71595085Y-53718919D01*
X71660004Y-53747583D01*
X71660009Y-53747585D01*
X71685135Y-53750500D01*
X72674864Y-53750499D01*
X72674879Y-53750497D01*
X72674882Y-53750497D01*
X72699987Y-53747586D01*
X72699987Y-53747585D01*
X72699991Y-53747585D01*
X72764914Y-53718918D01*
X72834190Y-53709847D01*
X72865085Y-53718919D01*
X72930004Y-53747583D01*
X72930009Y-53747585D01*
X72955135Y-53750500D01*
X73233745Y-53750499D01*
X73300783Y-53770183D01*
X73346538Y-53822987D01*
X73356482Y-53892146D01*
X73327457Y-53955701D01*
X73321426Y-53962180D01*
X73020424Y-54263182D01*
X72959103Y-54296666D01*
X72932745Y-54299500D01*
X64047273Y-54299500D01*
X63945413Y-54326793D01*
X63945410Y-54326794D01*
X63854085Y-54379521D01*
X60879522Y-57354084D01*
X60879518Y-57354090D01*
X60826792Y-57445412D01*
X60826793Y-57445413D01*
X60799500Y-57547273D01*
X60799500Y-66775553D01*
X60779815Y-66842592D01*
X60773876Y-66851039D01*
X60719139Y-66922374D01*
X60719138Y-66922376D01*
X60663671Y-67056287D01*
X60663670Y-67056291D01*
X60651933Y-67145437D01*
X60623666Y-67209333D01*
X60616675Y-67216931D01*
X60350426Y-67483181D01*
X60289103Y-67516666D01*
X60262745Y-67519500D01*
X60151893Y-67519500D01*
X60084854Y-67499815D01*
X60039099Y-67447011D01*
X60028718Y-67409783D01*
X60027585Y-67400009D01*
X59998919Y-67335086D01*
X59989847Y-67265808D01*
X59998919Y-67234913D01*
X60020001Y-67187168D01*
X60027585Y-67169991D01*
X60030500Y-67144865D01*
X60030499Y-66155136D01*
X60030497Y-66155117D01*
X60027586Y-66130012D01*
X60027585Y-66130010D01*
X60027585Y-66130009D01*
X59998919Y-66065086D01*
X59989847Y-65995808D01*
X59998919Y-65964913D01*
X60003478Y-65954589D01*
X60027585Y-65899991D01*
X60030500Y-65874865D01*
X60030499Y-64885136D01*
X60030146Y-64882093D01*
X60027586Y-64860012D01*
X60027585Y-64860010D01*
X60027585Y-64860009D01*
X60001088Y-64799999D01*
X59998919Y-64795086D01*
X59989847Y-64725808D01*
X59998919Y-64694913D01*
X60027584Y-64629993D01*
X60027585Y-64629991D01*
X60030500Y-64604865D01*
X60030499Y-63615136D01*
X60028744Y-63599999D01*
X60027586Y-63590012D01*
X60027585Y-63590010D01*
X60027585Y-63590009D01*
X60005504Y-63540000D01*
X59998919Y-63525086D01*
X59989847Y-63455808D01*
X59998919Y-63424913D01*
X60003607Y-63414297D01*
X60027585Y-63359991D01*
X60030500Y-63334865D01*
X60030499Y-62345136D01*
X60028960Y-62331865D01*
X60027586Y-62320012D01*
X60027585Y-62320010D01*
X60027585Y-62320009D01*
X59998919Y-62255086D01*
X59989847Y-62185808D01*
X59998919Y-62154913D01*
X60027584Y-62089993D01*
X60027585Y-62089991D01*
X60030500Y-62064865D01*
X60030499Y-61075136D01*
X60029915Y-61070100D01*
X60027586Y-61050012D01*
X60027585Y-61050010D01*
X60027585Y-61050009D01*
X60001309Y-60990500D01*
X59998919Y-60985086D01*
X59989847Y-60915808D01*
X59998919Y-60884913D01*
X60003607Y-60874297D01*
X60027585Y-60819991D01*
X60030500Y-60794865D01*
X60030499Y-59805136D01*
X60028960Y-59791865D01*
X60027586Y-59780012D01*
X60027585Y-59780010D01*
X60027585Y-59780009D01*
X59998919Y-59715086D01*
X59989847Y-59645808D01*
X59998919Y-59614913D01*
X60027584Y-59549993D01*
X60027585Y-59549991D01*
X60030500Y-59524865D01*
X60030499Y-58535136D01*
X60029915Y-58530100D01*
X60027586Y-58510012D01*
X60027585Y-58510010D01*
X60027585Y-58510009D01*
X60001309Y-58450500D01*
X59998919Y-58445086D01*
X59989847Y-58375808D01*
X59998919Y-58344913D01*
X60003607Y-58334297D01*
X60027585Y-58279991D01*
X60030500Y-58254865D01*
X60030499Y-57265136D01*
X60028960Y-57251865D01*
X60027586Y-57240012D01*
X60027585Y-57240010D01*
X60027585Y-57240009D01*
X59998919Y-57175086D01*
X59989847Y-57105808D01*
X59998919Y-57074913D01*
X60027584Y-57009993D01*
X60027585Y-57009991D01*
X60030500Y-56984865D01*
X60030499Y-55995136D01*
X60029424Y-55985866D01*
X60027586Y-55970012D01*
X60027585Y-55970010D01*
X60027585Y-55970009D01*
X60001309Y-55910500D01*
X59998919Y-55905086D01*
X59989847Y-55835808D01*
X59998919Y-55804913D01*
X60003607Y-55794297D01*
X60027585Y-55739991D01*
X60030500Y-55714865D01*
X60030499Y-54725136D01*
X60028960Y-54711865D01*
X60027586Y-54700012D01*
X60027585Y-54700010D01*
X60027585Y-54700009D01*
X59998919Y-54635086D01*
X59989847Y-54565808D01*
X59998919Y-54534913D01*
X60027584Y-54469993D01*
X60027585Y-54469991D01*
X60030500Y-54444865D01*
X60030499Y-53497844D01*
X61070000Y-53497844D01*
X61076401Y-53557372D01*
X61076403Y-53557379D01*
X61126645Y-53692086D01*
X61126649Y-53692093D01*
X61212809Y-53807187D01*
X61212812Y-53807190D01*
X61327906Y-53893350D01*
X61327913Y-53893354D01*
X61462620Y-53943596D01*
X61462627Y-53943598D01*
X61522155Y-53949999D01*
X61522172Y-53950000D01*
X61770000Y-53950000D01*
X61770000Y-52950000D01*
X61070000Y-52950000D01*
X61070000Y-53497844D01*
X60030499Y-53497844D01*
X60030499Y-53455136D01*
X60028375Y-53436819D01*
X60027586Y-53430012D01*
X60027585Y-53430010D01*
X60027585Y-53430009D01*
X59982206Y-53327235D01*
X59902765Y-53247794D01*
X59844379Y-53222014D01*
X59799992Y-53202415D01*
X59774865Y-53199500D01*
X58185143Y-53199500D01*
X58185117Y-53199502D01*
X58160012Y-53202413D01*
X58160008Y-53202415D01*
X58057235Y-53247793D01*
X57977794Y-53327234D01*
X57932415Y-53430006D01*
X57932415Y-53430008D01*
X57929500Y-53455131D01*
X57929500Y-54444856D01*
X57929502Y-54444882D01*
X57932413Y-54469987D01*
X57932414Y-54469988D01*
X57961081Y-54534914D01*
X57970152Y-54604192D01*
X57961081Y-54635084D01*
X57932415Y-54700006D01*
X57932415Y-54700008D01*
X57929500Y-54725131D01*
X57929500Y-55714856D01*
X57929502Y-55714882D01*
X57932413Y-55739987D01*
X57932414Y-55739988D01*
X57932414Y-55739990D01*
X57932415Y-55739991D01*
X57938040Y-55752730D01*
X57961081Y-55804914D01*
X57970152Y-55874192D01*
X57961081Y-55905084D01*
X57932415Y-55970006D01*
X57932415Y-55970008D01*
X57929500Y-55995131D01*
X57929500Y-56984856D01*
X57929502Y-56984882D01*
X57932413Y-57009987D01*
X57932414Y-57009988D01*
X57961081Y-57074914D01*
X57970152Y-57144192D01*
X57961081Y-57175084D01*
X57932415Y-57240006D01*
X57932415Y-57240008D01*
X57929500Y-57265131D01*
X57929500Y-58254856D01*
X57929502Y-58254882D01*
X57932413Y-58279987D01*
X57932414Y-58279988D01*
X57961081Y-58344914D01*
X57970152Y-58414192D01*
X57961081Y-58445084D01*
X57932415Y-58510006D01*
X57932415Y-58510008D01*
X57929500Y-58535131D01*
X57929500Y-59524856D01*
X57929502Y-59524882D01*
X57932413Y-59549987D01*
X57932414Y-59549988D01*
X57961081Y-59614914D01*
X57970152Y-59684192D01*
X57961081Y-59715084D01*
X57932415Y-59780006D01*
X57932415Y-59780008D01*
X57929500Y-59805131D01*
X57929500Y-60794856D01*
X57929502Y-60794882D01*
X57932413Y-60819987D01*
X57932414Y-60819988D01*
X57961081Y-60884914D01*
X57970152Y-60954192D01*
X57961081Y-60985084D01*
X57932415Y-61050006D01*
X57932415Y-61050008D01*
X57929500Y-61075131D01*
X57929500Y-62064856D01*
X57929502Y-62064882D01*
X57932413Y-62089987D01*
X57932414Y-62089988D01*
X57961081Y-62154914D01*
X57970152Y-62224192D01*
X57961081Y-62255084D01*
X57932415Y-62320006D01*
X57932415Y-62320008D01*
X57929500Y-62345131D01*
X57929500Y-63334856D01*
X57929502Y-63334882D01*
X57932413Y-63359987D01*
X57932414Y-63359988D01*
X57932414Y-63359990D01*
X57932415Y-63359991D01*
X57942731Y-63383355D01*
X57961081Y-63424914D01*
X57970152Y-63494192D01*
X57961081Y-63525084D01*
X57932415Y-63590006D01*
X57932415Y-63590008D01*
X57929500Y-63615131D01*
X57929500Y-64604856D01*
X57929502Y-64604882D01*
X57932413Y-64629987D01*
X57932414Y-64629988D01*
X57961081Y-64694914D01*
X57970152Y-64764192D01*
X57961081Y-64795084D01*
X57932415Y-64860006D01*
X57932415Y-64860008D01*
X57929500Y-64885131D01*
X57929500Y-65874856D01*
X57929502Y-65874882D01*
X57932413Y-65899987D01*
X57932414Y-65899988D01*
X57961081Y-65964914D01*
X57970152Y-66034192D01*
X57961081Y-66065084D01*
X57932415Y-66130006D01*
X57932415Y-66130008D01*
X57929500Y-66155131D01*
X57929500Y-67144856D01*
X57929502Y-67144882D01*
X57932413Y-67169987D01*
X57932414Y-67169988D01*
X57932414Y-67169990D01*
X57932415Y-67169991D01*
X57945665Y-67199999D01*
X57961081Y-67234914D01*
X57970152Y-67304192D01*
X57961081Y-67335084D01*
X57932415Y-67400006D01*
X57932415Y-67400008D01*
X57929500Y-67425131D01*
X57929500Y-68414856D01*
X57929502Y-68414882D01*
X57932413Y-68439987D01*
X57932414Y-68439988D01*
X57932414Y-68439990D01*
X57932415Y-68439991D01*
X57949900Y-68479591D01*
X57961081Y-68504914D01*
X57970152Y-68574192D01*
X57961081Y-68605084D01*
X57932415Y-68670006D01*
X57932415Y-68670008D01*
X57929500Y-68695131D01*
X57929500Y-69548303D01*
X57909815Y-69615342D01*
X57879815Y-69647566D01*
X57872818Y-69652804D01*
X57872808Y-69652814D01*
X57786649Y-69767906D01*
X57786645Y-69767913D01*
X57740682Y-69891148D01*
X57698811Y-69947082D01*
X57633346Y-69971499D01*
X57565073Y-69956647D01*
X57515668Y-69907242D01*
X57500500Y-69847815D01*
X57500500Y-51902155D01*
X61070000Y-51902155D01*
X61070000Y-52450000D01*
X61770000Y-52450000D01*
X61770000Y-51450000D01*
X61522155Y-51450000D01*
X61462627Y-51456401D01*
X61462620Y-51456403D01*
X61327913Y-51506645D01*
X61327906Y-51506649D01*
X61212812Y-51592809D01*
X61212809Y-51592812D01*
X61126649Y-51707906D01*
X61126645Y-51707913D01*
X61076403Y-51842620D01*
X61076401Y-51842627D01*
X61070000Y-51902155D01*
X57500500Y-51902155D01*
X57500500Y-50800000D01*
X69226210Y-50800000D01*
X69227854Y-50820910D01*
X69272968Y-50976195D01*
X69355278Y-51115374D01*
X69355285Y-51115383D01*
X69469616Y-51229714D01*
X69469625Y-51229721D01*
X69608804Y-51312031D01*
X69755000Y-51354504D01*
X69755000Y-50800000D01*
X69226210Y-50800000D01*
X57500500Y-50800000D01*
X57500500Y-49879077D01*
X57520185Y-49812038D01*
X57572989Y-49766283D01*
X57642147Y-49756339D01*
X57705703Y-49785364D01*
X57712181Y-49791396D01*
X57767533Y-49846748D01*
X57767537Y-49846751D01*
X57931315Y-49956185D01*
X57931328Y-49956192D01*
X58113306Y-50031569D01*
X58113318Y-50031572D01*
X58306504Y-50069999D01*
X58306508Y-50070000D01*
X58455000Y-50070000D01*
X58455000Y-49370000D01*
X58955000Y-49370000D01*
X58955000Y-50070000D01*
X59103492Y-50070000D01*
X59103495Y-50069999D01*
X59296681Y-50031572D01*
X59296693Y-50031569D01*
X59478671Y-49956192D01*
X59478684Y-49956185D01*
X59642462Y-49846751D01*
X59642466Y-49846748D01*
X59781748Y-49707466D01*
X59781751Y-49707462D01*
X59891185Y-49543684D01*
X59891192Y-49543671D01*
X59966569Y-49361692D01*
X59966569Y-49361690D01*
X59974862Y-49320000D01*
X59171988Y-49320000D01*
X59189205Y-49310060D01*
X59245060Y-49254205D01*
X59284556Y-49185796D01*
X59305000Y-49109496D01*
X59305000Y-49030504D01*
X59284556Y-48954204D01*
X59245060Y-48885795D01*
X59189205Y-48829940D01*
X59171988Y-48820000D01*
X59974862Y-48820000D01*
X59966569Y-48778309D01*
X59966569Y-48778307D01*
X59891192Y-48596328D01*
X59891185Y-48596315D01*
X59781751Y-48432537D01*
X59781748Y-48432533D01*
X59642466Y-48293251D01*
X59642462Y-48293248D01*
X59478684Y-48183814D01*
X59478671Y-48183807D01*
X59296693Y-48108430D01*
X59296681Y-48108427D01*
X59103495Y-48070000D01*
X58955000Y-48070000D01*
X58955000Y-48770000D01*
X58455000Y-48770000D01*
X58455000Y-48070000D01*
X58306504Y-48070000D01*
X58113318Y-48108427D01*
X58113306Y-48108430D01*
X57931328Y-48183807D01*
X57931315Y-48183814D01*
X57767537Y-48293248D01*
X57767533Y-48293251D01*
X57712181Y-48348604D01*
X57650858Y-48382089D01*
X57581166Y-48377105D01*
X57525233Y-48335233D01*
X57500816Y-48269769D01*
X57500500Y-48260923D01*
X57500500Y-41239077D01*
X57520185Y-41172038D01*
X57572989Y-41126283D01*
X57642147Y-41116339D01*
X57705703Y-41145364D01*
X57712181Y-41151396D01*
X57767533Y-41206748D01*
X57767537Y-41206751D01*
X57931315Y-41316185D01*
X57931328Y-41316192D01*
X58113306Y-41391569D01*
X58113318Y-41391572D01*
X58306504Y-41429999D01*
X58306508Y-41430000D01*
X58455000Y-41430000D01*
X58455000Y-40730000D01*
X58955000Y-40730000D01*
X58955000Y-41430000D01*
X59103492Y-41430000D01*
X59103495Y-41429999D01*
X59296681Y-41391572D01*
X59296693Y-41391569D01*
X59478671Y-41316192D01*
X59478684Y-41316185D01*
X59642462Y-41206751D01*
X59642466Y-41206748D01*
X59781748Y-41067466D01*
X59781751Y-41067462D01*
X59891185Y-40903684D01*
X59891192Y-40903671D01*
X59966569Y-40721692D01*
X59966569Y-40721690D01*
X59974862Y-40680000D01*
X59171988Y-40680000D01*
X59189205Y-40670060D01*
X59245060Y-40614205D01*
X59284556Y-40545796D01*
X59305000Y-40469496D01*
X59305000Y-40390504D01*
X59284556Y-40314204D01*
X59245060Y-40245795D01*
X59189205Y-40189940D01*
X59171988Y-40180000D01*
X59974862Y-40180000D01*
X59966569Y-40138309D01*
X59966569Y-40138307D01*
X59891192Y-39956328D01*
X59891185Y-39956315D01*
X59781751Y-39792537D01*
X59781748Y-39792533D01*
X59642466Y-39653251D01*
X59642462Y-39653248D01*
X59478684Y-39543814D01*
X59478671Y-39543807D01*
X59296693Y-39468430D01*
X59296681Y-39468427D01*
X59103495Y-39430000D01*
X58955000Y-39430000D01*
X58955000Y-40130000D01*
X58455000Y-40130000D01*
X58455000Y-39430000D01*
X58306504Y-39430000D01*
X58113318Y-39468427D01*
X58113306Y-39468430D01*
X57931328Y-39543807D01*
X57931315Y-39543814D01*
X57767537Y-39653248D01*
X57767533Y-39653251D01*
X57712181Y-39708604D01*
X57650858Y-39742089D01*
X57581166Y-39737105D01*
X57525233Y-39695233D01*
X57500816Y-39629769D01*
X57500500Y-39620923D01*
X57500500Y-38230106D01*
X57500501Y-38230103D01*
X57500500Y-38168635D01*
X57500816Y-38159790D01*
X57505215Y-38098271D01*
X57515128Y-37959646D01*
X57517646Y-37942141D01*
X57559354Y-37750408D01*
X57564335Y-37733447D01*
X57632908Y-37549591D01*
X57640250Y-37533516D01*
X57734298Y-37361278D01*
X57743842Y-37346427D01*
X57861437Y-37189337D01*
X57873010Y-37175980D01*
X58011769Y-37037220D01*
X58025125Y-37025647D01*
X58182213Y-36908051D01*
X58197086Y-36898493D01*
X58369307Y-36804453D01*
X58385376Y-36797114D01*
X58569246Y-36728534D01*
X58586197Y-36723557D01*
X58777936Y-36681847D01*
X58795437Y-36679330D01*
X58995386Y-36665030D01*
X59004232Y-36664714D01*
X59065892Y-36664714D01*
X79834108Y-36664714D01*
X79895572Y-36664714D01*
X79904418Y-36665030D01*
G37*
%TD.AperFunction*%
%TA.AperFunction,Conductor*%
G36*
X79592820Y-63456085D02*
G01*
X79594261Y-63456632D01*
X79683802Y-63491321D01*
X79880613Y-63528111D01*
X79942893Y-63559779D01*
X79978166Y-63620092D01*
X79975232Y-63689900D01*
X79935023Y-63747040D01*
X79880613Y-63771888D01*
X79683802Y-63808679D01*
X79683799Y-63808679D01*
X79683799Y-63808680D01*
X79484982Y-63885701D01*
X79484980Y-63885702D01*
X79303696Y-63997949D01*
X79250330Y-64046598D01*
X79187526Y-64077214D01*
X79140391Y-64071645D01*
X79147062Y-64089529D01*
X79132210Y-64157802D01*
X79122332Y-64173102D01*
X79017633Y-64311746D01*
X78922596Y-64502605D01*
X78922596Y-64502607D01*
X78864244Y-64707689D01*
X78862076Y-64731082D01*
X78836288Y-64796018D01*
X78826286Y-64807319D01*
X77779522Y-65854084D01*
X77779518Y-65854090D01*
X77761884Y-65884631D01*
X77711315Y-65932845D01*
X77642708Y-65946065D01*
X77577844Y-65920095D01*
X77537317Y-65863179D01*
X77530499Y-65822632D01*
X77530499Y-64885136D01*
X77530146Y-64882093D01*
X77527586Y-64860012D01*
X77527585Y-64860010D01*
X77527585Y-64860009D01*
X77501088Y-64799999D01*
X77498919Y-64795086D01*
X77489847Y-64725808D01*
X77498919Y-64694913D01*
X77527584Y-64629993D01*
X77527585Y-64629991D01*
X77528720Y-64620208D01*
X77556001Y-64555884D01*
X77613727Y-64516520D01*
X77651894Y-64510500D01*
X78322725Y-64510500D01*
X78322727Y-64510500D01*
X78424588Y-64483207D01*
X78515913Y-64430480D01*
X78935700Y-64010692D01*
X78997020Y-63977209D01*
X79050196Y-63981011D01*
X79042832Y-63958083D01*
X79060822Y-63890569D01*
X79079106Y-63867285D01*
X79461807Y-63484584D01*
X79523128Y-63451101D01*
X79592820Y-63456085D01*
G37*
%TD.AperFunction*%
%TD*%
M02*
